<svg width="25" height="25" viewBox="0 0 25 25" fill="none" xmlns="http://www.w3.org/2000/svg">
<path d="M5.22807 2.59606C5.22817 1.97735 5.47399 1.384 5.91149 0.946499C6.34899 0.509001 6.94234 0.263176 7.56105 0.263082L22.4103 0.263083C23.029 0.263177 23.6224 0.509002 24.0599 0.9465C24.4974 1.384 24.7432 1.97735 24.7433 2.59606L24.7433 17.4453C24.7326 18.057 24.4822 18.6401 24.0458 19.0689C23.6095 19.4978 23.0221 19.7381 22.4103 19.7381C21.7985 19.7381 21.2111 19.4978 20.7748 19.0689C20.3384 18.6401 20.0879 18.057 20.0773 17.4453L19.9354 8.37077L4.26122 24.045C3.82364 24.4826 3.23015 24.7284 2.61131 24.7284C1.99247 24.7284 1.39898 24.4826 0.961392 24.045C0.523807 23.6074 0.277975 23.0139 0.277975 22.3951C0.277975 21.7762 0.523807 21.1827 0.961392 20.7451L16.6356 5.07094L7.56105 4.92904C6.94234 4.92895 6.34899 4.68312 5.91149 4.24563C5.47399 3.80813 5.22817 3.21478 5.22807 2.59606Z" fill="#FFFDF1"/>
</svg>
