<svg width="1280" height="832" viewBox="0 0 1280 832" fill="none" xmlns="http://www.w3.org/2000/svg">
<g clip-path="url(#clip0_1_2)">
<g clip-path="url(#clip1_1_2)">
<path d="M794.577 192.209L789.767 187.398C789.354 186.985 789.384 186.307 789.822 185.92C794.58 181.722 796.517 178.593 796.954 177.379C796.987 177.287 797 177.191 797 177.094V175.11C797 174.558 797.448 174.11 798 174.11H805.043C805.596 174.11 806.043 174.337 806.043 174.889V177.936C806.043 181.592 799.711 188.599 795.961 192.226C795.573 192.601 794.958 192.59 794.577 192.209Z" fill="#131010"/>
<path d="M807.423 182.336L812.233 187.146C812.646 187.559 812.616 188.238 812.178 188.624C807.42 192.823 805.483 195.952 805.046 197.166C805.013 197.258 805 197.354 805 197.451L805 199.435C805 199.987 804.552 200.435 804 200.435L796.957 200.435C796.404 200.435 795.957 200.208 795.957 199.656L795.957 196.609C795.957 192.952 802.289 185.946 806.039 182.319C806.427 181.944 807.042 181.955 807.423 182.336Z" fill="#131010"/>
<path d="M838.225 191.035C838.225 192.324 837.759 193.34 836.828 194.082C835.904 194.824 834.615 195.195 832.961 195.195C831.438 195.195 830.09 194.909 828.918 194.336V191.523C829.882 191.953 830.695 192.256 831.359 192.432C832.03 192.607 832.642 192.695 833.195 192.695C833.859 192.695 834.367 192.568 834.719 192.314C835.077 192.061 835.256 191.683 835.256 191.182C835.256 190.902 835.178 190.654 835.021 190.439C834.865 190.218 834.634 190.007 834.328 189.805C834.029 189.603 833.413 189.281 832.482 188.838C831.61 188.428 830.956 188.034 830.52 187.656C830.083 187.279 829.735 186.839 829.475 186.338C829.214 185.837 829.084 185.251 829.084 184.58C829.084 183.317 829.51 182.324 830.363 181.602C831.223 180.879 832.408 180.518 833.918 180.518C834.66 180.518 835.367 180.605 836.037 180.781C836.714 180.957 837.421 181.204 838.156 181.523L837.18 183.877C836.418 183.564 835.786 183.346 835.285 183.223C834.79 183.099 834.302 183.037 833.82 183.037C833.247 183.037 832.808 183.171 832.502 183.438C832.196 183.704 832.043 184.053 832.043 184.482C832.043 184.749 832.105 184.984 832.229 185.186C832.352 185.381 832.548 185.573 832.814 185.762C833.088 185.944 833.729 186.276 834.738 186.758C836.073 187.396 836.988 188.037 837.482 188.682C837.977 189.32 838.225 190.104 838.225 191.035ZM846.857 195L843.42 183.799H843.332C843.456 186.077 843.518 187.598 843.518 188.359V195H840.812V180.723H844.934L848.312 191.641H848.371L851.955 180.723H856.076V195H853.254V188.242C853.254 187.923 853.257 187.555 853.264 187.139C853.277 186.722 853.322 185.615 853.4 183.818H853.312L849.631 195H846.857ZM865.744 183.037C864.605 183.037 863.723 183.467 863.098 184.326C862.473 185.179 862.16 186.37 862.16 187.9C862.16 191.084 863.355 192.676 865.744 192.676C866.747 192.676 867.961 192.425 869.387 191.924V194.463C868.215 194.951 866.906 195.195 865.461 195.195C863.384 195.195 861.796 194.567 860.695 193.311C859.595 192.048 859.045 190.238 859.045 187.881C859.045 186.396 859.315 185.098 859.855 183.984C860.396 182.865 861.171 182.008 862.18 181.416C863.195 180.817 864.383 180.518 865.744 180.518C867.131 180.518 868.524 180.853 869.924 181.523L868.947 183.984C868.413 183.73 867.876 183.509 867.336 183.32C866.796 183.132 866.265 183.037 865.744 183.037Z" fill="black"/>
<g clip-path="url(#clip2_1_2)">
<rect x="779" y="231" width="175" height="12" rx="6" fill="#D9D9D9"/>
<rect x="778" y="231" width="176" height="12" rx="6" fill="#131010"/>
</g>
<g clip-path="url(#clip3_1_2)">
<rect x="974" y="231" width="175" height="12" rx="6" fill="#D9D9D9"/>
</g>
<g clip-path="url(#clip4_1_2)">
<rect x="1169" y="231" width="175" height="12" rx="6" fill="#D9D9D9"/>
</g>
</g>
<path d="M759 169C759 166.239 761.239 164 764 164H891.315C893.649 164 895.672 165.614 896.19 167.89L902.711 196.53C903.23 198.806 905.253 200.42 907.587 200.42H1293C1295.76 200.42 1298 202.659 1298 205.42V812C1298 814.761 1295.76 817 1293 817H764C761.239 817 759 814.761 759 812V169Z" fill="#131010"/>
<g clip-path="url(#clip5_1_2)">
<rect x="779" y="144" width="539" height="653" rx="5" fill="#FFFDF1"/>
<rect x="799" y="242" width="499" height="535" rx="19" fill="#2D2D2D"/>
<g clip-path="url(#clip6_1_2)">
<rect x="799" y="210" width="175" height="12" rx="6" fill="#D9D9D9"/>
<rect x="798" y="210" width="176" height="12" rx="6" fill="#131010"/>
</g>
<g clip-path="url(#clip7_1_2)">
<rect x="994" y="210" width="175" height="12" rx="6" fill="#D9D9D9"/>
</g>
<g clip-path="url(#clip8_1_2)">
<rect x="1189" y="210" width="175" height="12" rx="6" fill="#D9D9D9"/>
</g>
<path d="M814.577 175.209L809.767 170.398C809.354 169.985 809.384 169.307 809.822 168.92C814.58 164.722 816.517 161.593 816.954 160.379C816.987 160.287 817 160.191 817 160.094V158.11C817 157.558 817.448 157.11 818 157.11H825.043C825.596 157.11 826.043 157.337 826.043 157.889V160.936C826.043 164.592 819.711 171.599 815.961 175.226C815.573 175.601 814.958 175.59 814.577 175.209Z" fill="#131010"/>
<path d="M827.423 165.336L832.233 170.146C832.646 170.559 832.616 171.238 832.178 171.624C827.42 175.823 825.483 178.952 825.046 180.166C825.013 180.258 825 180.354 825 180.451L825 182.435C825 182.987 824.552 183.435 824 183.435L816.957 183.435C816.404 183.435 815.957 183.208 815.957 182.656L815.957 179.609C815.957 175.952 822.289 168.946 826.039 165.319C826.427 164.944 827.042 164.955 827.423 165.336Z" fill="#131010"/>
<path d="M858.225 174.035C858.225 175.324 857.759 176.34 856.828 177.082C855.904 177.824 854.615 178.195 852.961 178.195C851.438 178.195 850.09 177.909 848.918 177.336V174.523C849.882 174.953 850.695 175.256 851.359 175.432C852.03 175.607 852.642 175.695 853.195 175.695C853.859 175.695 854.367 175.568 854.719 175.314C855.077 175.061 855.256 174.683 855.256 174.182C855.256 173.902 855.178 173.654 855.021 173.439C854.865 173.218 854.634 173.007 854.328 172.805C854.029 172.603 853.413 172.281 852.482 171.838C851.61 171.428 850.956 171.034 850.52 170.656C850.083 170.279 849.735 169.839 849.475 169.338C849.214 168.837 849.084 168.251 849.084 167.58C849.084 166.317 849.51 165.324 850.363 164.602C851.223 163.879 852.408 163.518 853.918 163.518C854.66 163.518 855.367 163.605 856.037 163.781C856.714 163.957 857.421 164.204 858.156 164.523L857.18 166.877C856.418 166.564 855.786 166.346 855.285 166.223C854.79 166.099 854.302 166.037 853.82 166.037C853.247 166.037 852.808 166.171 852.502 166.438C852.196 166.704 852.043 167.053 852.043 167.482C852.043 167.749 852.105 167.984 852.229 168.186C852.352 168.381 852.548 168.573 852.814 168.762C853.088 168.944 853.729 169.276 854.738 169.758C856.073 170.396 856.988 171.037 857.482 171.682C857.977 172.32 858.225 173.104 858.225 174.035ZM870.354 178H867.375V171.623C867.375 170.835 867.242 170.246 866.975 169.855C866.714 169.458 866.301 169.26 865.734 169.26C864.973 169.26 864.419 169.54 864.074 170.1C863.729 170.66 863.557 171.581 863.557 172.863V178H860.578V167.082H862.854L863.254 168.479H863.42C863.713 167.977 864.136 167.587 864.689 167.307C865.243 167.02 865.878 166.877 866.594 166.877C868.228 166.877 869.335 167.411 869.914 168.479H870.178C870.471 167.971 870.9 167.577 871.467 167.297C872.04 167.017 872.684 166.877 873.4 166.877C874.637 166.877 875.572 167.196 876.203 167.834C876.841 168.465 877.16 169.481 877.16 170.881V178H874.172V171.623C874.172 170.835 874.038 170.246 873.771 169.855C873.511 169.458 873.098 169.26 872.531 169.26C871.802 169.26 871.255 169.52 870.891 170.041C870.533 170.562 870.354 171.389 870.354 172.521V178ZM887.16 178L886.584 176.516H886.506C886.005 177.147 885.487 177.587 884.953 177.834C884.426 178.075 883.736 178.195 882.883 178.195C881.835 178.195 881.008 177.896 880.402 177.297C879.803 176.698 879.504 175.845 879.504 174.738C879.504 173.579 879.908 172.727 880.715 172.18C881.529 171.626 882.753 171.32 884.387 171.262L886.281 171.203V170.725C886.281 169.618 885.715 169.064 884.582 169.064C883.71 169.064 882.684 169.328 881.506 169.855L880.52 167.844C881.776 167.186 883.169 166.857 884.699 166.857C886.164 166.857 887.287 167.176 888.068 167.814C888.85 168.452 889.24 169.423 889.24 170.725V178H887.16ZM886.281 172.941L885.129 172.98C884.263 173.007 883.618 173.163 883.195 173.449C882.772 173.736 882.561 174.172 882.561 174.758C882.561 175.598 883.042 176.018 884.006 176.018C884.696 176.018 885.246 175.819 885.656 175.422C886.073 175.025 886.281 174.497 886.281 173.84V172.941ZM898.41 166.877C898.814 166.877 899.149 166.906 899.416 166.965L899.191 169.758C898.951 169.693 898.658 169.66 898.312 169.66C897.362 169.66 896.62 169.904 896.086 170.393C895.559 170.881 895.295 171.564 895.295 172.443V178H892.316V167.082H894.572L895.012 168.918H895.158C895.497 168.306 895.952 167.814 896.525 167.443C897.105 167.066 897.733 166.877 898.41 166.877ZM905.998 175.822C906.519 175.822 907.144 175.708 907.873 175.48V177.697C907.131 178.029 906.219 178.195 905.139 178.195C903.947 178.195 903.078 177.896 902.531 177.297C901.991 176.691 901.721 175.786 901.721 174.582V169.318H900.295V168.059L901.936 167.062L902.795 164.758H904.699V167.082H907.756V169.318H904.699V174.582C904.699 175.005 904.816 175.318 905.051 175.52C905.292 175.721 905.607 175.822 905.998 175.822ZM921.564 178L918.127 166.799H918.039C918.163 169.077 918.225 170.598 918.225 171.359V178H915.52V163.723H919.641L923.02 174.641H923.078L926.662 163.723H930.783V178H927.961V171.242C927.961 170.923 927.964 170.555 927.971 170.139C927.984 169.722 928.029 168.615 928.107 166.818H928.02L924.338 178H921.564ZM941.887 178L941.486 176.604H941.33C941.011 177.111 940.559 177.505 939.973 177.785C939.387 178.059 938.719 178.195 937.971 178.195C936.688 178.195 935.721 177.854 935.07 177.17C934.419 176.48 934.094 175.49 934.094 174.201V167.082H937.072V173.459C937.072 174.247 937.212 174.839 937.492 175.236C937.772 175.627 938.218 175.822 938.83 175.822C939.663 175.822 940.266 175.546 940.637 174.992C941.008 174.432 941.193 173.508 941.193 172.219V167.082H944.172V178H941.887ZM950.275 178H947.297V162.805H950.275V178ZM958.01 175.822C958.531 175.822 959.156 175.708 959.885 175.48V177.697C959.143 178.029 958.231 178.195 957.15 178.195C955.959 178.195 955.09 177.896 954.543 177.297C954.003 176.691 953.732 175.786 953.732 174.582V169.318H952.307V168.059L953.947 167.062L954.807 164.758H956.711V167.082H959.768V169.318H956.711V174.582C956.711 175.005 956.828 175.318 957.062 175.52C957.303 175.721 957.619 175.822 958.01 175.822ZM961.975 164.26C961.975 163.29 962.515 162.805 963.596 162.805C964.676 162.805 965.217 163.29 965.217 164.26C965.217 164.722 965.08 165.083 964.807 165.344C964.54 165.598 964.136 165.725 963.596 165.725C962.515 165.725 961.975 165.236 961.975 164.26ZM965.08 178H962.102V167.082H965.08V178ZM979.709 166.037C978.57 166.037 977.688 166.467 977.062 167.326C976.438 168.179 976.125 169.37 976.125 170.9C976.125 174.084 977.32 175.676 979.709 175.676C980.712 175.676 981.926 175.425 983.352 174.924V177.463C982.18 177.951 980.871 178.195 979.426 178.195C977.349 178.195 975.76 177.567 974.66 176.311C973.56 175.048 973.01 173.238 973.01 170.881C973.01 169.396 973.28 168.098 973.82 166.984C974.361 165.865 975.135 165.008 976.145 164.416C977.16 163.817 978.348 163.518 979.709 163.518C981.096 163.518 982.489 163.853 983.889 164.523L982.912 166.984C982.378 166.73 981.841 166.509 981.301 166.32C980.76 166.132 980.23 166.037 979.709 166.037ZM992.258 166.877C992.661 166.877 992.997 166.906 993.264 166.965L993.039 169.758C992.798 169.693 992.505 169.66 992.16 169.66C991.21 169.66 990.467 169.904 989.934 170.393C989.406 170.881 989.143 171.564 989.143 172.443V178H986.164V167.082H988.42L988.859 168.918H989.006C989.344 168.306 989.8 167.814 990.373 167.443C990.952 167.066 991.581 166.877 992.258 166.877ZM999.768 168.996C999.136 168.996 998.641 169.198 998.283 169.602C997.925 169.999 997.72 170.565 997.668 171.301H1001.85C1001.83 170.565 1001.64 169.999 1001.27 169.602C1000.9 169.198 1000.4 168.996 999.768 168.996ZM1000.19 178.195C998.43 178.195 997.056 177.71 996.066 176.74C995.077 175.77 994.582 174.396 994.582 172.619C994.582 170.79 995.038 169.377 995.949 168.381C996.867 167.378 998.133 166.877 999.748 166.877C1001.29 166.877 1002.49 167.316 1003.35 168.195C1004.21 169.074 1004.64 170.288 1004.64 171.838V173.283H997.6C997.632 174.13 997.883 174.79 998.352 175.266C998.82 175.741 999.478 175.979 1000.32 175.979C1000.98 175.979 1001.6 175.91 1002.19 175.773C1002.78 175.637 1003.39 175.419 1004.03 175.119V177.424C1003.5 177.684 1002.95 177.876 1002.36 178C1001.76 178.13 1001.04 178.195 1000.19 178.195ZM1014 178L1013.42 176.516H1013.34C1012.84 177.147 1012.32 177.587 1011.79 177.834C1011.26 178.075 1010.57 178.195 1009.72 178.195C1008.67 178.195 1007.84 177.896 1007.24 177.297C1006.64 176.698 1006.34 175.845 1006.34 174.738C1006.34 173.579 1006.74 172.727 1007.55 172.18C1008.36 171.626 1009.59 171.32 1011.22 171.262L1013.12 171.203V170.725C1013.12 169.618 1012.55 169.064 1011.42 169.064C1010.55 169.064 1009.52 169.328 1008.34 169.855L1007.36 167.844C1008.61 167.186 1010.01 166.857 1011.54 166.857C1013 166.857 1014.12 167.176 1014.9 167.814C1015.69 168.452 1016.08 169.423 1016.08 170.725V178H1014ZM1013.12 172.941L1011.96 172.98C1011.1 173.007 1010.45 173.163 1010.03 173.449C1009.61 173.736 1009.4 174.172 1009.4 174.758C1009.4 175.598 1009.88 176.018 1010.84 176.018C1011.53 176.018 1012.08 175.819 1012.49 175.422C1012.91 175.025 1013.12 174.497 1013.12 173.84V172.941ZM1023.75 175.822C1024.27 175.822 1024.9 175.708 1025.63 175.48V177.697C1024.88 178.029 1023.97 178.195 1022.89 178.195C1021.7 178.195 1020.83 177.896 1020.29 177.297C1019.74 176.691 1019.47 175.786 1019.47 174.582V169.318H1018.05V168.059L1019.69 167.062L1020.55 164.758H1022.45V167.082H1025.51V169.318H1022.45V174.582C1022.45 175.005 1022.57 175.318 1022.8 175.52C1023.05 175.721 1023.36 175.822 1023.75 175.822ZM1027.72 164.26C1027.72 163.29 1028.26 162.805 1029.34 162.805C1030.42 162.805 1030.96 163.29 1030.96 164.26C1030.96 164.722 1030.82 165.083 1030.55 165.344C1030.28 165.598 1029.88 165.725 1029.34 165.725C1028.26 165.725 1027.72 165.236 1027.72 164.26ZM1030.82 178H1027.84V167.082H1030.82V178ZM1036.55 178L1032.39 167.082H1035.51L1037.62 173.303C1037.85 174.09 1038 174.836 1038.06 175.539H1038.12C1038.15 174.914 1038.3 174.169 1038.56 173.303L1040.66 167.082H1043.77L1039.61 178H1036.55ZM1049.87 168.996C1049.23 168.996 1048.74 169.198 1048.38 169.602C1048.02 169.999 1047.82 170.565 1047.77 171.301H1051.95C1051.93 170.565 1051.74 169.999 1051.37 169.602C1051 169.198 1050.5 168.996 1049.87 168.996ZM1050.29 178.195C1048.53 178.195 1047.15 177.71 1046.16 176.74C1045.17 175.77 1044.68 174.396 1044.68 172.619C1044.68 170.79 1045.14 169.377 1046.05 168.381C1046.96 167.378 1048.23 166.877 1049.85 166.877C1051.39 166.877 1052.59 167.316 1053.45 168.195C1054.31 169.074 1054.74 170.288 1054.74 171.838V173.283H1047.7C1047.73 174.13 1047.98 174.79 1048.45 175.266C1048.92 175.741 1049.58 175.979 1050.42 175.979C1051.08 175.979 1051.7 175.91 1052.29 175.773C1052.87 175.637 1053.49 175.419 1054.12 175.119V177.424C1053.6 177.684 1053.05 177.876 1052.45 178C1051.86 178.13 1051.14 178.195 1050.29 178.195Z" fill="black"/>
</g>
<path d="M1193.32 115.188L1194.02 117.593C1195.36 122.198 1200.62 124.377 1204.83 122.07L1207.03 120.865C1210.97 118.699 1215.3 123.028 1213.14 126.974L1211.93 129.171C1209.62 133.376 1211.8 138.637 1216.41 139.979L1218.81 140.68C1223.13 141.939 1223.13 148.061 1218.81 149.32L1216.41 150.021C1211.8 151.363 1209.62 156.624 1211.93 160.829L1213.14 163.026C1215.3 166.972 1210.97 171.301 1207.03 169.135L1204.83 167.93C1200.62 165.623 1195.36 167.802 1194.02 172.407L1193.32 174.812C1192.06 179.134 1185.94 179.134 1184.68 174.812L1183.98 172.407C1182.64 167.802 1177.38 165.623 1173.17 167.93L1170.97 169.135C1167.03 171.301 1162.7 166.972 1164.86 163.026L1166.07 160.829C1168.38 156.624 1166.2 151.363 1161.59 150.021L1159.19 149.32C1154.87 148.061 1154.87 141.939 1159.19 140.68L1161.59 139.979C1166.2 138.637 1168.38 133.376 1166.07 129.171L1164.86 126.974C1162.7 123.028 1167.03 118.699 1170.97 120.865L1173.17 122.07C1177.38 124.377 1182.64 122.198 1183.98 117.593L1184.68 115.188C1185.94 110.866 1192.06 110.866 1193.32 115.188Z" stroke="white" stroke-width="3"/>
</g>
<defs>
<clipPath id="clip0_1_2">
<rect width="1280" height="832" fill="white"/>
</clipPath>
<clipPath id="clip1_1_2">
<rect width="539" height="653" fill="white" transform="translate(759 164)"/>
</clipPath>
<clipPath id="clip2_1_2">
<rect x="779" y="231" width="175" height="12" rx="6" fill="white"/>
</clipPath>
<clipPath id="clip3_1_2">
<rect x="974" y="231" width="175" height="12" rx="6" fill="white"/>
</clipPath>
<clipPath id="clip4_1_2">
<rect x="1169" y="231" width="175" height="12" rx="6" fill="white"/>
</clipPath>
<clipPath id="clip5_1_2">
<rect width="539" height="653" fill="white" transform="translate(779 144)"/>
</clipPath>
<clipPath id="clip6_1_2">
<rect x="799" y="210" width="175" height="12" rx="6" fill="white"/>
</clipPath>
<clipPath id="clip7_1_2">
<rect x="994" y="210" width="175" height="12" rx="6" fill="white"/>
</clipPath>
<clipPath id="clip8_1_2">
<rect x="1189" y="210" width="175" height="12" rx="6" fill="white"/>
</clipPath>
</defs>
</svg>
