<svg width="1280" height="827" viewBox="0 0 1280 827" fill="none" xmlns="http://www.w3.org/2000/svg">
<g clip-path="url(#clip0_3_2)">
<line x1="1009.54" y1="244" x2="1009.54" y2="720" stroke="white" stroke-opacity="0.3"/>
<line x1="1039.54" y1="244" x2="1039.54" y2="720" stroke="white" stroke-opacity="0.3"/>
<line x1="1069.54" y1="244" x2="1069.54" y2="720" stroke="white" stroke-opacity="0.3"/>
<line x1="1099.54" y1="244" x2="1099.54" y2="720" stroke="white" stroke-opacity="0.3"/>
<line x1="1129.54" y1="244" x2="1129.54" y2="720" stroke="white" stroke-opacity="0.3"/>
<line x1="1159.54" y1="244" x2="1159.54" y2="720" stroke="white" stroke-opacity="0.3"/>
<line x1="1189.54" y1="244" x2="1189.54" y2="720" stroke="white" stroke-opacity="0.3"/>
<line x1="1219.54" y1="244" x2="1219.54" y2="720" stroke="white" stroke-opacity="0.3"/>
<line x1="1249.54" y1="244" x2="1249.54" y2="720" stroke="white" stroke-opacity="0.3"/>
<line x1="1279.54" y1="244" x2="1279.54" y2="720" stroke="white" stroke-opacity="0.3"/>
<line x1="951.042" y1="661.5" x2="1427.04" y2="661.5" stroke="white" stroke-opacity="0.3"/>
<line x1="951.042" y1="631.5" x2="1427.04" y2="631.5" stroke="white" stroke-opacity="0.3"/>
<line x1="951.042" y1="601.5" x2="1427.04" y2="601.5" stroke="white" stroke-opacity="0.3"/>
<line x1="951.042" y1="571.5" x2="1427.04" y2="571.5" stroke="white" stroke-opacity="0.3"/>
<line x1="951.042" y1="541.5" x2="1427.04" y2="541.5" stroke="white" stroke-opacity="0.3"/>
<line x1="951.042" y1="511.5" x2="1427.04" y2="511.5" stroke="white" stroke-opacity="0.3"/>
<line x1="951.042" y1="481.5" x2="1427.04" y2="481.5" stroke="white" stroke-opacity="0.3"/>
<line x1="951.042" y1="451.5" x2="1427.04" y2="451.5" stroke="white" stroke-opacity="0.3"/>
<line x1="951.042" y1="421.5" x2="1427.04" y2="421.5" stroke="white" stroke-opacity="0.3"/>
<line x1="951.042" y1="391.5" x2="1427.04" y2="391.5" stroke="white" stroke-opacity="0.3"/>
<line x1="951.042" y1="361.5" x2="1427.04" y2="361.5" stroke="white" stroke-opacity="0.3"/>
<line x1="951.042" y1="331.5" x2="1427.04" y2="331.5" stroke="white" stroke-opacity="0.3"/>
<line x1="951.042" y1="301.5" x2="1427.04" y2="301.5" stroke="white" stroke-opacity="0.3"/>
</g>
<defs>
<clipPath id="clip0_3_2">
<rect width="1280" height="827" fill="white"/>
</clipPath>
</defs>
</svg>
