<svg width="53" height="53" viewBox="0 0 53 53" fill="none" xmlns="http://www.w3.org/2000/svg">
<mask id="path-1-outside-1_74_283" maskUnits="userSpaceOnUse" x="0" y="0" width="53" height="53" fill="black">
<rect fill="white" width="53" height="53"/>
<path d="M2 15.52C2 10.3584 2 7.77764 3.14626 5.87371C3.81935 4.75572 4.75572 3.81935 5.87371 3.14626C7.77764 2 10.3584 2 15.52 2H34.48C39.6416 2 42.2224 2 44.1263 3.14626C45.2443 3.81935 46.1807 4.75572 46.8537 5.87371C48 7.77764 48 10.3584 48 15.52V32.48C48 37.6416 48 40.2224 46.8537 42.1263C46.1807 43.2443 45.2443 44.1807 44.1263 44.8537C42.2224 46 39.6416 46 34.48 46H15.52C10.3584 46 7.77764 46 5.87371 44.8537C4.75572 44.1807 3.81935 43.2443 3.14626 42.1263C2 40.2224 2 37.6416 2 32.48V15.52Z"/>
</mask>
<path d="M2 15.52C2 10.3584 2 7.77764 3.14626 5.87371C3.81935 4.75572 4.75572 3.81935 5.87371 3.14626C7.77764 2 10.3584 2 15.52 2H34.48C39.6416 2 42.2224 2 44.1263 3.14626C45.2443 3.81935 46.1807 4.75572 46.8537 5.87371C48 7.77764 48 10.3584 48 15.52V32.48C48 37.6416 48 40.2224 46.8537 42.1263C46.1807 43.2443 45.2443 44.1807 44.1263 44.8537C42.2224 46 39.6416 46 34.48 46H15.52C10.3584 46 7.77764 46 5.87371 44.8537C4.75572 44.1807 3.81935 43.2443 3.14626 42.1263C2 40.2224 2 37.6416 2 32.48V15.52Z" fill="#FCCF08"/>
<path d="M0 10C0 4.47715 4.47715 0 10 0H43C48.5228 0 53 4.47715 53 10H43C43 6.68629 41.6569 4 40 4H10C6.68629 4 4 6.68629 4 10H0ZM53 40C53 47.1797 47.1797 53 40 53H10C4.47715 53 0 48.5228 0 43L4 38C4 38.5523 6.68629 39 10 39H40C41.6569 39 43 38.5523 43 38L53 40ZM10 53C4.47715 53 0 48.5228 0 43V10C0 4.47715 4.47715 0 10 0V4C6.68629 4 4 6.68629 4 10V38C4 38.5523 6.68629 39 10 39V53ZM43 0C48.5228 0 53 4.47715 53 10V40C53 47.1797 47.1797 53 40 53V39C41.6569 39 43 38.5523 43 38V10C43 6.68629 41.6569 4 40 4L43 0Z" fill="black" mask="url(#path-1-outside-1_74_283)"/>
<path d="M34 22.2679C35.3333 23.0377 35.3333 24.9623 34 25.7321L22 32.6603C20.6667 33.4301 19 32.4678 19 30.9282L19 17.0718C19 15.5322 20.6667 14.5699 22 15.3397L34 22.2679Z" fill="#131010"/>
</svg>
