<svg width="53" height="53" viewBox="0 0 53 53" fill="none" xmlns="http://www.w3.org/2000/svg">
<mask id="path-1-outside-1_74_285" maskUnits="userSpaceOnUse" x="0" y="0" width="53" height="53" fill="black">
<rect fill="white" width="53" height="53"/>
<path d="M51 15.52C51 10.3584 51 7.77764 49.8537 5.87371C49.1807 4.75572 48.2443 3.81935 47.1263 3.14626C45.2224 2 42.6416 2 37.48 2H18.52C13.3584 2 10.7776 2 8.87371 3.14626C7.75571 3.81935 6.81935 4.75572 6.14626 5.87371C5 7.77764 5 10.3584 5 15.52V32.48C5 37.6416 5 40.2224 6.14626 42.1263C6.81935 43.2443 7.75571 44.1807 8.87371 44.8537C10.7776 46 13.3584 46 18.52 46H37.48C42.6416 46 45.2224 46 47.1263 44.8537C48.2443 44.1807 49.1807 43.2443 49.8537 42.1263C51 40.2224 51 37.6416 51 32.48V15.52Z"/>
</mask>
<path d="M51 15.52C51 10.3584 51 7.77764 49.8537 5.87371C49.1807 4.75572 48.2443 3.81935 47.1263 3.14626C45.2224 2 42.6416 2 37.48 2H18.52C13.3584 2 10.7776 2 8.87371 3.14626C7.75571 3.81935 6.81935 4.75572 6.14626 5.87371C5 7.77764 5 10.3584 5 15.52V32.48C5 37.6416 5 40.2224 6.14626 42.1263C6.81935 43.2443 7.75571 44.1807 8.87371 44.8537C10.7776 46 13.3584 46 18.52 46H37.48C42.6416 46 45.2224 46 47.1263 44.8537C48.2443 44.1807 49.1807 43.2443 49.8537 42.1263C51 40.2224 51 37.6416 51 32.48V15.52Z" fill="#FCCF08"/>
<path d="M53 10C53 4.47715 48.5228 0 43 0H10C4.47715 0 0 4.47715 0 10H10C10 6.68629 11.3431 4 13 4H43C46.3137 4 49 6.68629 49 10H53ZM0 40C0 47.1797 5.8203 53 13 53H43C48.5228 53 53 48.5228 53 43L49 38C49 38.5523 46.3137 39 43 39H13C11.3431 39 10 38.5523 10 38L0 40ZM43 53C48.5228 53 53 48.5228 53 43V10C53 4.47715 48.5228 0 43 0V4C46.3137 4 49 6.68629 49 10V38C49 38.5523 46.3137 39 43 39V53ZM10 0C4.47715 0 0 4.47715 0 10V40C0 47.1797 5.8203 53 13 53V39C11.3431 39 10 38.5523 10 38V10C10 6.68629 11.3431 4 13 4L10 0Z" fill="black" mask="url(#path-1-outside-1_74_285)"/>
<path d="M19 22.2679C17.6667 23.0377 17.6667 24.9623 19 25.7321L31 32.6603C32.3333 33.4301 34 32.4678 34 30.9282L34 17.0718C34 15.5322 32.3333 14.5699 31 15.3397L19 22.2679Z" fill="#131010"/>
</svg>
