<svg width="32" height="361" viewBox="0 0 32 361" fill="none" xmlns="http://www.w3.org/2000/svg">
<path d="M24.9258 13.7227C24.9258 11.444 24.0664 9.67969 22.3477 8.42969C20.6419 7.17969 18.2591 6.55469 15.1992 6.55469C8.83203 6.55469 5.64844 8.94402 5.64844 13.7227C5.64844 15.7279 6.14974 18.1563 7.15235 21.0078L2.07422 21.0078C1.09766 18.6641 0.609377 16.0469 0.609377 13.1563C0.609376 9.00261 1.86589 5.82553 4.37891 3.62501C6.90495 1.42448 10.5247 0.324223 15.2383 0.324223C18.207 0.324222 20.8047 0.864586 23.0313 1.94532C25.2708 3.02604 26.9831 4.57552 28.168 6.59375C29.3659 8.625 29.9648 11.0013 29.9648 13.7227C29.9648 16.4961 29.2943 19.2826 27.9531 22.082L23.0313 20.1289C23.5391 19.0612 23.9818 17.987 24.3594 16.9063C24.737 15.8255 24.9258 14.7643 24.9258 13.7227ZM23.2461 38.8203C23.2461 39.6276 23.1875 40.2982 23.0703 40.832L17.4844 40.3828C17.6146 39.901 17.6797 39.3151 17.6797 38.625C17.6797 36.724 17.1914 35.2396 16.2148 34.1719C15.2383 33.1172 13.8711 32.5898 12.1133 32.5898L1 32.5898L1 26.6328L22.8359 26.6328L22.8359 31.1445L19.1641 32.0234L19.1641 32.3164C20.388 32.9935 21.3711 33.905 22.1133 35.0508C22.8685 36.2096 23.2461 37.4661 23.2461 38.8203ZM19.0078 53.8398C19.0078 52.5768 18.6042 51.5872 17.7969 50.8711C17.0026 50.155 15.8698 49.7448 14.3984 49.6406L14.3984 58C15.8698 57.974 17.0026 57.5898 17.7969 56.8477C18.6042 56.1055 19.0078 55.1029 19.0078 53.8398ZM0.609382 54.6797C0.609382 51.1641 1.57943 48.4167 3.51954 46.4375C5.45964 44.4583 8.20704 43.4688 11.7617 43.4688C15.4206 43.4688 18.2461 44.3802 20.2383 46.2031C22.2435 48.0391 23.2461 50.5716 23.2461 53.8008C23.2461 56.8867 22.3672 59.2891 20.6094 61.0078C18.8516 62.7266 16.4232 63.5859 13.3242 63.5859L10.4336 63.5859L10.4336 49.5039C8.74089 49.569 7.41928 50.0703 6.46876 51.0078C5.51824 51.9453 5.04298 53.2604 5.04298 54.9531C5.04298 56.2682 5.1797 57.5117 5.45313 58.6836C5.72657 59.8555 6.16277 61.0794 6.76173 62.3555L2.15235 62.3555C1.63152 61.3138 1.2474 60.2005 1.00001 59.0156C0.739591 57.8307 0.609383 56.3854 0.609382 54.6797ZM1.00001 82.2969L3.96876 81.1445L3.96876 80.9883C2.70574 79.9857 1.82683 78.9505 1.33204 77.8828C0.850271 76.8281 0.609385 75.4479 0.609385 73.7422C0.609385 71.6458 1.20834 69.9922 2.40626 68.7813C3.60418 67.5833 5.3099 66.9844 7.52345 66.9844C9.84115 66.9844 11.5469 67.7917 12.6406 69.4063C13.7474 71.0339 14.3594 73.4818 14.4766 76.75L14.5938 80.5391L15.5508 80.5391C17.7643 80.5391 18.8711 79.4063 18.8711 77.1406C18.8711 75.3958 18.3438 73.3451 17.2891 70.9883L21.3125 69.0156C22.6276 71.5286 23.2852 74.3151 23.2852 77.375C23.2852 80.3047 22.6471 82.5508 21.3711 84.1133C20.0951 85.6758 18.155 86.457 15.5508 86.457L1.00001 86.457L1.00001 82.2969ZM11.1172 80.5391L11.0391 78.2344C10.987 76.5026 10.6745 75.2135 10.1016 74.3672C9.52866 73.5208 8.65626 73.0977 7.48438 73.0977C5.8047 73.0977 4.96485 74.0612 4.96485 75.9883C4.96485 77.3685 5.36199 78.4688 6.15626 79.2891C6.95053 80.1224 8.00522 80.5391 9.32032 80.5391L11.1172 80.5391ZM5.35548 101.809C5.35548 102.85 5.58335 104.1 6.03908 105.559L1.60548 105.559C0.94142 104.074 0.609389 102.251 0.609388 100.09C0.609388 97.707 1.20835 95.9688 2.40626 94.875C3.6172 93.7943 5.4271 93.2539 7.83595 93.2539L18.3633 93.2539L18.3633 90.4023L20.8828 90.4023L22.875 93.6836L27.4844 95.4023L27.4844 99.2109L22.836 99.2109L22.836 105.324L18.3633 105.324L18.3633 99.2109L7.83595 99.2109C6.9896 99.2109 6.3646 99.4453 5.96095 99.9141C5.55731 100.396 5.35548 101.027 5.35548 101.809ZM28.4805 109.738C30.4206 109.738 31.3906 110.819 31.3906 112.98C31.3906 115.142 30.4206 116.223 28.4805 116.223C27.556 116.223 26.8333 115.949 26.3125 115.402C25.8047 114.868 25.5508 114.061 25.5508 112.98C25.5508 110.819 26.5274 109.738 28.4805 109.738ZM1.00002 115.949L1.00001 109.992L22.836 109.992L22.836 115.949L1.00002 115.949ZM1.00002 127.414L22.836 119.094L22.836 125.324L10.3945 129.543C8.81903 130.012 7.32814 130.305 5.92189 130.422L5.92189 130.539C7.17189 130.604 8.66278 130.897 10.3945 131.418L22.836 135.617L22.836 141.848L1.00002 133.527L1.00002 127.414ZM19.0078 154.035C19.0078 152.772 18.6042 151.783 17.7969 151.066C17.0026 150.35 15.8698 149.94 14.3985 149.836L14.3985 158.195C15.8698 158.169 17.0026 157.785 17.7969 157.043C18.6042 156.301 19.0078 155.298 19.0078 154.035ZM0.609396 154.875C0.609395 151.359 1.57945 148.612 3.51955 146.633C5.45965 144.654 8.20705 143.664 11.7617 143.664C15.4206 143.664 18.2461 144.576 20.2383 146.398C22.2435 148.234 23.2461 150.767 23.2461 153.996C23.2461 157.082 22.3672 159.484 20.6094 161.203C18.8516 162.922 16.4232 163.781 13.3242 163.781L10.4336 163.781L10.4336 149.699C8.74091 149.764 7.41929 150.266 6.46877 151.203C5.51825 152.141 5.04299 153.456 5.04299 155.148C5.04299 156.464 5.17971 157.707 5.45315 158.879C5.72658 160.051 6.16278 161.275 6.76174 162.551L2.15237 162.551C1.63153 161.509 1.24742 160.396 1.00002 159.211C0.739604 158.026 0.609396 156.581 0.609396 154.875ZM8.92971 196.34C6.35159 196.34 4.32034 195.409 2.83596 193.547C1.35159 191.698 0.6094 189.12 0.6094 185.813C0.609399 182.766 1.18232 180.07 2.32815 177.727L7.95315 177.727C7.09377 179.654 6.48831 181.281 6.13674 182.609C5.78518 183.951 5.6094 185.174 5.6094 186.281C5.6094 187.609 5.86331 188.625 6.37112 189.328C6.87893 190.044 7.63414 190.402 8.63674 190.402C9.19664 190.402 9.69143 190.246 10.1211 189.934C10.5638 189.621 10.987 189.159 11.3906 188.547C11.7943 187.948 12.4388 186.717 13.3242 184.855C14.1446 183.111 14.9323 181.802 15.6875 180.93C16.4427 180.057 17.3216 179.361 18.3242 178.84C19.3268 178.319 20.4987 178.059 21.8399 178.059C24.3659 178.059 26.3516 178.911 27.7969 180.617C29.2422 182.336 29.9649 184.706 29.9649 187.727C29.9649 189.211 29.7891 190.624 29.4375 191.965C29.086 193.319 28.5912 194.732 27.9532 196.203L23.2461 194.25C23.8711 192.727 24.3073 191.464 24.5547 190.461C24.8021 189.471 24.9258 188.495 24.9258 187.531C24.9258 186.385 24.6589 185.507 24.125 184.895C23.5912 184.283 22.8946 183.977 22.0352 183.977C21.5013 183.977 21.0326 184.1 20.6289 184.348C20.2383 184.595 19.8542 184.986 19.4766 185.52C19.112 186.066 18.4479 187.349 17.4844 189.367C16.2084 192.036 14.9258 193.866 13.6367 194.855C12.3607 195.845 10.7917 196.34 8.92971 196.34ZM11.9571 205.793C9.7956 205.793 8.16149 206.145 7.05471 206.848C5.94794 207.564 5.39456 208.723 5.39456 210.324C5.39456 211.913 5.94143 213.052 7.03518 213.742C8.14196 214.445 9.78258 214.797 11.9571 214.797C14.1185 214.797 15.7396 214.445 16.8203 213.742C17.9011 213.039 18.4414 211.887 18.4414 210.285C18.4414 208.697 17.9011 207.551 16.8203 206.848C15.7526 206.145 14.1315 205.793 11.9571 205.793ZM11.9571 220.891C8.40237 220.891 5.62242 219.953 3.61722 218.078C1.61201 216.203 0.609403 213.592 0.609403 210.246C0.609403 208.15 1.06513 206.301 1.97659 204.699C2.90107 203.098 4.22268 201.867 5.94143 201.008C7.66018 200.148 9.66539 199.719 11.9571 199.719C15.5248 199.719 18.2982 200.65 20.2774 202.512C22.2565 204.374 23.2461 206.991 23.2461 210.363C23.2461 212.46 22.7904 214.309 21.8789 215.91C20.9675 217.512 19.6589 218.742 17.9532 219.602C16.2474 220.461 14.2487 220.891 11.9571 220.891ZM1.00003 231.77L1.00003 225.813L31.3907 225.813L31.3907 231.77L1.00003 231.77ZM1.00003 253.508L3.793 252.707L3.793 252.395C2.77738 251.757 1.98962 250.852 1.42972 249.68C0.882845 248.508 0.609408 247.173 0.609407 245.676C0.609407 243.111 1.293 241.177 2.66019 239.875C4.0404 238.573 6.01956 237.922 8.59769 237.922L22.836 237.922L22.836 243.879L10.0821 243.879C8.50654 243.879 7.32165 244.159 6.52738 244.719C5.74613 245.279 5.3555 246.171 5.3555 247.395C5.3555 249.061 5.90889 250.266 7.01566 251.008C8.13545 251.75 9.98441 252.121 12.5625 252.121L22.836 252.121L22.836 258.078L1.00003 258.078L1.00003 253.508ZM5.3555 273.527C5.35551 274.569 5.58337 275.819 6.0391 277.277L1.60551 277.277C0.941443 275.793 0.609411 273.97 0.609411 271.809C0.609411 269.426 1.20837 267.688 2.40629 266.594C3.61722 265.513 5.42712 264.973 7.83597 264.973L18.3633 264.973L18.3633 262.121L20.8828 262.121L22.875 265.402L27.4844 267.121L27.4844 270.93L22.836 270.93L22.836 277.043L18.3633 277.043L18.3633 270.93L7.83597 270.93C6.98962 270.93 6.36462 271.164 5.96097 271.633C5.55733 272.115 5.3555 272.746 5.3555 273.527ZM28.4805 281.457C30.4206 281.457 31.3907 282.538 31.3907 284.699C31.3907 286.861 30.4206 287.941 28.4805 287.941C27.556 287.941 26.8334 287.668 26.3125 287.121C25.8047 286.587 25.5508 285.78 25.5508 284.699C25.5508 282.538 26.5274 281.457 28.4805 281.457ZM1.00004 287.668L1.00004 281.711L22.836 281.711L22.836 287.668L1.00004 287.668ZM11.9571 298.684C9.79561 298.684 8.1615 299.035 7.05473 299.738C5.94796 300.454 5.39457 301.613 5.39457 303.215C5.39457 304.803 5.94145 305.943 7.0352 306.633C8.14197 307.336 9.78259 307.688 11.9571 307.688C14.1185 307.688 15.7396 307.336 16.8204 306.633C17.9011 305.93 18.4414 304.777 18.4414 303.176C18.4414 301.587 17.9011 300.441 16.8204 299.738C15.7526 299.035 14.1315 298.684 11.9571 298.684ZM11.9571 313.781C8.40239 313.781 5.62244 312.844 3.61723 310.969C1.61202 309.094 0.609415 306.483 0.609415 303.137C0.609415 301.04 1.06514 299.191 1.9766 297.59C2.90108 295.988 4.2227 294.758 5.94145 293.898C7.66019 293.039 9.6654 292.609 11.9571 292.609C15.5248 292.609 18.2982 293.54 20.2774 295.402C22.2565 297.264 23.2461 299.882 23.2461 303.254C23.2461 305.35 22.7904 307.199 21.8789 308.801C20.9675 310.402 19.6589 311.633 17.9532 312.492C16.2474 313.352 14.2487 313.781 11.9571 313.781ZM1.00004 338.859L1.00004 332.902L13.754 332.902C15.3295 332.902 16.5079 332.622 17.2891 332.063C18.0834 331.503 18.4805 330.611 18.4805 329.387C18.4805 327.72 17.9206 326.516 16.8008 325.773C15.6941 325.031 13.8516 324.66 11.2735 324.66L1.00004 324.66L1.00004 318.703L22.836 318.703L22.836 323.254L20.043 324.055L20.043 324.387C21.0977 325.051 21.892 325.962 22.4258 327.121C22.9727 328.293 23.2461 329.621 23.2461 331.105C23.2461 333.645 22.556 335.572 21.1758 336.887C19.8086 338.202 17.8295 338.859 15.2383 338.859L1.00004 338.859ZM7.48442 360.227C5.24484 360.227 3.53911 359.445 2.36723 357.883C1.19536 356.333 0.609422 354.009 0.609421 350.91C0.609421 349.322 0.720098 347.967 0.941452 346.848C1.14979 345.728 1.46229 344.68 1.87895 343.703L6.80083 343.703C6.27999 344.81 5.8438 346.053 5.49223 347.434C5.14067 348.827 4.96489 350.051 4.96489 351.105C4.96489 353.267 5.58989 354.348 6.83989 354.348C7.30864 354.348 7.68624 354.204 7.9727 353.918C8.27218 353.632 8.60421 353.137 8.9688 352.434C9.3464 351.73 9.7826 350.793 10.2774 349.621C10.9805 347.941 11.6316 346.704 12.2305 345.91C12.8295 345.129 13.5131 344.556 14.2813 344.191C15.0625 343.84 16.0196 343.664 17.1524 343.664C19.0925 343.664 20.5899 344.413 21.6446 345.91C22.7123 347.421 23.2461 349.556 23.2461 352.316C23.2461 354.947 22.6732 357.505 21.5274 359.992L17.2305 358.195C17.6993 357.102 18.0834 356.079 18.3829 355.129C18.6823 354.178 18.8321 353.208 18.8321 352.219C18.8321 350.461 18.3568 349.582 17.4063 349.582C16.8724 349.582 16.4102 349.862 16.0196 350.422C15.629 350.995 15.0495 352.238 14.2813 354.152C13.5912 355.858 12.9467 357.108 12.3477 357.902C11.7487 358.697 11.0586 359.283 10.2774 359.66C9.49614 360.038 8.56515 360.227 7.48442 360.227Z" fill="#131010"/>
</svg>
