<svg width="32" height="346" viewBox="0 0 32 346" fill="none" xmlns="http://www.w3.org/2000/svg">
<path d="M7.07422 332.277C7.07422 333.436 7.30208 334.465 7.75781 335.363C8.20052 336.249 8.84505 336.997 9.69141 337.609C10.5378 338.208 11.5599 338.664 12.7578 338.977C13.9557 339.289 15.3034 339.445 16.8008 339.445C18.819 339.445 20.5443 339.198 21.9766 338.703C23.3958 338.195 24.4831 337.414 25.2383 336.359C25.9805 335.305 26.3516 333.944 26.3516 332.277C26.3516 331.118 26.2214 329.96 25.9609 328.801C25.7005 327.629 25.3294 326.359 24.8477 324.992L29.9258 324.992C30.4466 326.255 30.8177 327.499 31.0391 328.723C31.2734 329.947 31.3906 331.32 31.3906 332.844C31.3906 335.786 30.7852 338.208 29.5742 340.109C28.3503 341.997 26.6445 343.397 24.457 344.309C22.2565 345.22 19.6914 345.676 16.7617 345.676C14.6003 345.676 12.6211 345.383 10.8242 344.797C9.02734 344.211 7.47135 343.352 6.15625 342.219C4.84115 341.086 3.82552 339.686 3.10937 338.02C2.39323 336.353 2.03516 334.439 2.03516 332.277C2.03516 330.858 2.21745 329.439 2.58203 328.02C2.93359 326.587 3.42187 325.22 4.04687 323.918L8.96875 325.871C8.46094 326.939 8.01823 328.013 7.64062 329.094C7.26302 330.174 7.07422 331.236 7.07422 332.277ZM9.16406 299.328L31 299.328L31 303.898L28.207 304.699L28.207 305.012C28.9492 305.48 29.5547 306.066 30.0234 306.77C30.4922 307.473 30.8372 308.247 31.0586 309.094C31.2799 309.94 31.3906 310.819 31.3906 311.73C31.3906 313.293 31.1172 314.654 30.5703 315.812C30.0104 316.971 29.1445 317.876 27.9727 318.527C26.8008 319.165 25.2773 319.484 23.4023 319.484L9.16406 319.484L9.16406 313.527L21.918 313.527C23.4805 313.527 24.6589 313.247 25.4531 312.687C26.2474 312.128 26.6445 311.236 26.6445 310.012C26.6445 308.801 26.3711 307.85 25.8242 307.16C25.2643 306.47 24.4505 305.988 23.3828 305.715C22.3021 305.428 20.987 305.285 19.4375 305.285L9.16406 305.285L9.16406 299.328ZM24.5156 277.844C26 277.844 27.2565 278.195 28.2852 278.898C29.3008 279.589 30.0755 280.624 30.6094 282.004C31.1302 283.384 31.3906 285.103 31.3906 287.16C31.3906 288.684 31.293 289.992 31.0977 291.086C30.9023 292.167 30.5768 293.26 30.1211 294.367L25.1992 294.367C25.7331 293.182 26.1758 291.913 26.5273 290.559C26.8659 289.191 27.0352 287.993 27.0352 286.965C27.0352 285.806 26.8659 284.979 26.5273 284.484C26.1758 283.977 25.72 283.723 25.1602 283.723C24.7956 283.723 24.47 283.827 24.1836 284.035C23.8841 284.23 23.5521 284.66 23.1875 285.324C22.8099 285.988 22.3216 287.03 21.7227 288.449C21.1497 289.816 20.5703 290.943 19.9844 291.828C19.3984 292.701 18.7083 293.352 17.9141 293.781C17.1068 294.198 16.0846 294.406 14.8477 294.406C12.8294 294.406 11.3125 293.625 10.2969 292.062C9.26823 290.487 8.7539 288.384 8.7539 285.754C8.7539 284.4 8.89062 283.111 9.16406 281.887C9.4375 280.65 9.87369 279.38 10.4727 278.078L14.7695 279.875C14.3008 280.956 13.9167 281.978 13.6172 282.941C13.3177 283.892 13.168 284.862 13.168 285.852C13.168 286.724 13.2852 287.382 13.5195 287.824C13.7539 288.267 14.112 288.488 14.5937 288.488C14.9453 288.488 15.2578 288.378 15.5312 288.156C15.8047 287.922 16.1107 287.479 16.4492 286.828C16.7747 286.164 17.1979 285.194 17.7187 283.918C18.2266 282.681 18.7604 281.607 19.3203 280.695C19.8672 279.784 20.5508 279.081 21.3711 278.586C22.1784 278.091 23.2266 277.844 24.5156 277.844ZM26.6445 263.996C26.6445 263.345 26.5794 262.714 26.4492 262.102C26.319 261.477 26.1562 260.858 25.9609 260.246L30.3945 260.246C30.681 260.884 30.9154 261.678 31.0977 262.629C31.293 263.566 31.3906 264.595 31.3906 265.715C31.3906 267.017 31.1823 268.189 30.7656 269.23C30.3359 270.259 29.6003 271.073 28.5586 271.672C27.5039 272.258 26.0391 272.551 24.1641 272.551L13.6367 272.551L13.6367 275.402L11.1172 275.402L9.125 272.121L4.51562 270.402L4.51562 266.594L9.16406 266.594L9.16406 260.48L13.6367 260.48L13.6367 266.594L24.1641 266.594C24.9974 266.594 25.6224 266.359 26.0391 265.891C26.4427 265.409 26.6445 264.777 26.6445 263.996ZM20.043 235.969C21.8659 235.969 23.4805 236.216 24.8867 236.711C26.293 237.193 27.4844 237.902 28.4609 238.84C29.4245 239.764 30.1536 240.884 30.6484 242.199C31.1432 243.501 31.3906 244.973 31.3906 246.613C31.3906 248.15 31.1432 249.562 30.6484 250.852C30.1536 252.128 29.4245 253.241 28.4609 254.191C27.4844 255.129 26.293 255.858 24.8867 256.379C23.4805 256.887 21.8659 257.141 20.043 257.141C17.6211 257.141 15.5703 256.711 13.8906 255.852C12.2109 254.992 10.9349 253.768 10.0625 252.18C9.1901 250.591 8.7539 248.697 8.7539 246.496C8.7539 244.452 9.1901 242.642 10.0625 241.066C10.9349 239.478 12.2109 238.234 13.8906 237.336C15.5703 236.424 17.6211 235.969 20.043 235.969ZM20.043 251.066C21.4753 251.066 22.6797 250.91 23.6562 250.598C24.6328 250.285 25.3685 249.797 25.8633 249.133C26.3581 248.469 26.6055 247.603 26.6055 246.535C26.6055 245.48 26.3581 244.628 25.8633 243.977C25.3685 243.312 24.6328 242.831 23.6562 242.531C22.6797 242.219 21.4753 242.062 20.043 242.062C18.5977 242.062 17.3997 242.219 16.4492 242.531C15.4857 242.831 14.763 243.312 14.2812 243.977C13.7995 244.641 13.5586 245.507 13.5586 246.574C13.5586 248.15 14.099 249.296 15.1797 250.012C16.2604 250.715 17.8815 251.066 20.043 251.066ZM8.7539 205.402C8.7539 202.928 9.39192 201.06 10.668 199.797C11.931 198.521 13.9622 197.883 16.7617 197.883L31 197.883L31 203.859L18.2461 203.859C16.6836 203.859 15.5052 204.126 14.7109 204.66C13.9167 205.194 13.5195 206.021 13.5195 207.141C13.5195 208.716 14.0859 209.836 15.2187 210.5C16.3385 211.164 17.9466 211.496 20.043 211.496L31 211.496L31 217.453L18.2461 217.453C17.2044 217.453 16.332 217.57 15.6289 217.805C14.9258 218.039 14.3984 218.397 14.0469 218.879C13.6953 219.361 13.5195 219.979 13.5195 220.734C13.5195 221.841 13.7995 222.714 14.3594 223.352C14.9062 223.977 15.72 224.426 16.8008 224.699C17.8685 224.96 19.1771 225.09 20.7266 225.09L31 225.09L31 231.047L9.16406 231.047L9.16406 226.496L11.957 225.695L11.957 225.363C11.2018 224.921 10.5898 224.367 10.1211 223.703C9.65234 223.026 9.30729 222.284 9.08593 221.477C8.86458 220.669 8.7539 219.849 8.7539 219.016C8.7539 217.414 9.01432 216.06 9.53515 214.953C10.056 213.833 10.8633 212.974 11.957 212.375L11.957 211.848C10.8372 211.197 10.0234 210.279 9.51562 209.094C9.00781 207.896 8.7539 206.665 8.7539 205.402ZM23.0703 164.035C24.763 164.035 26.2344 164.445 27.4844 165.266C28.7344 166.086 29.6979 167.284 30.375 168.859C31.0521 170.422 31.3906 172.323 31.3906 174.562C31.3906 175.552 31.3255 176.522 31.1953 177.473C31.0651 178.41 30.8763 179.315 30.6289 180.187C30.3685 181.047 30.0495 181.867 29.6719 182.648L24.0469 182.648C24.6458 181.294 25.1862 179.888 25.668 178.43C26.1497 176.971 26.3906 175.526 26.3906 174.094C26.3906 173.104 26.2604 172.31 26 171.711C25.7396 171.099 25.3815 170.656 24.9258 170.383C24.47 170.109 23.9492 169.973 23.3633 169.973C22.6471 169.973 22.0351 170.214 21.5273 170.695C21.0195 171.177 20.5443 171.841 20.1016 172.687C19.6588 173.521 19.1836 174.465 18.6758 175.52C18.3633 176.184 17.9857 176.906 17.543 177.687C17.0872 178.469 16.5338 179.211 15.8828 179.914C15.2318 180.617 14.444 181.197 13.5195 181.652C12.582 182.095 11.4622 182.316 10.1601 182.316C8.45442 182.316 6.99609 181.926 5.78515 181.145C4.57421 180.363 3.64973 179.25 3.01171 177.805C2.36067 176.346 2.03515 174.628 2.03515 172.648C2.03515 171.164 2.21093 169.751 2.56249 168.41C2.90103 167.056 3.39583 165.643 4.04687 164.172L8.7539 166.125C8.22004 167.44 7.80989 168.618 7.52343 169.66C7.22395 170.702 7.07421 171.763 7.07421 172.844C7.07421 173.599 7.19791 174.243 7.4453 174.777C7.67968 175.311 8.01822 175.715 8.46093 175.988C8.89062 176.262 9.39192 176.398 9.96484 176.398C10.6419 176.398 11.2148 176.203 11.6836 175.812C12.1393 175.409 12.582 174.81 13.0117 174.016C13.4414 173.208 13.9427 172.206 14.5156 171.008C15.2057 169.549 15.9284 168.306 16.6836 167.277C17.4258 166.236 18.3047 165.435 19.3203 164.875C20.3229 164.315 21.5729 164.035 23.0703 164.035ZM20.043 139.484C21.8659 139.484 23.4805 139.732 24.8867 140.227C26.293 140.708 27.4844 141.418 28.4609 142.355C29.4245 143.28 30.1536 144.4 30.6484 145.715C31.1432 147.017 31.3906 148.488 31.3906 150.129C31.3906 151.665 31.1432 153.078 30.6484 154.367C30.1536 155.643 29.4245 156.757 28.4609 157.707C27.4844 158.645 26.293 159.374 24.8867 159.895C23.4805 160.402 21.8659 160.656 20.043 160.656C17.6211 160.656 15.5703 160.227 13.8906 159.367C12.2109 158.508 10.9349 157.284 10.0625 155.695C9.1901 154.107 8.7539 152.212 8.7539 150.012C8.7539 147.967 9.1901 146.158 10.0625 144.582C10.9349 142.993 12.2109 141.75 13.8906 140.852C15.5703 139.94 17.6211 139.484 20.043 139.484ZM20.043 154.582C21.4753 154.582 22.6797 154.426 23.6562 154.113C24.6328 153.801 25.3685 153.312 25.8633 152.648C26.3581 151.984 26.6055 151.118 26.6055 150.051C26.6055 148.996 26.3581 148.143 25.8633 147.492C25.3685 146.828 24.6328 146.346 23.6562 146.047C22.6797 145.734 21.4753 145.578 20.043 145.578C18.5976 145.578 17.3997 145.734 16.4492 146.047C15.4857 146.346 14.763 146.828 14.2812 147.492C13.7995 148.156 13.5586 149.022 13.5586 150.09C13.5586 151.665 14.0989 152.811 15.1797 153.527C16.2604 154.23 17.8815 154.582 20.043 154.582ZM31 128.605L31 134.562L0.609366 134.562L0.609365 128.605L31 128.605ZM9.16405 102.297L31 102.297L31 106.867L28.207 107.668L28.207 107.98C28.9492 108.449 29.5547 109.035 30.0234 109.738C30.4922 110.441 30.8372 111.216 31.0586 112.062C31.2799 112.909 31.3906 113.788 31.3906 114.699C31.3906 116.262 31.1172 117.622 30.5703 118.781C30.0104 119.94 29.1445 120.845 27.9726 121.496C26.8008 122.134 25.2773 122.453 23.4023 122.453L9.16405 122.453L9.16405 116.496L21.918 116.496C23.4805 116.496 24.6588 116.216 25.4531 115.656C26.2474 115.096 26.6445 114.204 26.6445 112.98C26.6445 111.77 26.3711 110.819 25.8242 110.129C25.2643 109.439 24.4505 108.957 23.3828 108.684C22.3021 108.397 20.987 108.254 19.4375 108.254L9.16405 108.254L9.16405 102.297ZM26.6445 86.8477C26.6445 86.1966 26.5794 85.5651 26.4492 84.9531C26.319 84.3281 26.1562 83.7096 25.9609 83.0977L30.3945 83.0977C30.681 83.7357 30.9154 84.5299 31.0976 85.4805C31.293 86.418 31.3906 87.4466 31.3906 88.5664C31.3906 89.8685 31.1823 91.0404 30.7656 92.082C30.3359 93.1107 29.6002 93.9245 28.5586 94.5234C27.5039 95.1094 26.0391 95.4023 24.1641 95.4023L13.6367 95.4023L13.6367 98.2539L11.1172 98.2539L9.12499 94.9727L4.51561 93.2539L4.51561 89.4453L9.16405 89.4453L9.16405 83.332L13.6367 83.332L13.6367 89.4453L24.1641 89.4453C24.9974 89.4453 25.6224 89.2109 26.0391 88.7422C26.4427 88.2604 26.6445 87.6289 26.6445 86.8477ZM9.16405 72.707L31 72.707L31 78.6641L9.16405 78.6641L9.16405 72.707ZM0.609363 75.6758C0.609363 74.7904 0.817696 74.0286 1.23436 73.3906C1.63801 72.7526 2.39973 72.4336 3.51952 72.4336C4.62629 72.4336 5.39452 72.7526 5.82421 73.3906C6.24087 74.0286 6.44921 74.7904 6.44921 75.6758C6.44921 76.5742 6.24087 77.3424 5.82421 77.9805C5.39452 78.6055 4.62629 78.918 3.51952 78.918C2.39973 78.918 1.63801 78.6055 1.23436 77.9805C0.817697 77.3424 0.609363 76.5742 0.609363 75.6758ZM20.043 46.5937C21.8659 46.5937 23.4805 46.8411 24.8867 47.3359C26.293 47.8177 27.4844 48.5273 28.4609 49.4648C29.4245 50.3893 30.1536 51.5091 30.6484 52.8242C31.1432 54.1263 31.3906 55.5977 31.3906 57.2383C31.3906 58.7747 31.1432 60.1875 30.6484 61.4766C30.1536 62.7526 29.4245 63.8659 28.4609 64.8164C27.4844 65.7539 26.293 66.4831 24.8867 67.0039C23.4805 67.5117 21.8659 67.7656 20.043 67.7656C17.6211 67.7656 15.5703 67.3359 13.8906 66.4766C12.2109 65.6172 10.9349 64.3932 10.0625 62.8047C9.19009 61.2161 8.75389 59.3216 8.75389 57.1211C8.75389 55.0768 9.19009 53.2669 10.0625 51.6914C10.9349 50.1029 12.2109 48.8594 13.8906 47.9609C15.5703 47.0495 17.6211 46.5937 20.043 46.5937ZM20.043 61.6914C21.4752 61.6914 22.6797 61.5352 23.6562 61.2227C24.6328 60.9102 25.3685 60.4219 25.8633 59.7578C26.3581 59.0937 26.6055 58.2279 26.6055 57.1602C26.6055 56.1055 26.3581 55.2526 25.8633 54.6016C25.3685 53.9375 24.6328 53.4557 23.6562 53.1562C22.6797 52.8437 21.4752 52.6875 20.043 52.6875C18.5976 52.6875 17.3997 52.8437 16.4492 53.1562C15.4857 53.4557 14.763 53.9375 14.2812 54.6016C13.7995 55.2656 13.5586 56.1315 13.5586 57.1992C13.5586 58.7747 14.0989 59.9206 15.1797 60.6367C16.2604 61.3398 17.8815 61.6914 20.043 61.6914ZM8.75389 29.2695C8.75389 26.9388 9.39191 25.0638 10.668 23.6445C11.931 22.2253 13.9622 21.5156 16.7617 21.5156L31 21.5156L31 27.4727L18.2461 27.4727C16.6836 27.4727 15.5052 27.7591 14.7109 28.332C13.9167 28.8919 13.5195 29.7773 13.5195 30.9883C13.5195 32.8112 14.138 34.0547 15.375 34.7187C16.612 35.3828 18.3958 35.7148 20.7265 35.7148L31 35.7148L31 41.6719L9.16405 41.6719L9.16405 37.1211L11.957 36.3203L11.957 35.9883C11.2018 35.5195 10.5898 34.9401 10.1211 34.25C9.65233 33.5469 9.30728 32.7721 9.08592 31.9258C8.86457 31.0664 8.75389 30.181 8.75389 29.2695ZM24.5156 0.148436C26 0.148436 27.2565 0.499998 28.2851 1.20312C29.3008 1.89323 30.0755 2.92838 30.6094 4.30859C31.1302 5.6888 31.3906 7.40755 31.3906 9.46484C31.3906 10.9883 31.293 12.2969 31.0976 13.3906C30.9023 14.4714 30.5768 15.5651 30.1211 16.6719L25.1992 16.6719C25.7331 15.487 26.1758 14.2174 26.5273 12.8633C26.8659 11.4961 27.0351 10.2982 27.0351 9.26953C27.0351 8.11068 26.8659 7.28385 26.5273 6.78906C26.1758 6.28125 25.72 6.02734 25.1601 6.02734C24.7956 6.02734 24.47 6.13151 24.1836 6.33984C23.8841 6.53515 23.5521 6.96484 23.1875 7.6289C22.8099 8.29297 22.3216 9.33463 21.7226 10.7539C21.1497 12.1211 20.5703 13.2474 19.9844 14.1328C19.3984 15.0052 18.7083 15.6562 17.914 16.0859C17.1068 16.5026 16.0846 16.7109 14.8476 16.7109C12.8294 16.7109 11.3125 15.9297 10.2969 14.3672C9.26821 12.7917 8.75389 10.6888 8.75389 8.05859C8.75389 6.70443 8.89061 5.41536 9.16405 4.19141C9.43748 2.95443 9.87368 1.68489 10.4726 0.382812L14.7695 2.17969C14.3008 3.26042 13.9167 4.28255 13.6172 5.24609C13.3177 6.19661 13.168 7.16667 13.168 8.15625C13.168 9.02864 13.2851 9.6862 13.5195 10.1289C13.7539 10.5716 14.112 10.793 14.5937 10.793C14.9453 10.793 15.2578 10.6823 15.5312 10.4609C15.8047 10.2266 16.1107 9.78385 16.4492 9.13281C16.7747 8.46875 17.1979 7.4987 17.7187 6.22265C18.2265 4.98568 18.7604 3.91146 19.3203 3C19.8672 2.08854 20.5508 1.38542 21.3711 0.890624C22.1784 0.395832 23.2265 0.148436 24.5156 0.148436Z" fill="#131010"/>
</svg>
