<svg width="287" height="340" viewBox="0 0 287 340" fill="none" xmlns="http://www.w3.org/2000/svg">
<rect width="287" height="340" fill="#144688"/>
<rect x="54" y="72" width="179" height="105" rx="6" fill="#AFB5FF"/>
<rect x="61" y="79" width="165" height="91" rx="6" fill="#00173F"/>
<path d="M129 177H155L160 208H124L129 177Z" fill="#EDEDED"/>
<path d="M66.3481 208.466C66.7721 208.163 67.2801 208 67.8012 208H217.095C217.68 208 218.246 208.205 218.695 208.579V208.579C220.492 210.076 219.433 213 217.095 213H67.8012C65.3691 213 64.369 209.879 66.3481 208.466V208.466Z" fill="#C1C1C1"/>
<path d="M61 84C61 81.2386 63.2386 79 66 79H221C223.761 79 226 81.2386 226 84V88H61V84Z" fill="#D9D9D9"/>
<circle cx="68.5" cy="83.5" r="2.5" fill="#FB4C4C"/>
<circle cx="79.9365" cy="83.5" r="2.5" fill="#FFDD60"/>
<circle cx="91.3728" cy="83.5" r="2.5" fill="#A7FF50"/>
<rect x="161" y="59" width="86" height="41.7609" rx="2" fill="#080D48" stroke="black" stroke-width="2"/>
<rect x="161" y="71.6368" width="86" height="41.7609" rx="2" fill="#383838" stroke="black" stroke-width="2"/>
<circle cx="169.932" cy="64.1616" r="1.91304" fill="#FB4C4C"/>
<circle cx="178.683" cy="64.1616" r="1.91304" fill="#FFDD60"/>
<circle cx="187.434" cy="64.1616" r="1.91304" fill="#A7FF50"/>
<path d="M211.361 87.5411C213.361 88.6958 213.361 91.5825 211.361 92.7372L203.143 97.4815C201.143 98.6362 198.643 97.1928 198.643 94.8834L198.643 85.3948C198.643 83.0854 201.143 81.642 203.143 82.7967L211.361 87.5411Z" fill="#FFFDF1"/>
<rect x="163.826" y="109.27" width="81.113" height="1.53043" rx="0.765217" fill="#D9D9D9"/>
<rect x="163.826" y="109.27" width="55.8609" height="1.53043" rx="0.765217" fill="#00173F"/>
<rect x="15" y="120" width="91.6207" height="44.556" rx="2" fill="#080D48" stroke="black" stroke-width="2"/>
<rect x="15" y="133.444" width="91.6207" height="44.556" rx="2" fill="#FFFDF1" stroke="black" stroke-width="2"/>
<circle cx="24.5661" cy="125.555" r="2.03523" fill="#FB4C4C"/>
<circle cx="33.8763" cy="125.555" r="2.03523" fill="#FFDD60"/>
<circle cx="43.1867" cy="125.555" r="2.03523" fill="#A7FF50"/>
<path d="M46.9708 143.016C46.9708 142.368 47.2281 141.747 47.6861 141.289C48.1441 140.831 48.7653 140.573 49.413 140.573H56.5103C57.189 140.573 57.8508 140.785 58.4031 141.18L62.4035 144.037C62.9558 144.432 63.6176 144.644 64.2963 144.644H76.2781C76.9258 144.644 77.547 144.901 78.0051 145.359C78.4631 145.817 78.7204 146.438 78.7204 147.086V163.368C78.7204 164.016 78.4631 164.637 78.0051 165.095C77.547 165.553 76.9258 165.81 76.2781 165.81H49.413C48.7653 165.81 48.1441 165.553 47.6861 165.095C47.2281 164.637 46.9708 164.016 46.9708 163.368V143.016Z" fill="#FFDD60"/>
<path d="M45.3426 144.644C45.3426 143.996 45.5999 143.375 46.0579 142.917C46.5159 142.459 47.1371 142.202 47.7849 142.202H54.8821C55.5608 142.202 56.2226 142.414 56.7749 142.808L60.7753 145.666C61.3276 146.06 61.9894 146.272 62.6681 146.272H74.6499C75.2977 146.272 75.9189 146.529 76.3769 146.987C76.8349 147.445 77.0922 148.067 77.0922 148.714V164.996C77.0922 165.644 76.8349 166.265 76.3769 166.723C75.9189 167.181 75.2977 167.439 74.6499 167.439H47.7849C47.1371 167.439 46.5159 167.181 46.0579 166.723C45.5999 166.265 45.3426 165.644 45.3426 164.996V144.644Z" fill="#FFDD60" stroke="white" stroke-width="0.5" stroke-linecap="round" stroke-linejoin="round"/>
<g clip-path="url(#clip0_1_160)">
<path d="M73.2667 65.4536L77 71.0499L80.7333 65.4536H88.2C88.6951 65.4536 89.1699 65.2569 89.5199 64.9069C89.87 64.5568 90.0667 64.082 90.0667 63.5869V46.8C90.0667 46.555 90.0184 46.3123 89.9245 46.0859C89.8307 45.8596 89.6932 45.6539 89.5198 45.4807C89.3465 45.3075 89.1407 45.1702 88.9142 45.0766C88.6877 44.983 88.445 44.935 88.2 44.9352H65.8C65.3049 44.9352 64.8301 45.1319 64.4801 45.4819C64.13 45.832 63.9333 46.3068 63.9333 46.8019V63.5888C63.9333 64.0839 64.13 64.5587 64.4801 64.9087C64.8301 65.2588 65.3049 65.4555 65.8 65.4555H73.2667V65.4536Z" fill="#AFB5FF" stroke="white" stroke-width="3" stroke-linecap="square" stroke-linejoin="round"/>
</g>
<path d="M80.3333 50C78.9333 50 77.7 50.7 77 51.8C76.3 50.7 75.0667 50 73.6667 50C71.4667 50 69.6667 51.8 69.6667 54C69.6667 57.9667 77 62 77 62C77 62 84.3333 58 84.3333 54C84.3333 51.8 82.5333 50 80.3333 50Z" fill="#F44336"/>
<path d="M247.267 43.3184H251.5H254.733H262.2C262.695 43.3184 263.17 43.1217 263.52 42.7717C263.87 42.4216 264.067 41.9468 264.067 41.4517V24.6648C264.067 24.4198 264.019 24.1771 263.925 23.9507C263.831 23.7244 263.693 23.5187 263.52 23.3455C263.347 23.1723 263.141 23.035 262.914 22.9414C262.688 22.8478 262.445 22.7998 262.2 22.8H239.8C239.305 22.8 238.83 22.9967 238.48 23.3467C238.13 23.6968 237.933 24.1716 237.933 24.6667V41.4536C237.933 41.9487 233.15 50.5147 233.5 50.8648C233.85 51.2149 240.505 46.4999 241 46.4999L247.267 43.3203V43.3184Z" fill="#AFB5FF" stroke="white" stroke-width="3" stroke-linecap="square" stroke-linejoin="round"/>
<circle cx="244" cy="33" r="2" fill="#00173F"/>
<circle cx="251" cy="33" r="2" fill="#00173F"/>
<circle cx="258" cy="33" r="2" fill="#00173F"/>
<path d="M184.733 175.318H180.5H177.267H169.8C169.305 175.318 168.83 175.122 168.48 174.772C168.13 174.422 167.933 173.947 167.933 173.452V156.665C167.933 156.42 167.981 156.177 168.075 155.951C168.169 155.724 168.307 155.519 168.48 155.346C168.653 155.172 168.859 155.035 169.086 154.941C169.312 154.848 169.555 154.8 169.8 154.8H192.2C192.695 154.8 193.17 154.997 193.52 155.347C193.87 155.697 194.067 156.172 194.067 156.667V173.454C194.067 173.949 198.85 182.515 198.5 182.865C198.15 183.215 191.495 178.5 191 178.5L184.733 175.32V175.318Z" fill="#AFB5FF" stroke="white" stroke-width="3" stroke-linecap="square" stroke-linejoin="round"/>
<path d="M184.333 160C182.933 160 181.7 160.7 181 161.8C180.3 160.7 179.067 160 177.667 160C175.467 160 173.667 161.8 173.667 164C173.667 167.967 181 172 181 172C181 172 188.333 168 188.333 164C188.333 161.8 186.533 160 184.333 160Z" fill="#F44336"/>
<g clip-path="url(#clip1_1_160)">
<path d="M141 42C141 42.5046 140.81 42.9906 140.467 43.3605C140.123 43.7305 139.653 43.9572 139.15 43.995L139 44H137C136.495 44.0002 136.009 43.8096 135.639 43.4665C135.269 43.1234 135.043 42.6532 135.005 42.15L135 42H141ZM138 25C139.815 25 141.559 25.7049 142.864 26.9661C144.169 28.2273 144.934 29.9461 144.996 31.76L145 32V35.764L146.822 39.408C146.902 39.567 146.941 39.7429 146.938 39.9206C146.935 40.0984 146.888 40.2727 146.803 40.4286C146.717 40.5845 146.595 40.7174 146.447 40.8158C146.299 40.9143 146.13 40.9754 145.953 40.994L145.838 41H130.162C129.984 41.0001 129.809 40.957 129.651 40.8745C129.494 40.792 129.359 40.6725 129.257 40.5264C129.156 40.3802 129.092 40.2116 129.07 40.0351C129.048 39.8586 129.069 39.6795 129.132 39.513L129.178 39.408L131 35.764V32C131 30.1435 131.737 28.363 133.05 27.0503C134.363 25.7375 136.143 25 138 25Z" fill="#080D48"/>
</g>
<g clip-path="url(#clip2_1_160)">
<rect x="199" y="148" width="74" height="52" rx="5" fill="#161C66"/>
<path d="M217.402 167.5C218.557 165.5 221.443 165.5 222.598 167.5L239.919 197.5C241.073 199.5 239.63 202 237.321 202H202.679C200.37 202 198.927 199.5 200.081 197.5L217.402 167.5Z" fill="#8791FF"/>
<path d="M228.402 178.5C229.557 176.5 232.443 176.5 233.598 178.5L250.919 208.5C252.073 210.5 250.63 213 248.321 213H213.679C211.37 213 209.927 210.5 211.081 208.5L228.402 178.5Z" fill="#FFDD60"/>
<circle cx="257" cy="164" r="9" fill="#8791FF"/>
</g>
<rect x="55" y="220" width="178" height="36.4247" rx="3" fill="#FFFDF1"/>
<rect x="109" y="225" width="71" height="6" rx="3" fill="#00173F"/>
<rect x="60.4981" y="235.12" width="167.691" height="4.12355" rx="2.06178" fill="#AFB5FF"/>
<rect x="60.4981" y="241.992" width="167.691" height="4.12355" rx="2.06178" fill="#AFB5FF"/>
<rect x="60.4981" y="248.865" width="167.691" height="4.12355" rx="2.06178" fill="#AFB5FF"/>
<defs>
<clipPath id="clip0_1_160">
<rect width="28" height="28" fill="white" transform="translate(63 44)"/>
</clipPath>
<clipPath id="clip1_1_160">
<rect width="24" height="24" fill="white" transform="translate(126 23)"/>
</clipPath>
<clipPath id="clip2_1_160">
<rect x="199" y="148" width="74" height="52" rx="5" fill="white"/>
</clipPath>
</defs>
</svg>
