<svg width="18" height="18" viewBox="0 0 18 18" fill="none" xmlns="http://www.w3.org/2000/svg">
<mask id="mask0_737_341" style="mask-type:luminance" maskUnits="userSpaceOnUse" x="0" y="0" width="18" height="18">
<path d="M17 9C17.0013 10.0537 16.7939 11.0973 16.3895 12.0703C15.9852 13.0434 15.3921 13.9267 14.6444 14.6692C13.9028 15.4095 13.0226 15.9963 12.0541 16.3963C11.0856 16.7962 10.0478 17.0013 9 17C4.5816 17 1.00001 13.4184 1.00001 9C0.99721 6.94871 1.78515 4.97527 3.20001 3.49C3.94654 2.70224 4.84597 2.0751 5.84325 1.64696C6.84054 1.21881 7.9147 0.998673 9 1.00001C10.0478 0.99865 11.0856 1.2038 12.0541 1.60373C13.0226 2.00366 13.9028 2.59053 14.6444 3.3308C15.3921 4.07329 15.9852 4.95659 16.3895 5.92966C16.7939 6.90273 17.0013 7.94628 17 9Z" stroke="white" stroke-width="2" stroke-linecap="round" stroke-linejoin="round"/>
<path d="M17 8.99982C15.8328 8.99982 12.6128 8.55982 9.73081 9.82502C6.60001 11.1998 4.33321 13.3322 3.34521 14.6586" stroke="white" stroke-width="2" stroke-linecap="round" stroke-linejoin="round"/>
<path d="M6 1.58154C7.252 2.73714 9.984 5.67914 11 8.59994C12.016 11.5207 12.392 15.1119 12.624 16.1339" stroke="white" stroke-width="2" stroke-linecap="round" stroke-linejoin="round"/>
<path d="M1.06152 7.99989C2.57272 8.09109 6.57312 8.17309 9.13312 7.07989C11.6931 5.98669 13.8959 3.97589 14.6515 3.33789M1.59992 12.0451C2.30485 13.7514 3.5762 15.1628 5.19992 16.0415" stroke="white" stroke-width="2" stroke-linecap="round" stroke-linejoin="round"/>
<path d="M1.00001 9C0.99721 6.94871 1.78515 4.97527 3.20001 3.49C3.94654 2.70224 4.84597 2.0751 5.84325 1.64696C6.84054 1.21881 7.9147 0.998673 9 1.00001M12.2 1.66561C13.111 2.06422 13.94 2.6289 14.6444 3.3308C15.3921 4.07329 15.9852 4.95659 16.3895 5.92966C16.7939 6.90273 17.0013 7.94628 17 9C17 9.9848 16.822 10.9284 16.496 11.8M9 17C10.0478 17.0014 11.0856 16.7962 12.0541 16.3963C13.0226 15.9963 13.9028 15.4095 14.6444 14.6692" stroke="white" stroke-width="2" stroke-linecap="round" stroke-linejoin="round"/>
</mask>
<g mask="url(#mask0_737_341)">
<path d="M-0.600098 -0.600098H18.5999V18.5999H-0.600098V-0.600098Z" fill="#FFFDF1"/>
</g>
</svg>
