<svg width="276" height="358" viewBox="0 0 276 358" fill="none" xmlns="http://www.w3.org/2000/svg">
<circle cx="143" cy="225" r="133" fill="#131010"/>
<g clip-path="url(#clip0_111_871)">
<path d="M133 352C206.454 352 266 292.352 266 218.772C266 145.192 206.454 85.5437 133 85.5437C59.5462 85.5437 0 145.192 0 218.772C0 292.352 59.5462 352 133 352Z" fill="#2C39CC"/>
<path opacity="0.86" d="M133 352C206.454 352 266 292.352 266 218.772C266 145.192 206.454 85.5437 133 85.5437C59.5462 85.5437 0 145.192 0 218.772C0 292.352 59.5462 352 133 352Z" fill="white"/>
<path opacity="0.1" d="M62.9831 220.821L90.7072 260.349L44.3527 268.074L28.8271 247.088L62.9831 220.821Z" fill="#2C39CC"/>
<path opacity="0.1" d="M241.524 160.036L222.893 144.497L202.193 173.841L208.668 181.346L241.524 160.036Z" fill="#2C39CC"/>
<path opacity="0.1" d="M51.0806 173.841L68.2126 161.03L82.662 184.55L65.9894 193.322L51.0806 173.841Z" fill="#2C39CC"/>
<path opacity="0.1" d="M152.189 315.92L171.904 299.849L184.08 315.92L162.124 330.953L152.189 315.92Z" fill="#2C39CC"/>
<path opacity="0.1" d="M73.2568 199.799L91.148 186.705L105.418 205.501L97.6561 213.443L109.218 228.384L119.909 220.821L132.366 236.605L109.218 253.712L73.2568 199.799Z" fill="#2C39CC"/>
<path d="M265.804 226.049L199.175 271.237L229.867 310.063C228.954 311.039 228.025 311.998 227.081 312.942L195.935 273.543L141.819 313.953L165.787 347.921C164.407 348.274 163.019 348.602 161.621 348.906L137.463 314.664L103.567 267.316L44.2251 279.292L48.973 322.043C47.4741 320.82 46.0046 319.564 44.5646 318.276L40.1517 278.537L0.740464 232.867C0.502409 230.65 0.323134 228.417 0.202637 226.168L42.7968 275.53L101.028 263.774L19.2986 149.617C20.0392 148.394 20.8004 147.184 21.5821 145.987L105.294 262.913L105.752 262.821L166.818 219.778L123.562 163.527L129.809 85.5852C130.871 85.5587 131.935 85.5454 133.001 85.5454C133.265 85.5454 133.53 85.5454 133.794 85.5498L127.64 162.317L170.067 217.486L252.191 159.601C252.79 160.803 253.369 162.015 253.928 163.24L107.714 266.296L139.516 310.716L196.654 268.05L196.707 268.116L265.976 221.135C265.95 222.781 265.892 224.415 265.804 226.049Z" fill="white"/>
<path d="M132.997 5.6626C91.1335 5.6626 57.3315 39.5579 57.3315 81.3649C57.3315 94.5108 62.3131 109.318 66.5632 117.656C80.515 145.042 132.156 221.619 132.156 221.619C132.243 221.766 132.367 221.887 132.515 221.971C132.663 222.055 132.83 222.099 133 222.099C133.17 222.099 133.338 222.055 133.486 221.971C133.634 221.887 133.757 221.766 133.844 221.619C133.844 221.619 185.485 145.042 199.437 117.656C203.685 109.316 208.669 94.5108 208.669 81.3649C208.669 39.5561 174.866 5.6626 133.003 5.6626H132.997Z" fill="#2C39CC"/>
<path opacity="0.12" d="M132.997 5.6626C91.1335 5.6626 57.3315 39.5579 57.3315 81.3649C57.3315 94.5108 62.3131 109.318 66.5632 117.656C80.515 145.042 132.156 221.619 132.156 221.619C132.243 221.766 132.367 221.887 132.515 221.971C132.663 222.055 132.83 222.099 133 222.099C133.17 222.099 133.338 222.055 133.486 221.971C133.634 221.887 133.757 221.766 133.844 221.619C133.844 221.619 185.485 145.042 199.437 117.656C203.685 109.316 208.669 94.5108 208.669 81.3649C208.669 39.5561 174.866 5.6626 133.003 5.6626H132.997Z" fill="white"/>
<path d="M131.371 17.5345C131.914 17.5208 132.452 17.5345 132.998 17.5345C141.388 17.5346 149.693 19.205 157.433 22.4487C165.172 25.6924 172.191 30.4447 178.081 36.4293C183.97 42.414 188.614 49.5116 191.742 57.3096C194.869 65.1077 196.418 73.4507 196.299 81.8537C195.822 116.008 167.995 143.885 133.898 144.358C117.197 144.554 101.095 138.132 89.0989 126.49C77.1031 114.848 70.1853 98.9294 69.852 82.2017C69.5187 65.474 75.797 49.2919 87.3195 37.1797C98.842 25.0676 114.675 18.0066 131.371 17.5345Z" fill="white"/>
<path d="M152.189 1.00513C152.189 1.00513 170.504 1.22946 164.189 26.5127L162.47 26.5966L158.979 26.7671L152.189 1.00513Z" fill="#0C0C0C"/>
<path d="M131.739 53.039C131.824 53.031 132.162 68.8009 150.461 68.1385C163.129 67.6815 168.153 54.4318 168.443 54.4428C167.092 54.1001 164.815 53.5892 164.223 53.2426C162.275 52.0944 159.858 50.8849 159.366 46.9908C159.083 44.7462 160.151 33.3614 160.046 31.0973L140.489 34.6791C140.575 39.455 142.043 50.5766 135.321 52.2732C134.203 52.5537 133.002 52.8049 131.739 53.039Z" fill="#E98862"/>
<path opacity="0.52" d="M139.703 47.9217C140.045 46.9531 140.279 45.9498 140.403 44.9299C140.706 42.6035 140.755 40.2508 140.548 37.9138C144.509 37.5343 148.285 36.0491 151.446 33.6272C151.755 34.9732 153.509 40.8694 152.912 42.1147C151.782 44.4689 146.762 48.1964 139.703 47.9217Z" fill="#0C0C0C"/>
<path d="M144.143 45.1357C151.809 44.5877 161.058 39.9103 161.379 29.5054L161.669 20.1166C161.99 9.71162 156.796 1.10752 147.015 0.804144C137.235 0.501208 129.664 8.70875 129.343 19.115L129.215 23.2713C129.196 24.6991 129.273 26.1266 129.448 27.5438C129.882 31.293 130.556 36.994 133.019 40.8867C135.347 44.5617 139.244 45.4846 144.143 45.1357Z" fill="#E98862"/>
<path d="M160.674 32.6562C163.646 32.7485 166.154 29.6379 166.246 26.6606C166.338 23.6833 163.979 21.9669 161.007 21.875L159.414 23.8224L158.119 32.5771L160.674 32.6562Z" fill="#E98862"/>
<path d="M129.846 30.6858C130.383 31.3236 131.07 31.8168 131.846 32.1203C132.622 32.4239 133.461 32.5283 134.287 32.4239C136.054 32.2031 137.227 32.9278 138.703 32.7816C139.942 32.6593 140.158 32.0865 142.27 31.9611C150.431 31.4754 156.553 30.9618 156.952 20.7034L162.145 16.083C162.145 16.083 164.466 44.5091 149.117 48.2879C139.686 50.6098 130.84 49.7602 129.702 40.8867C128.778 33.6767 129.846 30.6858 129.846 30.6858Z" fill="#0C0C0C"/>
<path d="M133.712 24.7497C134.378 24.7497 134.917 24.2092 134.917 23.5424C134.917 22.8756 134.378 22.3351 133.712 22.3351C133.046 22.3351 132.507 22.8756 132.507 23.5424C132.507 24.2092 133.046 24.7497 133.712 24.7497Z" fill="#0C0C0C"/>
<path d="M144.479 24.5246C145.144 24.5246 145.684 23.9841 145.684 23.3173C145.684 22.6505 145.144 22.11 144.479 22.11C143.813 22.11 143.273 22.6505 143.273 23.3173C143.273 23.9841 143.813 24.5246 144.479 24.5246Z" fill="#0C0C0C"/>
<path d="M157.803 27.8171C157.803 27.8171 157.067 13.0721 152.626 12.0812C149.668 11.4214 142.391 15.5089 135.746 14.1125C132.836 13.5022 130.055 14.1748 129.75 15.5504C129.629 16.0949 127.326 11.2642 132.005 5.38611C135.729 0.705172 147.838 -0.610348 153.226 1.04476C168.142 5.62811 161.608 22.5347 161.608 22.5347L160.847 27.5998L157.803 27.8171Z" fill="#0C0C0C"/>
<path d="M164.582 15.9276C168.973 15.9276 172.533 12.3621 172.533 7.96378C172.533 3.56551 168.973 0 164.582 0C160.192 0 156.632 3.56551 156.632 7.96378C156.632 12.3621 160.192 15.9276 164.582 15.9276Z" fill="#0C0C0C"/>
<path d="M138.849 32.3083H138.83C137.872 32.2813 136.268 32.129 136.288 31.4109C136.305 30.8161 138.112 24.4425 138.316 23.7178C138.323 23.6854 138.337 23.6549 138.356 23.628C138.376 23.6011 138.4 23.5785 138.429 23.5614C138.457 23.5444 138.489 23.5334 138.522 23.5291C138.555 23.5247 138.588 23.5271 138.62 23.5361C138.652 23.5451 138.682 23.5606 138.708 23.5815C138.733 23.6024 138.755 23.6283 138.77 23.6577C138.785 23.6871 138.795 23.7193 138.797 23.7525C138.8 23.7856 138.796 23.8189 138.785 23.8503C137.984 26.6726 136.788 31.0206 136.776 31.4246C136.864 31.5968 137.852 31.7916 138.843 31.8198C138.908 31.8191 138.97 31.8441 139.017 31.8893C139.063 31.9346 139.089 31.9964 139.09 32.0612C139.091 32.1259 139.066 32.1884 139.021 32.2347C138.975 32.281 138.914 32.3075 138.849 32.3083Z" fill="#0C0C0C"/>
<path d="M135.931 19.4409C134.942 19.1463 133.891 19.1245 132.89 19.3778C132.397 19.4992 131.926 19.6939 131.491 19.9554C131.061 20.212 130.665 20.522 130.312 20.8779C130.281 20.9051 130.257 20.938 130.239 20.9747C130.221 21.0115 130.211 21.0514 130.209 21.092C130.207 21.1327 130.213 21.1735 130.226 21.2119C130.239 21.2504 130.26 21.2858 130.288 21.3162C130.315 21.3465 130.348 21.3712 130.384 21.3889C130.421 21.4065 130.461 21.4167 130.501 21.419C130.542 21.4212 130.583 21.4154 130.621 21.4019C130.659 21.3884 130.695 21.3674 130.725 21.3402L130.744 21.3243C131.073 21.0273 131.438 20.7729 131.83 20.567C132.216 20.362 132.631 20.2166 133.061 20.136C133.909 19.9697 134.785 20.0306 135.602 20.3126L135.633 20.3241C135.749 20.3668 135.877 20.3615 135.99 20.3095C136.102 20.2576 136.188 20.1631 136.231 20.047C136.274 19.9309 136.268 19.8026 136.216 19.6903C136.165 19.5781 136.07 19.4911 135.954 19.4484L135.931 19.4409Z" fill="#0C0C0C"/>
<path d="M143.033 20.3161C143.819 19.9552 144.686 19.8088 145.546 19.8917C145.982 19.9303 146.409 20.0345 146.813 20.2008C147.224 20.3677 147.611 20.5855 147.967 20.8491L147.987 20.8624C148.02 20.8865 148.057 20.904 148.097 20.9137C148.136 20.9235 148.177 20.9254 148.217 20.9193C148.257 20.9132 148.296 20.8992 148.331 20.8781C148.366 20.8571 148.396 20.8294 148.42 20.7966C148.444 20.7638 148.462 20.7265 148.471 20.687C148.481 20.6475 148.483 20.6064 148.477 20.5661C148.471 20.5258 148.457 20.4872 148.436 20.4523C148.415 20.4174 148.387 20.3871 148.354 20.3629C147.969 20.0428 147.544 19.7728 147.091 19.5592C146.633 19.3412 146.145 19.1932 145.643 19.1203C144.623 18.9658 143.58 19.0896 142.624 19.4788C142.567 19.5023 142.516 19.5367 142.473 19.5801C142.429 19.6234 142.395 19.6749 142.372 19.7315C142.348 19.7881 142.336 19.8487 142.336 19.91C142.336 19.9712 142.349 20.0319 142.372 20.0885C142.395 20.145 142.43 20.1964 142.473 20.2397C142.516 20.283 142.568 20.3173 142.624 20.3407C142.681 20.3641 142.741 20.3761 142.802 20.376C142.864 20.376 142.924 20.3639 142.981 20.3404L143.003 20.3307L143.033 20.3161Z" fill="#0C0C0C"/>
<path d="M90.1827 53.4669L90.7055 40.4999C90.7169 40.215 90.669 39.9308 90.5648 39.6655C90.4606 39.4001 90.3024 39.1595 90.1002 38.9587C89.898 38.758 89.6564 38.6017 89.3906 38.4996C89.1248 38.3976 88.8407 38.3521 88.5564 38.3661C88.0321 38.4081 87.5421 38.6437 87.1815 39.0273C86.8209 39.4108 86.6154 39.9148 86.6048 40.4416L86.4928 43.2236L82.8387 34.3153C82.4499 33.3181 81.3354 32.3435 80.2474 32.8545C79.8163 33.024 79.4553 33.3349 79.2231 33.7363C78.9909 34.1378 78.9014 34.6061 78.969 35.0651C78.9587 35.0664 78.9485 35.0686 78.9386 35.0717C78.9311 35.0753 78.9258 35.081 78.9187 35.085L78.3192 33.5473C78.208 33.2625 78.0348 33.006 77.8121 32.7967C77.5894 32.5874 77.323 32.4305 77.0321 32.3374C76.7412 32.2443 76.4333 32.2174 76.1307 32.2587C75.8281 32.2999 75.5386 32.4083 75.2831 32.5758C74.8863 32.8479 74.5949 33.2482 74.4575 33.7098C74.3201 34.1713 74.3451 34.6662 74.5284 35.1115L74.7819 35.7695C74.7663 35.7855 74.7538 35.8042 74.7448 35.8247C74.47 35.4227 74.0614 35.1317 73.5921 35.0038C73.1228 34.8759 72.6234 34.9194 72.1831 35.1265C71.708 35.3674 71.341 35.7788 71.1553 36.2788C70.9697 36.7787 70.979 37.3304 71.1815 37.8238L71.8159 39.4489C71.7907 39.4323 71.7619 39.4219 71.732 39.4186C71.702 39.4153 71.6717 39.4192 71.6435 39.4299C71.6108 39.4445 71.5829 39.4683 71.5633 39.4983C71.2192 39.2084 70.7897 39.0398 70.3406 39.0183C69.8915 38.9968 69.4479 39.1237 69.0778 39.3795C68.6944 39.6559 68.4154 40.0539 68.2861 40.5091C68.1568 40.9642 68.1848 41.4497 68.3654 41.8869L73.7155 55.6012C74.4641 57.5196 75.7675 59.1704 77.4588 60.342C79.15 61.5136 81.152 62.1526 83.2081 62.177C84.9811 62.198 86.6924 61.5258 87.9785 60.3031C89.2646 59.0804 90.0241 57.4037 90.0958 55.629L90.1827 53.4669Z" fill="#E98862"/>
<g opacity="0.2">
<path d="M82.5404 43.898C82.4943 43.9156 82.4431 43.9145 82.3978 43.8949C82.3525 43.8752 82.3167 43.8386 82.2979 43.7929L78.8338 35.3191C78.8241 35.296 78.819 35.2712 78.8188 35.2461C78.8187 35.2211 78.8236 35.1962 78.8331 35.173C78.8427 35.1499 78.8567 35.1288 78.8744 35.1111C78.8921 35.0934 78.9132 35.0794 78.9363 35.0699C78.9595 35.0604 78.9843 35.0556 79.0093 35.0558C79.0343 35.056 79.0591 35.0611 79.0821 35.0709C79.1051 35.0808 79.126 35.0951 79.1434 35.113C79.1609 35.131 79.1746 35.1522 79.1838 35.1755L82.648 43.6494C82.6574 43.6724 82.6622 43.6971 82.6621 43.722C82.662 43.7469 82.657 43.7716 82.6474 43.7945C82.6377 43.8175 82.6237 43.8384 82.606 43.8559C82.5883 43.8734 82.5674 43.8873 82.5444 43.8967L82.5404 43.898Z" fill="#0C0C0C"/>
</g>
<g opacity="0.2">
<path d="M78.8518 45.5314C78.8057 45.5491 78.7545 45.548 78.7092 45.5283C78.6639 45.5087 78.6281 45.4721 78.6094 45.4263L74.7432 35.9695C74.7337 35.9465 74.7289 35.9219 74.729 35.897C74.7291 35.8722 74.7341 35.8476 74.7436 35.8247C74.7532 35.8017 74.7672 35.7809 74.7849 35.7634C74.8025 35.7459 74.8234 35.7321 74.8463 35.7227C74.8929 35.7053 74.9443 35.7063 74.9901 35.7255C75.036 35.7447 75.0728 35.7806 75.0932 35.826L78.9594 45.2828C78.9783 45.3294 78.978 45.3816 78.9586 45.4279C78.9392 45.4743 78.9022 45.511 78.8558 45.5301L78.8518 45.5314Z" fill="#0C0C0C"/>
</g>
<g opacity="0.2">
<path d="M74.8664 47.3238C74.8203 47.3415 74.7691 47.3403 74.7238 47.3207C74.6785 47.3011 74.6426 47.2645 74.6239 47.2187L71.538 39.6753C71.5286 39.6523 71.5238 39.6276 71.5239 39.6027C71.524 39.5778 71.5291 39.5532 71.5387 39.5302C71.5483 39.5072 71.5623 39.4864 71.58 39.4689C71.5977 39.4513 71.6186 39.4375 71.6416 39.428C71.6646 39.4186 71.6893 39.4138 71.7141 39.4139C71.739 39.4141 71.7636 39.4191 71.7865 39.4287C71.8094 39.4383 71.8302 39.4524 71.8477 39.4701C71.8652 39.4878 71.8791 39.5088 71.8885 39.5318L74.9744 47.0752C74.9933 47.1217 74.9931 47.1738 74.9738 47.2202C74.9544 47.2665 74.9176 47.3033 74.8712 47.3225L74.8664 47.3238Z" fill="#0C0C0C"/>
</g>
<path d="M136.727 34.9552C139.616 35.1474 142.488 34.3694 144.887 32.7441C144.97 32.6888 145.067 32.6583 145.167 32.6561C145.267 32.6539 145.365 32.6801 145.451 32.7317C145.537 32.7833 145.606 32.8581 145.651 32.9475C145.696 33.0369 145.715 33.1373 145.705 33.2369C145.513 34.9472 144.669 38.0914 141.088 38.4919C138.776 38.7503 137.1 36.9715 136.256 35.7889C136.198 35.7069 136.165 35.6101 136.16 35.5099C136.155 35.4097 136.178 35.3101 136.228 35.2228C136.277 35.1355 136.35 35.0639 136.438 35.0166C136.527 34.9692 136.627 34.9479 136.727 34.9552Z" fill="white"/>
<path d="M192.957 70.6297C191.221 65.6882 189.82 63.2241 188.038 61.2753C185.598 58.608 181.929 55.9819 175.125 54.79C170.968 54.0658 164.703 53.414 164.703 53.414C164.703 53.4251 164.702 53.4361 164.7 53.4471C164.628 54.102 163.333 64.1779 151.037 64.2791C134.094 64.4208 135.311 52.7622 135.275 52.2857C135.278 52.2764 135.278 52.2702 135.275 52.2702C130.019 52.0653 116.914 51.9474 111.636 57.119C111.083 57.657 110.573 58.2382 110.112 58.8571L110.04 58.813L97.9428 77.4431L94.9213 52.7048L90.1835 53.4652L74.807 55.9333L73.9182 56.075L68.4395 56.9582L70.3492 71.7853L74.7254 105.777C78.9959 115.809 85.7713 124.572 94.4002 131.222C97.971 126.174 103.878 117.466 110.012 108.339C110.108 108.194 110.205 108.049 110.304 107.905V107.908C110.304 108.007 110.307 108.109 110.31 108.212C110.325 108.864 110.343 109.603 110.358 110.418C110.503 117.897 110.65 131.608 110.771 140.349C121.689 144.445 133.526 145.435 144.971 143.209C156.417 140.983 167.024 135.628 175.619 127.737C175.679 127.685 175.736 127.631 175.795 127.574C175.91 127.471 176.024 127.366 176.135 127.26C182.016 121.766 186.806 115.208 190.256 107.931C194.067 99.8877 196.126 91.1237 196.295 82.2216V82.2185L192.957 70.6297Z" fill="#0CBC8B"/>
<path d="M176.133 127.258C176.021 127.363 175.907 127.469 175.792 127.571C175.735 127.629 175.678 127.683 175.616 127.734L172.348 111.076L172.345 111.058L167.672 87.2491L168.262 87.0955L176.133 127.258Z" fill="#0C0C0C"/>
<path d="M110.387 110.418C110.311 110.415 110.238 110.384 110.184 110.33C110.13 110.276 110.098 110.203 110.095 110.127L109.491 96.8155C109.489 96.7754 109.495 96.7354 109.508 96.6977C109.522 96.6601 109.543 96.6254 109.57 96.5958C109.597 96.5662 109.629 96.5422 109.666 96.5252C109.702 96.5082 109.741 96.4985 109.781 96.4967C109.821 96.4948 109.861 96.5009 109.899 96.5145C109.936 96.5282 109.971 96.5491 110 96.5761C110.03 96.6032 110.054 96.6357 110.071 96.672C110.088 96.7083 110.098 96.7476 110.099 96.7877L110.704 110.1C110.706 110.14 110.7 110.18 110.686 110.217C110.672 110.255 110.651 110.29 110.624 110.319C110.597 110.349 110.565 110.373 110.529 110.39C110.492 110.407 110.453 110.416 110.413 110.418C110.402 110.418 110.394 110.419 110.387 110.418Z" fill="#0C0C0C"/>
</g>
<defs>
<clipPath id="clip0_111_871">
<rect width="266" height="352" fill="white"/>
</clipPath>
</defs>
</svg>
