<svg width="93" height="72" viewBox="0 0 93 72" fill="none" xmlns="http://www.w3.org/2000/svg">
<rect x="71.4932" y="7.09863" width="20.7887" height="14.1972" rx="2" fill="#144688"/>
<path d="M85.3877 13.3312C86.0544 13.7161 86.0544 14.6784 85.3877 15.0633L80.8877 17.6614C80.221 18.0463 79.3877 17.5651 79.3877 16.7953L79.3877 11.5992C79.3877 10.8294 80.221 10.3483 80.8877 10.7332L85.3877 13.3312Z" fill="#FFFDF1"/>
<rect y="50.7041" width="20.7887" height="14.1972" rx="2" fill="#144688"/>
<rect x="5.16748" y="52.8027" width="2.27259" height="9.9994" rx="1" fill="#FFFDF1"/>
<rect x="9.25684" y="55.5305" width="2.27259" height="7.27229" rx="1" fill="#FFFDF1"/>
<rect x="13.3486" y="57.3479" width="2.27259" height="5.45422" rx="1" fill="#FFFDF1"/>
<circle cx="61.3223" cy="31.2193" r="3.9839" fill="#131010"/>
<rect x="26.873" y="27.7041" width="5.62433" height="5.62433" fill="#00173F"/>
<rect x="32.4976" y="23.9546" width="13.3578" height="13.1234" fill="#8791FF"/>
<rect x="36.7153" y="37.0779" width="4.92129" height="10.0769" fill="#8791FF"/>
<rect x="59.2129" y="19.2676" width="2.10913" height="22.4973" fill="#080D48"/>
<path d="M45.8555 23.9545L59.2133 19.2676V41.7649L45.8555 37.078V23.9545Z" fill="#144688"/>
<rect y="7.09863" width="20.7887" height="14.1972" rx="2" fill="#144688"/>
<path d="M10.3945 9.19727C9.03766 9.19727 8.86703 9.20352 8.33391 9.22727C7.80078 9.25227 7.43766 9.33602 7.11953 9.45977C6.78584 9.58528 6.48359 9.78216 6.23391 10.0366C5.97958 10.2865 5.78272 10.5887 5.65703 10.9223C5.53328 11.2398 5.44891 11.6035 5.42453 12.1348C5.40078 12.6691 5.39453 12.8391 5.39453 14.1979C5.39453 15.5554 5.40078 15.7254 5.42453 16.2585C5.44953 16.791 5.53328 17.1541 5.65703 17.4723C5.78516 17.801 5.95578 18.0798 6.23391 18.3579C6.51141 18.636 6.79016 18.8073 7.11891 18.9348C7.43766 19.0585 7.80016 19.1429 8.33266 19.1673C8.86641 19.191 9.03641 19.1973 10.3945 19.1973C11.7527 19.1973 11.922 19.191 12.4558 19.1673C12.9877 19.1423 13.352 19.0585 13.6702 18.9348C14.0036 18.8092 14.3057 18.6123 14.5552 18.3579C14.8333 18.0798 15.0039 17.801 15.132 17.4723C15.2552 17.1541 15.3395 16.791 15.3645 16.2585C15.3883 15.7254 15.3945 15.5554 15.3945 14.1973C15.3945 12.8391 15.3883 12.6691 15.3645 12.1354C15.3395 11.6035 15.2552 11.2398 15.132 10.9223C15.0064 10.5887 14.8095 10.2864 14.5552 10.0366C14.3056 9.78206 14.0033 9.58517 13.6695 9.45977C13.3508 9.33602 12.987 9.25164 12.4552 9.22727C11.9214 9.20352 11.752 9.19727 10.3933 9.19727H10.3952H10.3945ZM9.94641 10.0985H10.3952C11.7302 10.0985 11.8883 10.1029 12.4152 10.1273C12.9027 10.1491 13.1677 10.231 13.3439 10.2991C13.577 10.3898 13.7439 10.4985 13.9189 10.6735C14.0939 10.8485 14.202 11.0148 14.2927 11.2485C14.3614 11.4241 14.4427 11.6891 14.4645 12.1766C14.4889 12.7035 14.4939 12.8616 14.4939 14.196C14.4939 15.5304 14.4889 15.6891 14.4645 16.216C14.4427 16.7035 14.3608 16.9679 14.2927 17.1441C14.2125 17.3612 14.0845 17.5575 13.9183 17.7185C13.7433 17.8935 13.577 18.0016 13.3433 18.0923C13.1683 18.161 12.9033 18.2423 12.4152 18.2648C11.8883 18.2885 11.7302 18.2941 10.3952 18.2941C9.06016 18.2941 8.90141 18.2885 8.37453 18.2648C7.88703 18.2423 7.62266 18.161 7.44641 18.0923C7.22922 18.0122 7.03273 17.8845 6.87141 17.7185C6.705 17.5573 6.57686 17.3608 6.49641 17.1435C6.42828 16.9679 6.34641 16.7029 6.32453 16.2154C6.30078 15.6885 6.29578 15.5304 6.29578 14.1948C6.29578 12.8598 6.30078 12.7023 6.32453 12.1754C6.34703 11.6879 6.42828 11.4229 6.49703 11.2466C6.58766 11.0135 6.69641 10.8466 6.87141 10.6716C7.04641 10.4966 7.21266 10.3885 7.44641 10.2979C7.62266 10.2291 7.88703 10.1479 8.37453 10.1254C8.83578 10.1041 9.01453 10.0979 9.94641 10.0973V10.0985ZM13.0639 10.9285C12.9851 10.9285 12.9071 10.944 12.8343 10.9742C12.7615 11.0043 12.6954 11.0485 12.6396 11.1043C12.5839 11.16 12.5397 11.2261 12.5096 11.2989C12.4794 11.3717 12.4639 11.4497 12.4639 11.5285C12.4639 11.6073 12.4794 11.6853 12.5096 11.7581C12.5397 11.8309 12.5839 11.8971 12.6396 11.9528C12.6954 12.0085 12.7615 12.0527 12.8343 12.0828C12.9071 12.113 12.9851 12.1285 13.0639 12.1285C13.223 12.1285 13.3756 12.0653 13.4882 11.9528C13.6007 11.8403 13.6639 11.6876 13.6639 11.5285C13.6639 11.3694 13.6007 11.2168 13.4882 11.1043C13.3756 10.9917 13.223 10.9285 13.0639 10.9285ZM10.3952 11.6298C10.0546 11.6245 9.71634 11.6869 9.40014 11.8136C9.08394 11.9403 8.7961 12.1286 8.55338 12.3675C8.31065 12.6065 8.11788 12.8914 7.98631 13.2056C7.85473 13.5197 7.78697 13.857 7.78697 14.1976C7.78697 14.5382 7.85473 14.8754 7.98631 15.1896C8.11788 15.5038 8.31065 15.7887 8.55338 16.0276C8.7961 16.2666 9.08394 16.4549 9.40014 16.5816C9.71634 16.7082 10.0546 16.7707 10.3952 16.7654C11.0692 16.7549 11.7122 16.4797 12.1851 15.9993C12.6581 15.5189 12.9232 14.8717 12.9232 14.1976C12.9232 13.5234 12.6581 12.8763 12.1851 12.3959C11.7122 11.9154 11.0692 11.6403 10.3952 11.6298ZM10.3952 12.5304C10.8372 12.5304 11.2612 12.706 11.5738 13.0186C11.8864 13.3312 12.062 13.7552 12.062 14.1973C12.062 14.6393 11.8864 15.0633 11.5738 15.3759C11.2612 15.6885 10.8372 15.8641 10.3952 15.8641C9.95307 15.8641 9.5291 15.6885 9.2165 15.3759C8.9039 15.0633 8.72828 14.6393 8.72828 14.1973C8.72828 13.7552 8.9039 13.3312 9.2165 13.0186C9.5291 12.706 9.95307 12.5304 10.3952 12.5304Z" fill="#FFFDF1"/>
<rect x="34.9858" width="20.7887" height="14.1972" rx="2" fill="#144688"/>
<path d="M46.2554 7.84863H47.5054L48.0054 5.84863H46.2554V4.84863C46.2554 4.33363 46.2554 3.84863 47.2554 3.84863H48.0054V2.16863C47.8424 2.14713 47.2269 2.09863 46.5769 2.09863C45.2194 2.09863 44.2554 2.92713 44.2554 4.44863V5.84863H42.7554V7.84863H44.2554V12.0986H46.2554V7.84863Z" fill="#FFFDF1"/>
<rect x="34.9858" y="57.8027" width="20.7887" height="14.1972" rx="2" fill="#144688"/>
<path d="M50.6616 68.9014H40.0991C39.4247 68.9014 38.8804 68.4547 38.8804 67.9014V61.9014C38.8804 61.348 39.4247 60.9014 40.0991 60.9014H50.6616C51.336 60.9014 51.8804 61.348 51.8804 61.9014V67.9014C51.8804 68.4547 51.336 68.9014 50.6616 68.9014ZM40.0991 61.568C39.8716 61.568 39.6929 61.7147 39.6929 61.9014V67.9014C39.6929 68.088 39.8716 68.2347 40.0991 68.2347H50.6616C50.8891 68.2347 51.0679 68.088 51.0679 67.9014V61.9014C51.0679 61.7147 50.8891 61.568 50.6616 61.568H40.0991Z" fill="#FFFDF1"/>
<path d="M45.4995 64.9958C44.8681 64.9958 44.2909 64.8796 43.8579 64.6679L39.1226 62.3514C38.9512 62.2684 38.9602 62.1355 39.1406 62.0567C39.321 61.9778 39.6097 61.9819 39.781 62.065L44.5164 64.3814C45.0305 64.6347 45.9685 64.6347 46.4827 64.3814L51.218 62.0691C51.3894 61.9861 51.678 61.9819 51.8584 62.0608C52.0388 62.1397 52.0478 62.2725 51.8764 62.3556L47.1411 64.672C46.7081 64.8838 46.1309 65 45.4995 65V64.9958Z" fill="#FFFDF1"/>
<rect x="71.4932" y="50.7041" width="20.7887" height="14.1972" rx="2" fill="#144688"/>
<path d="M86.8877 57.8027C86.8877 58.7916 86.5945 59.7583 86.045 60.5806C85.4956 61.4028 84.7147 62.0437 83.8011 62.4221C82.8875 62.8006 81.8821 62.8996 80.9122 62.7067C79.9423 62.5137 79.0514 62.0375 78.3522 61.3383C77.6529 60.639 77.1767 59.7481 76.9838 58.7782C76.7908 57.8083 76.8899 56.8029 77.2683 55.8893C77.6467 54.9757 78.2876 54.1948 79.1098 53.6454C79.9321 53.096 80.8988 52.8027 81.8877 52.8027L81.8877 57.8027H86.8877Z" fill="#FFFDF1"/>
<path d="M81.8877 52.8027C82.6546 52.8027 83.4113 52.9792 84.0991 53.3184C84.787 53.6576 85.3876 54.1505 85.8545 54.7589C86.3213 55.3674 86.642 56.0751 86.7916 56.8273C86.9412 57.5795 86.9158 58.356 86.7173 59.0968L81.8877 57.8027L81.8877 52.8027Z" fill="#00173F"/>
</svg>
