<svg width="87" height="82" viewBox="0 0 87 82" fill="none" xmlns="http://www.w3.org/2000/svg">
<rect width="86.326" height="50.6382" rx="6" fill="#144688"/>
<path d="M36.1696 50.6377H48.7086L51.12 65.588H33.7583L36.1696 50.6377Z" fill="#C1C1C1"/>
<path d="M5.95503 65.813C6.15951 65.6669 6.40452 65.5884 6.65581 65.5884H78.6555C78.9375 65.5884 79.2106 65.6873 79.4273 65.8678V65.8678C80.2936 66.5897 79.7831 67.9997 78.6555 67.9997H6.65581C5.48288 67.9997 5.00058 66.4947 5.95503 65.813V65.813Z" fill="#C1C1C1"/>
<rect x="45" y="31" width="12" height="2" rx="1" fill="#FFFDF1"/>
<rect x="48" y="39" width="9" height="2" rx="1" fill="#FFFDF1"/>
<rect x="33" y="39" width="14" height="2" rx="1" fill="#FFFDF1"/>
<rect x="45" y="35" width="12" height="2" rx="1" fill="#FFFDF1"/>
<rect x="41" y="35" width="3" height="2" rx="1" fill="#FFFDF1"/>
<rect x="37" y="31" width="7" height="2" rx="1" fill="#FFFDF1"/>
<rect x="56" y="22" width="4" height="1" rx="0.5" transform="rotate(-90 56 22)" fill="#FFFDF1"/>
<rect x="64" y="21" width="3" height="1" rx="0.5" transform="rotate(-90 64 21)" fill="#FFFDF1"/>
<rect x="64" y="25" width="3" height="1" rx="0.5" transform="rotate(-90 64 25)" fill="#FFFDF1"/>
<rect x="60" y="22" width="4" height="1" rx="0.5" transform="rotate(-90 60 22)" fill="#FFFDF1"/>
<rect x="60" y="24" width="1" height="1" rx="0.5" transform="rotate(-90 60 24)" fill="#FFFDF1"/>
<rect x="56" y="25" width="2" height="1" rx="0.5" transform="rotate(-90 56 25)" fill="#FFFDF1"/>
<path d="M21.366 10.5L27.8612 21.75C28.2461 22.4167 27.765 23.25 26.9952 23.25H14.0048C13.235 23.25 12.7539 22.4167 13.1388 21.75L19.634 10.5C20.0189 9.83333 20.9811 9.83333 21.366 10.5Z" fill="#5F6CFF" stroke="#FFFDF1" stroke-width="2"/>
<circle cx="64" cy="36" r="8" fill="#AFB5FF" stroke="#FFFDF1" stroke-width="2"/>
<rect x="51" y="6" width="19" height="13" rx="2" fill="#FFFDF1"/>
</svg>
