<svg width="93" height="83" viewBox="0 0 93 83" fill="none" xmlns="http://www.w3.org/2000/svg">
<path fill-rule="evenodd" clip-rule="evenodd" d="M0 13.6208C0 12.5163 0.895429 11.6208 2 11.6208H91C92.1046 11.6208 93 12.5163 93 13.6208V75.7165C93 76.8211 92.1046 77.7165 91 77.7165H2C0.895431 77.7165 0 76.8211 0 75.7165V13.6208ZM70.9289 34.9638C70.9289 38.1679 70.1345 40.6306 68.5457 42.3519C66.9568 44.0731 64.6795 44.9337 61.7137 44.9337C58.7478 44.9337 56.4705 44.0731 54.8817 42.3519C53.2928 40.6306 52.4984 38.1591 52.4984 34.9373C52.4984 31.7155 53.2928 29.2572 54.8817 27.5624C56.4793 25.8588 58.7655 25.007 61.7402 25.007C64.7148 25.007 66.9877 25.8633 68.5589 27.5757C70.1389 29.2881 70.9289 31.7508 70.9289 34.9638ZM56.8015 34.9638C56.8015 37.1264 57.212 38.7549 58.0329 39.8494C58.8538 40.944 60.0807 41.4912 61.7137 41.4912C64.9884 41.4912 66.6258 39.3154 66.6258 34.9638C66.6258 30.6033 64.9973 28.4231 61.7402 28.4231C60.1072 28.4231 58.8758 28.9747 58.0461 30.0781C57.2164 31.1726 56.8015 32.8012 56.8015 34.9638ZM32.7571 43.4243C34.0193 42.4181 34.6505 41.0411 34.6505 39.2934C34.6505 38.0311 34.315 36.9675 33.6442 36.1024C32.9734 35.2286 31.7332 34.3591 29.9237 33.4941C28.5555 32.8409 27.6861 32.3907 27.3153 32.1436C26.9534 31.8876 26.6886 31.6272 26.5209 31.3624C26.3532 31.0888 26.2693 30.771 26.2693 30.4091C26.2693 29.8265 26.4768 29.3543 26.8916 28.9924C27.3065 28.6305 27.9023 28.4495 28.6791 28.4495C29.3323 28.4495 29.9943 28.5334 30.6651 28.7011C30.9485 28.771 31.2625 28.8632 31.6072 28.9776C32.5191 29.2802 33.5315 28.8707 33.8997 27.9833V27.9833C34.2648 27.1033 33.8592 26.0834 32.9578 25.7751C32.5252 25.6271 32.1008 25.4991 31.6846 25.391C30.7755 25.1527 29.8177 25.0335 28.8115 25.0335C26.7636 25.0335 25.1572 25.5234 23.992 26.5032C22.8357 27.483 22.2575 28.8291 22.2575 30.5415C22.2575 31.4507 22.4341 32.2451 22.7871 32.9248C23.1402 33.6044 23.6125 34.2002 24.2039 34.7122C24.7953 35.2242 25.6824 35.7582 26.8652 36.3143C28.1274 36.9145 28.9615 37.3514 29.3676 37.6251C29.7824 37.8987 30.0958 38.1856 30.3076 38.4857C30.5195 38.777 30.6254 39.1124 30.6254 39.492C30.6254 40.1716 30.3827 40.6836 29.8972 41.0278C29.4205 41.3721 28.732 41.5442 27.8317 41.5442C27.0814 41.5442 26.2517 41.425 25.3425 41.1867C25.0955 41.1213 24.8332 41.043 24.5557 40.9517C23.344 40.5532 22.0324 41.3937 22.0324 42.6692V42.6692C22.0324 43.342 22.4117 43.9677 23.0436 44.1988C24.3834 44.6887 25.8735 44.9337 27.5139 44.9337C29.756 44.9337 31.5037 44.4306 32.7571 43.4243ZM38.1591 42.6689C38.1591 43.7735 39.0546 44.6689 40.1591 44.6689H47.6127C48.5487 44.6689 49.3075 43.9102 49.3075 42.9742V42.9742C49.3075 42.0382 48.5487 41.2794 47.6127 41.2794H44.2636C43.1591 41.2794 42.2636 40.384 42.2636 39.2794V38.2878C42.2636 37.1832 43.1591 36.2878 44.2636 36.2878H47.1361C48.0648 36.2878 48.8176 35.535 48.8176 34.6063V34.6063C48.8176 33.6776 48.0648 32.9248 47.1361 32.9248H44.2636C43.1591 32.9248 42.2636 32.0293 42.2636 30.9248V30.6746C42.2636 29.57 43.1591 28.6746 44.2636 28.6746H47.626C48.5547 28.6746 49.3075 27.9218 49.3075 26.9931V26.9931C49.3075 26.0644 48.5547 25.3116 47.626 25.3116H40.1591C39.0546 25.3116 38.1591 26.207 38.1591 27.3116V42.6689ZM14.1935 52.9316C14.1935 51.6447 15.2368 50.6013 16.5238 50.6013H76.476C77.763 50.6013 78.8063 51.6447 78.8063 52.9316C78.8063 54.2186 77.763 55.2619 76.476 55.2619H16.5238C15.2368 55.2619 14.1935 54.2186 14.1935 52.9316ZM14.1937 59.7106C14.1937 58.4236 15.237 57.3803 16.524 57.3803H42.1572C43.4442 57.3803 44.4875 58.4236 44.4875 59.7106C44.4875 60.9975 43.4442 62.0409 42.1572 62.0409H16.524C15.237 62.0409 14.1937 60.9975 14.1937 59.7106ZM48.9355 57.3803C47.6485 57.3803 46.6052 58.4236 46.6052 59.7106C46.6052 60.9975 47.6485 62.0409 48.9355 62.0409H76.4753C77.7623 62.0409 78.8056 60.9975 78.8056 59.7106C78.8056 58.4236 77.7623 57.3803 76.4753 57.3803H48.9355ZM30.5044 66.4894C30.5044 65.2025 31.5477 64.1591 32.8347 64.1591H60.3746C61.6616 64.1591 62.7049 65.2025 62.7049 66.4894C62.7049 67.7764 61.6616 68.8197 60.3746 68.8197H32.8347C31.5477 68.8197 30.5044 67.7764 30.5044 66.4894Z" fill="#144688"/>
<path d="M0 3C0 1.34315 1.34315 0 3 0H89.9697C91.6266 0 92.9697 1.34315 92.9697 3V9.44224H0V3Z" fill="#144688"/>
</svg>
