<svg width="87" height="82" viewBox="0 0 87 82" fill="none" xmlns="http://www.w3.org/2000/svg">
<rect width="86.326" height="50.6382" rx="6" fill="#144688"/>
<path d="M36.1696 50.6377H48.7086L51.12 65.588H33.7583L36.1696 50.6377Z" fill="#C1C1C1"/>
<path d="M5.95503 65.813C6.15951 65.6669 6.40452 65.5884 6.65581 65.5884H78.6555C78.9375 65.5884 79.2106 65.6873 79.4273 65.8678V65.8678C80.2936 66.5897 79.7831 67.9997 78.6555 67.9997H6.65581C5.48288 67.9997 5.00058 66.4947 5.95503 65.813V65.813Z" fill="#C1C1C1"/>
<path d="M27 18.5L42 11L58 18.5L42 26.5L27 18.5Z" fill="#AFB5FF"/>
<path d="M58 18.5L42 25.6379V41.5L58 34.3621V18.5Z" fill="#FFFDF1"/>
<path d="M27 18.5L42 25.6379V41.5L27 34.3621V18.5Z" fill="#FFFDF1"/>
<rect x="64" y="34" width="13" height="4" fill="#FFFDF1"/>
<rect x="72.5" y="29.5" width="13" height="4" transform="rotate(90 72.5 29.5)" fill="#FFFDF1"/>
<rect x="16" y="8" width="3" height="33" fill="#FFFDF1"/>
<rect x="3" y="6" width="10" height="37" rx="2" fill="#FFFDF1"/>
<rect x="5" y="10" width="6" height="5" fill="#5F6CFF"/>
<rect x="5" y="18" width="6" height="5" fill="#5F6CFF"/>
<rect x="5" y="26" width="6" height="5" fill="#5F6CFF"/>
<rect x="5" y="34" width="6" height="5" fill="#5F6CFF"/>
</svg>
