<svg width="84" height="83" viewBox="0 0 84 83" fill="none" xmlns="http://www.w3.org/2000/svg">
<path d="M25.2778 24C20.482 27.6536 9.26717 36.2255 2.77438 41.2843C-5.34162 47.6078 53.3149 37.4902 40.0342 49.7157C29.4096 59.4961 12.735 65.3137 5.72584 67" stroke="#144688" stroke-width="4" stroke-linecap="round"/>
<path fill-rule="evenodd" clip-rule="evenodd" d="M69.417 8.95195C67.8563 7.68545 65.8564 7.09068 63.8573 7.29843C61.8581 7.50618 60.0233 8.49944 58.7563 10.0598L57.1644 12.0237L70.8971 23.171L72.4868 21.2098C73.1143 20.437 73.5833 19.548 73.8673 18.5939C74.1512 17.6397 74.2443 16.6389 74.1414 15.6487C74.0385 14.6585 73.7416 13.6983 73.2675 12.8229C72.7935 11.9474 72.1517 11.174 71.3787 10.5466L69.417 8.95195ZM67.7103 27.0941L53.9776 15.9468L33.5074 41.1677C33.0594 41.7196 32.7757 42.3864 32.6887 43.0919L31.7074 51L31.2661 54.5566C31.213 54.9823 31.269 55.4145 31.4291 55.8125C31.5891 56.2105 31.8479 56.5612 32.1809 56.8315C32.514 57.1019 32.9104 57.283 33.3328 57.3578C33.7552 57.4326 34.1896 57.3986 34.5953 57.259L37.6046 56.2273L45.5253 53.5118C46.1969 53.2812 46.7902 52.8666 47.2376 52.3152L67.7103 27.0941Z" fill="#144688"/>
</svg>
