<svg width="87" height="82" viewBox="0 0 87 82" fill="none" xmlns="http://www.w3.org/2000/svg">
<rect width="86.326" height="50.6382" rx="6" fill="#144688"/>
<path d="M36.1696 50.6379H48.7086L51.12 65.5883H33.7583L36.1696 50.6379Z" fill="#C1C1C1"/>
<path d="M5.95503 65.8132C6.15951 65.6671 6.40452 65.5886 6.65581 65.5886H78.6555C78.9375 65.5886 79.2106 65.6875 79.4273 65.8681V65.8681C80.2936 66.59 79.7831 68 78.6555 68H6.65581C5.48288 68 5.00058 66.4949 5.95503 65.8132V65.8132Z" fill="#C1C1C1"/>
<path d="M10.1702 12.7625C9.86483 12.7613 9.60205 12.6862 9.38188 12.537C9.16289 12.3879 8.99421 12.1718 8.87584 11.8889C8.75866 11.606 8.70065 11.2657 8.70184 10.868C8.70184 10.4714 8.76043 10.1335 8.87762 9.85414C8.99599 9.57478 9.16467 9.3623 9.38366 9.21671C9.60383 9.06993 9.86602 8.99654 10.1702 8.99654C10.4744 8.99654 10.736 9.06993 10.955 9.21671C11.1752 9.36349 11.3445 9.57656 11.4628 9.85591C11.5812 10.1341 11.6398 10.4714 11.6386 10.868C11.6386 11.2669 11.5794 11.6078 11.4611 11.8907C11.3439 12.1736 11.1758 12.3896 10.9568 12.5388C10.7378 12.6879 10.4756 12.7625 10.1702 12.7625ZM10.1702 12.1251C10.3786 12.1251 10.5449 12.0203 10.6692 11.8108C10.7935 11.6013 10.855 11.287 10.8538 10.868C10.8538 10.5922 10.8254 10.3625 10.7686 10.1791C10.713 9.99559 10.6337 9.85769 10.5307 9.76536C10.4289 9.67303 10.3087 9.62686 10.1702 9.62686C9.96308 9.62686 9.79736 9.73044 9.67307 9.93759C9.54878 10.1447 9.48605 10.4549 9.48486 10.868C9.48486 11.1473 9.51268 11.3805 9.56831 11.5676C9.62513 11.7534 9.70503 11.8931 9.80802 11.9866C9.911 12.0789 10.0317 12.1251 10.1702 12.1251ZM13.7689 9.04625V12.6826H13V9.77601H12.9787L12.146 10.298V9.61621L13.0462 9.04625H13.7689ZM15.9448 11.2V10.575L18.4448 9.47417V10.1933L16.7332 10.8804L16.7563 10.8431V10.9319L16.7332 10.8946L18.4448 11.5818V12.3009L15.9448 11.2ZM19.2101 12.6826V9.04625H19.9789V10.5466H21.5396V9.04625H22.3067V12.6826H21.5396V11.1805H19.9789V12.6826H19.2101ZM22.8021 9.68013V9.04625H25.7886V9.68013H24.6753V12.6826H23.9153V9.68013H22.8021ZM26.2804 9.04625H27.2286L28.23 11.4894H28.2726L29.274 9.04625H30.2222V12.6826H29.4764V10.3158H29.4462L28.5052 12.6649H27.9974L27.0563 10.3069H27.0261V12.6826H26.2804V9.04625ZM30.8556 12.6826V9.04625H31.6244V12.0487H33.1834V12.6826H30.8556ZM36.3257 11.2L33.8257 12.3009V11.5818L35.5373 10.8946L35.5142 10.9319V10.8431L35.5373 10.8804L33.8257 10.1933V9.47417L36.3257 10.575V11.2Z" fill="white"/>
<path d="M10.1702 28.8948C9.86483 28.8937 9.60205 28.8185 9.38188 28.6693C9.16289 28.5202 8.99421 28.3042 8.87584 28.0213C8.75866 27.7384 8.70065 27.398 8.70184 27.0003C8.70184 26.6038 8.76043 26.2658 8.87762 25.9865C8.99599 25.7071 9.16467 25.4946 9.38366 25.349C9.60383 25.2023 9.86602 25.1289 10.1702 25.1289C10.4744 25.1289 10.736 25.2023 10.955 25.349C11.1752 25.4958 11.3445 25.7089 11.4628 25.9882C11.5812 26.2664 11.6398 26.6038 11.6386 27.0003C11.6386 27.3992 11.5794 27.7401 11.4611 28.023C11.3439 28.3059 11.1758 28.522 10.9568 28.6711C10.7378 28.8203 10.4756 28.8948 10.1702 28.8948ZM10.1702 28.2574C10.3786 28.2574 10.5449 28.1527 10.6692 27.9431C10.7935 27.7336 10.855 27.4193 10.8538 27.0003C10.8538 26.7245 10.8254 26.4949 10.7686 26.3114C10.713 26.1279 10.6337 25.99 10.5307 25.8977C10.4289 25.8054 10.3087 25.7592 10.1702 25.7592C9.96308 25.7592 9.79736 25.8628 9.67307 26.0699C9.54878 26.2771 9.48605 26.5872 9.48486 27.0003C9.48486 27.2797 9.51268 27.5129 9.56831 27.6999C9.62513 27.8857 9.70503 28.0254 9.80802 28.1189C9.911 28.2112 10.0317 28.2574 10.1702 28.2574ZM12.1868 28.8149V28.261L13.4812 27.0625C13.5913 26.9559 13.6836 26.86 13.7582 26.7748C13.834 26.6896 13.8914 26.6061 13.9304 26.5245C13.9695 26.4416 13.989 26.3522 13.989 26.2563C13.989 26.1498 13.9648 26.0581 13.9162 25.9811C13.8677 25.903 13.8014 25.8432 13.7174 25.8018C13.6333 25.7592 13.538 25.7379 13.4315 25.7379C13.3202 25.7379 13.2232 25.7604 13.1403 25.8054C13.0575 25.8503 12.9935 25.9148 12.9486 25.9989C12.9036 26.0829 12.8811 26.183 12.8811 26.299H12.1513C12.1513 26.061 12.2052 25.8545 12.3129 25.6793C12.4206 25.5041 12.5715 25.3686 12.7657 25.2727C12.9598 25.1768 13.1835 25.1289 13.4368 25.1289C13.6973 25.1289 13.9239 25.175 14.1169 25.2674C14.311 25.3585 14.4619 25.4852 14.5696 25.6473C14.6774 25.8095 14.7312 25.9953 14.7312 26.2049C14.7312 26.3422 14.704 26.4777 14.6495 26.6115C14.5963 26.7452 14.501 26.8938 14.3637 27.0571C14.2264 27.2193 14.0328 27.414 13.7831 27.6413L13.2522 28.1615V28.1864H14.7792V28.8149H12.1868ZM16.6479 27.3323V26.7073L19.1479 25.6065V26.3256L17.4363 27.0127L17.4594 26.9755V27.0642L17.4363 27.0269L19.1479 27.7141V28.4332L16.6479 27.3323ZM19.9132 28.8149V25.1786H20.682V26.6789H22.2428V25.1786H23.0098V28.8149H22.2428V27.3128H20.682V28.8149H19.9132ZM23.6437 28.8149V25.1786H26.094V25.8125H24.4125V26.6789H25.9679V27.3128H24.4125V28.1811H26.1011V28.8149H23.6437ZM27.332 28.8149H26.5081L27.7634 25.1786H28.7542L30.0078 28.8149H29.1839L28.273 26.0095H28.2446L27.332 28.8149ZM27.2805 27.3856H29.2265V27.9858H27.2805V27.3856ZM31.7345 28.8149H30.4454V25.1786H31.7452C32.1109 25.1786 32.4258 25.2514 32.6898 25.397C32.9537 25.5414 33.1567 25.7491 33.2988 26.0202C33.442 26.2913 33.5136 26.6156 33.5136 26.9932C33.5136 27.372 33.442 27.6975 33.2988 27.9698C33.1567 28.242 32.9525 28.4509 32.6862 28.5965C32.4211 28.7421 32.1038 28.8149 31.7345 28.8149ZM31.2143 28.1562H31.7025C31.9298 28.1562 32.121 28.116 32.2761 28.0355C32.4323 27.9538 32.5495 27.8277 32.6276 27.6573C32.7069 27.4856 32.7466 27.2643 32.7466 26.9932C32.7466 26.7245 32.7069 26.5049 32.6276 26.3345C32.5495 26.164 32.4329 26.0385 32.2778 25.9581C32.1228 25.8776 31.9316 25.8373 31.7043 25.8373H31.2143V28.1562ZM34.0831 28.8149V25.1786H36.5334V25.8125H34.852V26.6789H36.4074V27.3128H34.852V28.1811H36.5405V28.8149H34.0831ZM37.1447 28.8149V25.1786H38.5793C38.8539 25.1786 39.0883 25.2277 39.2824 25.3259C39.4778 25.423 39.6263 25.5609 39.7281 25.7397C39.8311 25.9172 39.8826 26.1261 39.8826 26.3664C39.8826 26.6079 39.8305 26.8157 39.7263 26.9897C39.6222 27.1625 39.4713 27.2951 39.2736 27.3874C39.0771 27.4797 38.8391 27.5259 38.5598 27.5259H37.5992V26.908H38.4355C38.5823 26.908 38.7042 26.8879 38.8013 26.8476C38.8983 26.8074 38.9705 26.747 39.0179 26.6665C39.0664 26.586 39.0907 26.486 39.0907 26.3664C39.0907 26.2457 39.0664 26.1439 39.0179 26.061C38.9705 25.9782 38.8977 25.9154 38.7995 25.8728C38.7024 25.829 38.5799 25.8071 38.432 25.8071H37.9135V28.8149H37.1447ZM39.1084 27.1601L40.0122 28.8149H39.1635L38.2793 27.1601H39.1084ZM43.0591 27.3323L40.5591 28.4332V27.7141L42.2707 27.0269L42.2476 27.0642V26.9755L42.2707 27.0127L40.5591 26.3256V25.6065L43.0591 26.7073V27.3323Z" fill="white"/>
<rect x="8.19922" y="15.4324" width="26.5248" height="2.41134" rx="1.20567" fill="#FFDD60"/>
<rect x="8.19922" y="31.8298" width="43.4042" height="2.41134" rx="1.20567" fill="#A7FF50"/>
<rect x="8.19922" y="36.1699" width="51.1205" height="2.41134" rx="1.20567" fill="#FFDD60"/>
<rect x="8.19922" y="40.5103" width="37.1347" height="2.41134" rx="1.20567" fill="#00173F"/>
<rect x="8.19922" y="19.7727" width="43.4042" height="2.41134" rx="1.20567" fill="#FB4C4C"/>
</svg>
