<svg width="582" height="21" viewBox="0 0 582 21" fill="none" xmlns="http://www.w3.org/2000/svg">
<path fill-rule="evenodd" clip-rule="evenodd" d="M10.9289 1.39836C10.8989 1.25041 10.757 1.15251 10.6088 1.18129C9.87566 1.32366 9.08791 1.55362 8.24557 1.87116C7.31748 2.21053 6.39799 2.67717 5.48709 3.27107C4.59338 3.86497 3.77701 4.60311 3.03798 5.48548C2.29895 6.35088 1.70601 7.37748 1.25915 8.56529C0.812296 9.75309 0.588867 11.1106 0.588867 12.6378C0.588867 14.9455 1.12166 16.7357 2.18724 18.0083C3.27 19.264 4.75666 19.8919 6.6472 19.8919C7.79871 19.8919 8.86429 19.6628 9.84394 19.2046C10.8236 18.7295 11.6056 18.0423 12.1899 17.1429C12.7743 16.2436 13.0665 15.1406 13.0665 13.834C13.0665 12.6802 12.8344 11.696 12.3704 10.8815C11.9063 10.067 11.2962 9.43917 10.54 8.99799C9.78378 8.5568 8.94163 8.33621 8.01355 8.33621C7.49444 8.33621 5.70584 8.41795 4.81075 8.65124C4.82112 8.59664 4.83173 8.54253 4.84259 8.48893C5.10039 7.30112 5.44413 6.31694 5.87379 5.53639C6.30346 4.73886 6.79328 4.08557 7.34326 3.57651C7.91042 3.06745 8.50337 2.66869 9.12209 2.38022C9.66229 2.12836 10.2025 1.90885 10.7427 1.72167C10.8767 1.67523 10.9571 1.53738 10.9289 1.39836Z" fill="#131010"/>
<path fill-rule="evenodd" clip-rule="evenodd" d="M27.8625 1.39836C27.8325 1.25041 27.6906 1.15251 27.5424 1.18129C26.8093 1.32366 26.0215 1.55362 25.1792 1.87116C24.2511 2.21053 23.3316 2.67717 22.4207 3.27107C21.527 3.86497 20.7106 4.60311 19.9716 5.48548C19.2325 6.35088 18.6396 7.37748 18.1927 8.56529C17.7459 9.75309 17.5225 11.1106 17.5225 12.6378C17.5225 14.9455 18.0553 16.7357 19.1208 18.0083C20.2036 19.264 21.6902 19.8919 23.5808 19.8919C24.7323 19.8919 25.7979 19.6628 26.7775 19.2046C27.7572 18.7295 28.5392 18.0423 29.1235 17.1429C29.7079 16.2436 30 15.1406 30 13.834C30 12.6802 29.768 11.696 29.304 10.8815C28.8399 10.067 28.2298 9.43917 27.4736 8.99799C26.7174 8.5568 25.8752 8.33621 24.9471 8.33621C24.428 8.33621 22.6394 8.41795 21.7443 8.65124C21.7547 8.59664 21.7653 8.54253 21.7762 8.48893C22.034 7.30112 22.3777 6.31694 22.8074 5.53639C23.2371 4.73886 23.7269 4.08557 24.2769 3.57651C24.844 3.06745 25.437 2.66869 26.0557 2.38022C26.5959 2.12836 27.1361 1.90885 27.6763 1.72167C27.8103 1.67523 27.8906 1.53738 27.8625 1.39836Z" fill="#131010"/>
<path fill-rule="evenodd" clip-rule="evenodd" d="M10.34 0.221966C10.3101 0.0740141 10.1681 -0.0238801 10.02 0.00489669C9.28679 0.147269 8.49904 0.377225 7.6567 0.694766C6.72862 1.03414 5.80912 1.50078 4.89823 2.09468C4.00451 2.68858 3.18814 3.42672 2.44911 4.30909C1.71008 5.17449 1.11714 6.20109 0.670284 7.38889C0.223428 8.5767 0 9.93419 0 11.4614C0 13.7691 0.532789 15.5593 1.59837 16.8319C2.68113 18.0876 4.16779 18.7155 6.05833 18.7155C7.20984 18.7155 8.27542 18.4864 9.25507 18.0282C10.2347 17.5531 11.0167 16.8659 11.6011 15.9665C12.1854 15.0672 12.4776 13.9642 12.4776 12.6577C12.4776 11.5038 12.2456 10.5196 11.7815 9.70511C11.3175 8.89062 10.7073 8.26278 9.95113 7.82159C9.19492 7.38041 8.35276 7.15982 7.42468 7.15982C6.90557 7.15982 5.11697 7.24156 4.22188 7.47485C4.23225 7.42024 4.24286 7.36614 4.25372 7.31254C4.51152 6.12473 4.85526 5.14055 5.28493 4.35999C5.7146 3.56247 6.20442 2.90917 6.75439 2.40011C7.32156 1.89105 7.9145 1.49229 8.53323 1.20382C9.07342 0.951971 9.61361 0.732453 10.1538 0.545273C10.2878 0.498834 10.3682 0.360981 10.34 0.221966Z" fill="#144688"/>
<path fill-rule="evenodd" clip-rule="evenodd" d="M27.2736 0.222091C27.2436 0.074139 27.1017 -0.0237552 26.9535 0.00502158C26.2204 0.147394 25.4326 0.37735 24.5903 0.694891C23.6622 1.03426 22.7427 1.5009 21.8318 2.0948C20.9381 2.68871 20.1217 3.42684 19.3827 4.30921C18.6437 5.17461 18.0507 6.20121 17.6039 7.38902C17.157 8.57682 16.9336 9.93431 16.9336 11.4615C16.9336 13.7692 17.4664 15.5594 18.532 16.8321C19.6147 18.0877 21.1014 18.7156 22.9919 18.7156C24.1434 18.7156 25.209 18.4865 26.1887 18.0284C27.1683 17.5532 27.9503 16.866 28.5347 15.9667C29.119 15.0673 29.4112 13.9644 29.4112 12.6578C29.4112 11.5039 29.1792 10.5197 28.7151 9.70524C28.2511 8.89074 27.6409 8.2629 26.8847 7.82172C26.1285 7.38053 25.2864 7.15994 24.3583 7.15994C23.8392 7.15994 22.0506 7.24168 21.1555 7.47497C21.1658 7.42037 21.1765 7.36626 21.1873 7.31266C21.4451 6.12486 21.7889 5.14067 22.2185 4.36012C22.6482 3.56259 23.138 2.9093 23.688 2.40024C24.2552 1.89118 24.8481 1.49242 25.4668 1.20395C26.007 0.952095 26.5472 0.732578 27.0874 0.545398C27.2214 0.498958 27.3018 0.361106 27.2736 0.222091Z" fill="#144688"/>
<path fill-rule="evenodd" clip-rule="evenodd" d="M571.482 20.4937C571.512 20.6417 571.654 20.7396 571.802 20.7108C572.535 20.5684 573.323 20.3385 574.166 20.0209C575.094 19.6816 576.013 19.2149 576.924 18.621C577.818 18.0271 578.634 17.289 579.373 16.4066C580.112 15.5412 580.705 14.5146 581.152 13.3268C581.599 12.139 581.822 10.7815 581.822 9.25433C581.822 6.94659 581.289 5.1564 580.224 3.88376C579.141 2.62808 577.654 2.00024 575.764 2.00024C574.612 2.00024 573.547 2.22931 572.567 2.68747C571.588 3.16259 570.806 3.84982 570.221 4.74916C569.637 5.64849 569.345 6.75146 569.345 8.05804C569.345 9.21191 569.577 10.1961 570.041 11.0106C570.505 11.8251 571.115 12.4529 571.871 12.8941C572.627 13.3353 573.47 13.5559 574.398 13.5559C574.917 13.5559 576.705 13.4741 577.6 13.2408C577.59 13.2955 577.579 13.3496 577.569 13.4032C577.311 14.591 576.967 15.5751 576.537 16.3557C576.108 17.1532 575.618 17.8065 575.068 18.3156C574.501 18.8246 573.908 19.2234 573.289 19.5119C572.749 19.7637 572.209 19.9832 571.668 20.1704C571.534 20.2169 571.454 20.3547 571.482 20.4937Z" fill="#131010"/>
<path fill-rule="evenodd" clip-rule="evenodd" d="M554.549 20.4937C554.579 20.6417 554.721 20.7396 554.869 20.7108C555.602 20.5684 556.39 20.3385 557.232 20.0209C558.16 19.6816 559.08 19.2149 559.99 18.621C560.884 18.0271 561.701 17.289 562.44 16.4066C563.179 15.5412 563.772 14.5146 564.218 13.3268C564.665 12.139 564.889 10.7815 564.889 9.25433C564.889 6.9466 564.356 5.1564 563.29 3.88376C562.208 2.62808 560.721 2.00024 558.83 2.00024C557.679 2.00024 556.613 2.22931 555.634 2.68747C554.654 3.16259 553.872 3.84982 553.288 4.74916C552.703 5.64849 552.411 6.75146 552.411 8.05804C552.411 9.21191 552.643 10.1961 553.107 11.0106C553.571 11.8251 554.181 12.4529 554.938 12.8941C555.694 13.3353 556.536 13.5559 557.464 13.5559C557.983 13.5559 559.772 13.4741 560.667 13.2408C560.656 13.2955 560.646 13.3496 560.635 13.4032C560.377 14.591 560.033 15.5751 559.604 16.3557C559.174 17.1532 558.684 17.8065 558.134 18.3156C557.567 18.8246 556.974 19.2234 556.355 19.5119C555.815 19.7637 555.275 19.9832 554.735 20.1704C554.601 20.2169 554.52 20.3547 554.549 20.4937Z" fill="#131010"/>
<path fill-rule="evenodd" clip-rule="evenodd" d="M570.071 19.6701C570.101 19.8181 570.243 19.916 570.391 19.8872C571.124 19.7448 571.912 19.5149 572.754 19.1973C573.683 18.858 574.602 18.3913 575.513 17.7974C576.407 17.2035 577.223 16.4654 577.962 15.583C578.701 14.7176 579.294 13.691 579.741 12.5032C580.188 11.3154 580.411 9.9579 580.411 8.43072C580.411 6.12299 579.878 4.3328 578.813 3.06015C577.73 1.80447 576.243 1.17663 574.353 1.17663C573.201 1.17663 572.136 1.40571 571.156 1.86386C570.176 2.33898 569.394 3.02621 568.81 3.92555C568.226 4.82489 567.934 5.92785 567.934 7.23443C567.934 8.3883 568.166 9.37248 568.63 10.187C569.094 11.0015 569.704 11.6293 570.46 12.0705C571.216 12.5117 572.058 12.7323 572.986 12.7323C573.506 12.7323 575.294 12.6505 576.189 12.4172C576.179 12.4718 576.168 12.526 576.157 12.5796C575.9 13.7674 575.556 14.7515 575.126 15.5321C574.697 16.3296 574.207 16.9829 573.657 17.492C573.09 18.001 572.497 18.3998 571.878 18.6883C571.338 18.9401 570.798 19.1596 570.257 19.3468C570.123 19.3933 570.043 19.5311 570.071 19.6701Z" fill="#144688"/>
<path fill-rule="evenodd" clip-rule="evenodd" d="M553.138 19.67C553.167 19.8179 553.309 19.9158 553.458 19.8871C554.191 19.7447 554.978 19.5147 555.821 19.1972C556.749 18.8578 557.668 18.3912 558.579 17.7973C559.473 17.2034 560.289 16.4652 561.028 15.5829C561.767 14.7175 562.36 13.6909 562.807 12.5031C563.254 11.3153 563.478 9.95778 563.478 8.4306C563.478 6.12286 562.945 4.33267 561.879 3.06002C560.796 1.80434 559.31 1.1765 557.419 1.1765C556.268 1.1765 555.202 1.40558 554.222 1.86373C553.243 2.33885 552.461 3.02608 551.876 3.92542C551.292 4.82476 551 5.92772 551 7.23431C551 8.38818 551.232 9.37236 551.696 10.1869C552.16 11.0013 552.77 11.6292 553.526 12.0704C554.283 12.5116 555.125 12.7321 556.053 12.7321C556.572 12.7321 558.361 12.6504 559.256 12.4171C559.245 12.4717 559.235 12.5258 559.224 12.5794C558.966 13.7672 558.622 14.7514 558.193 15.532C557.763 16.3295 557.273 16.9828 556.723 17.4919C556.156 18.0009 555.563 18.3997 554.944 18.6881C554.404 18.94 553.864 19.1595 553.324 19.3467C553.19 19.3931 553.109 19.531 553.138 19.67Z" fill="#144688"/>
</svg>
