<svg width="93" height="83" viewBox="0 0 93 83" fill="none" xmlns="http://www.w3.org/2000/svg">
<rect width="92.0205" height="55.2769" rx="5" fill="#144688"/>
<rect x="40" y="55" width="12" height="6" fill="#144688"/>
<rect x="12" y="61" width="68" height="4" rx="2" fill="#144688"/>
<rect x="17.7725" y="52.7849" width="56.7015" height="2.55409" fill="#144688"/>
<path d="M59.482 22.0865C60.7848 21.3343 61.2312 19.6684 60.479 18.3656V18.3656C59.7268 17.0628 58.0609 16.6164 56.7581 17.3686L55.3674 18.1715C54.5999 18.6146 53.6405 18.4677 52.9363 17.9296V17.9296C52.2292 17.3894 51.835 16.4975 52.0653 15.6381L52.4814 14.0851C52.8707 12.6322 52.0085 11.1388 50.5556 10.7495V10.7495C49.1028 10.3602 47.6094 11.2224 47.2201 12.6753L46.804 14.2283C46.5737 15.0878 45.7863 15.6631 44.9039 15.7774V15.7774C44.025 15.8913 43.1206 15.5388 42.6775 14.7712L41.8746 13.3805C41.1224 12.0777 39.4565 11.6314 38.1537 12.3835V12.3835C36.8509 13.1357 36.4045 14.8016 37.1567 16.1044L37.9596 17.4951C38.4027 18.2627 38.2559 19.2221 37.7178 19.9263V19.9263C37.1776 20.6334 36.2857 21.0276 35.4262 20.7973L33.8732 20.3811C32.4203 19.9918 30.9269 20.854 30.5376 22.3069V22.3069C30.1483 23.7598 31.0105 25.2532 32.4634 25.6425L34.0164 26.0586C34.8759 26.2889 35.4511 27.0763 35.5654 27.9587V27.9587C35.6793 28.8376 35.3268 29.7419 34.5593 30.1851L33.1686 30.988C31.8658 31.7402 31.4195 33.4061 32.1716 34.7089V34.7089C32.9238 36.0117 34.5897 36.4581 35.8925 35.7059L37.2832 34.903C38.0507 34.4598 39.0101 34.6068 39.7144 35.1449V35.1449C40.4214 35.685 40.8157 36.5769 40.5854 37.4364L40.1692 38.9894C39.7799 40.4423 40.6421 41.9357 42.095 42.325V42.325C43.5479 42.7143 45.0413 41.8521 45.4306 40.3992L45.8467 38.8462C46.077 37.9867 46.8643 37.4113 47.7468 37.297V37.297C48.6257 37.1832 49.53 37.5357 49.9732 38.3032L50.7761 39.6939C51.5283 40.9967 53.1942 41.4431 54.497 40.6909V40.6909C55.7998 39.9387 56.2462 38.2728 55.494 36.97L54.6911 35.5793C54.2479 34.8118 54.3948 33.8524 54.9329 33.1481V33.1481C55.4731 32.4411 56.365 32.0469 57.2245 32.2772L58.7775 32.6933C60.2304 33.0826 61.7238 32.2204 62.1131 30.7675V30.7675C62.5024 29.3147 61.6402 27.8213 60.1873 27.432L58.6343 27.0159C57.7748 26.7856 57.1995 25.9982 57.0852 25.1158V25.1158C56.9714 24.2369 57.3238 23.3325 58.0913 22.8894L59.482 22.0865ZM49.0492 31.2551C48.1161 31.7939 47.0442 32.0438 45.969 31.9733C44.8939 31.9029 43.8638 31.5151 43.0089 30.8592C42.1541 30.2033 41.513 29.3086 41.1667 28.2884C40.8203 27.2681 40.7843 26.168 41.0632 25.1272C41.3421 24.0865 41.9233 23.1518 42.7334 22.4414C43.5435 21.731 44.546 21.2767 45.6143 21.1361C46.6825 20.9954 47.7685 21.1747 48.7348 21.6513C49.7012 22.1278 50.5045 22.8802 51.0432 23.8134C51.7634 25.0651 51.958 26.5514 51.5842 27.9463C51.2104 29.3413 50.2988 30.5312 49.0492 31.2551Z" fill="#FFFDF1"/>
<path fill-rule="evenodd" clip-rule="evenodd" d="M42.9768 25.0408C44.1027 24.7492 44.4775 26.1063 43.6554 26.9335C43.0393 27.5533 43.0393 28.5584 43.6554 29.1783C44.2715 29.7982 45.2703 29.7982 45.8864 29.1783C46.6773 28.3824 47.9649 28.7663 47.6663 29.8509C47.4832 30.5159 47.1289 31.1479 46.6047 31.6753C46.4195 31.8616 46.2214 32.0266 46.0135 32.1702C45.1949 32.7355 44.2209 33.1002 43.248 33.4645C41.9742 33.9415 40.7023 34.4177 39.7831 35.3426L33.1864 41.9804C32.8901 42.5809 32.651 43.2273 32.4118 43.8741C32.0497 44.8531 31.6873 45.8332 31.1254 46.657C30.9827 46.8662 30.8188 47.0655 30.6337 47.2518C30.1094 47.7793 29.4813 48.1357 28.8205 48.32C27.7426 48.6205 27.3611 47.3249 28.152 46.5291C28.7681 45.9092 28.7681 44.9042 28.152 44.2843C27.5359 43.6644 26.5371 43.6644 25.921 44.2843C25.099 45.1115 23.7502 44.7344 24.0401 43.6015C24.217 42.9101 24.5777 42.2513 25.1209 41.7048C25.3023 41.5223 25.4961 41.3602 25.6994 41.2187C26.5533 40.6244 27.5804 40.2525 28.6064 39.881C29.9276 39.4027 31.247 38.9251 32.1923 37.9738L38.4724 31.6547C38.7854 31.0172 39.0323 30.3267 39.2794 29.6356C39.6486 28.6031 40.0182 27.5696 40.6089 26.7104C40.7495 26.5058 40.9105 26.3108 41.0919 26.1283C41.6351 25.5818 42.2897 25.2189 42.9768 25.0408Z" fill="#AFB5FF"/>
</svg>
