<svg width="87" height="82" viewBox="0 0 87 82" fill="none" xmlns="http://www.w3.org/2000/svg">
<rect width="86.326" height="50.6382" rx="6" fill="#144688"/>
<path d="M36.1696 50.6377H48.7086L51.12 65.588H33.7583L36.1696 50.6377Z" fill="#C1C1C1"/>
<path d="M5.95503 65.813C6.15951 65.6669 6.40452 65.5884 6.65581 65.5884H78.6555C78.9375 65.5884 79.2106 65.6873 79.4273 65.8678V65.8678C80.2936 66.5897 79.7831 67.9997 78.6555 67.9997H6.65581C5.48288 67.9997 5.00058 66.4947 5.95503 65.813V65.813Z" fill="#C1C1C1"/>
<rect x="3" y="6" width="10" height="37" rx="2" fill="#FFFDF1"/>
<rect x="5" y="10" width="6" height="5" fill="#144688"/>
<rect x="5" y="18" width="6" height="5" fill="#144688"/>
<rect x="5" y="26" width="6" height="5" fill="#144688"/>
<rect x="5" y="34" width="6" height="5" fill="#144688"/>
<rect x="17" y="6" width="65" height="19" rx="2" fill="#FFFDF1"/>
<rect x="17" y="27" width="34" height="16" rx="2" fill="#FFFDF1"/>
<rect x="54" y="27" width="28" height="16" rx="2" fill="#FFFDF1"/>
<path d="M27.5 9L28.9593 13.4914H33.6819L29.8613 16.2672L31.3206 20.7586L27.5 17.9828L23.6794 20.7586L25.1387 16.2672L21.3181 13.4914H26.0407L27.5 9Z" fill="#144688"/>
<rect x="40" y="10" width="37" height="2" rx="1" fill="#144688"/>
<rect x="40" y="14" width="26" height="2" rx="1" fill="#144688"/>
<rect x="57" y="18" width="20" height="2" rx="1" fill="#144688"/>
<rect x="40" y="18" width="15" height="2" rx="1" fill="#144688"/>
<rect x="32" y="32" width="15" height="2" rx="1" fill="#144688"/>
<rect x="67" y="31" width="14" height="2" rx="1" fill="#144688"/>
<rect x="32" y="36" width="10" height="2" rx="1" fill="#144688"/>
<rect x="67" y="35" width="9" height="2" rx="1" fill="#144688"/>
<path d="M24.134 32.5C24.5189 31.8333 25.4811 31.8333 25.866 32.5L28.4641 37C28.849 37.6667 28.3679 38.5 27.5981 38.5H22.4019C21.6321 38.5 21.151 37.6667 21.5359 37L24.134 32.5Z" fill="#144688"/>
<path d="M59.134 31.5C59.5189 30.8333 60.4811 30.8333 60.866 31.5L63.4641 36C63.849 36.6667 63.3679 37.5 62.5981 37.5H57.4019C56.6321 37.5 56.151 36.6667 56.5359 36L59.134 31.5Z" fill="#144688"/>
</svg>
