<svg width="93" height="65" viewBox="0 0 93 65" fill="none" xmlns="http://www.w3.org/2000/svg">
<rect y="0.0158691" width="92.0205" height="55.2769" rx="5" fill="#144688"/>
<path opacity="0.4" d="M47.9401 10.3037L48.205 11.2126C49.0102 13.9759 52.1667 15.2834 54.69 13.8988L55.52 13.4434C56.8354 12.7216 58.2784 14.1646 57.5566 15.48L57.1012 16.31C55.7166 18.8333 57.0241 21.9898 59.7874 22.795L60.6963 23.0599C62.1368 23.4797 62.1368 25.5203 60.6963 25.9401L59.7874 26.205C57.0241 27.0102 55.7166 30.1667 57.1012 32.69L57.5566 33.52C58.2784 34.8354 56.8354 36.2784 55.52 35.5566L54.69 35.1012C52.1667 33.7166 49.0102 35.0241 48.205 37.7874L47.9401 38.6963C47.5203 40.1368 45.4797 40.1368 45.0599 38.6963L44.795 37.7874C43.9898 35.0241 40.8333 33.7166 38.31 35.1012L37.48 35.5566C36.1646 36.2784 34.7216 34.8354 35.4434 33.52L35.8988 32.69C37.2834 30.1667 35.9759 27.0102 33.2126 26.205L32.3037 25.9401C30.8632 25.5203 30.8632 23.4797 32.3037 23.0599L33.2126 22.795C35.9759 21.9898 37.2834 18.8333 35.8988 16.31L35.4434 15.48C34.7216 14.1646 36.1646 12.7216 37.48 13.4434L38.31 13.8988C40.8333 15.2834 43.9898 13.9759 44.795 11.2126L45.0599 10.3037C45.4797 8.86319 47.5203 8.86319 47.9401 10.3037Z" fill="#131010" stroke="#131010" stroke-width="3"/>
<path d="M43.0359 11.0159C44.5755 8.34921 48.4245 8.3492 49.9641 11.0159L65.1195 37.2659C66.6591 39.9325 64.7346 43.2659 61.6554 43.2659H31.3446C28.2654 43.2659 26.3409 39.9325 27.8805 37.2659L43.0359 11.0159Z" fill="#FFFDF1"/>
<rect x="40.3838" y="55.2927" width="11.2543" height="5.32789" fill="#144688"/>
<rect x="33.1006" y="60.6211" width="25.8187" height="3.99592" rx="1.99796" fill="#144688"/>
<rect x="17.7725" y="52.8008" width="56.7015" height="2.55409" fill="#144688"/>
<path d="M45.0357 15.4996C45.0161 14.6772 45.6774 14 46.5 14V14C47.3226 14 47.9839 14.6772 47.9643 15.4996L47.5238 34.0003C47.5106 34.5562 47.0561 35 46.5 35V35C45.9439 35 45.4894 34.5562 45.4762 34.0003L45.0357 15.4996Z" fill="#D9D9D9"/>
<circle cx="46.5" cy="37.5" r="1.5" fill="#D9D9D9"/>
</svg>
