<svg width="92" height="83" viewBox="0 0 92 83" fill="none" xmlns="http://www.w3.org/2000/svg">
<rect width="92" height="55" rx="5" fill="#144688"/>
<path d="M20.8037 20.4586C21.4797 21.2043 21.4261 22.3588 20.6864 23.0375C19.9467 23.7162 18.799 23.664 18.123 22.9184C17.4469 22.1727 17.5006 21.0182 18.2403 20.3395C18.98 19.6608 20.1277 19.713 20.8037 20.4586Z" stroke="#FFFDF1" stroke-width="3"/>
<rect width="2.65529" height="17.9331" transform="matrix(0.736833 -0.676075 0.671678 0.740844 20.2695 24.5549)" fill="#FFFDF1"/>
<path d="M71.8696 20.4589C71.1936 21.2045 71.2472 22.3591 71.9869 23.0378C72.7266 23.7165 73.8744 23.6642 74.5504 22.9186C75.2264 22.173 75.1728 21.0184 74.4331 20.3397C73.6934 19.661 72.5456 19.7133 71.8696 20.4589Z" stroke="#FFFDF1" stroke-width="3"/>
<rect width="2.65529" height="17.9331" transform="matrix(-0.736833 -0.676075 -0.671678 0.740844 72.4038 24.5544)" fill="#FFFDF1"/>
<path d="M48.1509 13.3192C48.1509 14.3383 47.3321 15.1491 46.3409 15.1491C45.3496 15.1491 44.5308 14.3383 44.5308 13.3192C44.5308 12.3001 45.3496 11.4893 46.3409 11.4893C47.3321 11.4893 48.1509 12.3001 48.1509 13.3192Z" stroke="#FFFDF1" stroke-width="3"/>
<rect x="45.0166" y="15.9841" width="2.64807" height="17.9816" fill="#FFFDF1"/>
<path d="M34.9732 34.2279C38.2444 36.0335 42.3462 34.3373 43.3859 30.7481C44.1738 28.0279 48.028 28.0279 48.8159 30.7481C49.8556 34.3373 53.9574 36.0335 57.2285 34.2279C59.6553 32.8884 62.4313 35.5766 61.0498 38.1094C59.2675 41.3771 60.9387 45.4926 64.5307 46.5455C67.2642 47.3469 67.2642 51.2196 64.5307 52.0209C60.9387 53.0738 59.2675 57.1893 61.0498 60.457C62.4313 62.9898 59.6553 65.6781 57.2285 64.3385C53.9574 62.5329 49.8556 64.2291 48.8159 67.8183C48.028 70.5385 44.1738 70.5385 43.3859 67.8183C42.3462 64.2291 38.2444 62.5329 34.9732 64.3385C32.5465 65.6781 29.7705 62.9898 31.152 60.457C32.9343 57.1893 31.2631 53.0738 27.6711 52.0209C24.9376 51.2196 24.9376 47.3469 27.6711 46.5455C31.2631 45.4926 32.9343 41.3771 31.152 38.1094C29.7705 35.5766 32.5465 32.8884 34.9732 34.2279Z" fill="#FFFDF1" stroke="#FFFDF1" stroke-width="3"/>
<mask id="path-9-outside-1_110_531" maskUnits="userSpaceOnUse" x="31" y="38" width="30" height="17" fill="black">
<rect fill="white" x="31" y="38" width="30" height="17"/>
<path d="M60 53.5C60 51.5958 59.6379 49.7103 58.9343 47.9511C58.2307 46.1919 57.1995 44.5934 55.8995 43.247C54.5995 41.9005 53.0561 40.8324 51.3576 40.1037C49.659 39.3751 47.8385 39 46 39C44.1615 39 42.341 39.3751 40.6424 40.1037C38.9439 40.8324 37.4005 41.9005 36.1005 43.247C34.8005 44.5934 33.7693 46.1919 33.0657 47.9511C32.3621 49.7103 32 51.5958 32 53.5L36.4478 53.5C36.4478 52.2008 36.6949 50.9143 37.175 49.714C37.655 48.5137 38.3586 47.4231 39.2456 46.5044C40.1326 45.5857 41.1856 44.857 42.3445 44.3598C43.5035 43.8626 44.7456 43.6067 46 43.6067C47.2544 43.6067 48.4965 43.8626 49.6555 44.3598C50.8144 44.857 51.8674 45.5857 52.7544 46.5044C53.6414 47.4231 54.345 48.5137 54.825 49.714C55.3051 50.9143 55.5522 52.2008 55.5522 53.5H60Z"/>
</mask>
<path d="M60 53.5C60 51.5958 59.6379 49.7103 58.9343 47.9511C58.2307 46.1919 57.1995 44.5934 55.8995 43.247C54.5995 41.9005 53.0561 40.8324 51.3576 40.1037C49.659 39.3751 47.8385 39 46 39C44.1615 39 42.341 39.3751 40.6424 40.1037C38.9439 40.8324 37.4005 41.9005 36.1005 43.247C34.8005 44.5934 33.7693 46.1919 33.0657 47.9511C32.3621 49.7103 32 51.5958 32 53.5L36.4478 53.5C36.4478 52.2008 36.6949 50.9143 37.175 49.714C37.655 48.5137 38.3586 47.4231 39.2456 46.5044C40.1326 45.5857 41.1856 44.857 42.3445 44.3598C43.5035 43.8626 44.7456 43.6067 46 43.6067C47.2544 43.6067 48.4965 43.8626 49.6555 44.3598C50.8144 44.857 51.8674 45.5857 52.7544 46.5044C53.6414 47.4231 54.345 48.5137 54.825 49.714C55.3051 50.9143 55.5522 52.2008 55.5522 53.5H60Z" fill="#144688"/>
<path d="M60 53.5C60 51.5958 59.6379 49.7103 58.9343 47.9511C58.2307 46.1919 57.1995 44.5934 55.8995 43.247C54.5995 41.9005 53.0561 40.8324 51.3576 40.1037C49.659 39.3751 47.8385 39 46 39C44.1615 39 42.341 39.3751 40.6424 40.1037C38.9439 40.8324 37.4005 41.9005 36.1005 43.247C34.8005 44.5934 33.7693 46.1919 33.0657 47.9511C32.3621 49.7103 32 51.5958 32 53.5L36.4478 53.5C36.4478 52.2008 36.6949 50.9143 37.175 49.714C37.655 48.5137 38.3586 47.4231 39.2456 46.5044C40.1326 45.5857 41.1856 44.857 42.3445 44.3598C43.5035 43.8626 44.7456 43.6067 46 43.6067C47.2544 43.6067 48.4965 43.8626 49.6555 44.3598C50.8144 44.857 51.8674 45.5857 52.7544 46.5044C53.6414 47.4231 54.345 48.5137 54.825 49.714C55.3051 50.9143 55.5522 52.2008 55.5522 53.5H60Z" stroke="#FFFDF1" stroke-width="2" mask="url(#path-9-outside-1_110_531)"/>
<rect x="40" y="55.2769" width="11.2543" height="5.32789" fill="#144688"/>
<rect x="33" y="60.6052" width="25.8187" height="3.99592" rx="1.99796" fill="#144688"/>
<rect x="18" y="53" width="56" height="2" fill="#144688"/>
</svg>
