<svg width="99" height="93" viewBox="0 0 99 93" fill="none" xmlns="http://www.w3.org/2000/svg">
<rect x="48" y="62" width="4" height="16" rx="2" fill="#D9D9D9"/>
<rect x="48" y="79" width="4" height="4" rx="2" fill="#D9D9D9"/>
<path fill-rule="evenodd" clip-rule="evenodd" d="M96 6H4V61H96V6ZM84 16C82.8954 16 82 16.8954 82 18V32C82 33.1046 82.8954 34 84 34C85.1046 34 86 33.1046 86 32V18C86 16.8954 85.1046 16 84 16ZM85 38C85.5523 38 86 38.4477 86 39C86 39.5523 85.5523 40 85 40H58C57.4477 40 57 39.5523 57 39C57 38.4477 57.4477 38 58 38L85 38ZM12 39C12 38.4477 12.4477 38 13 38H25C25.5523 38 26 38.4477 26 39C26 39.5523 25.5523 40 25 40H13C12.4477 40 12 39.5523 12 39ZM49 13C49 12.4477 49.4477 12 50 12C50.5523 12 51 12.4477 51 13V55C51 55.5523 50.5523 56 50 56C49.4477 56 49 55.5523 49 55V13ZM86 44C86 43.4477 85.5523 43 85 43H70C69.4477 43 69 43.4477 69 44C69 44.5523 69.4477 45 70 45H85C85.5523 45 86 44.5523 86 44ZM13.0088 42.9362C12.4565 42.9315 12.005 43.3754 12.0003 43.9277C11.9956 44.48 12.4395 44.9315 12.9918 44.9362L27.9912 45.0637C28.5435 45.0684 28.995 44.6245 28.9997 44.0722C29.0044 43.5199 28.5605 43.0684 28.0082 43.0637L13.0088 42.9362ZM86 49C86 48.4477 85.5523 48 85 48H64C63.4477 48 63 48.4477 63 49C63 49.5523 63.4477 50 64 50H85C85.5523 50 86 49.5523 86 49ZM13 48C12.4477 48 12 48.4477 12 49C12 49.5523 12.4477 50 13 50H34C34.5523 50 35 49.5523 35 49C35 48.4477 34.5523 48 34 48H13ZM77 20C75.8954 20 75 20.8954 75 22V32C75 33.1046 75.8954 34 77 34C78.1046 34 79 33.1046 79 32V22C79 20.8954 78.1046 20 77 20ZM68 27C68 25.8954 68.8954 25 70 25C71.1046 25 72 25.8954 72 27V32C72 33.1046 71.1046 34 70 34C68.8954 34 68 33.1046 68 32V27ZM24.5 24.5H29.7284C29.6467 24.7953 29.5468 25.0859 29.4291 25.3701C29.0522 26.2801 28.4997 27.1069 27.8033 27.8033C27.1069 28.4997 26.2801 29.0522 25.3701 29.4291C25.0859 29.5468 24.7953 29.6467 24.5 29.7284V24.5ZM31 22.5C31.5523 22.5 32.0054 22.9489 31.9474 23.4982C31.8518 24.4032 31.6264 25.2915 31.2769 26.1355C30.7994 27.2881 30.0997 28.3354 29.2175 29.2175C28.3354 30.0997 27.2881 30.7994 26.1355 31.2769C25.2915 31.6264 24.4032 31.8518 23.4982 31.9474C23.317 31.9666 23.1468 31.9301 23 31.8528C22.8532 31.9301 22.6829 31.9666 22.5018 31.9474C20.3491 31.7201 18.3272 30.7622 16.7825 29.2175C15.0009 27.4359 14 25.0196 14 22.5C14 19.9804 15.0009 17.5641 16.7825 15.7825C18.3272 14.2378 20.3491 13.2799 22.5018 13.0526C23.051 12.9945 23.5 13.4477 23.5 14L23.5 22.5H31ZM29.5 11.2716V16.5H34.7284C34.6467 16.2047 34.5468 15.9141 34.4291 15.6299C34.0522 14.7199 33.4997 13.8931 32.8033 13.1967C32.1069 12.5003 31.2801 11.9478 30.3701 11.5709C30.0859 11.4532 29.7953 11.3533 29.5 11.2716ZM28.4982 9.05258C27.9489 8.99455 27.5 9.44772 27.5 10V17.5C27.5 18.0523 27.9477 18.5 28.5 18.5L36 18.5C36.5523 18.5 37.0054 18.0511 36.9474 17.5018C36.8518 16.5968 36.6264 15.7085 36.2769 14.8645C35.7994 13.7119 35.0997 12.6646 34.2175 11.7825C33.3354 10.9003 32.2881 10.2006 31.1355 9.72314C30.2915 9.37356 29.4032 9.1482 28.4982 9.05258ZM21.5 22.5V29.7284C20.2619 29.3858 19.121 28.7276 18.1967 27.8033C16.7902 26.3968 16 24.4891 16 22.5C16 20.5109 16.7902 18.6032 18.1967 17.1967C19.121 16.2724 20.2619 15.6142 21.5 15.2716L21.5 22.5Z" fill="#144688"/>
<rect width="99" height="6" rx="3" fill="#AFB5FF"/>
<rect y="60" width="99" height="6" rx="3" fill="#AFB5FF"/>
<path d="M63.5 66H70.5L77.6334 88.659C78.3106 90.8102 76.7042 93 74.449 93V93C72.9914 93 71.7023 92.0544 71.2646 90.664L63.5 66Z" fill="#D9D9D9"/>
<path d="M35.5 66H28.5L21.3666 88.659C20.6894 90.8102 22.2958 93 24.551 93V93C26.0086 93 27.2977 92.0544 27.7354 90.664L35.5 66Z" fill="#D9D9D9"/>
</svg>
