<svg width="108" height="83" viewBox="0 0 108 83" fill="none" xmlns="http://www.w3.org/2000/svg">
<path fill-rule="evenodd" clip-rule="evenodd" d="M5 0C2.23858 0 0 2.23858 0 5V11H92V5C92 2.23858 89.7614 0 87 0H5ZM92 16H0V61C0 63.7614 2.23858 66 5 66H87C89.7614 66 92 63.7614 92 61V16ZM10 5.5C10 6.88071 8.88071 8 7.5 8C6.11929 8 5 6.88071 5 5.5C5 4.11929 6.11929 3 7.5 3C8.88071 3 10 4.11929 10 5.5ZM15.5 8C16.8807 8 18 6.88071 18 5.5C18 4.11929 16.8807 3 15.5 3C14.1193 3 13 4.11929 13 5.5C13 6.88071 14.1193 8 15.5 8ZM26 5.5C26 6.88071 24.8807 8 23.5 8C22.1193 8 21 6.88071 21 5.5C21 4.11929 22.1193 3 23.5 3C24.8807 3 26 4.11929 26 5.5ZM8 21C6.34315 21 5 22.3431 5 24C5 25.6569 6.34315 27 8 27H43C44.6569 27 46 25.6569 46 24C46 22.3431 44.6569 21 43 21H8ZM5 46C5 44.3431 6.34315 43 8 43H43C44.6569 43 46 44.3431 46 46C46 47.6569 44.6569 49 43 49H8C6.34315 49 5 47.6569 5 46ZM8 32C6.34315 32 5 33.3431 5 35C5 36.6569 6.34315 38 8 38H55C56.6569 38 58 36.6569 58 35C58 33.3431 56.6569 32 55 32H8Z" fill="#144688"/>
<g clip-path="url(#clip0_110_539)">
<path fill-rule="evenodd" clip-rule="evenodd" d="M101.874 21.0033C100.983 20.1128 99.7753 19.6125 98.5158 19.6125C97.2562 19.6125 96.0483 20.1128 95.1575 21.0033L94.0381 22.1243L101.876 29.9618L102.993 28.8424C103.435 28.4013 103.785 27.8776 104.023 27.3013C104.262 26.7249 104.385 26.1072 104.385 25.4833C104.385 24.8595 104.262 24.2417 104.023 23.6654C103.785 23.089 103.435 22.5654 102.993 22.1243L101.874 21.0033ZM99.6352 32.2006L91.7977 24.3631L77.4052 38.7572C77.0902 39.0722 76.8702 39.4694 76.7703 39.9035L75.141 46.9573C75.0803 47.2192 75.0873 47.4922 75.1612 47.7506C75.2352 48.009 75.3738 48.2444 75.5638 48.4344C75.7539 48.6245 75.9893 48.7631 76.2477 48.8371C76.5061 48.911 76.7791 48.918 77.041 48.8573L84.0963 47.2296C84.5299 47.1294 84.9265 46.9094 85.2411 46.5947L99.6352 32.2006Z" fill="#8791FF"/>
</g>
<defs>
<clipPath id="clip0_110_539">
<rect width="38" height="38" fill="white" transform="translate(70 16)"/>
</clipPath>
</defs>
</svg>
