<svg width="93" height="83" viewBox="0 0 93 83" fill="none" xmlns="http://www.w3.org/2000/svg">
<ellipse cx="32.3305" cy="7.18482" rx="4.39055" ry="3.19312" fill="#144688"/>
<circle cx="30.1114" cy="6.96172" r="0.575246" fill="#FFFDF1"/>
<circle cx="32.3082" cy="6.96172" r="0.575246" fill="#FFFDF1"/>
<circle cx="34.504" cy="6.96172" r="0.575246" fill="#FFFDF1"/>
<path d="M27.344 9.52119C28.0134 9.47936 28.8083 9.18999 29.122 9.05054C29.8716 9.05054 31.0779 9.1865 29.9065 9.73037C28.4422 10.4102 26.5073 9.57349 27.344 9.52119Z" fill="#144688"/>
<ellipse cx="4.39055" cy="3.19312" rx="4.39055" ry="3.19312" transform="matrix(-1 0 0 1 66.6562 0)" fill="#144688"/>
<circle cx="0.575246" cy="0.575246" r="0.575246" transform="matrix(-1 0 0 1 65.0601 2.39502)" fill="#FFFDF1"/>
<circle cx="0.575246" cy="0.575246" r="0.575246" transform="matrix(-1 0 0 1 62.8633 2.39502)" fill="#FFFDF1"/>
<circle cx="0.575246" cy="0.575246" r="0.575246" transform="matrix(-1 0 0 1 60.6675 2.39502)" fill="#FFFDF1"/>
<path d="M67.2522 5.52949C66.5828 5.48766 65.7879 5.19829 65.4742 5.05884C64.7246 5.05884 63.5183 5.19481 64.6897 5.73867C66.154 6.41851 68.0889 5.58179 67.2522 5.52949Z" fill="#144688"/>
<ellipse cx="17.5619" cy="7.98283" rx="4.39055" ry="4.39055" fill="#144688"/>
<path d="M13.1714 17.4626C13.1714 15.4787 14.7797 13.8704 16.7637 13.8704V13.8704C18.7476 13.8704 20.3559 15.4787 20.3559 17.4626V28.8261C20.3559 29.924 21.2653 30.8035 22.3625 30.7669L22.6064 30.7588C28.2036 30.5722 33.1027 34.4906 34.1506 39.992L36.1731 50.6104C36.4574 52.1026 35.3134 53.4851 33.7943 53.4851V53.4851C32.6959 53.4851 31.735 52.7457 31.4536 51.6839L27.5404 36.9207H19.2583C15.8966 36.9207 13.1714 34.1955 13.1714 30.8338V30.8338V17.4626Z" fill="#144688"/>
<mask id="path-13-inside-1_110_533" fill="white">
<path d="M2.4117 22.9505C1.0798 22.9505 -0.0134856 24.0333 0.131228 25.3574C0.358889 27.4403 0.881378 29.4845 1.68633 31.4278C2.79959 34.1154 4.43131 36.5575 6.48835 38.6145C8.54538 40.6716 10.9874 42.3033 13.6751 43.4165C15.6184 44.2215 17.6626 44.744 19.7455 44.9716C21.0695 45.1164 22.1524 44.0231 22.1524 42.6912V42.6912C22.1524 41.3593 21.0676 40.2968 19.7485 40.112C18.2994 39.909 16.8787 39.5229 15.5208 38.9605C13.4184 38.0896 11.508 36.8131 9.89889 35.204C8.28974 33.5948 7.01329 31.6845 6.14242 29.582C5.57999 28.2242 5.19384 26.8034 4.99086 25.3543C4.8061 24.0353 3.7436 22.9505 2.4117 22.9505V22.9505Z"/>
</mask>
<path d="M2.4117 22.9505C1.0798 22.9505 -0.0134856 24.0333 0.131228 25.3574C0.358889 27.4403 0.881378 29.4845 1.68633 31.4278C2.79959 34.1154 4.43131 36.5575 6.48835 38.6145C8.54538 40.6716 10.9874 42.3033 13.6751 43.4165C15.6184 44.2215 17.6626 44.744 19.7455 44.9716C21.0695 45.1164 22.1524 44.0231 22.1524 42.6912V42.6912C22.1524 41.3593 21.0676 40.2968 19.7485 40.112C18.2994 39.909 16.8787 39.5229 15.5208 38.9605C13.4184 38.0896 11.508 36.8131 9.89889 35.204C8.28974 33.5948 7.01329 31.6845 6.14242 29.582C5.57999 28.2242 5.19384 26.8034 4.99086 25.3543C4.8061 24.0353 3.7436 22.9505 2.4117 22.9505V22.9505Z" stroke="#00173F" stroke-width="20" mask="url(#path-13-inside-1_110_533)"/>
<ellipse cx="4.39055" cy="4.39055" rx="4.39055" ry="4.39055" transform="matrix(-1 0 0 1 79.8286 3.59229)" fill="#144688"/>
<path d="M79.8286 17.4621C79.8286 15.4782 78.2203 13.8699 76.2363 13.8699V13.8699C74.2524 13.8699 72.6441 15.4782 72.6441 17.4621V28.8256C72.6441 29.9235 71.7347 30.803 70.6375 30.7665L70.3936 30.7583C64.7964 30.5718 59.8973 34.4901 58.8494 39.9915L56.8269 50.6099C56.5426 52.1021 57.6866 53.4846 59.2057 53.4846V53.4846C60.3041 53.4846 61.265 52.7452 61.5464 51.6834L65.4596 36.9202H73.7417C77.1034 36.9202 79.8286 34.195 79.8286 30.8333V30.8333V17.4621Z" fill="#144688"/>
<mask id="path-16-inside-2_110_533" fill="white">
<path d="M90.5883 22.9505C91.9202 22.9505 93.0135 24.0333 92.8688 25.3574C92.6411 27.4403 92.1186 29.4845 91.3137 31.4278C90.2004 34.1154 88.5687 36.5575 86.5117 38.6145C84.4546 40.6716 82.0126 42.3033 79.3249 43.4165C77.3816 44.2215 75.3374 44.744 73.2545 44.9716C71.9305 45.1164 70.8476 44.0231 70.8476 42.6912V42.6912C70.8476 41.3593 71.9324 40.2968 73.2515 40.112C74.7006 39.909 76.1213 39.5229 77.4792 38.9605C79.5816 38.0896 81.492 36.8131 83.1011 35.204C84.7103 33.5948 85.9867 31.6845 86.8576 29.582C87.42 28.2242 87.8062 26.8034 88.0091 25.3543C88.1939 24.0353 89.2564 22.9505 90.5883 22.9505V22.9505Z"/>
</mask>
<path d="M90.5883 22.9505C91.9202 22.9505 93.0135 24.0333 92.8688 25.3574C92.6411 27.4403 92.1186 29.4845 91.3137 31.4278C90.2004 34.1154 88.5687 36.5575 86.5117 38.6145C84.4546 40.6716 82.0126 42.3033 79.3249 43.4165C77.3816 44.2215 75.3374 44.744 73.2545 44.9716C71.9305 45.1164 70.8476 44.0231 70.8476 42.6912V42.6912C70.8476 41.3593 71.9324 40.2968 73.2515 40.112C74.7006 39.909 76.1213 39.5229 77.4792 38.9605C79.5816 38.0896 81.492 36.8131 83.1011 35.204C84.7103 33.5948 85.9867 31.6845 86.8576 29.582C87.42 28.2242 87.8062 26.8034 88.0091 25.3543C88.1939 24.0353 89.2564 22.9505 90.5883 22.9505V22.9505Z" stroke="#00173F" stroke-width="20" mask="url(#path-16-inside-2_110_533)"/>
<rect x="28.7378" y="20.3562" width="35.9226" height="5.18883" rx="2.59441" fill="#00173F"/>
</svg>
