<svg width="16" height="16" viewBox="0 0 16 16" fill="none" xmlns="http://www.w3.org/2000/svg">
<path d="M8.82216 0.000984283C9.40592 -0.00125582 9.98968 0.00461127 10.5733 0.0185837L10.7285 0.0241835C10.9077 0.0305833 11.0844 0.038583 11.298 0.0481827C12.1492 0.0881813 12.73 0.222577 13.2395 0.42017C13.7675 0.623363 14.2123 0.898554 14.6571 1.34334C15.0637 1.74301 15.3785 2.22647 15.5794 2.76009C15.777 3.26967 15.9114 3.85125 15.9514 4.70242C15.961 4.91522 15.969 5.09281 15.9754 5.27201L15.9802 5.4272C15.9944 6.01053 16.0005 6.59404 15.9986 7.17754L15.9994 7.77432V8.82228C16.0014 9.40605 15.9952 9.98982 15.981 10.5734L15.9762 10.7286C15.9698 10.9078 15.9618 11.0846 15.9522 11.2982C15.9122 12.1494 15.7762 12.7302 15.5794 13.2397C15.3791 13.7739 15.0643 14.2578 14.6571 14.6573C14.2571 15.0639 13.7734 15.3787 13.2395 15.5797C12.73 15.7772 12.1492 15.9116 11.298 15.9516C11.0844 15.9612 10.9077 15.9692 10.7285 15.9756L10.5733 15.9804C9.98968 15.9947 9.40592 16.0008 8.82216 15.9988L8.2254 15.9996H7.17825C6.59449 16.0016 6.01073 15.9955 5.42714 15.9812L5.27195 15.9764C5.08204 15.9696 4.89218 15.9616 4.70238 15.9524C3.85122 15.9124 3.27045 15.7764 2.76008 15.5797C2.22625 15.3791 1.74272 15.0643 1.34335 14.6573C0.936206 14.2575 0.621165 13.7738 0.420196 13.2397C0.222606 12.7302 0.0882129 12.1494 0.0482149 11.2982C0.0393057 11.1084 0.0313061 10.9185 0.0242162 10.7286L0.0202165 10.5734C0.00546811 9.98983 -0.00119893 9.40606 0.000217436 8.82228V7.17754C-0.00201522 6.59404 0.00385177 6.01054 0.0178166 5.4272L0.0234163 5.27201C0.029816 5.09281 0.0378155 4.91522 0.047415 4.70242C0.087413 3.85045 0.221806 3.27047 0.419396 2.76009C0.620484 2.2262 0.936141 1.74288 1.34415 1.34414C1.74324 0.936754 2.22647 0.621421 2.76008 0.42017C3.27045 0.222577 3.85042 0.0881813 4.70238 0.0481827L5.27195 0.0241835L5.42714 0.0201838C6.01046 0.00544252 6.59395 -0.00122464 7.17745 0.000184368L8.82216 0.000984283ZM7.99981 4.00085C7.46984 3.99335 6.94367 4.09126 6.45187 4.28889C5.96007 4.48652 5.51245 4.77992 5.13503 5.15205C4.75761 5.52418 4.45791 5.96761 4.25335 6.45657C4.04879 6.94554 3.94345 7.47028 3.94345 8.00031C3.94345 8.53034 4.04879 9.05509 4.25335 9.54405C4.45791 10.033 4.75761 10.4764 5.13503 10.8486C5.51245 11.2207 5.96007 11.5141 6.45187 11.7117C6.94367 11.9094 7.46984 12.0073 7.99981 11.9998C9.06062 11.9998 10.078 11.5784 10.8281 10.8282C11.5782 10.0781 11.9996 9.06074 11.9996 7.99991C11.9996 6.93908 11.5782 5.9217 10.8281 5.17158C10.078 4.42146 9.06062 4.00085 7.99981 4.00085ZM7.99981 5.60079C8.3186 5.59492 8.63536 5.65263 8.9316 5.77055C9.22783 5.88848 9.4976 6.06425 9.72514 6.28761C9.95268 6.51096 10.1334 6.77742 10.2568 7.07142C10.3803 7.36541 10.4438 7.68106 10.4439 7.9999C10.4439 8.31875 10.3805 8.63442 10.2572 8.92846C10.1338 9.22249 9.95318 9.48901 9.72571 9.71244C9.49824 9.93587 9.22853 10.1117 8.93234 10.2298C8.63614 10.3478 8.3194 10.4056 8.00061 10.3998C7.36412 10.3998 6.7537 10.147 6.30364 9.69691C5.85357 9.24684 5.60073 8.63641 5.60073 7.99991C5.60073 7.36341 5.85357 6.75299 6.30364 6.30291C6.7537 5.85284 7.36412 5.59999 8.00061 5.59999L7.99981 5.60079ZM12.1996 2.80089C11.9415 2.81122 11.6975 2.92101 11.5185 3.10726C11.3396 3.29351 11.2396 3.54177 11.2396 3.80006C11.2396 4.05834 11.3396 4.3066 11.5185 4.49285C11.6975 4.6791 11.9415 4.78889 12.1996 4.79922C12.4648 4.79922 12.7191 4.69387 12.9067 4.50634C13.0942 4.31881 13.1995 4.06446 13.1995 3.79925C13.1995 3.53405 13.0942 3.2797 12.9067 3.09217C12.7191 2.90464 12.4648 2.79929 12.1996 2.79929V2.80089Z" fill="#FFFDF1"/>
</svg>
