<svg width="202" height="202" viewBox="0 0 202 202" fill="none" xmlns="http://www.w3.org/2000/svg">
<path d="M72.5228 57.2638C71.4578 53.6889 75.978 51.1504 78.4762 53.9204L91.7885 68.681C94.7953 72.015 100.196 71.3693 102.333 67.4204L111.79 49.9374C113.564 46.6565 118.556 48.0578 118.364 51.783L117.339 71.6335C117.108 76.1172 121.384 79.4797 125.687 78.1978L144.736 72.5228C148.311 71.4578 150.85 75.978 148.08 78.4762L133.319 91.7885C129.985 94.7953 130.631 100.196 134.58 102.333L152.063 111.79C155.343 113.564 153.942 118.556 150.217 118.363L130.366 117.339C125.883 117.108 122.52 121.384 123.802 125.687L129.477 144.736C130.542 148.311 126.022 150.849 123.524 148.08L110.211 133.319C107.205 129.985 101.804 130.631 99.6674 134.58L90.2103 152.063C88.4355 155.343 83.4443 153.942 83.6364 150.217L84.6606 130.366C84.8919 125.883 80.6161 122.52 76.3134 123.802L57.2638 129.477C53.689 130.542 51.1505 126.022 53.9204 123.524L68.6811 110.211C72.015 107.205 71.3693 101.804 67.4204 99.6674L49.9374 90.2102C46.6566 88.4355 48.0579 83.4442 51.783 83.6364L71.6335 84.6605C76.1172 84.8919 79.4797 80.6161 78.1979 76.3133L72.5228 57.2638Z" fill="#FFC800" stroke="black" stroke-width="3"/>
<path d="M104.598 117H98.5625V100.477L98.6211 97.7617L98.7188 94.7929C97.7161 95.7955 97.0195 96.4531 96.6289 96.7656L93.3477 99.4023L90.4375 95.7695L99.6367 88.4453H104.598V117Z" fill="black"/>
</svg>
