<svg width="288" height="126" viewBox="0 0 288 126" fill="none" xmlns="http://www.w3.org/2000/svg">
<path d="M25.403 86.035L0.76676 61.3988C0.353703 60.9857 0.388805 60.3017 0.83224 59.9215C23.1901 40.7489 31.7444 26.5368 33.2922 21.6353C33.3215 21.5424 33.3333 21.4522 33.3333 21.3548V9.45809C33.3333 8.9058 33.781 8.45809 34.3333 8.45809H70.0145C70.5668 8.45809 71.0145 7.9863 71.0145 8.53858V24.4001C71.0145 40.3853 41.9662 71.7381 26.7799 86.0679C26.3876 86.438 25.7844 86.4164 25.403 86.035Z" fill="#131010"/>
<path d="M74.597 40.5675L99.2332 65.2038C99.6463 65.6168 99.6112 66.3008 99.1678 66.6811C76.8099 85.8536 68.2556 100.066 66.7078 104.967C66.6785 105.06 66.6667 105.15 66.6667 105.248L66.6667 117.144C66.6667 117.697 66.219 118.144 65.6667 118.144L29.9855 118.144C29.4332 118.144 28.9855 118.616 28.9855 118.064L28.9855 102.202C28.9855 86.2172 58.0338 54.8645 73.2201 40.5347C73.6124 40.1645 74.2156 40.1862 74.597 40.5675Z" fill="#131010"/>
<path d="M147.859 27.0625C147.859 26.6562 147.786 26.276 147.641 25.9219C147.505 25.5677 147.271 25.2344 146.938 24.9219C146.594 24.6198 146.146 24.3438 145.594 24.0938C145.052 23.8333 144.375 23.5938 143.562 23.375C142.302 23.0312 141.193 22.6146 140.234 22.125C139.286 21.6354 138.51 21.099 137.906 20.5156C137.302 19.9323 136.844 19.2865 136.531 18.5781C136.229 17.8698 136.078 17.099 136.078 16.2656C136.078 15.3073 136.281 14.4375 136.688 13.6562C137.094 12.875 137.656 12.2083 138.375 11.6562C139.094 11.1042 139.943 10.6823 140.922 10.3906C141.901 10.0885 142.964 9.9375 144.109 9.9375C145.297 9.9375 146.38 10.1094 147.359 10.4531C148.349 10.7969 149.198 11.276 149.906 11.8906C150.615 12.5156 151.167 13.2552 151.562 14.1094C151.958 14.9635 152.156 15.901 152.156 16.9219H147.875C147.854 16.4115 147.76 15.9427 147.594 15.5156C147.438 15.0885 147.203 14.7188 146.891 14.4062C146.568 14.1042 146.167 13.8698 145.688 13.7031C145.219 13.526 144.667 13.4375 144.031 13.4375C143.448 13.4375 142.927 13.5104 142.469 13.6562C142.021 13.7917 141.641 13.9844 141.328 14.2344C141.016 14.4948 140.776 14.8021 140.609 15.1562C140.453 15.5 140.375 15.875 140.375 16.2812C140.375 16.7083 140.479 17.0938 140.688 17.4375C140.906 17.7812 141.219 18.0885 141.625 18.3594C142.031 18.6406 142.521 18.8958 143.094 19.125C143.677 19.3542 144.333 19.5677 145.062 19.7656C145.844 19.9844 146.589 20.25 147.297 20.5625C148.005 20.875 148.656 21.2344 149.25 21.6406C150.146 22.3073 150.859 23.0833 151.391 23.9688C151.922 24.8542 152.188 25.875 152.188 27.0312C152.188 28.0312 151.984 28.9219 151.578 29.7031C151.182 30.474 150.63 31.125 149.922 31.6562C149.214 32.1979 148.37 32.6094 147.391 32.8906C146.411 33.1615 145.344 33.2969 144.188 33.2969C143.052 33.2969 141.927 33.1302 140.812 32.7969C139.708 32.4531 138.745 31.9531 137.922 31.2969C137.141 30.651 136.521 29.8906 136.062 29.0156C135.615 28.1406 135.391 27.1146 135.391 25.9375H139.703C139.724 26.625 139.844 27.2135 140.062 27.7031C140.281 28.1927 140.589 28.5938 140.984 28.9062C141.37 29.2188 141.833 29.4479 142.375 29.5938C142.927 29.7396 143.531 29.8125 144.188 29.8125C144.771 29.8125 145.286 29.7448 145.734 29.6094C146.193 29.474 146.578 29.2865 146.891 29.0469C147.203 28.8073 147.443 28.5208 147.609 28.1875C147.776 27.8438 147.859 27.4688 147.859 27.0625ZM160.656 10.25L162.812 18.7969L165.266 10.25H170.719V33H166.688V26.2656L166.875 15.625L163.891 25.5H161.719L159.047 16.0469L159.234 26.2656V33H155.203V10.25H160.656ZM185.672 28.25H178.844L177.5 33H172.875L180.328 10.25H184.312L191.625 33H187L185.672 28.25ZM179.922 24.5156H184.641L182.312 16.1406L179.922 24.5156ZM201.422 24.5H198.094V33H193.703V10.25H201.328C202.589 10.25 203.729 10.401 204.75 10.7031C205.771 10.9948 206.646 11.4271 207.375 12C208.094 12.5729 208.646 13.2865 209.031 14.1406C209.427 14.9948 209.625 15.9844 209.625 17.1094C209.625 17.9219 209.526 18.6562 209.328 19.3125C209.141 19.9583 208.87 20.5365 208.516 21.0469C208.151 21.5677 207.714 22.0208 207.203 22.4062C206.703 22.7917 206.141 23.125 205.516 23.4062L210.406 32.7969V33H205.703L201.422 24.5ZM198.094 20.9375H201.344C202.021 20.9375 202.615 20.8438 203.125 20.6562C203.646 20.4583 204.068 20.1771 204.391 19.8125C204.661 19.5208 204.865 19.1719 205 18.7656C205.146 18.3594 205.219 17.9062 205.219 17.4062C205.219 16.8021 205.125 16.2708 204.938 15.8125C204.76 15.3438 204.49 14.9583 204.125 14.6562C203.802 14.3854 203.406 14.1771 202.938 14.0312C202.469 13.8854 201.932 13.8125 201.328 13.8125H198.094V20.9375ZM229.641 13.8281H222.625V33H218.219V13.8281H211.297V10.25H229.641V13.8281ZM141.438 52.25L143.594 60.7969L146.047 52.25H151.5V75H147.469V68.2656L147.656 57.625L144.672 67.5H142.5L139.828 58.0469L140.016 68.2656V75H135.984V52.25H141.438ZM170.422 52.25L170.438 67.3281C170.438 68.599 170.26 69.7292 169.906 70.7188C169.562 71.7083 169.062 72.5417 168.406 73.2188C167.74 73.9062 166.927 74.4271 165.969 74.7812C165.021 75.1354 163.938 75.3125 162.719 75.3125C161.573 75.3125 160.536 75.1354 159.609 74.7812C158.693 74.4271 157.906 73.9115 157.25 73.2344C156.594 72.5573 156.083 71.724 155.719 70.7344C155.365 69.7344 155.188 68.599 155.188 67.3281L155.203 52.25H159.594L159.609 67.3281C159.62 68.0885 159.693 68.7552 159.828 69.3281C159.974 69.901 160.188 70.375 160.469 70.75C160.729 71.0938 161.047 71.3542 161.422 71.5312C161.797 71.6979 162.229 71.7812 162.719 71.7812C163.25 71.7812 163.719 71.6927 164.125 71.5156C164.542 71.3281 164.885 71.0521 165.156 70.6875C165.448 70.3125 165.667 69.8438 165.812 69.2812C165.958 68.7188 166.036 68.0677 166.047 67.3281L166.062 52.25H170.422ZM179.188 71.4531H189.844V75H174.781V52.25H179.188V71.4531ZM210.422 55.8281H203.406V75H199V55.8281H192.078V52.25H210.422V55.8281ZM213.891 52.25H227.047V55.7969H222.609V71.4688H227.047V75H213.891V71.4688H218.219V55.7969H213.891V52.25ZM151.844 109.875C151.771 111.021 151.521 112.052 151.094 112.969C150.677 113.885 150.115 114.667 149.406 115.312C148.698 115.958 147.854 116.458 146.875 116.812C145.896 117.156 144.812 117.328 143.625 117.328C142.688 117.328 141.818 117.208 141.016 116.969C140.224 116.719 139.51 116.365 138.875 115.906C138.292 115.479 137.771 114.964 137.312 114.359C136.865 113.755 136.484 113.089 136.172 112.359C135.87 111.63 135.635 110.828 135.469 109.953C135.312 109.078 135.234 108.151 135.234 107.172V104.109C135.234 103.193 135.307 102.323 135.453 101.5C135.599 100.667 135.818 99.8958 136.109 99.1875C136.443 98.3229 136.88 97.5521 137.422 96.875C137.964 96.1979 138.578 95.625 139.266 95.1562C139.88 94.7604 140.552 94.4583 141.281 94.25C142.021 94.0312 142.812 93.9219 143.656 93.9219C144.906 93.9219 146.016 94.099 146.984 94.4531C147.964 94.8073 148.797 95.3125 149.484 95.9688C150.172 96.625 150.714 97.4271 151.109 98.375C151.505 99.3229 151.755 100.391 151.859 101.578H147.484C147.443 100.901 147.339 100.307 147.172 99.7969C147.016 99.2865 146.786 98.8594 146.484 98.5156C146.172 98.1823 145.781 97.9323 145.312 97.7656C144.854 97.5885 144.302 97.5 143.656 97.5C143.312 97.5 142.99 97.5365 142.688 97.6094C142.396 97.6823 142.125 97.7917 141.875 97.9375C141.448 98.1875 141.083 98.5469 140.781 99.0156C140.49 99.474 140.255 100.01 140.078 100.625C139.943 101.104 139.844 101.635 139.781 102.219C139.719 102.792 139.688 103.411 139.688 104.078V107.172C139.688 108.078 139.734 108.891 139.828 109.609C139.932 110.318 140.089 110.938 140.297 111.469C140.443 111.833 140.615 112.156 140.812 112.438C141.021 112.719 141.255 112.953 141.516 113.141C141.797 113.349 142.109 113.505 142.453 113.609C142.807 113.703 143.198 113.75 143.625 113.75C144.198 113.75 144.714 113.677 145.172 113.531C145.63 113.385 146.021 113.156 146.344 112.844C146.667 112.531 146.922 112.13 147.109 111.641C147.297 111.151 147.411 110.562 147.453 109.875H151.844ZM162.984 108.5H159.656V117H155.266V94.25H162.891C164.151 94.25 165.292 94.401 166.312 94.7031C167.333 94.9948 168.208 95.4271 168.938 96C169.656 96.5729 170.208 97.2865 170.594 98.1406C170.99 98.9948 171.188 99.9844 171.188 101.109C171.188 101.922 171.089 102.656 170.891 103.312C170.703 103.958 170.432 104.536 170.078 105.047C169.714 105.568 169.276 106.021 168.766 106.406C168.266 106.792 167.703 107.125 167.078 107.406L171.969 116.797V117H167.266L162.984 108.5ZM159.656 104.938H162.906C163.583 104.938 164.177 104.844 164.688 104.656C165.208 104.458 165.63 104.177 165.953 103.812C166.224 103.521 166.427 103.172 166.562 102.766C166.708 102.359 166.781 101.906 166.781 101.406C166.781 100.802 166.688 100.271 166.5 99.8125C166.323 99.3438 166.052 98.9583 165.688 98.6562C165.365 98.3854 164.969 98.1771 164.5 98.0312C164.031 97.8854 163.495 97.8125 162.891 97.8125H159.656V104.938ZM188.484 107.031H179.141V113.453H190.062V117H174.734V94.25H190.016V97.8281H179.141V103.562H188.484V107.031ZM204.891 112.25H198.062L196.719 117H192.094L199.547 94.25H203.531L210.844 117H206.219L204.891 112.25ZM199.141 108.516H203.859L201.531 100.141L199.141 108.516ZM229.641 97.8281H222.625V117H218.219V97.8281H211.297V94.25H229.641V97.8281ZM233.109 94.25H246.266V97.7969H241.828V113.469H246.266V117H233.109V113.469H237.438V97.7969H233.109V94.25ZM256.672 117L249.797 94.25H254.641L258.5 109.109L258.891 110.641L259.312 109.094L263.188 94.25H268.031L261.141 117H256.672ZM284.578 107.031H275.234V113.453H286.156V117H270.828V94.25H286.109V97.8281H275.234V103.562H284.578V107.031Z" fill="black"/>
</svg>
