<svg width="16" height="20" viewBox="0 0 16 20" fill="none" xmlns="http://www.w3.org/2000/svg">
<path d="M8.00008 0C3.58908 0 8.14446e-05 3.589 8.14446e-05 7.995C-0.0225329 13.0208 4.67002 17.3772 6.88183 19.1544C7.53822 19.6818 8.45702 19.6813 9.10967 19.1492C11.3119 17.354 16.0223 12.9354 16.0001 8C16.0001 3.589 12.4111 0 8.00008 0ZM8.00008 12C5.79008 12 4.00008 10.21 4.00008 8C4.00008 5.79 5.79008 4 8.00008 4C10.2101 4 12.0001 5.79 12.0001 8C12.0001 10.21 10.2101 12 8.00008 12Z" fill="#131010"/>
</svg>
