<svg width="257" height="213" viewBox="0 0 257 213" fill="none" xmlns="http://www.w3.org/2000/svg">
<g clip-path="url(#clip0_75_446)">
<path d="M73.2705 87.0497L179.095 87.0497C181.693 87.0497 183.8 84.9439 183.8 82.3462V4.89741C183.8 2.29973 181.693 0.193893 179.095 0.193893L73.2705 0.193893C70.6718 0.193893 68.5651 2.29973 68.5651 4.89741L68.5651 82.3462C68.5651 84.9439 70.6718 87.0497 73.2705 87.0497Z" fill="white"/>
<path d="M179.095 87.2436H73.2707C71.9717 87.2422 70.7264 86.7257 69.8079 85.8076C68.8894 84.8895 68.3728 83.6446 68.3713 82.3462V4.89739C68.3728 3.59896 68.8894 2.35412 69.8079 1.43599C70.7264 0.517866 71.9717 0.00143242 73.2707 0L179.095 0C180.393 0.00143231 181.639 0.517858 182.557 1.43598C183.476 2.3541 183.993 3.59894 183.994 4.89739V82.3462C183.993 83.6447 183.476 84.8895 182.557 85.8076C181.639 86.7257 180.393 87.2422 179.095 87.2436ZM73.2707 0.387763C72.0746 0.389133 70.9279 0.864693 70.0821 1.71012C69.2364 2.55554 68.7606 3.70178 68.7593 4.89739V82.3462C68.7606 83.5418 69.2364 84.6881 70.0821 85.5335C70.9279 86.3789 72.0746 86.8545 73.2707 86.8559H179.095C180.291 86.8545 181.437 86.3789 182.283 85.5335C183.129 84.6881 183.605 83.5418 183.606 82.3462V4.89739C183.605 3.70176 183.129 2.55552 182.283 1.7101C181.437 0.864685 180.291 0.389133 179.095 0.387763H73.2707Z" fill="#292A2E"/>
<path d="M82.2784 7.49024L74.715 8.20717C73.9338 8.28122 73.3606 8.97427 73.4347 9.75513L74.1519 17.3155C74.226 18.0964 74.9193 18.6694 75.7005 18.5953L83.2638 17.8784C84.045 17.8044 84.6182 17.1113 84.5442 16.3305L83.8269 8.77005C83.7529 7.98918 83.0595 7.41619 82.2784 7.49024Z" fill="#292A2E"/>
<path d="M103.817 23.8909L96.2631 23.0784C95.4829 22.9945 94.7824 23.5587 94.6985 24.3386L93.8857 31.8893C93.8018 32.6692 94.3662 33.3694 95.1464 33.4533L102.7 34.2657C103.48 34.3497 104.181 33.7855 104.265 33.0056L105.077 25.4549C105.161 24.675 104.597 23.9748 103.817 23.8909Z" fill="white"/>
<path d="M102.855 34.5095C102.795 34.5094 102.735 34.5062 102.675 34.4998L95.1213 33.6874C94.6848 33.6399 94.2849 33.4213 94.0094 33.0795C93.7339 32.7377 93.6053 32.3006 93.6518 31.8641L94.4646 24.3138C94.4878 24.0976 94.5534 23.8881 94.6577 23.6972C94.7619 23.5064 94.9028 23.3379 95.0721 23.2015C95.2415 23.0651 95.4361 22.9633 95.6448 22.9021C95.8536 22.8409 96.0723 22.8213 96.2886 22.8446L103.842 23.6571C104.279 23.7042 104.679 23.9227 104.955 24.2646C105.23 24.6065 105.359 25.0438 105.312 25.4804L104.499 33.0307C104.455 33.4363 104.263 33.8115 103.96 34.0844C103.657 34.3573 103.263 34.5087 102.855 34.5095ZM102.725 34.0318C103.038 34.0655 103.351 33.9736 103.596 33.7765C103.84 33.5793 103.997 33.293 104.03 32.9806L104.843 25.43C104.877 25.1175 104.785 24.8045 104.588 24.5597C104.391 24.315 104.104 24.1585 103.792 24.1248L96.2377 23.3126C96.083 23.2959 95.9264 23.3099 95.777 23.3538C95.6276 23.3976 95.4884 23.4704 95.3671 23.5681C95.2459 23.6657 95.1451 23.7863 95.0705 23.9229C94.9959 24.0594 94.9489 24.2094 94.9323 24.3641L94.1195 31.9144C94.0863 32.2269 94.1784 32.5398 94.3757 32.7844C94.5729 33.0291 94.8592 33.1856 95.1717 33.2196L102.725 34.0318Z" fill="#292A2E"/>
<path d="M137.335 35.8624C137.296 35.8625 137.258 35.853 137.224 35.8349C137.19 35.8168 137.161 35.7905 137.139 35.7584C132.346 28.6324 125.076 27.335 119.818 27.4997C116.263 27.6349 112.754 28.3425 109.424 29.5952C109.366 29.6185 109.302 29.6181 109.245 29.5942C109.188 29.5702 109.142 29.5246 109.118 29.4673C109.094 29.41 109.094 29.3456 109.118 29.2882C109.141 29.2307 109.186 29.1849 109.243 29.1606C112.626 27.8872 116.192 27.1675 119.804 27.0293C125.177 26.8604 132.617 28.1912 137.53 35.4956C137.554 35.531 137.567 35.5722 137.57 35.6148C137.572 35.6574 137.562 35.6998 137.542 35.7374C137.522 35.7751 137.492 35.8066 137.456 35.8286C137.419 35.8505 137.377 35.8622 137.335 35.8622V35.8624Z" fill="#292A2E"/>
<path d="M137.422 35.9587C137.4 35.9586 137.378 35.9556 137.357 35.9497L132.534 34.5881C132.474 34.5711 132.423 34.531 132.393 34.4766C132.362 34.4221 132.355 34.3578 132.372 34.2977C132.389 34.2377 132.429 34.1868 132.483 34.1563C132.538 34.1258 132.602 34.1182 132.662 34.1352L137.259 35.4326L138.557 30.8378C138.575 30.7791 138.615 30.7298 138.669 30.7004C138.723 30.6711 138.787 30.664 138.846 30.6808C138.905 30.6975 138.955 30.7366 138.986 30.7899C139.017 30.8431 139.025 30.9063 139.01 30.9658L137.648 35.7869C137.634 35.8363 137.604 35.8797 137.564 35.9107C137.523 35.9417 137.473 35.9586 137.422 35.9587Z" fill="#292A2E"/>
<path d="M144.986 38.0693L137.423 38.7863C136.642 38.8603 136.069 39.5534 136.143 40.3342L136.86 47.8946C136.934 48.6755 137.627 49.2485 138.408 49.1744L145.972 48.4575C146.753 48.3835 147.326 47.6904 147.252 46.9096L146.535 39.3492C146.461 38.5683 145.768 37.9953 144.986 38.0693Z" fill="#3747FF"/>
<path d="M169.705 14.8268L162.124 14.3395C161.341 14.2892 160.665 14.8829 160.615 15.6657L160.127 23.2443C160.077 24.0271 160.671 24.7024 161.454 24.7528L169.036 25.2401C169.819 25.2904 170.494 24.6966 170.545 23.9139L171.032 16.3352C171.083 15.5525 170.489 14.8771 169.705 14.8268Z" fill="#292A2E"/>
<path d="M173.989 39.5583L166.436 38.7459C165.655 38.662 164.955 39.2262 164.871 40.0061L164.058 47.5568C163.974 48.3367 164.539 49.0369 165.319 49.1208L172.873 49.9332C173.653 50.0171 174.353 49.453 174.437 48.6731L175.25 41.1223C175.334 40.3425 174.769 39.6422 173.989 39.5583Z" fill="#0CBC8B"/>
<path d="M132.524 64.1551L124.961 64.872C124.18 64.9461 123.606 65.6391 123.681 66.42L124.398 73.9804C124.472 74.7613 125.165 75.3343 125.946 75.2602L133.51 74.5433C134.291 74.4692 134.864 73.7762 134.79 72.9953L134.073 65.4349C133.999 64.654 133.305 64.081 132.524 64.1551Z" fill="white"/>
<path d="M125.811 75.502C125.399 75.5012 125.003 75.3473 124.698 75.0702C124.394 74.793 124.203 74.4125 124.164 74.0027L123.446 66.4423C123.406 66.0053 123.54 65.5699 123.82 65.2316C124.099 64.8933 124.502 64.6798 124.939 64.6378L132.502 63.9209C132.718 63.9004 132.937 63.9227 133.145 63.9866C133.353 64.0504 133.546 64.1546 133.714 64.2932C133.881 64.4317 134.02 64.6019 134.122 64.794C134.224 64.9862 134.287 65.1965 134.307 65.4129L135.024 72.9731C135.065 73.4101 134.931 73.8455 134.651 74.1838C134.372 74.5221 133.969 74.7356 133.532 74.7776L125.969 75.4945C125.916 75.4994 125.863 75.502 125.811 75.502ZM132.661 64.384C132.623 64.384 132.585 64.3858 132.547 64.3894L124.983 65.1056C124.67 65.1356 124.382 65.2884 124.182 65.5306C123.981 65.7728 123.885 66.0845 123.915 66.3974L124.632 73.9576C124.662 74.2702 124.815 74.5581 125.057 74.7582C125.3 74.9583 125.611 75.0544 125.924 75.0253L133.487 74.3084C133.8 74.2784 134.088 74.1255 134.289 73.8833C134.489 73.6412 134.585 73.3295 134.556 73.0166L133.838 65.4564C133.811 65.1632 133.674 64.8909 133.457 64.6925C133.239 64.4941 132.955 64.3839 132.66 64.3833L132.661 64.384Z" fill="#292A2E"/>
<path d="M83.7561 61.5981L76.1928 62.315C75.4116 62.3891 74.8384 63.0821 74.9124 63.863L75.6297 71.4234C75.7037 72.2042 76.3971 72.7772 77.1782 72.7032L84.7416 71.9863C85.5228 71.9122 86.096 71.2192 86.0219 70.4383L85.3047 62.8779C85.2306 62.097 84.5373 61.524 83.7561 61.5981Z" fill="#3747FF"/>
<path d="M144.268 34.2175C144.259 34.2175 144.25 34.217 144.241 34.2161C144.21 34.2125 144.18 34.203 144.153 34.188C144.126 34.173 144.103 34.1528 144.083 34.1286C144.064 34.1044 144.05 34.0766 144.042 34.0469C144.033 34.0172 144.03 33.9861 144.034 33.9554C144.388 31.5799 145.122 29.277 146.21 27.1354C148.564 22.5747 152.255 19.959 156.882 19.5693C156.945 19.5641 157.006 19.5837 157.054 19.624C157.102 19.6643 157.131 19.7218 157.137 19.784C157.142 19.8462 157.122 19.9079 157.082 19.9556C157.042 20.0033 156.984 20.033 156.922 20.0383C146.13 20.9455 144.517 33.8787 144.502 34.0092C144.495 34.0665 144.467 34.1194 144.424 34.1578C144.381 34.1962 144.326 34.2174 144.268 34.2175Z" fill="#292A2E"/>
<path d="M154.644 22.37C154.597 22.37 154.552 22.3563 154.513 22.3305C154.474 22.3047 154.444 22.268 154.426 22.225C154.408 22.1821 154.404 22.1348 154.413 22.0891C154.422 22.0435 154.444 22.0015 154.477 21.9686L156.652 19.7848L154.467 17.6107C154.445 17.5891 154.427 17.5631 154.415 17.5345C154.402 17.5058 154.396 17.4749 154.395 17.4437C154.395 17.4125 154.401 17.3815 154.413 17.3525C154.424 17.3236 154.442 17.2973 154.464 17.2751C154.486 17.253 154.512 17.2355 154.541 17.2236C154.57 17.2117 154.601 17.2057 154.632 17.2059C154.663 17.2061 154.694 17.2125 154.723 17.2248C154.752 17.237 154.778 17.2549 154.8 17.2773L157.151 19.6175C157.195 19.6617 157.22 19.7215 157.22 19.7839C157.22 19.8463 157.195 19.9061 157.151 19.9503L154.81 22.3006C154.788 22.3225 154.762 22.34 154.734 22.3519C154.705 22.3638 154.675 22.37 154.644 22.37Z" fill="#292A2E"/>
<path d="M128.965 60.6405C128.915 60.6405 128.866 60.6243 128.825 60.5944C128.785 60.5644 128.755 60.5223 128.74 60.4741C128.705 60.3591 125.32 48.9318 134.084 44.1918C134.111 44.1764 134.141 44.1666 134.172 44.1629C134.203 44.1593 134.234 44.1618 134.265 44.1705C134.295 44.1791 134.323 44.1937 134.347 44.2133C134.371 44.2329 134.392 44.2572 134.407 44.2847C134.421 44.3122 134.431 44.3424 134.434 44.3736C134.437 44.4047 134.434 44.4361 134.424 44.466C134.415 44.4959 134.4 44.5237 134.38 44.5477C134.36 44.5717 134.335 44.5914 134.307 44.6057C125.885 49.1603 129.157 60.224 129.191 60.3353C129.202 60.3705 129.204 60.4077 129.198 60.444C129.192 60.4802 129.177 60.5145 129.155 60.5441C129.133 60.5737 129.105 60.5978 129.072 60.6143C129.039 60.6309 129.003 60.6395 128.966 60.6395L128.965 60.6405Z" fill="#292A2E"/>
<path d="M133.188 47.3306C133.15 47.3306 133.112 47.3212 133.079 47.3034C133.045 47.2855 133.016 47.2596 132.994 47.2281C132.973 47.1965 132.959 47.1601 132.955 47.1221C132.95 47.0841 132.955 47.0456 132.969 47.0099L133.951 44.4883L131.429 43.5057C131.372 43.4823 131.326 43.4375 131.302 43.3809C131.277 43.3242 131.276 43.2603 131.298 43.2028C131.321 43.1453 131.365 43.0989 131.421 43.0735C131.477 43.0481 131.541 43.0458 131.599 43.0671L134.341 44.1339C134.37 44.1452 134.396 44.1619 134.419 44.1833C134.441 44.2047 134.459 44.2303 134.471 44.2586C134.484 44.2869 134.491 44.3173 134.491 44.3482C134.492 44.3791 134.486 44.4098 134.475 44.4386L133.408 47.1796C133.391 47.224 133.361 47.2621 133.322 47.2891C133.282 47.3161 133.236 47.3306 133.188 47.3306Z" fill="#292A2E"/>
<path d="M99.6897 21.7745C99.6272 21.7745 99.5674 21.7497 99.5232 21.7056C99.4791 21.6614 99.4543 21.6016 99.4543 21.5392C99.4543 17.9648 98.3991 15.2364 96.3171 13.4298C92.6215 10.2235 86.8736 10.9964 86.8159 11.0046C86.7541 11.0135 86.6914 10.9974 86.6414 10.96C86.5915 10.9225 86.5584 10.8668 86.5496 10.805C86.5408 10.7432 86.5569 10.6805 86.5943 10.6305C86.6318 10.5806 86.6875 10.5476 86.7493 10.5388C86.993 10.5037 92.7637 9.72559 96.6235 13.0724C98.8145 14.9724 99.9253 17.8211 99.9251 21.5392C99.9251 21.5701 99.919 21.6007 99.9071 21.6292C99.8953 21.6578 99.878 21.6837 99.8561 21.7056C99.8343 21.7274 99.8083 21.7447 99.7798 21.7566C99.7512 21.7684 99.7206 21.7745 99.6897 21.7745Z" fill="#292A2E"/>
<path d="M99.7009 21.8587C99.6936 21.8587 99.6861 21.8587 99.6788 21.8587C99.648 21.8558 99.6181 21.8469 99.5907 21.8324C99.5634 21.818 99.5392 21.7983 99.5194 21.7745L97.4026 19.2194C97.3628 19.1713 97.3437 19.1094 97.3495 19.0473C97.3554 18.9851 97.3857 18.9278 97.4338 18.888C97.4819 18.8482 97.5439 18.8291 97.606 18.835C97.6682 18.8408 97.7255 18.8711 97.7653 18.9192L99.7329 21.294L102.108 19.3288C102.131 19.3091 102.159 19.2943 102.188 19.2852C102.218 19.2761 102.249 19.273 102.28 19.2759C102.31 19.2788 102.34 19.2877 102.368 19.3022C102.395 19.3166 102.419 19.3363 102.439 19.3601C102.459 19.3839 102.473 19.4114 102.483 19.4409C102.492 19.4705 102.495 19.5015 102.492 19.5322C102.489 19.563 102.48 19.5929 102.466 19.6202C102.451 19.6475 102.431 19.6717 102.408 19.6914L99.8506 21.8055C99.8084 21.8401 99.7555 21.8589 99.7009 21.8587Z" fill="#292A2E"/>
<path d="M104.905 47.7311H97.308C96.5233 47.7311 95.8872 48.3669 95.8872 49.1513V56.7456C95.8872 57.53 96.5233 58.1659 97.308 58.1659H104.905C105.69 58.1659 106.326 57.53 106.326 56.7456V49.1513C106.326 48.3669 105.69 47.7311 104.905 47.7311Z" fill="#0CBC8B"/>
<path d="M124.255 61.6101C124.202 61.61 124.151 61.5924 124.11 61.5601C124.069 61.5279 124.039 61.4828 124.027 61.432C121.402 50.9379 108.571 51.6739 108.443 51.6826C108.412 51.6847 108.381 51.6806 108.352 51.6708C108.322 51.6609 108.295 51.6453 108.272 51.6249C108.249 51.6045 108.229 51.5798 108.216 51.552C108.202 51.5243 108.194 51.4941 108.192 51.4632C108.19 51.4323 108.194 51.4013 108.204 51.3719C108.213 51.3426 108.229 51.3155 108.249 51.2921C108.27 51.2688 108.295 51.2497 108.322 51.236C108.35 51.2222 108.38 51.2141 108.411 51.212C110.775 51.1321 113.135 51.4426 115.397 52.1311C118.757 53.1802 123.06 55.6256 124.483 61.3167C124.491 61.3466 124.492 61.3778 124.488 61.4084C124.483 61.439 124.472 61.4683 124.457 61.4949C124.441 61.5214 124.42 61.5445 124.395 61.5629C124.37 61.5813 124.342 61.5946 124.312 61.6021C124.293 61.6071 124.274 61.6098 124.255 61.6101Z" fill="#292A2E"/>
<path d="M124.287 61.6894C124.238 61.6894 124.191 61.6741 124.151 61.6459L121.487 59.7562C121.436 59.72 121.402 59.6652 121.391 59.6036C121.381 59.5421 121.396 59.479 121.432 59.4281C121.468 59.3772 121.523 59.3428 121.584 59.3324C121.646 59.322 121.709 59.3365 121.76 59.3727L124.229 61.1242L125.989 58.5732C126.025 58.5223 126.079 58.4875 126.14 58.4766C126.201 58.4656 126.264 58.4792 126.315 58.5145C126.367 58.5498 126.402 58.6038 126.413 58.6649C126.425 58.726 126.411 58.7891 126.376 58.8405L124.481 61.5877C124.463 61.6134 124.441 61.6353 124.415 61.6521C124.388 61.669 124.359 61.6804 124.328 61.6858C124.315 61.6882 124.301 61.6894 124.287 61.6894Z" fill="#292A2E"/>
<path d="M240.008 213L240.47 212.911L233.245 141.139L232.782 141.228L240.008 213Z" fill="#494949"/>
<path d="M213.104 213L213.566 212.911L206.341 141.139L205.879 141.228L213.104 213Z" fill="#494949"/>
<path d="M153.634 213L153.172 212.911L160.397 141.139L160.859 141.228L153.634 213Z" fill="#494949"/>
<path d="M180.538 213L180.076 212.911L187.301 141.139L187.763 141.228L180.538 213Z" fill="#494949"/>
<path d="M190.118 109.551L185.897 141.151L186.363 141.214L190.584 109.613L190.118 109.551Z" fill="#494949"/>
<path d="M238.565 109.55L234.344 141.151L234.811 141.214L239.032 109.613L238.565 109.55Z" fill="#494949"/>
<path d="M185.94 143.498H233.328C234.606 143.498 235.643 142.462 235.643 141.184V141.184C235.643 139.906 234.606 138.87 233.328 138.87H185.94C184.661 138.87 183.625 139.906 183.625 141.184V141.184C183.625 142.462 184.661 143.498 185.94 143.498Z" fill="#292A2E"/>
<path opacity="0.8" d="M185.94 143.498H233.328C234.606 143.498 235.643 142.462 235.643 141.184V141.184C235.643 139.906 234.606 138.87 233.328 138.87H185.94C184.661 138.87 183.625 139.906 183.625 141.184V141.184C183.625 142.462 184.661 143.498 185.94 143.498Z" fill="white"/>
<path d="M183.389 141.184C183.39 140.508 183.659 139.86 184.137 139.382C184.615 138.904 185.263 138.635 185.94 138.635H233.327C234.004 138.635 234.653 138.903 235.131 139.381C235.609 139.86 235.878 140.508 235.878 141.184C235.878 141.86 235.609 142.509 235.131 142.987C234.653 143.465 234.004 143.734 233.327 143.734H185.94C185.263 143.733 184.615 143.464 184.137 142.986C183.659 142.508 183.39 141.86 183.389 141.184ZM185.94 139.105C185.388 139.105 184.859 139.324 184.469 139.714C184.079 140.104 183.86 140.633 183.86 141.184C183.86 141.735 184.079 142.264 184.469 142.654C184.859 143.044 185.388 143.263 185.94 143.263H233.327C233.879 143.263 234.408 143.044 234.798 142.654C235.188 142.264 235.407 141.735 235.407 141.184C235.407 140.633 235.188 140.104 234.798 139.714C234.408 139.324 233.879 139.105 233.327 139.105H185.94Z" fill="#292A2E"/>
<path d="M159.931 143.498H207.319C208.597 143.498 209.634 142.462 209.634 141.184V141.184C209.634 139.906 208.597 138.87 207.319 138.87H159.931C158.652 138.87 157.616 139.906 157.616 141.184V141.184C157.616 142.462 158.652 143.498 159.931 143.498Z" fill="white"/>
<path d="M157.379 141.184C157.38 140.508 157.649 139.86 158.127 139.382C158.606 138.904 159.254 138.635 159.931 138.635H207.319C207.995 138.635 208.644 138.903 209.122 139.381C209.6 139.86 209.869 140.508 209.869 141.184C209.869 141.86 209.6 142.509 209.122 142.987C208.644 143.465 207.995 143.734 207.319 143.734H159.931C159.254 143.733 158.606 143.464 158.127 142.986C157.649 142.508 157.38 141.86 157.379 141.184ZM159.931 139.105C159.658 139.105 159.387 139.159 159.135 139.264C158.882 139.368 158.653 139.521 158.46 139.714C158.267 139.907 158.114 140.136 158.009 140.389C157.905 140.641 157.851 140.911 157.851 141.184C157.851 141.457 157.905 141.727 158.009 141.98C158.114 142.232 158.267 142.461 158.46 142.654C158.653 142.847 158.882 143 159.135 143.105C159.387 143.209 159.658 143.263 159.931 143.263H207.319C207.87 143.263 208.399 143.044 208.789 142.654C209.179 142.264 209.398 141.735 209.398 141.184C209.398 140.633 209.179 140.104 208.789 139.714C208.399 139.324 207.87 139.105 207.319 139.105H159.931Z" fill="#292A2E"/>
<path d="M192.716 109.583H238.674C239.426 109.583 240.152 109.31 240.716 108.814C241.281 108.318 241.646 107.634 241.743 106.889L244.783 83.5526C244.839 83.1164 244.802 82.6731 244.674 82.2523C244.546 81.8315 244.33 81.4428 244.039 81.1123C243.749 80.7818 243.391 80.517 242.99 80.3356C242.59 80.1542 242.155 80.0604 241.714 80.0604H195.756C195.004 80.0602 194.278 80.3335 193.714 80.8292C193.149 81.325 192.784 82.0094 192.687 82.7545L189.647 106.091C189.59 106.527 189.627 106.971 189.755 107.391C189.884 107.812 190.1 108.201 190.391 108.531C190.681 108.862 191.039 109.127 191.44 109.308C191.841 109.489 192.276 109.583 192.716 109.583Z" fill="#292A2E"/>
<path opacity="0.8" d="M192.716 109.583H238.674C239.426 109.583 240.152 109.31 240.716 108.814C241.281 108.318 241.646 107.634 241.743 106.889L244.783 83.5526C244.839 83.1164 244.802 82.6731 244.674 82.2523C244.546 81.8315 244.33 81.4428 244.039 81.1123C243.749 80.7818 243.391 80.517 242.99 80.3356C242.59 80.1542 242.155 80.0604 241.714 80.0604H195.756C195.004 80.0602 194.278 80.3335 193.714 80.8292C193.149 81.325 192.784 82.0094 192.687 82.7545L189.647 106.091C189.59 106.527 189.627 106.971 189.755 107.391C189.884 107.812 190.1 108.201 190.391 108.531C190.681 108.862 191.039 109.127 191.44 109.308C191.841 109.489 192.276 109.583 192.716 109.583Z" fill="white"/>
<path d="M190.215 108.686C189.903 108.331 189.67 107.913 189.532 107.46C189.394 107.007 189.354 106.53 189.415 106.061L192.455 82.7241C192.561 81.9234 192.954 81.1882 193.561 80.6552C194.168 80.1221 194.948 79.8273 195.757 79.8256H241.715C242.188 79.8255 242.657 79.9265 243.088 80.1217C243.519 80.3169 243.904 80.6019 244.217 80.9576C244.529 81.3133 244.762 81.7315 244.9 82.1844C245.038 82.6372 245.078 83.1143 245.016 83.5837L241.977 106.92C241.871 107.721 241.478 108.456 240.87 108.989C240.263 109.522 239.483 109.817 238.675 109.818H192.716C192.243 109.818 191.775 109.717 191.344 109.522C190.912 109.327 190.528 109.042 190.215 108.686ZM195.756 80.2961C195.062 80.2979 194.393 80.5511 193.872 81.0087C193.351 81.4664 193.013 82.0974 192.922 82.7848L189.882 106.121C189.83 106.524 189.864 106.934 189.982 107.323C190.101 107.711 190.301 108.07 190.569 108.376C190.837 108.681 191.168 108.926 191.538 109.093C191.909 109.261 192.31 109.348 192.717 109.348H238.675C239.369 109.346 240.039 109.093 240.56 108.636C241.082 108.178 241.419 107.547 241.51 106.859L244.55 83.5227C244.602 83.1197 244.568 82.7101 244.45 82.3214C244.332 81.9326 244.132 81.5735 243.863 81.2681C243.595 80.9627 243.265 80.7181 242.894 80.5505C242.524 80.3829 242.122 80.2962 241.715 80.2961H195.756Z" fill="#292A2E"/>
<path d="M190.117 109.583H236.076C236.827 109.583 237.553 109.31 238.117 108.814C238.682 108.318 239.047 107.634 239.144 106.889L242.184 83.5526C242.241 83.1164 242.204 82.6731 242.076 82.2523C241.947 81.8315 241.731 81.4428 241.44 81.1123C241.15 80.7818 240.793 80.517 240.392 80.3356C239.991 80.1542 239.556 80.0604 239.116 80.0604H193.158C192.406 80.0604 191.681 80.3337 191.116 80.8293C190.552 81.3249 190.187 82.009 190.09 82.7538L187.05 106.09C186.993 106.526 187.03 106.97 187.158 107.391C187.286 107.811 187.502 108.2 187.792 108.531C188.083 108.861 188.44 109.126 188.841 109.308C189.242 109.489 189.677 109.583 190.117 109.583Z" fill="white"/>
<path d="M187.616 108.686C187.303 108.331 187.07 107.913 186.932 107.46C186.794 107.007 186.754 106.53 186.815 106.061L189.855 82.7241C189.961 81.9232 190.355 81.188 190.962 80.6549C191.569 80.1219 192.349 79.8272 193.158 79.8256H239.116C239.59 79.8255 240.058 79.9265 240.489 80.1217C240.921 80.3169 241.305 80.6019 241.618 80.9576C241.93 81.3133 242.163 81.7315 242.301 82.1844C242.439 82.6372 242.479 83.1143 242.418 83.5837L239.378 106.92C239.272 107.721 238.879 108.456 238.271 108.989C237.664 109.522 236.884 109.817 236.076 109.818H190.117C189.644 109.818 189.176 109.717 188.744 109.522C188.313 109.327 187.928 109.042 187.616 108.686ZM193.158 80.2961C192.464 80.2978 191.794 80.5509 191.273 81.0085C190.752 81.4662 190.414 82.0973 190.323 82.7848L187.283 106.121C187.23 106.524 187.265 106.934 187.383 107.323C187.501 107.711 187.701 108.07 187.97 108.376C188.238 108.681 188.568 108.926 188.939 109.093C189.309 109.261 189.711 109.348 190.118 109.348H236.076C236.769 109.346 237.439 109.093 237.96 108.636C238.482 108.178 238.819 107.547 238.91 106.859L241.95 83.523C242.003 83.1199 241.969 82.7103 241.85 82.3215C241.732 81.9327 241.532 81.5737 241.264 81.2683C240.995 80.9629 240.665 80.7182 240.295 80.5506C239.924 80.3829 239.522 80.2962 239.116 80.2961H193.158Z" fill="#292A2E"/>
<path d="M155.383 200.567C155.383 200.567 154.121 207.107 147.995 207.472C141.87 207.836 143.198 212.714 143.198 212.714H166.606V201.023L155.383 200.567Z" fill="#144688"/>
<path d="M176.385 196.438C176.385 196.438 178.141 202.863 172.805 205.893C167.47 208.923 170.816 212.714 170.816 212.714L191.82 202.384L186.657 191.896L176.385 196.438Z" fill="#144688"/>
<path d="M189.395 194.624L171.682 138.767H203.789C210.239 138.767 212.927 133.3 212.927 126.854C212.927 120.407 206.587 114.756 200.138 114.756H156.805C152.872 114.756 148.461 117.161 146.302 120.448C144.143 123.735 144.727 128.828 146.291 132.436L174.655 201.299" fill="#262626"/>
<path opacity="0.8" d="M189.395 194.624L171.682 138.767H203.789C210.239 138.767 212.927 133.3 212.927 126.854C212.927 120.407 206.587 114.756 200.138 114.756H156.805C152.872 114.756 148.461 117.161 146.302 120.448C144.143 123.735 144.727 128.828 146.291 132.436L174.655 201.299" fill="#0A0A0A"/>
<path d="M168.436 205.255L174.038 138.767L212.926 138.765C222.038 138.051 226.211 133.059 226.079 126.614C225.948 120.25 222.725 113.965 216.387 113.965H163.975C159.286 114.061 153.857 118.495 153.857 123.594L151.134 204.483" fill="#262626"/>
<path d="M228.732 114.043C228.732 114.043 230.459 125.301 227.722 131.56C224.304 139.374 211.492 138.765 211.492 138.765L212.214 113.965L228.732 114.043Z" fill="#262626"/>
<path d="M230.635 112.771L230.685 112.773C230.685 112.773 230.649 111.814 230.635 112.771Z" fill="#333333"/>
<path d="M230.573 112.771L230.623 112.773C230.623 112.773 230.587 111.814 230.573 112.771Z" fill="#333333"/>
<path d="M147.203 67.1291C147.294 66.9477 147.44 66.7992 147.62 66.7042C147.799 66.6091 148.004 66.5721 148.206 66.5983C148.204 66.5804 148.208 66.5624 148.217 66.5468C148.226 66.5347 148.239 66.5254 148.253 66.5196C148.267 66.5139 148.282 66.512 148.297 66.5141L147.617 66.0266C147.414 65.8872 147.268 65.6792 147.206 65.4407C147.144 65.2023 147.171 64.9496 147.281 64.7292C147.397 64.5149 147.588 64.3513 147.818 64.2701C148.048 64.1888 148.299 64.1957 148.524 64.2894C148.523 64.2797 148.529 64.2706 148.53 64.2607L148.251 64.0605C148.06 63.9285 147.92 63.7347 147.856 63.5118C147.791 63.2889 147.806 63.0505 147.896 62.8369C147.956 62.7041 148.045 62.5863 148.156 62.4919C148.267 62.3975 148.398 62.3289 148.539 62.2911C148.679 62.2533 148.827 62.2471 148.97 62.2731C149.114 62.2991 149.249 62.3566 149.368 62.4414L150.013 62.9035C150.015 62.8998 150.013 62.8953 150.016 62.8918C150.018 62.8882 150.025 62.8868 150.029 62.883C149.881 62.7165 149.794 62.5045 149.782 62.2819C149.77 62.0594 149.834 61.8394 149.964 61.6581C150.268 61.1685 150.971 61.2685 151.388 61.5673L155.185 64.1889L154.507 63.0445C154.371 62.8247 154.322 62.5612 154.373 62.3073C154.423 62.0534 154.567 61.8281 154.777 61.6767C154.889 61.6024 155.014 61.5515 155.145 61.5271C155.277 61.5027 155.412 61.5053 155.542 61.5348C155.672 61.5643 155.795 61.6201 155.904 61.6987C156.012 61.7773 156.103 61.8771 156.171 61.992L159.877 68.2273C160.311 68.9589 160.444 69.831 160.245 70.6585C160.047 71.486 159.534 72.2036 158.814 72.6588C157.98 73.1867 157.008 73.4537 156.021 73.4253C155.034 73.397 154.078 73.0747 153.276 72.4997L147.542 68.3915C147.351 68.25 147.214 68.0483 147.153 67.8192C147.091 67.5902 147.109 67.347 147.203 67.1291Z" fill="#E98862"/>
<g opacity="0.25">
<path d="M153.77 65.4922C153.757 65.5114 153.736 65.5244 153.712 65.5283C153.689 65.5323 153.665 65.5269 153.645 65.5134L150.038 63.0158C150.018 63.002 150.005 62.981 150.001 62.9574C149.996 62.9338 150.002 62.9095 150.015 62.8898C150.029 62.8701 150.05 62.8566 150.073 62.8522C150.097 62.8478 150.121 62.8529 150.141 62.8664L153.749 65.3645C153.759 65.3712 153.767 65.3798 153.774 65.3898C153.78 65.3998 153.785 65.411 153.787 65.4227C153.789 65.4345 153.789 65.4465 153.786 65.4582C153.784 65.4699 153.779 65.481 153.772 65.4908L153.77 65.4922Z" fill="#0C0C0C"/>
</g>
<g opacity="0.25">
<path d="M152.712 67.1132C152.698 67.1323 152.678 67.1453 152.654 67.1493C152.631 67.1532 152.607 67.1479 152.587 67.1343L148.562 64.3468C148.542 64.3332 148.529 64.3122 148.524 64.2885C148.52 64.2648 148.525 64.2404 148.539 64.2205C148.553 64.2013 148.574 64.1881 148.597 64.1838C148.621 64.1794 148.645 64.1841 148.665 64.1969L152.691 66.9845C152.701 66.9912 152.71 66.9998 152.716 67.0098C152.723 67.0198 152.727 67.031 152.729 67.0428C152.731 67.0545 152.731 67.0665 152.729 67.0782C152.726 67.0899 152.722 67.101 152.715 67.1108L152.712 67.1132Z" fill="#0C0C0C"/>
</g>
<g opacity="0.25">
<path d="M151.577 68.8753C151.563 68.8945 151.542 68.9074 151.518 68.9114C151.495 68.9153 151.471 68.91 151.451 68.8965L148.24 66.6729C148.221 66.6589 148.208 66.638 148.204 66.6147C148.2 66.5913 148.205 66.5674 148.219 66.548C148.232 66.5285 148.253 66.5151 148.276 66.5106C148.299 66.5061 148.323 66.5108 148.343 66.5238L151.555 68.7473C151.565 68.754 151.573 68.7626 151.58 68.7727C151.586 68.7827 151.591 68.7938 151.593 68.8056C151.595 68.8173 151.595 68.8294 151.592 68.841C151.59 68.8527 151.585 68.8638 151.578 68.8736L151.577 68.8753Z" fill="#0C0C0C"/>
</g>
<path d="M162.063 66.8077L172.946 85.3345L186.224 67.9244L197.252 77.8625L178.419 102.243L178.295 102.416C177.541 103.448 176.537 104.271 175.377 104.808C174.217 105.345 172.939 105.578 171.664 105.484C170.389 105.391 169.159 104.975 168.09 104.275C167.02 103.575 166.147 102.615 165.551 101.484L150.076 73.4708L162.063 66.8077Z" fill="#144688"/>
<path d="M174.012 87.5622C174.035 87.5622 174.059 87.5562 174.079 87.5446C174.1 87.5331 174.117 87.5164 174.13 87.4962C174.142 87.4761 174.149 87.4531 174.15 87.4294C174.151 87.4058 174.145 87.3823 174.135 87.3613L173.068 85.2716C173.051 85.2403 173.022 85.2169 172.987 85.2064C172.953 85.1959 172.916 85.1991 172.884 85.2154C172.852 85.2317 172.828 85.2598 172.816 85.2937C172.804 85.3277 172.806 85.3648 172.822 85.3973L173.889 87.4869C173.9 87.5096 173.918 87.5287 173.939 87.542C173.961 87.5553 173.986 87.5623 174.012 87.5622Z" fill="#0C0C0C"/>
<path d="M186.989 85.2293L186.713 85.245L187.045 91.0965L187.321 91.0808L186.989 85.2293Z" fill="#0C0C0C"/>
<path d="M222.055 42.8798C222.055 42.8798 222.565 49.3932 224.06 51.7412C228.362 58.5005 229.674 66.1456 225.491 70.1957C221.308 74.2458 194.331 74.6141 192.181 65.435C190.371 57.7064 194.054 56.8306 194.878 50.4281C195.251 47.5314 196.299 41.4537 196.299 41.4537" fill="#0A0A0A"/>
<path d="M199.049 63.9666C199.096 63.9605 199.612 72.5312 209.574 71.7849C216.47 71.2684 218.929 63.9543 219.087 63.9543C218.343 63.7965 217.091 63.5668 216.761 63.3896C215.675 62.8063 214.331 62.1995 213.981 60.0915C213.78 58.8765 214.123 52.6607 214.017 51.4313L203.431 53.7932C203.579 56.3894 204.614 62.4082 200.985 63.4734C200.382 63.6506 199.731 63.8127 199.049 63.9666Z" fill="#E98862"/>
<path opacity="0.52" d="M203.282 61.0145C203.448 60.4804 203.555 59.9296 203.601 59.3722C203.717 58.1002 203.694 56.8194 203.532 55.5525C205.683 55.2622 207.71 54.3745 209.382 52.9901C209.579 53.7158 210.66 56.8866 210.361 57.5762C209.795 58.88 207.136 61.0145 203.282 61.0145Z" fill="#0C0C0C"/>
<path d="M204.685 58.3169C208.863 58.6722 214.244 56.9409 215.298 51.3727L216.249 46.3483C217.304 40.7798 215.232 35.713 209.988 34.7201C204.743 33.7279 199.968 37.5003 198.914 43.0687L198.493 45.293C198.088 47.4297 197.231 57.6828 204.685 58.3169Z" fill="#E98862"/>
<path d="M199.987 45.5356C200.35 45.5356 200.644 45.2414 200.644 44.8784C200.644 44.5155 200.35 44.2213 199.987 44.2213C199.624 44.2213 199.33 44.5155 199.33 44.8784C199.33 45.2414 199.624 45.5356 199.987 45.5356Z" fill="#0C0C0C"/>
<path d="M206.723 46.4349C207.086 46.4349 207.38 46.1407 207.38 45.7777C207.38 45.4148 207.086 45.1205 206.723 45.1205C206.36 45.1205 206.065 45.4148 206.065 45.7777C206.065 46.1407 206.36 46.4349 206.723 46.4349Z" fill="#0C0C0C"/>
<path d="M203.026 50.596C203.023 50.5958 203.019 50.5953 203.016 50.5946C202.804 50.5527 202.594 50.4992 202.387 50.4344C202.078 50.3353 201.675 50.1711 201.728 49.8932C201.788 49.576 203.305 46.3168 203.478 45.9466C203.493 45.9143 203.521 45.8892 203.554 45.8769C203.588 45.8647 203.625 45.8663 203.657 45.8813C203.69 45.8964 203.715 45.9237 203.727 45.9573C203.739 45.9909 203.738 46.0279 203.723 46.0603C203.075 47.4485 202.033 49.7309 201.993 49.9426C202.027 50.0417 202.539 50.2297 203.067 50.3297C203.101 50.3358 203.132 50.3552 203.152 50.3836C203.173 50.4121 203.181 50.4474 203.176 50.4821C203.171 50.5167 203.152 50.548 203.125 50.5692C203.097 50.5905 203.062 50.6 203.027 50.5958L203.026 50.596Z" fill="#0C0C0C"/>
<path d="M203.803 53.0003C202.947 52.8892 202.13 52.5787 201.416 52.0939C201.386 52.0744 201.365 52.0438 201.358 52.0089C201.351 51.9739 201.358 51.9375 201.377 51.9076C201.397 51.8777 201.427 51.8567 201.462 51.8493C201.497 51.842 201.534 51.8488 201.563 51.8683C203.107 52.8739 204.642 53.0365 206 52.3389C206.028 52.3238 206.056 52.3104 206.085 52.2986C206.118 52.2865 206.155 52.2882 206.188 52.3033C206.22 52.3185 206.245 52.3459 206.257 52.3795C206.269 52.413 206.268 52.45 206.252 52.4824C206.237 52.5147 206.21 52.5397 206.176 52.5518C206.166 52.5563 206.148 52.5657 206.123 52.5784C205.409 52.9466 204.601 53.0935 203.803 53.0003Z" fill="#0C0C0C"/>
<path d="M220.445 48.0993L215.743 47.2377C212.183 45.7972 211.106 39.6354 211.106 39.6354C211.106 39.6354 206.781 43.8495 196.301 41.4528C196.301 41.4528 198.402 26.8411 213.887 31.0895C218.88 32.4596 222.464 37.4895 222.018 44.2113C221.703 48.9221 220.445 48.0993 220.445 48.0993Z" fill="#0A0A0A"/>
<path d="M214.651 53.0076C216.245 53.309 217.86 51.849 218.161 50.2546C218.463 48.6603 217.338 47.5382 215.743 47.2368L214.72 48.149L213.281 52.7473L214.651 53.0076Z" fill="#E98862"/>
<path d="M202.517 43.2831C202.052 42.983 201.515 42.8134 200.962 42.7923C200.69 42.7802 200.417 42.809 200.154 42.8777C199.892 42.9448 199.641 43.0445 199.404 43.1744C199.374 43.1926 199.352 43.2213 199.342 43.2551C199.332 43.2889 199.335 43.3252 199.35 43.3569C199.365 43.3886 199.392 43.4134 199.425 43.4265C199.457 43.4396 199.494 43.44 199.527 43.4276L199.537 43.4231C199.755 43.3163 199.986 43.2373 200.224 43.1878C200.46 43.1375 200.701 43.123 200.941 43.145C201.417 43.1846 201.873 43.3495 202.264 43.6229L202.277 43.6321C202.299 43.6507 202.325 43.6645 202.353 43.6726C202.381 43.6808 202.41 43.6832 202.439 43.6796C202.468 43.676 202.496 43.6665 202.521 43.6518C202.546 43.637 202.567 43.6172 202.584 43.5937C202.601 43.5703 202.613 43.5435 202.62 43.5152C202.626 43.4868 202.626 43.4575 202.621 43.429C202.615 43.4005 202.604 43.3735 202.587 43.3496C202.571 43.3256 202.55 43.3054 202.525 43.29L202.517 43.2831Z" fill="#0C0C0C"/>
<path d="M206.711 44.2699C207.174 44.1566 207.659 44.1677 208.117 44.3021C208.349 44.3684 208.569 44.4692 208.77 44.6012C208.974 44.7335 209.161 44.891 209.326 45.0699L209.333 45.0774C209.359 45.1009 209.394 45.1137 209.429 45.1133C209.464 45.113 209.498 45.0994 209.524 45.0754C209.549 45.0514 209.565 45.0186 209.568 44.9835C209.571 44.9484 209.56 44.9135 209.539 44.8857C209.366 44.6793 209.167 44.4955 208.948 44.3386C208.727 44.1793 208.483 44.0539 208.225 43.9669C207.701 43.7869 207.139 43.751 206.597 43.8631C206.545 43.8778 206.501 43.9117 206.474 43.9577C206.446 44.0038 206.437 44.0586 206.448 44.1112C206.459 44.1637 206.49 44.21 206.534 44.2406C206.578 44.2713 206.633 44.284 206.686 44.2763L206.695 44.2741L206.711 44.2699Z" fill="#0C0C0C"/>
<path d="M203.621 54.2644C203.466 54.2468 203.313 54.216 203.163 54.1724C203.129 54.1626 203.1 54.1394 203.082 54.1082C203.065 54.0769 203.061 54.0401 203.071 54.0057C203.081 53.9714 203.104 53.9424 203.135 53.9252C203.166 53.9079 203.203 53.9037 203.237 53.9136C204.139 54.1724 204.652 53.8294 204.673 53.8146C204.703 53.794 204.739 53.786 204.774 53.7921C204.809 53.7983 204.841 53.8182 204.861 53.8474C204.882 53.8766 204.89 53.9128 204.884 53.948C204.877 53.9832 204.857 54.0145 204.828 54.035C204.464 54.2486 204.038 54.3297 203.621 54.2644Z" fill="#0C0C0C"/>
<path d="M215.733 47.1782L215.78 47.048C209.823 44.9104 211.28 39.0667 211.295 39.0078L211.162 38.9728C211.146 39.0328 209.655 44.997 215.733 47.1782Z" fill="#0C0C0C"/>
<path opacity="0.1" d="M208.596 50.2266C208.651 49.7223 208.137 49.2535 207.449 49.1795C206.762 49.1056 206.16 49.4544 206.106 49.9587C206.052 50.463 206.565 50.9317 207.253 51.0057C207.941 51.0797 208.542 50.7308 208.596 50.2266Z" fill="#0C0C0C"/>
<path opacity="0.1" d="M199.974 49.0769C199.918 49.5805 199.317 49.9289 198.629 49.8558C198.51 49.8431 198.393 49.818 198.279 49.7809C198.24 49.1817 198.232 48.6045 198.243 48.0708C198.433 48.021 198.631 48.0071 198.826 48.0299C199.513 48.1028 200.027 48.5715 199.974 49.0769Z" fill="#0C0C0C"/>
<path d="M186.672 82.8373C186.986 86.5222 188.512 109.425 188.814 113.965L228.732 114.05C228.967 109.956 231.68 92.0565 232.571 84.0514C233.421 76.4128 235.09 72.5884 233.866 70.33C231.868 66.6392 226.408 64.5065 222.685 64.0025C220.412 63.695 216.993 63.4745 216.993 63.4745C216.993 63.4745 216.703 69.3284 209.8 69.6543C200.404 70.0973 201.031 63.4745 200.984 63.4745C199.462 63.4745 190.766 64.4376 188.638 65.6983C182.842 69.1291 186.006 75.0286 186.672 82.8373Z" fill="#144688"/>
<path d="M160.761 85.4114L164.609 104.106C164.687 104.486 164.893 104.827 165.192 105.073C165.492 105.319 165.867 105.456 166.254 105.459L192.75 105.684C193.002 105.686 193.252 105.632 193.482 105.525C193.711 105.418 193.913 105.261 194.073 105.066C194.234 104.871 194.349 104.642 194.409 104.397C194.47 104.152 194.475 103.896 194.424 103.649L190.576 84.954C190.498 84.5744 190.292 84.2331 189.993 83.987C189.693 83.7408 189.318 83.6048 188.931 83.6015L162.436 83.3759C162.183 83.3737 161.933 83.4281 161.704 83.535C161.475 83.6419 161.272 83.7987 161.112 83.9939C160.951 84.189 160.837 84.4176 160.776 84.6629C160.715 84.9082 160.71 85.1639 160.761 85.4114Z" fill="#292A2E"/>
<path d="M185.467 98.6906C185.453 98.9368 185.529 99.1797 185.679 99.3747C185.83 99.5697 186.047 99.7036 186.289 99.7518L187.104 99.9316C187.09 99.9364 187.076 99.9447 187.066 99.9558C187.055 99.9668 187.047 99.9803 187.043 99.9951C187.041 100.012 187.045 100.03 187.054 100.045C186.858 100.1 186.684 100.215 186.556 100.373C186.429 100.532 186.353 100.726 186.341 100.929C186.34 101.166 186.419 101.396 186.565 101.583C186.711 101.77 186.915 101.901 187.146 101.957L194.033 103.487C194.385 103.565 194.745 103.605 195.106 103.604C195.91 103.604 196.702 103.409 197.413 103.035C198.124 102.661 198.734 102.119 199.19 101.457C199.673 100.756 199.863 99.8952 199.721 99.0564C199.578 98.2176 199.114 97.4675 198.426 96.9657L192.568 92.6834C192.439 92.589 192.289 92.5273 192.131 92.5036L192.67 95.121L192.526 95.0878L192.496 95.0824L188.003 94.169C187.502 94.0584 186.817 94.2396 186.728 94.8102C186.681 95.0281 186.708 95.2557 186.806 95.4559C186.905 95.6561 187.068 95.8172 187.269 95.913C187.267 95.9156 187.261 95.9184 187.261 95.9241C187.261 95.9297 187.264 95.9323 187.264 95.9377L186.487 95.7664C186.345 95.735 186.198 95.7355 186.056 95.7678C185.914 95.8001 185.781 95.8634 185.667 95.9532C185.552 96.043 185.459 96.157 185.394 96.2871C185.329 96.4172 185.293 96.5601 185.29 96.7055C185.29 96.9378 185.371 97.1629 185.518 97.3427C185.665 97.5225 185.87 97.646 186.098 97.692L186.432 97.7666C186.435 97.7777 186.432 97.7888 186.438 97.7972C186.194 97.799 185.959 97.8915 185.78 98.0566C185.601 98.2218 185.489 98.4478 185.467 98.6906Z" fill="#E98862"/>
<g opacity="0.25">
<path d="M191.737 96.845C191.732 96.8681 191.718 96.8882 191.698 96.901C191.678 96.9139 191.654 96.9184 191.631 96.9137L187.332 96.0323C187.32 96.0302 187.308 96.0257 187.298 96.0191C187.288 96.0125 187.279 96.0039 187.272 95.9939C187.265 95.9839 187.261 95.9726 187.258 95.9607C187.256 95.9488 187.256 95.9365 187.258 95.9246C187.261 95.9127 187.266 95.9015 187.273 95.8915C187.279 95.8815 187.288 95.8729 187.298 95.8664C187.309 95.8599 187.32 95.8554 187.332 95.8534C187.344 95.8513 187.356 95.8517 187.368 95.8544L191.667 96.7358C191.679 96.7382 191.69 96.7429 191.7 96.7495C191.71 96.7562 191.718 96.7648 191.725 96.7747C191.731 96.7847 191.736 96.7958 191.738 96.8075C191.74 96.8192 191.74 96.8312 191.738 96.8429L191.737 96.845Z" fill="#0C0C0C"/>
</g>
<g opacity="0.25">
<path d="M191.401 98.7511C191.396 98.7742 191.381 98.7942 191.361 98.807C191.341 98.8198 191.317 98.8243 191.294 98.8196L186.496 97.836C186.485 97.8336 186.473 97.829 186.464 97.8223C186.454 97.8156 186.445 97.8071 186.439 97.7971C186.432 97.7872 186.428 97.7761 186.425 97.7644C186.423 97.7527 186.423 97.7406 186.426 97.729C186.431 97.7058 186.445 97.6856 186.465 97.6725C186.485 97.6594 186.509 97.6544 186.533 97.6584L191.331 98.6419C191.354 98.6468 191.375 98.6609 191.388 98.681C191.401 98.7011 191.406 98.7256 191.401 98.7492L191.401 98.7511Z" fill="#0C0C0C"/>
</g>
<g opacity="0.25">
<path d="M191.048 100.817C191.043 100.841 191.029 100.861 191.009 100.874C190.989 100.886 190.965 100.891 190.941 100.886L187.114 100.102C187.091 100.097 187.071 100.082 187.058 100.062C187.045 100.042 187.04 100.018 187.045 99.9946C187.05 99.9713 187.064 99.9507 187.083 99.9375C187.103 99.9242 187.128 99.9193 187.151 99.9238L190.978 100.708C191.001 100.713 191.022 100.727 191.035 100.747C191.049 100.767 191.053 100.792 191.048 100.815L191.048 100.817Z" fill="#0C0C0C"/>
</g>
<path d="M194.459 106.21L231.826 112.96C232.992 113.087 234.172 112.942 235.272 112.537C236.373 112.131 237.365 111.476 238.17 110.623C238.974 109.771 239.571 108.743 239.911 107.621C240.252 106.499 240.328 105.314 240.134 104.157L234.903 73.0752C234.74 72.0902 234.384 71.1469 233.856 70.2995C233.328 69.4521 232.638 68.7172 231.825 68.1369C231.012 67.5566 230.093 67.1423 229.12 66.9179C228.146 66.6934 227.138 66.6631 226.154 66.8287C225.169 66.9943 224.226 67.3526 223.38 67.8831C222.534 68.4135 221.8 69.1056 221.222 69.9198C220.644 70.7339 220.233 71.6541 220.011 72.6276C219.789 73.6011 219.762 74.6088 219.931 75.5928L223.499 96.9902L196.102 93.5509L194.459 106.21Z" fill="#144688"/>
<path d="M231.827 113.098C231.861 113.098 231.894 113.085 231.919 113.061C231.944 113.038 231.96 113.006 231.963 112.972C231.966 112.938 231.956 112.904 231.935 112.876C231.914 112.849 231.884 112.83 231.85 112.824L194.612 106.097L196.22 93.7052L223.478 97.1273C223.5 97.1303 223.522 97.128 223.542 97.1208C223.562 97.1136 223.581 97.1017 223.596 97.0859C223.611 97.0705 223.622 97.0518 223.628 97.0314C223.634 97.011 223.636 96.9894 223.633 96.9683L221.367 83.2937C221.364 83.2758 221.357 83.2585 221.348 83.243C221.338 83.2275 221.326 83.2141 221.311 83.2035C221.296 83.1929 221.279 83.1854 221.262 83.1813C221.244 83.1773 221.226 83.1769 221.208 83.1801C221.171 83.1861 221.139 83.2063 221.118 83.2361C221.097 83.2659 221.088 83.303 221.094 83.3391L223.33 96.8309L196.119 93.4151C196.083 93.4108 196.047 93.4209 196.018 93.4432C195.989 93.4655 195.97 93.4983 195.965 93.5344L194.322 106.193C194.318 106.228 194.327 106.264 194.348 106.293C194.369 106.321 194.4 106.341 194.435 106.347L231.802 113.096C231.81 113.097 231.818 113.098 231.827 113.098Z" fill="#0C0C0C"/>
<path d="M223.521 96.8549L223.477 97.1281L225.881 97.5127L225.924 97.2395L223.521 96.8549Z" fill="#0C0C0C"/>
<path d="M256.835 212.861H0.16477C0.12107 212.861 0.0791605 212.843 0.0482601 212.812C0.0173597 212.782 0 212.74 0 212.696C0 212.652 0.0173597 212.61 0.0482601 212.58C0.0791605 212.549 0.12107 212.531 0.16477 212.531H256.834C256.878 212.531 256.92 212.549 256.951 212.58C256.982 212.61 256.999 212.652 256.999 212.696C256.999 212.74 256.982 212.782 256.951 212.812C256.92 212.843 256.878 212.861 256.834 212.861H256.835Z" fill="#292A2E"/>
<g opacity="0.65">
<path d="M256.835 212.861H0.16477C0.12107 212.861 0.0791605 212.843 0.0482601 212.812C0.0173597 212.782 0 212.74 0 212.696C0 212.652 0.0173597 212.61 0.0482601 212.58C0.0791605 212.549 0.12107 212.531 0.16477 212.531H256.834C256.878 212.531 256.92 212.549 256.951 212.58C256.982 212.61 256.999 212.652 256.999 212.696C256.999 212.74 256.982 212.782 256.951 212.812C256.92 212.843 256.878 212.861 256.834 212.861H256.835Z" fill="#292A2E"/>
</g>
<path d="M15.9486 213L15.4863 212.911L22.7117 141.139L23.174 141.228L15.9486 213Z" fill="#494949"/>
<path d="M42.8527 213L42.3904 212.911L49.6156 141.139L50.0778 141.228L42.8527 213Z" fill="#494949"/>
<path d="M102.323 213L102.785 212.911L95.5595 141.139L95.0972 141.228L102.323 213Z" fill="#494949"/>
<path d="M75.4184 213L75.8807 212.911L68.6555 141.139L68.1932 141.228L75.4184 213Z" fill="#494949"/>
<path d="M65.8363 109.553L65.3696 109.615L69.5906 141.216L70.0572 141.153L65.8363 109.553Z" fill="#494949"/>
<path d="M17.388 109.552L16.9214 109.615L21.1423 141.215L21.6089 141.153L17.388 109.552Z" fill="#494949"/>
<path d="M70.0169 138.87H22.629C21.3504 138.87 20.314 139.906 20.314 141.184V141.184C20.314 142.462 21.3504 143.498 22.629 143.498H70.0169C71.2954 143.498 72.3319 142.462 72.3319 141.184V141.184C72.3319 139.906 71.2954 138.87 70.0169 138.87Z" fill="#292A2E"/>
<path opacity="0.8" d="M70.0169 138.87H22.629C21.3504 138.87 20.314 139.906 20.314 141.184V141.184C20.314 142.462 21.3504 143.498 22.629 143.498H70.0169C71.2954 143.498 72.3319 142.462 72.3319 141.184V141.184C72.3319 139.906 71.2954 138.87 70.0169 138.87Z" fill="white"/>
<path d="M70.0169 143.733H22.629C22.2941 143.733 21.9625 143.667 21.653 143.539C21.3436 143.411 21.0624 143.223 20.8256 142.987C20.5888 142.75 20.4009 142.469 20.2728 142.159C20.1446 141.85 20.0786 141.519 20.0786 141.184C20.0786 140.849 20.1446 140.518 20.2728 140.208C20.4009 139.899 20.5888 139.618 20.8256 139.381C21.0624 139.144 21.3436 138.957 21.653 138.828C21.9625 138.7 22.2941 138.634 22.629 138.634H70.0169C70.6933 138.634 71.342 138.903 71.8203 139.381C72.2986 139.859 72.5673 140.508 72.5673 141.184C72.5673 141.86 72.2986 142.508 71.8203 142.987C71.342 143.465 70.6933 143.733 70.0169 143.733ZM22.629 139.105C22.3559 139.105 22.0855 139.159 21.8332 139.263C21.5809 139.368 21.3516 139.521 21.1585 139.714C20.9654 139.907 20.8122 140.136 20.7077 140.389C20.6032 140.641 20.5494 140.911 20.5494 141.184C20.5494 141.457 20.6032 141.727 20.7077 141.98C20.8122 142.232 20.9654 142.461 21.1585 142.654C21.3516 142.847 21.5809 143 21.8332 143.105C22.0855 143.209 22.3559 143.263 22.629 143.263H70.0169C70.5685 143.263 71.0974 143.044 71.4874 142.654C71.8774 142.264 72.0965 141.735 72.0965 141.184C72.0965 140.633 71.8774 140.104 71.4874 139.714C71.0974 139.324 70.5685 139.105 70.0169 139.105H22.629Z" fill="#292A2E"/>
<path d="M96.0259 138.87H48.638C47.3595 138.87 46.323 139.906 46.323 141.184V141.184C46.323 142.462 47.3595 143.498 48.638 143.498H96.0259C97.3045 143.498 98.3409 142.462 98.3409 141.184V141.184C98.3409 139.906 97.3045 138.87 96.0259 138.87Z" fill="white"/>
<path d="M96.0259 143.733H48.6381C48.3031 143.733 47.9715 143.667 47.6621 143.539C47.3526 143.411 47.0715 143.223 46.8346 142.987C46.5978 142.75 46.41 142.469 46.2818 142.159C46.1536 141.85 46.0876 141.519 46.0876 141.184C46.0876 140.849 46.1536 140.518 46.2818 140.208C46.41 139.899 46.5978 139.618 46.8346 139.381C47.0715 139.144 47.3526 138.957 47.6621 138.828C47.9715 138.7 48.3031 138.634 48.6381 138.634H96.0259C96.3609 138.634 96.6925 138.7 97.0019 138.828C97.3114 138.957 97.5925 139.144 97.8294 139.381C98.0662 139.618 98.2541 139.899 98.3822 140.208C98.5104 140.518 98.5764 140.849 98.5764 141.184C98.5764 141.519 98.5104 141.85 98.3822 142.159C98.2541 142.469 98.0662 142.75 97.8294 142.987C97.5925 143.223 97.3114 143.411 97.0019 143.539C96.6925 143.667 96.3609 143.733 96.0259 143.733ZM48.6381 139.105C48.3649 139.105 48.0945 139.159 47.8422 139.263C47.5899 139.368 47.3606 139.521 47.1675 139.714C46.9744 139.907 46.8212 140.136 46.7167 140.389C46.6122 140.641 46.5584 140.911 46.5584 141.184C46.5584 141.457 46.6122 141.727 46.7167 141.98C46.8212 142.232 46.9744 142.461 47.1675 142.654C47.3606 142.847 47.5899 143 47.8422 143.105C48.0945 143.209 48.3649 143.263 48.6381 143.263H96.0259C96.299 143.263 96.5695 143.209 96.8218 143.105C97.0741 143 97.3034 142.847 97.4965 142.654C97.6896 142.461 97.8428 142.232 97.9473 141.98C98.0518 141.727 98.1056 141.457 98.1056 141.184C98.1056 140.911 98.0518 140.641 97.9473 140.389C97.8428 140.136 97.6896 139.907 97.4965 139.714C97.3034 139.521 97.0741 139.368 96.8218 139.263C96.5695 139.159 96.299 139.105 96.0259 139.105H48.6381Z" fill="#292A2E"/>
<path d="M63.2405 109.583H17.2821C16.5307 109.583 15.805 109.31 15.2404 108.814C14.6758 108.318 14.3109 107.634 14.2139 106.889L11.1738 83.5525C11.117 83.1163 11.154 82.673 11.2822 82.2522C11.4104 81.8314 11.6269 81.4428 11.9173 81.1122C12.2077 80.7817 12.5652 80.5169 12.9661 80.3355C13.367 80.1541 13.802 80.0603 14.2421 80.0603H60.2005C60.9519 80.0603 61.6776 80.3336 62.2422 80.8292C62.8068 81.3248 63.1717 82.0089 63.2687 82.7537L66.3085 106.09C66.3655 106.526 66.3287 106.97 66.2006 107.391C66.0724 107.811 65.856 108.2 65.5656 108.531C65.2752 108.861 64.9176 109.126 64.5166 109.308C64.1157 109.489 63.6806 109.583 63.2405 109.583Z" fill="#292A2E"/>
<path opacity="0.8" d="M63.2405 109.583H17.2821C16.5307 109.583 15.805 109.31 15.2404 108.814C14.6758 108.318 14.3109 107.634 14.2139 106.889L11.1738 83.5525C11.117 83.1163 11.154 82.673 11.2822 82.2522C11.4104 81.8314 11.6269 81.4428 11.9173 81.1122C12.2077 80.7817 12.5652 80.5169 12.9661 80.3355C13.367 80.1541 13.802 80.0603 14.2421 80.0603H60.2005C60.9519 80.0603 61.6776 80.3336 62.2422 80.8292C62.8068 81.3248 63.1717 82.0089 63.2687 82.7537L66.3085 106.09C66.3655 106.526 66.3287 106.97 66.2006 107.391C66.0724 107.811 65.856 108.2 65.5656 108.531C65.2752 108.861 64.9176 109.126 64.5166 109.308C64.1157 109.489 63.6806 109.583 63.2405 109.583Z" fill="white"/>
<path d="M63.2404 109.818H17.2821C16.474 109.816 15.694 109.522 15.0868 108.989C14.4796 108.456 14.0864 107.721 13.9803 106.92L10.9405 83.5836C10.8793 83.1142 10.919 82.6371 11.0569 82.1843C11.1948 81.7314 11.4278 81.3132 11.7403 80.9575C12.0527 80.6018 12.4375 80.3169 12.869 80.1216C13.3004 79.9264 13.7685 79.8255 14.242 79.8255H60.2004C61.0085 79.8273 61.7885 80.1221 62.3957 80.6551C63.0028 81.1882 63.3959 81.9233 63.502 82.7241L66.542 106.06C66.6031 106.53 66.5634 107.007 66.4255 107.46C66.2876 107.913 66.0546 108.331 65.7421 108.686C65.4297 109.042 65.0449 109.327 64.6135 109.522C64.1821 109.717 63.714 109.818 63.2404 109.818ZM14.242 80.2961C13.8355 80.2961 13.4336 80.3828 13.0632 80.5504C12.6928 80.718 12.3624 80.9627 12.0941 81.268C11.8258 81.5734 11.6258 81.9325 11.5073 82.3213C11.3889 82.7101 11.3548 83.1196 11.4073 83.5227L14.4473 106.859C14.5384 107.547 14.8759 108.178 15.3972 108.635C15.9185 109.093 16.5882 109.346 17.2821 109.348H63.2404C63.647 109.348 64.0489 109.261 64.4193 109.093C64.7897 108.926 65.1201 108.681 65.3884 108.376C65.6567 108.07 65.8567 107.711 65.9751 107.323C66.0936 106.934 66.1277 106.524 66.0752 106.121L63.0364 82.7848C62.9453 82.0972 62.6077 81.4661 62.0864 81.0084C61.5651 80.5508 60.8954 80.2977 60.2016 80.2961H14.242Z" fill="#292A2E"/>
<path d="M65.8391 109.583H19.8807C19.1294 109.583 18.4037 109.31 17.8391 108.814C17.2746 108.318 16.9097 107.634 16.8127 106.889L13.7727 83.5525C13.7159 83.1163 13.7528 82.673 13.881 82.2522C14.0092 81.8314 14.2257 81.4428 14.5161 81.1122C14.8065 80.7817 15.1641 80.5169 15.565 80.3355C15.9659 80.1541 16.4009 80.0603 16.841 80.0603H62.7994C63.5507 80.0603 64.2764 80.3336 64.841 80.8292C65.4055 81.3249 65.7704 82.0089 65.8674 82.7537L68.9074 106.09C68.9643 106.526 68.9275 106.97 68.7993 107.391C68.6712 107.811 68.4547 108.2 68.1643 108.531C67.8739 108.861 67.5163 109.126 67.1153 109.308C66.7143 109.489 66.2793 109.583 65.8391 109.583Z" fill="white"/>
<path d="M65.8391 109.818H19.8807C19.0727 109.816 18.2927 109.522 17.6856 108.989C17.0784 108.456 16.6853 107.72 16.5792 106.92L13.5392 83.5836C13.4781 83.1142 13.5178 82.6371 13.6558 82.1843C13.7937 81.7315 14.0267 81.3133 14.3392 80.9576C14.6517 80.6019 15.0365 80.317 15.4679 80.1217C15.8993 79.9265 16.3674 79.8255 16.841 79.8255H62.7991C63.6072 79.8273 64.3872 80.1221 64.9944 80.6551C65.6016 81.1882 65.9947 81.9233 66.1009 82.7241L69.1409 106.06C69.202 106.53 69.1622 107.007 69.0242 107.46C68.8863 107.912 68.6533 108.331 68.3408 108.686C68.0283 109.042 67.6435 109.327 67.2121 109.522C66.7808 109.717 66.3127 109.818 65.8391 109.818ZM16.841 80.2961C16.4343 80.296 16.0323 80.3827 15.6619 80.5503C15.2914 80.7179 14.9609 80.9625 14.6926 81.2679C14.4242 81.5733 14.2241 81.9325 14.1056 82.3213C13.9871 82.7102 13.953 83.1198 14.0055 83.5229L17.0453 106.859C17.1365 107.547 17.4741 108.178 17.9955 108.636C18.517 109.093 19.1868 109.346 19.8807 109.348H65.8391C66.2457 109.348 66.6476 109.261 67.018 109.093C67.3884 108.926 67.7188 108.681 67.9871 108.376C68.2554 108.07 68.4554 107.711 68.5738 107.323C68.6923 106.934 68.7264 106.524 68.6739 106.121L65.6339 82.7848C65.5428 82.0972 65.2053 81.466 64.684 81.0084C64.1627 80.5507 63.493 80.2976 62.7991 80.2961H16.841Z" fill="#292A2E"/>
<path d="M60.7734 44.0563C60.7734 44.0563 63.8275 41.752 64.5843 36.4481C65.1702 32.3412 61.3804 35.0019 61.3804 35.0019C61.3804 35.0019 61.7735 32.0408 59.615 32.3347C57.4566 32.6285 56.249 35.7391 56.249 35.7391" fill="#0C0C0C"/>
<path d="M48.4601 32.6822C48.4601 32.6822 37.7514 33.83 41.6226 48.3353L42.57 48.3986L44.4936 48.5275" fill="#0C0C0C"/>
<path d="M58.9797 63.4821C58.9326 63.4759 58.4103 72.1409 48.3391 71.3863C41.3669 70.8641 38.8808 63.4698 38.7212 63.4698C39.4728 63.3101 40.4018 63.0677 40.7709 62.9844C41.5756 62.7978 42.3044 62.3706 42.8602 61.7598C43.4161 61.149 43.7727 60.3835 43.8827 59.5651C44.0866 58.3369 43.7415 52.0527 43.8472 50.8101L54.5495 53.1998C54.3998 55.8245 53.3532 61.9094 57.021 62.9863C57.6321 63.1632 58.2895 63.3272 58.9797 63.4821Z" fill="#E98862"/>
<path opacity="0.52" d="M54.6994 60.4983C54.5318 59.9583 54.4239 59.4016 54.3776 58.8381C54.2602 57.5521 54.2838 56.2571 54.4482 54.9762C52.273 54.6827 50.2238 53.7853 48.5332 52.3859C48.3343 53.1195 47.2414 56.3249 47.5446 57.0223C48.1154 58.3402 50.8033 60.4983 54.6994 60.4983Z" fill="#0C0C0C"/>
<path d="M52.491 58.7832C48.2689 58.4049 43.2154 55.7381 43.1424 50.0092L43.0755 44.8398C43.0026 39.1106 45.9538 34.4281 51.3501 34.3596C56.7463 34.2909 60.8389 38.884 60.9119 44.613L60.9409 46.9016C60.9372 47.6875 60.88 48.4722 60.7695 49.2503C60.4927 51.3092 60.0633 54.4393 58.6656 56.5569C57.3465 58.5559 55.188 59.0251 52.491 58.7832Z" fill="#E98862"/>
<path d="M54.4495 53.5465C55.3208 53.586 56.1893 53.4202 56.9848 53.0625C57.0013 53.0555 57.0162 53.0453 57.0287 53.0326C57.0412 53.0198 57.051 53.0047 57.0577 52.9881C57.0644 52.9715 57.0677 52.9538 57.0675 52.9359C57.0673 52.9181 57.0636 52.9004 57.0566 52.884C57.0496 52.8675 57.0394 52.8526 57.0266 52.8401C57.0138 52.8276 56.9987 52.8178 56.9821 52.8111C56.9656 52.8044 56.9478 52.8011 56.9299 52.8013C56.9121 52.8015 56.8944 52.8052 56.8779 52.8122C55.1641 53.5416 53.608 53.4357 52.3778 52.503C52.3531 52.4834 52.3273 52.465 52.3006 52.448C52.2697 52.4334 52.2344 52.431 52.2018 52.4413C52.1692 52.4515 52.1416 52.4736 52.1245 52.5032C52.1074 52.5329 52.1021 52.5678 52.1096 52.6011C52.1172 52.6345 52.1369 52.6638 52.165 52.6833C52.1749 52.6896 52.1909 52.7021 52.2121 52.719C52.8588 53.2115 53.6379 53.4996 54.4495 53.5465Z" fill="#0C0C0C"/>
<path d="M54.409 54.8374C54.5664 54.847 54.7244 54.8432 54.8812 54.8261C54.9164 54.8214 54.9483 54.8031 54.9702 54.7752C54.9921 54.7473 55.0022 54.7119 54.9985 54.6766C54.9947 54.6413 54.9773 54.6089 54.95 54.5863C54.9227 54.5636 54.8876 54.5525 54.8522 54.5553C53.9093 54.6555 53.459 54.2235 53.4399 54.2052C53.4142 54.1808 53.3799 54.1674 53.3444 54.1678C53.309 54.1682 53.2751 54.1825 53.2499 54.2075C53.2248 54.2325 53.2104 54.2664 53.2099 54.3018C53.2093 54.3373 53.2226 54.3716 53.2469 54.3974C53.5718 54.6738 53.9824 54.8293 54.409 54.8374Z" fill="#0C0C0C"/>
<path d="M59.1306 48.0033C59.4977 48.0033 59.7953 47.7058 59.7953 47.3388C59.7953 46.9719 59.4977 46.6744 59.1306 46.6744C58.7634 46.6744 58.4658 46.9719 58.4658 47.3388C58.4658 47.7058 58.7634 48.0033 59.1306 48.0033Z" fill="#0C0C0C"/>
<path d="M52.6365 47.5958C53.0036 47.5958 53.3013 47.2983 53.3013 46.9313C53.3013 46.5643 53.0036 46.2668 52.6365 46.2668C52.2694 46.2668 51.9718 46.5643 51.9718 46.9313C51.9718 47.2983 52.2694 47.5958 52.6365 47.5958Z" fill="#0C0C0C"/>
<path d="M43.4993 51.7501C41.8596 51.7711 40.5078 50.0341 40.4863 48.3951C40.4649 46.756 41.7836 45.8348 43.4235 45.8139L44.2824 46.9017L44.9088 51.7322L43.4993 51.7501Z" fill="#E98862"/>
<path d="M45.131 49.116C45.131 49.116 45.6846 41.0094 48.1439 40.509C49.7817 40.1756 53.7534 42.4977 57.4323 41.7965C59.0416 41.4906 60.5695 41.8878 60.7248 42.6478C60.7865 42.9487 61.789 38.6243 59.2687 35.3431C57.2621 32.7314 50.6955 31.9925 47.708 32.849C39.4356 35.221 43.086 46.1706 43.086 46.1706L43.4548 48.9654L45.131 49.116Z" fill="#0C0C0C"/>
<path d="M55.4409 51.6336H55.4512C55.9797 51.6282 56.8657 51.5604 56.8622 51.1652C56.8586 50.8379 55.9263 47.3122 55.8199 46.9113C55.8107 46.8768 55.7882 46.8473 55.7574 46.8294C55.7265 46.8114 55.6897 46.8065 55.6552 46.8156C55.6207 46.8248 55.5912 46.8473 55.5733 46.8781C55.5553 46.909 55.5504 46.9457 55.5595 46.9802C55.9738 48.5416 56.5905 50.9454 56.5929 51.1684C56.5418 51.2626 55.9959 51.3593 55.4489 51.3649C55.4139 51.3649 55.3802 51.3785 55.3551 51.4029C55.3299 51.4273 55.3153 51.4605 55.3143 51.4955C55.3132 51.5305 55.3259 51.5645 55.3495 51.5904C55.3731 51.6162 55.4059 51.6318 55.4409 51.6339V51.6336Z" fill="#0C0C0C"/>
<path d="M57.244 43.736C57.7994 43.5834 58.3857 43.5834 58.9411 43.736C59.2139 43.8095 59.4741 43.9234 59.7132 44.0739C59.9493 44.2214 60.166 44.3982 60.3579 44.6C60.3933 44.6359 60.4134 44.6841 60.4142 44.7346C60.4149 44.785 60.3962 44.8338 60.3619 44.8708C60.3275 44.9077 60.2803 44.9301 60.2299 44.9331C60.1795 44.9361 60.1299 44.9196 60.0914 44.887L60.0797 44.8767C59.9019 44.7123 59.7042 44.5709 59.4912 44.4558C59.2822 44.3414 59.057 44.2593 58.8234 44.2122C58.3635 44.1159 57.8863 44.1425 57.44 44.2894L57.4214 44.296C57.385 44.3089 57.3463 44.3145 57.3077 44.3124C57.2691 44.3104 57.2313 44.3007 57.1964 44.2841C57.1615 44.2674 57.1302 44.2441 57.1043 44.2153C57.0785 44.1866 57.0585 44.153 57.0456 44.1166C57.0328 44.0801 57.0272 44.0415 57.0292 44.0029C57.0313 43.9643 57.0409 43.9265 57.0576 43.8916C57.0742 43.8567 57.0976 43.8255 57.1264 43.7996C57.1551 43.7738 57.1887 43.7538 57.2251 43.7409C57.2315 43.7395 57.2381 43.7376 57.244 43.736Z" fill="#0C0C0C"/>
<path d="M53.3111 44.0704C52.8885 43.8651 52.419 43.7751 51.9504 43.8094C51.7126 43.8249 51.4786 43.8763 51.2562 43.9619C51.03 44.0478 50.8155 44.1617 50.6176 44.301L50.6049 44.3092C50.5625 44.3379 50.5105 44.3488 50.4601 44.3397C50.4097 44.3305 50.3649 44.302 50.3353 44.2602C50.3057 44.2183 50.2937 44.1666 50.3018 44.1161C50.3099 44.0655 50.3375 44.0201 50.3787 43.9897C50.5958 43.8151 50.8341 43.6687 51.0879 43.5539C51.3449 43.4366 51.618 43.3584 51.8981 43.3219C52.4689 43.2444 53.05 43.3223 53.5802 43.5473C53.652 43.5785 53.7084 43.637 53.7371 43.7098C53.7658 43.7826 53.7644 43.8638 53.7332 43.9356C53.702 44.0073 53.6435 44.0637 53.5707 44.0924C53.4979 44.1211 53.4166 44.1197 53.3448 44.0885C53.3392 44.0861 53.3338 44.0835 53.3283 44.0807L53.3111 44.0704Z" fill="#0C0C0C"/>
<path d="M56.4535 38.1551C57.6673 37.9016 58.3487 36.2484 57.9755 34.4624C57.6022 32.6765 56.3156 31.4343 55.1017 31.6878C53.8878 31.9413 53.2064 33.5946 53.5797 35.3805C53.953 37.1664 55.2396 38.4087 56.4535 38.1551Z" fill="#0C0C0C"/>
<path d="M124.154 200.567C124.154 200.567 125.416 207.107 131.541 207.472C137.667 207.836 136.339 212.714 136.339 212.714H112.931V201.023L124.154 200.567Z" fill="#144688"/>
<path d="M79.6219 196.438C79.6219 196.438 77.8657 202.863 83.2019 205.893C88.5381 208.923 85.1916 212.714 85.1916 212.714L64.1876 202.384L69.3499 191.895L79.6219 196.438Z" fill="#144688"/>
<path d="M66.6126 194.624L84.3251 138.767H52.2185C45.7689 138.767 43.0806 133.3 43.0806 126.854C43.0806 120.407 49.4207 114.756 55.8698 114.756H99.202C103.136 114.756 107.546 117.161 109.705 120.448C111.864 123.735 111.281 128.828 109.716 132.436L81.3524 201.299" fill="#262626"/>
<path opacity="0.8" d="M66.6126 194.624L84.3251 138.767H52.2185C45.7689 138.767 43.0806 133.3 43.0806 126.854C43.0806 120.407 49.4207 114.756 55.8698 114.756H99.202C103.136 114.756 107.546 117.161 109.705 120.448C111.864 123.735 111.281 128.828 109.716 132.436L81.3524 201.299" fill="#0A0A0A"/>
<path d="M111.585 206.641L81.9688 138.767L43.0809 138.765C33.9686 138.051 29.7957 133.059 29.9282 126.614C30.0591 120.25 33.2825 113.965 39.62 113.965H92.0329C96.7218 114.061 100.411 119.241 102.15 123.594L126.772 202.485" fill="#262626"/>
<path d="M27.2754 114.043C27.2754 114.043 25.5484 125.301 28.2859 131.56C31.7035 139.374 44.5151 138.765 44.5151 138.765L43.7931 113.965L27.2754 114.043Z" fill="#262626"/>
<path d="M103.264 113.822L75.7942 108.131C74.6496 107.894 73.5832 107.373 72.6938 106.614C71.8044 105.856 71.1207 104.886 70.7059 103.793L59.9017 75.3337C59.5778 74.4807 59.4252 73.5722 59.4526 72.6601C59.48 71.7481 59.6868 70.8504 60.0612 70.0183C60.4357 69.1862 60.9705 68.4359 61.635 67.8104C62.2995 67.1848 63.0808 66.6962 63.9342 66.3725C64.7876 66.0488 65.6964 65.8962 66.6088 65.9236C67.5212 65.951 68.4193 66.1577 69.2517 66.532C70.0842 66.9063 70.8347 67.4409 71.4605 68.1051C72.0863 68.7694 72.5751 69.5503 72.899 70.4034L82.3502 95.2974L106.085 100.214C106.085 100.214 103.74 113.92 103.264 113.822Z" fill="#144688"/>
<path d="M71.4926 82.561C71.1753 86.2862 68.9269 109.528 68.6209 114.116H27.2932C27.0557 109.978 26.2848 92.4069 25.3845 84.314C24.5249 76.5914 24.2132 72.1844 25.2032 69.7844C26.9493 65.5517 31.3188 64.0286 35.0824 63.5192C37.3807 63.2082 40.8373 62.9851 40.8373 62.9851C40.8373 62.9851 41.1299 68.9034 48.1086 69.2328C57.6088 69.6799 56.9744 62.9851 57.0213 62.9851C58.5605 62.9851 66.9379 64.1039 69.0326 65.4689C71.9911 67.3964 72.8656 70.0234 72.9002 72.4368C72.94 75.2156 71.853 78.3359 71.4926 82.561Z" fill="#144688"/>
<path d="M69.8677 101.552C69.8644 101.553 69.8611 101.553 69.8578 101.552C69.8268 101.55 69.798 101.535 69.7778 101.511C69.7576 101.488 69.7477 101.457 69.7503 101.426L70.8232 88.5422C70.8241 88.5267 70.8281 88.5115 70.8351 88.4976C70.842 88.4836 70.8517 88.4713 70.8636 88.4612C70.8755 88.4512 70.8893 88.4437 70.9042 88.4392C70.9191 88.4346 70.9348 88.4332 70.9503 88.4349C70.9813 88.4375 71.01 88.4524 71.0302 88.4761C71.0503 88.4999 71.0601 88.5307 71.0576 88.5617L69.985 101.445C69.9824 101.474 69.9689 101.502 69.9472 101.522C69.9255 101.541 69.8971 101.552 69.8677 101.552Z" fill="#0C0C0C"/>
<path d="M89.5516 109.284L98.6199 81.4199C98.7792 80.9302 99.0895 80.5036 99.5063 80.201C99.9231 79.8984 100.425 79.7354 100.94 79.7354H137.884C138.269 79.7354 138.649 79.8266 138.992 80.0014C139.335 80.1762 139.632 80.4297 139.858 80.7412C140.085 81.0526 140.234 81.4132 140.294 81.7935C140.354 82.1737 140.324 82.5627 140.205 82.9288L131.136 110.793C130.977 111.283 130.667 111.709 130.25 112.012C129.833 112.314 129.331 112.477 128.816 112.477H91.8711C91.4861 112.477 91.1065 112.386 90.7635 112.211C90.4205 112.036 90.1238 111.783 89.8975 111.471C89.6713 111.16 89.5221 110.799 89.4619 110.419C89.4018 110.039 89.4326 109.65 89.5516 109.284Z" fill="#292A2E"/>
<path d="M89.5516 109.284L98.6199 81.4199C98.7792 80.9302 99.0895 80.5036 99.5063 80.201C99.9231 79.8984 100.425 79.7354 100.94 79.7354H137.884C138.269 79.7354 138.649 79.8266 138.992 80.0014C139.335 80.1762 139.632 80.4297 139.858 80.7412C140.085 81.0526 140.234 81.4132 140.294 81.7935C140.354 82.1737 140.324 82.5627 140.205 82.9288L131.136 110.793C130.977 111.283 130.667 111.709 130.25 112.012C129.833 112.314 129.331 112.477 128.816 112.477H91.8711C91.4861 112.477 91.1065 112.386 90.7635 112.211C90.4205 112.036 90.1238 111.783 89.8975 111.471C89.6713 111.16 89.5221 110.799 89.4619 110.419C89.4018 110.039 89.4326 109.65 89.5516 109.284Z" fill="#292A2E"/>
<path d="M96.9491 110.218H72.2185C71.6023 110.218 71.1028 110.717 71.1028 111.333V111.362C71.1028 111.978 71.6023 112.477 72.2185 112.477H96.9491C97.5653 112.477 98.0648 111.978 98.0648 111.362V111.333C98.0648 110.717 97.5653 110.218 96.9491 110.218Z" fill="#292A2E"/>
<path d="M96.9491 110.218H72.2185C71.6023 110.218 71.1028 110.717 71.1028 111.333V111.362C71.1028 111.978 71.6023 112.477 72.2185 112.477H96.9491C97.5653 112.477 98.0648 111.978 98.0648 111.362V111.333C98.0648 110.717 97.5653 110.218 96.9491 110.218Z" fill="#292A2E"/>
<path d="M114.878 101.339C117.018 101.339 118.753 99.6048 118.753 97.4657C118.753 95.3266 117.018 93.5925 114.878 93.5925C112.738 93.5925 111.003 95.3266 111.003 97.4657C111.003 99.6048 112.738 101.339 114.878 101.339Z" fill="white"/>
<path d="M87.4847 102.757L81.3124 100.594L82.1986 100.533C82.4842 100.508 82.7495 100.375 82.9409 100.161C83.1322 99.9477 83.2354 99.6696 83.2294 99.3831C83.2212 99.2353 83.183 99.0907 83.117 98.9582C83.0511 98.8256 82.9588 98.7079 82.8459 98.6122C82.7329 98.5165 82.6016 98.4448 82.4601 98.4015C82.3185 98.3582 82.1695 98.3441 82.0223 98.3602L71.1028 99.52L71.3852 103.028C71.4734 104.117 71.885 105.156 72.5673 106.01C73.2496 106.864 74.1716 107.495 75.215 107.822L79.9436 109.294C80.1879 109.376 80.4527 109.37 80.6933 109.278C80.9339 109.187 81.1354 109.015 81.2639 108.792C81.3757 108.588 81.4193 108.354 81.3885 108.124C81.3578 107.894 81.2541 107.679 81.0928 107.512C81.1032 107.505 81.112 107.495 81.1187 107.484C81.1253 107.473 81.1297 107.461 81.1314 107.448C81.1332 107.436 81.1323 107.423 81.1289 107.411C81.1255 107.398 81.1196 107.387 81.1116 107.377L81.9826 107.65C82.2544 107.741 82.5508 107.726 82.8118 107.607C83.0728 107.488 83.2789 107.275 83.3885 107.01C83.4781 106.77 83.4799 106.505 83.3938 106.264C83.3077 106.022 83.1391 105.819 82.9177 105.689C82.9279 105.684 82.937 105.677 82.9446 105.668L83.3028 105.78C83.5471 105.861 83.8119 105.856 84.0525 105.764C84.2931 105.673 84.4946 105.501 84.6231 105.278C84.7587 105.031 84.7932 104.741 84.7195 104.468C84.6457 104.196 84.4694 103.963 84.2274 103.818C84.2294 103.811 84.2306 103.803 84.231 103.796L86.8011 104.697C87.0585 104.787 87.3412 104.771 87.5869 104.653C87.8327 104.535 88.0214 104.324 88.1117 104.067C88.2019 103.809 88.1861 103.527 88.0679 103.281C87.9498 103.036 87.7388 102.847 87.4814 102.757H87.4847Z" fill="#E98862"/>
<path opacity="0.2" d="M84.133 103.896C84.121 103.897 84.1092 103.894 84.0979 103.89L81.6116 102.988C81.5861 102.978 81.5653 102.959 81.5539 102.935C81.5425 102.91 81.5413 102.882 81.5507 102.856C81.5601 102.831 81.5792 102.81 81.6038 102.799C81.6285 102.787 81.6567 102.786 81.6822 102.796L84.1683 103.699C84.191 103.707 84.21 103.723 84.2221 103.744C84.2341 103.765 84.2385 103.789 84.2343 103.813C84.2301 103.837 84.2178 103.858 84.1993 103.874C84.1809 103.889 84.1576 103.898 84.1335 103.898L84.133 103.896Z" fill="#0A0A0A"/>
<path opacity="0.2" d="M82.8761 105.703C82.8644 105.703 82.8529 105.701 82.8419 105.698L80.8821 105.003C80.8694 104.998 80.8578 104.991 80.8478 104.982C80.8378 104.973 80.8297 104.962 80.8239 104.95C80.8181 104.938 80.8148 104.925 80.8141 104.911C80.8134 104.898 80.8154 104.885 80.8199 104.872C80.8244 104.859 80.8313 104.848 80.8403 104.838C80.8493 104.828 80.8602 104.819 80.8723 104.814C80.8845 104.808 80.8977 104.805 80.9111 104.804C80.9245 104.803 80.9379 104.805 80.9506 104.81L82.9104 105.505C82.9332 105.513 82.9524 105.529 82.9646 105.549C82.9768 105.57 82.9812 105.595 82.9771 105.619C82.973 105.642 82.9606 105.664 82.9421 105.679C82.9236 105.695 82.9002 105.704 82.8761 105.703Z" fill="#0A0A0A"/>
<path opacity="0.2" d="M81.0309 107.537C81.0184 107.537 81.0059 107.535 80.9942 107.53L80.0762 107.18C80.0631 107.176 80.051 107.169 80.0406 107.16C80.0303 107.151 80.0219 107.139 80.016 107.127C80.0101 107.114 80.0067 107.101 80.0062 107.087C80.0056 107.073 80.0079 107.059 80.0128 107.047C80.0178 107.034 80.0253 107.022 80.0349 107.012C80.0445 107.002 80.056 106.994 80.0687 106.989C80.0815 106.983 80.0952 106.981 80.109 106.981C80.1228 106.981 80.1365 106.984 80.1492 106.989L81.0672 107.339C81.0895 107.348 81.1081 107.364 81.1198 107.385C81.1314 107.405 81.1355 107.43 81.1311 107.453C81.1268 107.477 81.1144 107.498 81.096 107.513C81.0777 107.528 81.0546 107.537 81.0307 107.537H81.0309Z" fill="#0A0A0A"/>
<path d="M75.9355 97.4442L50.043 97.4268L40.2479 73.5415L25.6356 79.6827L37.8571 108.031L37.9767 108.313C38.5746 109.691 39.5817 110.852 40.8616 111.638C42.1416 112.425 43.6325 112.799 45.1324 112.711L76.3276 110.869L75.9355 97.4442Z" fill="#144688"/>
<path d="M44.703 112.841C43.2515 112.838 41.8321 112.413 40.6184 111.617C39.4046 110.821 38.4491 109.689 37.8686 108.36L37.7488 108.077L27.3353 83.9222L27.5514 83.8293L38.0849 108.267C38.6761 109.62 39.6677 110.761 40.9263 111.534C42.185 112.307 43.6504 112.677 45.1256 112.593L76.2066 110.758L75.8215 97.5621L49.9646 97.545L42.4323 79.1796L42.65 79.0905L50.1221 97.3097L76.0496 97.3271L76.4481 110.98L76.334 110.986L45.139 112.829C44.9934 112.837 44.848 112.841 44.703 112.841Z" fill="#0C0C0C"/>
<path d="M200.313 114.732L199.844 114.779L209.768 212.979L210.236 212.931L200.313 114.732Z" fill="#494949"/>
<path d="M15.9031 114.733L5.97302 212.932L6.44141 212.979L16.3715 114.781L15.9031 114.733Z" fill="#494949"/>
<path d="M56.9305 114.733L47.0004 212.932L47.4688 212.979L57.3988 114.781L56.9305 114.733Z" fill="#494949"/>
<path d="M241.34 114.732L240.872 114.779L250.795 212.978L251.263 212.931L241.34 114.732Z" fill="#494949"/>
<path d="M250.289 112.828H7.60502C6.5398 112.828 5.67627 113.691 5.67627 114.756C5.67627 115.821 6.5398 116.684 7.60502 116.684H250.289C251.354 116.684 252.217 115.821 252.217 114.756C252.217 113.691 251.354 112.828 250.289 112.828Z" fill="#292A2E"/>
<path opacity="0.8" d="M250.289 112.828H7.60502C6.5398 112.828 5.67627 113.691 5.67627 114.756C5.67627 115.821 6.5398 116.684 7.60502 116.684H250.289C251.354 116.684 252.217 115.821 252.217 114.756C252.217 113.691 251.354 112.828 250.289 112.828Z" fill="white"/>
<path d="M250.289 116.919H7.60602C7.31994 116.922 7.0361 116.868 6.77093 116.761C6.50577 116.654 6.26453 116.495 6.06117 116.294C5.85782 116.093 5.69639 115.853 5.58621 115.589C5.47604 115.325 5.41931 115.042 5.41931 114.756C5.41931 114.47 5.47604 114.187 5.58621 113.923C5.69639 113.659 5.85782 113.42 6.06117 113.218C6.26453 113.017 6.50577 112.858 6.77093 112.751C7.0361 112.644 7.31994 112.59 7.60602 112.593H250.289C250.859 112.599 251.404 112.829 251.805 113.234C252.206 113.639 252.43 114.186 252.43 114.756C252.43 115.326 252.206 115.873 251.805 116.278C251.404 116.683 250.859 116.913 250.289 116.919ZM7.60602 113.063C7.38198 113.061 7.15964 113.103 6.95189 113.187C6.74414 113.27 6.55511 113.395 6.39574 113.552C6.23638 113.71 6.10986 113.897 6.02351 114.104C5.93715 114.31 5.89269 114.532 5.89269 114.756C5.89269 114.98 5.93715 115.202 6.02351 115.408C6.10986 115.615 6.23638 115.803 6.39574 115.96C6.55511 116.117 6.74414 116.242 6.95189 116.326C7.15964 116.409 7.38198 116.451 7.60602 116.449H250.289C250.735 116.443 251.16 116.263 251.473 115.946C251.787 115.629 251.962 115.202 251.962 114.756C251.962 114.311 251.787 113.883 251.473 113.566C251.16 113.249 250.735 113.069 250.289 113.063H7.60602Z" fill="#292A2E"/>
<path d="M250.289 112.828H50.2007C49.1355 112.828 48.272 113.691 48.272 114.756C48.272 115.821 49.1355 116.684 50.2007 116.684H250.289C251.354 116.684 252.217 115.821 252.217 114.756C252.217 113.691 251.354 112.828 250.289 112.828Z" fill="white"/>
<path d="M250.289 116.919H50.2005C49.6305 116.913 49.0858 116.683 48.6849 116.278C48.2839 115.873 48.059 115.326 48.059 114.756C48.059 114.186 48.2839 113.639 48.6849 113.234C49.0858 112.829 49.6305 112.599 50.2005 112.593H250.289C250.859 112.599 251.404 112.829 251.805 113.234C252.206 113.639 252.43 114.186 252.43 114.756C252.43 115.326 252.206 115.873 251.805 116.278C251.404 116.683 250.859 116.913 250.289 116.919ZM50.2005 113.063C49.7549 113.069 49.3293 113.249 49.0161 113.566C48.7028 113.883 48.5271 114.311 48.5271 114.756C48.5271 115.202 48.7028 115.629 49.0161 115.946C49.3293 116.263 49.7549 116.443 50.2005 116.449H250.289C250.735 116.443 251.16 116.263 251.473 115.946C251.787 115.629 251.962 115.202 251.962 114.756C251.962 114.311 251.787 113.883 251.473 113.566C251.16 113.249 250.735 113.069 250.289 113.063H50.2005Z" fill="#292A2E"/>
</g>
<defs>
<clipPath id="clip0_75_446">
<rect width="257" height="213" fill="white"/>
</clipPath>
</defs>
</svg>
