<svg width="51" height="34" viewBox="0 0 51 34" fill="none" xmlns="http://www.w3.org/2000/svg">
<path fill-rule="evenodd" clip-rule="evenodd" d="M18.578 2.37756C18.5271 2.12604 18.2858 1.95962 18.0339 2.00854C16.7875 2.25057 15.4484 2.6415 14.0164 3.18131C12.4386 3.75825 10.8755 4.55153 9.32698 5.56116C7.80767 6.5708 6.41984 7.82563 5.16349 9.32566C3.90714 10.7968 2.89914 12.5421 2.13948 14.5613C1.37983 16.5806 1 18.8883 1 21.4845C1 25.4077 1.90574 28.451 3.71723 30.6145C5.55793 32.7492 8.08524 33.8165 11.2992 33.8165C13.2567 33.8165 15.0682 33.4271 16.7336 32.6482C18.399 31.8405 19.7284 30.6722 20.7218 29.1433C21.7152 27.6145 22.2119 25.7394 22.2119 23.5182C22.2119 21.5567 21.8175 19.8835 21.0286 18.4989C20.2397 17.1143 19.2025 16.0469 17.9169 15.2969C16.6314 14.5469 15.1997 14.1719 13.622 14.1719C12.7395 14.1719 9.69885 14.3109 8.1772 14.7075C8.19483 14.6146 8.21287 14.5226 8.23133 14.4315C8.66959 12.4123 9.25394 10.7391 9.98438 9.4122C10.7148 8.0564 11.5475 6.94581 12.4825 6.08041C13.4466 5.21501 14.4547 4.53711 15.5065 4.04671C16.4248 3.61856 17.3431 3.24538 18.2615 2.92718C18.4893 2.84823 18.6259 2.61388 18.578 2.37756Z" fill="#131010"/>
<path fill-rule="evenodd" clip-rule="evenodd" d="M47.3662 2.37756C47.3153 2.12604 47.0741 1.95962 46.8221 2.00854C45.5758 2.25057 44.2366 2.6415 42.8046 3.18131C41.2269 3.75825 39.6637 4.55153 38.1152 5.56116C36.5959 6.5708 35.2081 7.82563 33.9517 9.32566C32.6953 10.7968 31.6873 12.5421 30.9277 14.5613C30.168 16.5806 29.7882 18.8883 29.7882 21.4845C29.7882 25.4077 30.6939 28.451 32.5054 30.6145C34.3461 32.7492 36.8734 33.8165 40.0874 33.8165C42.0449 33.8165 43.8564 33.4271 45.5218 32.6482C47.1872 31.8405 48.5166 30.6722 49.51 29.1433C50.5034 27.6145 51.0001 25.7394 51.0001 23.5182C51.0001 21.5567 50.6057 19.8835 49.8168 18.4989C49.0279 17.1143 47.9907 16.0469 46.7051 15.2969C45.4196 14.5469 43.9879 14.1719 42.4102 14.1719C41.5277 14.1719 38.4871 14.3109 36.9654 14.7075C36.983 14.6146 37.0011 14.5226 37.0195 14.4315C37.4578 12.4123 38.0421 10.7391 38.7726 9.4122C39.503 8.0564 40.3357 6.94581 41.2707 6.08041C42.2349 5.21501 43.2429 4.53711 44.2947 4.04671C45.213 3.61856 46.1313 3.24538 47.0497 2.92718C47.2775 2.84823 47.4141 2.61388 47.3662 2.37756Z" fill="#131010"/>
<path fill-rule="evenodd" clip-rule="evenodd" d="M17.578 0.377582C17.5271 0.126063 17.2858 -0.040357 17.0339 0.00856364C15.7875 0.250597 14.4484 0.641523 13.0164 1.18134C11.4386 1.75827 9.87551 2.55156 8.32698 3.56119C6.80767 4.57083 5.41984 5.82566 4.16349 7.32569C2.90714 8.79687 1.89914 10.5421 1.13948 12.5614C0.379828 14.5806 0 16.8884 0 19.4846C0 23.4077 0.905741 26.451 2.71723 28.6145C4.55793 30.7492 7.08524 31.8165 10.2992 31.8165C12.2567 31.8165 14.0682 31.4271 15.7336 30.6482C17.399 29.8405 18.7284 28.6722 19.7218 27.1434C20.7152 25.6145 21.2119 23.7395 21.2119 21.5183C21.2119 19.5567 20.8175 17.8836 20.0286 16.4989C19.2397 15.1143 18.2025 14.047 16.9169 13.297C15.6314 12.5469 14.1997 12.1719 12.622 12.1719C11.7395 12.1719 8.69885 12.3109 7.1772 12.7075C7.19483 12.6147 7.21287 12.5227 7.23133 12.4316C7.66959 10.4123 8.25394 8.73917 8.98438 7.41223C9.71481 6.05643 10.5475 4.94583 11.4825 4.08043C12.4466 3.21503 13.4547 2.53714 14.5065 2.04674C15.4248 1.61859 16.3431 1.24541 17.2615 0.927203C17.4893 0.848256 17.6259 0.613907 17.578 0.377582Z" fill="#144688"/>
<path fill-rule="evenodd" clip-rule="evenodd" d="M46.3663 0.377582C46.3154 0.126063 46.0741 -0.040357 45.8222 0.00856364C44.5758 0.250597 43.2367 0.641523 41.8047 1.18134C40.2269 1.75827 38.6638 2.55156 37.1153 3.56119C35.596 4.57083 34.2081 5.82566 32.9518 7.32569C31.6954 8.79687 30.6874 10.5421 29.9278 12.5614C29.1681 14.5806 28.7883 16.8884 28.7883 19.4846C28.7883 23.4077 29.694 26.451 31.5055 28.6145C33.3462 30.7492 35.8735 31.8165 39.0875 31.8165C41.045 31.8165 42.8565 31.4271 44.5219 30.6482C46.1873 29.8405 47.5167 28.6722 48.5101 27.1434C49.5035 25.6145 50.0002 23.7395 50.0002 21.5183C50.0002 19.5567 49.6057 17.8836 48.8169 16.4989C48.028 15.1143 46.9908 14.047 45.7052 13.297C44.4196 12.5469 42.988 12.1719 41.4102 12.1719C40.5278 12.1719 37.4871 12.3109 35.9655 12.7075C35.9831 12.6147 36.0012 12.5227 36.0196 12.4316C36.4579 10.4123 37.0422 8.73917 37.7727 7.41223C38.5031 6.05643 39.3358 4.94583 40.2708 4.08043C41.2349 3.21503 42.2429 2.53714 43.2948 2.04674C44.2131 1.61859 45.1314 1.24541 46.0498 0.927203C46.2776 0.848256 46.4142 0.613907 46.3663 0.377582Z" fill="#144688"/>
</svg>
