<svg width="18" height="19" viewBox="0 0 18 19" fill="none" xmlns="http://www.w3.org/2000/svg">
<path d="M17.0004 17.5L12.9504 13.45M12.9504 13.45C13.6004 12.7999 14.116 12.0282 14.4678 11.1789C14.8196 10.3296 15.0007 9.41929 15.0007 8.49999C15.0007 7.58069 14.8196 6.67039 14.4678 5.82107C14.116 4.97175 13.6004 4.20003 12.9504 3.54999C12.3003 2.89995 11.5286 2.3843 10.6793 2.0325C9.82995 1.6807 8.91966 1.49963 8.00036 1.49963C7.08106 1.49963 6.17076 1.6807 5.32144 2.0325C4.47211 2.3843 3.7004 2.89995 3.05036 3.54999C1.73754 4.86281 1 6.64338 1 8.49999C1 10.3566 1.73754 12.1372 3.05036 13.45C4.36318 14.7628 6.14375 15.5003 8.00036 15.5003C9.85697 15.5003 11.6375 14.7628 12.9504 13.45Z" stroke="black" stroke-width="2" stroke-linecap="round" stroke-linejoin="round"/>
</svg>
