<svg width="180" height="141" viewBox="0 0 180 141" fill="none" xmlns="http://www.w3.org/2000/svg">
<rect x="0.5" width="179" height="105" rx="6" fill="#AFB5FF"/>
<rect x="7.5" y="7" width="165" height="91" rx="6" fill="#00173F"/>
<path d="M75.5 105H101.5L106.5 136H70.5L75.5 105Z" fill="#EDEDED"/>
<path d="M12.8481 136.466C13.2721 136.163 13.7801 136 14.3012 136H163.595C164.18 136 164.746 136.205 165.195 136.579C166.992 138.076 165.933 141 163.595 141H14.3012C11.8691 141 10.869 137.879 12.8481 136.466Z" fill="#C1C1C1"/>
<path d="M20.625 26.0994C20.09 26.0994 19.6342 25.9538 19.2578 25.6626C18.8814 25.3691 18.5938 24.9441 18.3949 24.3878C18.196 23.8291 18.0966 23.1544 18.0966 22.3636C18.0966 21.5777 18.196 20.9065 18.3949 20.3501C18.5961 19.7914 18.8849 19.3653 19.2614 19.0717C19.6402 18.7758 20.0947 18.6278 20.625 18.6278C21.1553 18.6278 21.6087 18.7758 21.9851 19.0717C22.3639 19.3653 22.6527 19.7914 22.8516 20.3501C23.0528 20.9065 23.1534 21.5777 23.1534 22.3636C23.1534 23.1544 23.054 23.8291 22.8551 24.3878C22.6562 24.9441 22.3686 25.3691 21.9922 25.6626C21.6158 25.9538 21.16 26.0994 20.625 26.0994ZM20.625 25.3182C21.1553 25.3182 21.5672 25.0625 21.8608 24.5511C22.1544 24.0398 22.3011 23.3106 22.3011 22.3636C22.3011 21.7339 22.2337 21.1977 22.0987 20.755C21.9661 20.3123 21.7744 19.9749 21.5234 19.7429C21.2749 19.5109 20.9754 19.3949 20.625 19.3949C20.0994 19.3949 19.6887 19.6541 19.3928 20.1726C19.0968 20.6887 18.9489 21.419 18.9489 22.3636C18.9489 22.9934 19.0152 23.5284 19.1477 23.9688C19.2803 24.4091 19.4709 24.7441 19.7195 24.9737C19.9704 25.2034 20.2723 25.3182 20.625 25.3182ZM27.0597 18.7273V26H26.179V19.6506H26.1364L24.3608 20.8295V19.9347L26.179 18.7273H27.0597ZM32.2195 22.7614V22.1932L36.7933 19.8636V20.7727L33.2848 22.4631L33.3132 22.4062V22.5483L33.2848 22.4915L36.7933 24.1818V25.0909L32.2195 22.7614ZM38.6834 26V18.7273H39.5641V21.9659H43.4419V18.7273H44.3226V26H43.4419V22.7472H39.5641V26H38.6834ZM45.688 19.5085V18.7273H51.1426V19.5085H48.8556V26H47.975V19.5085H45.688ZM52.5018 18.7273H53.5529L56.0245 24.7642H56.1097L58.5813 18.7273H59.6325V26H58.8086V20.4744H58.7376L56.4648 26H55.6694L53.3967 20.4744H53.3256V26H52.5018V18.7273ZM61.3983 26V18.7273H62.2789V25.2188H65.6596V26H61.3983ZM71.725 22.7614L67.1511 25.0909V24.1818L70.6596 22.4915L70.6312 22.5483V22.4062L70.6596 22.4631L67.1511 20.7727V19.8636L71.725 22.1932V22.7614Z" fill="white"/>
<path d="M20.625 60.0994C20.09 60.0994 19.6342 59.9538 19.2578 59.6626C18.8814 59.3691 18.5938 58.9441 18.3949 58.3878C18.196 57.8291 18.0966 57.1544 18.0966 56.3636C18.0966 55.5777 18.196 54.9065 18.3949 54.3501C18.5961 53.7914 18.8849 53.3653 19.2614 53.0717C19.6402 52.7758 20.0947 52.6278 20.625 52.6278C21.1553 52.6278 21.6087 52.7758 21.9851 53.0717C22.3639 53.3653 22.6527 53.7914 22.8516 54.3501C23.0528 54.9065 23.1534 55.5777 23.1534 56.3636C23.1534 57.1544 23.054 57.8291 22.8551 58.3878C22.6562 58.9441 22.3686 59.3691 21.9922 59.6626C21.6158 59.9538 21.16 60.0994 20.625 60.0994ZM20.625 59.3182C21.1553 59.3182 21.5672 59.0625 21.8608 58.5511C22.1544 58.0398 22.3011 57.3106 22.3011 56.3636C22.3011 55.7339 22.2337 55.1977 22.0987 54.755C21.9661 54.3123 21.7744 53.9749 21.5234 53.7429C21.2749 53.5109 20.9754 53.3949 20.625 53.3949C20.0994 53.3949 19.6887 53.6541 19.3928 54.1726C19.0968 54.6887 18.9489 55.419 18.9489 56.3636C18.9489 56.9934 19.0152 57.5284 19.1477 57.9688C19.2803 58.4091 19.4709 58.7441 19.7195 58.9737C19.9704 59.2034 20.2723 59.3182 20.625 59.3182ZM24.5028 60V59.3608L26.9034 56.733C27.1851 56.4252 27.4171 56.1577 27.5994 55.9304C27.7817 55.7008 27.9167 55.4853 28.0043 55.2841C28.0942 55.0805 28.1392 54.8674 28.1392 54.6449C28.1392 54.3892 28.0777 54.1679 27.9545 53.9808C27.8338 53.7938 27.6681 53.6494 27.4574 53.5476C27.2467 53.4458 27.0099 53.3949 26.7472 53.3949C26.4678 53.3949 26.224 53.4529 26.0156 53.5689C25.8097 53.6825 25.6499 53.8423 25.5362 54.0483C25.425 54.2543 25.3693 54.4957 25.3693 54.7727H24.5312C24.5312 54.3466 24.6295 53.9725 24.826 53.6506C25.0225 53.3286 25.29 53.0777 25.6286 52.8977C25.9695 52.7178 26.3518 52.6278 26.7756 52.6278C27.2017 52.6278 27.5793 52.7178 27.9084 52.8977C28.2375 53.0777 28.4955 53.3203 28.6825 53.6257C28.8696 53.9311 28.9631 54.2708 28.9631 54.6449C28.9631 54.9124 28.9145 55.174 28.8175 55.4297C28.7228 55.683 28.5571 55.9659 28.3203 56.2784C28.0859 56.5885 27.7604 56.9673 27.3438 57.4148L25.7102 59.1619V59.2188H29.0909V60H24.5028ZM33.6257 56.7614V56.1932L38.1996 53.8636V54.7727L34.6911 56.4631L34.7195 56.4062V56.5483L34.6911 56.4915L38.1996 58.1818V59.0909L33.6257 56.7614ZM40.0897 60V52.7273H40.9703V55.9659H44.8482V52.7273H45.7289V60H44.8482V56.7472H40.9703V60H40.0897ZM47.492 60V52.7273H51.8812V53.5085H48.3727V55.9659H51.6539V56.7472H48.3727V59.2188H51.938V60H47.492ZM53.7669 60H52.8436L55.514 52.7273H56.4231L59.0936 60H58.1703L55.997 53.8778H55.9402L53.7669 60ZM54.1078 57.1591H57.8294V57.9403H54.1078V57.1591ZM62.4707 60H60.2264V52.7273H62.5701C63.2756 52.7273 63.8793 52.8729 64.3812 53.1641C64.8831 53.4529 65.2678 53.8684 65.5353 54.4105C65.8029 54.9503 65.9366 55.5966 65.9366 56.3494C65.9366 57.107 65.8017 57.7592 65.5318 58.3061C65.2619 58.8506 64.8689 59.2696 64.3528 59.5632C63.8367 59.8544 63.2093 60 62.4707 60ZM61.1071 59.2188H62.4139C63.0152 59.2188 63.5136 59.1027 63.9089 58.8707C64.3043 58.6387 64.599 58.3085 64.7931 57.88C64.9873 57.4515 65.0843 56.9413 65.0843 56.3494C65.0843 55.7623 64.9885 55.2569 64.7967 54.8331C64.6049 54.407 64.3185 54.0803 63.9373 53.853C63.5562 53.6233 63.0815 53.5085 62.5133 53.5085H61.1071V59.2188ZM67.4139 60V52.7273H71.8031V53.5085H68.2946V55.9659H71.5758V56.7472H68.2946V59.2188H71.8599V60H67.4139ZM73.3904 60V52.7273H75.8478C76.416 52.7273 76.8824 52.8243 77.247 53.0185C77.6116 53.2102 77.8815 53.4742 78.0566 53.8104C78.2318 54.1465 78.3194 54.5289 78.3194 54.9574C78.3194 55.3859 78.2318 55.7659 78.0566 56.0973C77.8815 56.4287 77.6127 56.6892 77.2505 56.8786C76.8883 57.0656 76.4255 57.1591 75.862 57.1591H73.8734V56.3636H75.8336C76.2219 56.3636 76.5344 56.3068 76.7711 56.1932C77.0102 56.0795 77.1831 55.9186 77.2896 55.7102C77.3985 55.4995 77.4529 55.2486 77.4529 54.9574C77.4529 54.6662 77.3985 54.4117 77.2896 54.1939C77.1807 53.9761 77.0067 53.808 76.7676 53.6896C76.5285 53.5689 76.2124 53.5085 75.8194 53.5085H74.2711V60H73.3904ZM76.8137 56.733L78.6035 60H77.5808L75.8194 56.733H76.8137ZM84.4886 56.7614L79.9148 59.0909V58.1818L83.4233 56.4915L83.3949 56.5483V56.4062L83.4233 56.4631L79.9148 54.7727V53.8636L84.4886 56.1932V56.7614Z" fill="white"/>
<rect x="17.5" y="32" width="55" height="5" rx="2.5" fill="#FFDD60"/>
<rect x="17.5" y="66" width="90" height="5" rx="2.5" fill="#A7FF50"/>
<rect x="17.5" y="75" width="106" height="5" rx="2.5" fill="#FFDD60"/>
<rect x="17.5" y="84" width="77" height="5" rx="2.5" fill="#3747FF"/>
<rect x="17.5" y="41" width="90" height="5" rx="2.5" fill="#FB4C4C"/>
</svg>
