<svg width="92" height="181" viewBox="0 0 92 181" fill="none" xmlns="http://www.w3.org/2000/svg">
<rect x="1" y="1.83337" width="90" height="178.167" rx="9" fill="#FFFDF1" stroke="#00173F" stroke-width="2"/>
<path fill-rule="evenodd" clip-rule="evenodd" d="M29.3922 8.49945C29.0485 7.68584 28.8767 7.27904 28.5818 6.99473C28.4071 6.82628 28.2031 6.69103 27.98 6.59562C27.6033 6.43457 27.1617 6.43457 26.2785 6.43457H22.42C15.9681 6.43457 12.7421 6.43457 10.3622 7.8674C8.96466 8.70876 7.79421 9.87921 6.95284 11.2767C5.52002 13.6566 5.52002 16.8826 5.52002 23.3346V158.499C5.52002 164.951 5.52002 168.177 6.95284 170.557C7.79421 171.955 8.96466 173.125 10.3622 173.966C12.7421 175.399 15.9681 175.399 22.42 175.399H69.58C76.032 175.399 79.258 175.399 81.6379 173.966C83.0354 173.125 84.2058 171.955 85.0472 170.557C86.48 168.177 86.48 164.951 86.48 158.499V23.3346C86.48 16.8826 86.48 13.6566 85.0472 11.2767C84.2058 9.87921 83.0354 8.70876 81.6379 7.8674C79.258 6.43457 76.032 6.43457 69.58 6.43457H65.7215C64.8383 6.43457 64.3967 6.43457 64.02 6.59562C63.7969 6.69103 63.5929 6.82628 63.4182 6.99473C63.1233 7.27904 62.9515 7.68584 62.6078 8.49945L61.5922 10.9042C61.2485 11.7178 61.0767 12.1246 60.7818 12.4089C60.6071 12.5774 60.4031 12.7126 60.18 12.808C59.8033 12.9691 59.3617 12.9691 58.4785 12.9691H33.5215C32.6383 12.9691 32.1967 12.9691 31.8201 12.808C31.5969 12.7126 31.393 12.5774 31.2182 12.4089C30.9233 12.1246 30.7515 11.7178 30.4079 10.9042L29.3922 8.49945Z" fill="#AFB5FF"/>
<rect x="32.2" y="6.43457" width="27.6" height="3.73402" rx="1.86701" fill="#080D48"/>
<rect x="11.5" y="125.5" width="37" height="36" rx="3.5" fill="#AFB5FF"/>
<rect x="11.5" y="125.5" width="37" height="36" rx="3.5" stroke="#FFFDF1"/>
<rect x="36" y="133" width="5" height="22" rx="2" fill="#00173F"/>
<rect x="27" y="138" width="5" height="17" rx="2" fill="#00173F"/>
<rect x="19" y="144" width="5" height="11" rx="2" fill="#00173F"/>
<rect x="51" y="130" width="18" height="3" rx="1.5" fill="#00173F"/>
<rect x="51" y="136" width="32" height="3" rx="1.5" fill="#00173F"/>
<rect x="51" y="143" width="32" height="3" rx="1.5" fill="#00173F"/>
<rect x="51" y="149" width="32" height="3" rx="1.5" fill="#00173F"/>
<rect x="51" y="155" width="32" height="3" rx="1.5" fill="#00173F"/>
<rect x="10.2222" y="20" width="71.5556" height="34.5" fill="#FFFDF1"/>
<path d="M11.5 21.2778L80.5 53.2223" stroke="#00173F" stroke-linecap="round"/>
<path d="M80.5 21.2778L11.5 53.2223" stroke="#00173F" stroke-linecap="round"/>
<rect x="10.2222" y="97.9445" width="22.2878" height="21.7222" fill="#FFFDF1"/>
<path d="M10.6201 98.749L32.1119 118.862" stroke="#00173F" stroke-linecap="round"/>
<path d="M32.1121 98.749L10.6203 118.862" stroke="#00173F" stroke-linecap="round"/>
<rect x="34.8562" y="97.9445" width="22.2878" height="21.7222" fill="#FFFDF1"/>
<path d="M35.2542 98.749L56.746 118.862" stroke="#00173F" stroke-linecap="round"/>
<path d="M56.7461 98.749L35.2543 118.862" stroke="#00173F" stroke-linecap="round"/>
<rect x="59.49" y="97.9445" width="22.2878" height="21.7222" fill="#FFFDF1"/>
<path d="M59.8879 98.749L81.3797 118.862" stroke="#00173F" stroke-linecap="round"/>
<path d="M81.3799 98.749L59.8881 118.862" stroke="#00173F" stroke-linecap="round"/>
<rect x="10" y="61" width="44" height="5" rx="2" fill="#00173F"/>
<rect x="10" y="70" width="72" height="3" rx="1" fill="#00173F"/>
<rect x="10" y="76" width="72" height="3" rx="1" fill="#00173F"/>
<rect x="10" y="83" width="72" height="3" rx="1" fill="#00173F"/>
<rect x="10" y="89" width="72" height="3" rx="1" fill="#00173F"/>
</svg>
