<svg width="180" height="141" viewBox="0 0 180 141" fill="none" xmlns="http://www.w3.org/2000/svg">
<rect x="0.5" width="179" height="105" rx="6" fill="#AFB5FF"/>
<rect x="7.5" y="7" width="165" height="91" rx="6" fill="#00173F"/>
<path d="M75.5 105H101.5L106.5 136H70.5L75.5 105Z" fill="#EDEDED"/>
<path d="M12.8481 136.466C13.2721 136.163 13.7801 136 14.3012 136H163.595C164.18 136 164.746 136.205 165.195 136.579C166.992 138.076 165.933 141 163.595 141H14.3012C11.8691 141 10.869 137.879 12.8481 136.466Z" fill="#C1C1C1"/>
<rect x="17.5" y="20" width="23" height="5" rx="1" fill="#AFB5FF"/>
<rect x="17.5" y="30" width="23" height="5" rx="1" fill="#AFB5FF"/>
<rect x="17.5" y="40" width="23" height="5" rx="1" fill="#AFB5FF"/>
<rect x="17.5" y="50" width="23" height="5" rx="1" fill="#AFB5FF"/>
<rect x="17.5" y="60" width="23" height="5" rx="1" fill="#AFB5FF"/>
<rect x="17.5" y="70" width="23" height="5" rx="1" fill="#AFB5FF"/>
<path d="M125.385 80V69.8182H132.246V71.593H127.538V74.0192H131.893V75.794H127.538V78.2251H132.266V80H125.385ZM136.757 80V69.8182H140.774C141.543 69.8182 142.199 69.9557 142.743 70.2308C143.29 70.5026 143.706 70.8887 143.991 71.3892C144.279 71.8864 144.423 72.4714 144.423 73.1442C144.423 73.8203 144.278 74.402 143.986 74.8892C143.694 75.3731 143.272 75.7443 142.718 76.0028C142.168 76.2614 141.502 76.3906 140.72 76.3906H138.03V74.6605H140.372C140.783 74.6605 141.124 74.6042 141.396 74.4915C141.667 74.3788 141.87 74.2098 142.002 73.9844C142.138 73.759 142.206 73.4789 142.206 73.1442C142.206 72.8061 142.138 72.5211 142.002 72.2891C141.87 72.0571 141.666 71.8814 141.391 71.7621C141.119 71.6394 140.776 71.5781 140.362 71.5781H138.91V80H136.757ZM142.256 75.3665L144.786 80H142.41L139.934 75.3665H142.256ZM148.745 80V69.8182H152.762C153.534 69.8182 154.192 69.9657 154.735 70.2607C155.279 70.5523 155.693 70.9583 155.978 71.4787C156.267 71.9957 156.411 72.5923 156.411 73.2685C156.411 73.9446 156.265 74.5412 155.973 75.0582C155.682 75.5753 155.259 75.978 154.706 76.2663C154.155 76.5547 153.489 76.6989 152.707 76.6989H150.147V74.9737H152.359C152.773 74.9737 153.115 74.9025 153.383 74.7599C153.655 74.6141 153.857 74.4136 153.99 74.1584C154.126 73.8999 154.194 73.6032 154.194 73.2685C154.194 72.9304 154.126 72.6354 153.99 72.3835C153.857 72.1283 153.655 71.9311 153.383 71.7919C153.111 71.6494 152.767 71.5781 152.349 71.5781H150.897V80H148.745Z" fill="#FFFDF1"/>
<path d="M65 68H70L61.5 78.5H56.5L65 68Z" fill="#D9D9D9"/>
<path d="M103.512 54.1806L108.651 54.8751L97.6384 70.5413L92.4999 69.8468L103.512 54.1806Z" fill="#D9D9D9"/>
<path d="M119.769 32.6775L124.86 33.6642L112.59 50.6395L107.5 49.6528L119.769 32.6775Z" fill="#D9D9D9"/>
<path d="M84.2428 73.6002L88.8987 71.7776L77.156 65.0986L72.5001 66.9212L84.2428 73.6002Z" fill="#D9D9D9"/>
<circle cx="70.5" cy="66" r="5.5" fill="#00173F" stroke="#AFB5FF" stroke-width="3"/>
<circle cx="91.5" cy="73" r="5.5" fill="#00173F" stroke="#AFB5FF" stroke-width="3"/>
<circle cx="107.5" cy="54" r="5.5" fill="#00173F" stroke="#AFB5FF" stroke-width="3"/>
<path d="M127.593 24.116C128.26 23.7311 129.093 24.2123 129.093 24.9821L129.093 39.7045C129.093 40.4743 128.26 40.9554 127.593 40.5705L114.843 33.2093C114.177 32.8244 114.177 31.8621 114.843 31.4772L127.593 24.116Z" fill="#D9D9D9"/>
</svg>
