<svg width="180" height="25" viewBox="0 0 180 25" fill="none" xmlns="http://www.w3.org/2000/svg">
<path d="M12 0.5L14.6942 8.7918H23.4127L16.3593 13.9164L19.0534 22.2082L12 17.0836L4.94658 22.2082L7.64074 13.9164L0.587322 8.7918H9.30583L12 0.5Z" fill="#144688"/>
<path d="M51 0.5L53.6942 8.7918H62.4127L55.3593 13.9164L58.0534 22.2082L51 17.0836L43.9466 22.2082L46.6407 13.9164L39.5873 8.7918H48.3058L51 0.5Z" fill="#144688"/>
<path d="M90 0.5L92.6942 8.7918H101.413L94.3593 13.9164L97.0534 22.2082L90 17.0836L82.9466 22.2082L85.6407 13.9164L78.5873 8.7918H87.3058L90 0.5Z" fill="#144688"/>
<path d="M129 0.5L131.694 8.7918H140.413L133.359 13.9164L136.053 22.2082L129 17.0836L121.947 22.2082L124.641 13.9164L117.587 8.7918H126.306L129 0.5Z" fill="#144688"/>
<path d="M168 0.5L170.694 8.7918H179.413L172.359 13.9164L175.053 22.2082L168 17.0836L160.947 22.2082L163.641 13.9164L156.587 8.7918H165.306L168 0.5Z" fill="#144688"/>
</svg>
