<svg width="75" height="75" viewBox="0 0 75 75" fill="none" xmlns="http://www.w3.org/2000/svg">
<path d="M35.9128 2.6234C35.9339 2.41956 36.0063 2.33519 36.059 2.29058C36.1294 2.23093 36.2469 2.17929 36.396 2.17509C36.5452 2.17089 36.6654 2.21583 36.7391 2.27143C36.7942 2.31299 36.8712 2.39316 36.9038 2.59549L41.3303 30.1164C41.5817 31.6794 42.8508 32.879 44.4254 33.042L72.1519 35.9128C72.3557 35.9339 72.4401 36.0063 72.4847 36.059C72.5443 36.1294 72.596 36.2469 72.6002 36.396C72.6044 36.5452 72.5594 36.6654 72.5038 36.7391C72.4623 36.7942 72.3821 36.8712 72.1798 36.9038L44.6588 41.3303C43.0959 41.5817 41.8963 42.8508 41.7332 44.4254L38.8625 72.1518C38.8414 72.3557 38.7689 72.4401 38.7163 72.4847C38.6459 72.5443 38.5284 72.596 38.3792 72.6002C38.2301 72.6044 38.1099 72.5594 38.0362 72.5038C37.9811 72.4623 37.904 72.3821 37.8715 72.1798L33.445 44.6588C33.1936 43.0959 31.9245 41.8962 30.3498 41.7332L2.62341 38.8625C2.41956 38.8414 2.33519 38.7689 2.29058 38.7163C2.23093 38.6458 2.17929 38.5284 2.17509 38.3792C2.17089 38.2301 2.21584 38.1098 2.27143 38.0362C2.313 37.9811 2.39316 37.904 2.59549 37.8715L30.1164 33.445C31.6794 33.1936 32.879 31.9244 33.042 30.3498L35.9128 2.6234Z" stroke="white" stroke-width="3"/>
</svg>
