<svg width="387" height="218" viewBox="0 0 387 218" fill="none" xmlns="http://www.w3.org/2000/svg">
<path d="M14.6094 43H8.55469V19.4844H0.800781V14.4453H22.3633V19.4844H14.6094V43ZM32.2461 12.6094V18.8008C32.2461 19.8815 32.207 20.9102 32.1289 21.8867C32.0638 22.8633 32.0117 23.5534 31.9727 23.957H32.2852C32.7539 23.2018 33.3073 22.5898 33.9453 22.1211C34.5964 21.6523 35.3125 21.3073 36.0938 21.0859C36.875 20.8646 37.7148 20.7539 38.6133 20.7539C40.1888 20.7539 41.5625 21.0339 42.7344 21.5938C43.9062 22.1406 44.8177 23.0065 45.4688 24.1914C46.1198 25.3633 46.4453 26.8867 46.4453 28.7617V43H40.4883V30.2461C40.4883 28.6836 40.2018 27.5052 39.6289 26.7109C39.056 25.9167 38.1706 25.5195 36.9727 25.5195C35.7747 25.5195 34.8307 25.7995 34.1406 26.3594C33.4505 26.9062 32.9622 27.7201 32.6758 28.8008C32.3893 29.8685 32.2461 31.1771 32.2461 32.7266V43H26.2891V12.6094H32.2461ZM61.582 20.7539C63.6003 20.7539 65.3385 21.1445 66.7969 21.9258C68.2552 22.694 69.3815 23.8138 70.1758 25.2852C70.9701 26.7565 71.3672 28.5534 71.3672 30.6758V33.5664H57.2852C57.3503 35.2461 57.8516 36.5677 58.7891 37.5312C59.7396 38.4818 61.0547 38.957 62.7344 38.957C64.1276 38.957 65.4036 38.8138 66.5625 38.5273C67.7214 38.2409 68.9128 37.8112 70.1367 37.2383V41.8477C69.056 42.3815 67.9232 42.7721 66.7383 43.0195C65.5664 43.2669 64.1406 43.3906 62.4609 43.3906C60.2734 43.3906 58.3333 42.987 56.6406 42.1797C54.9609 41.3724 53.6393 40.1419 52.6758 38.4883C51.7253 36.8346 51.25 34.7513 51.25 32.2383C51.25 29.6862 51.6797 27.5638 52.5391 25.8711C53.4115 24.1654 54.6224 22.8893 56.1719 22.043C57.7214 21.1836 59.5247 20.7539 61.582 20.7539ZM61.6211 24.9922C60.4622 24.9922 59.4987 25.3633 58.7305 26.1055C57.9753 26.8477 57.5391 28.013 57.4219 29.6016H65.7812C65.7682 28.7161 65.6055 27.9284 65.293 27.2383C64.9935 26.5482 64.5378 26.0013 63.9258 25.5977C63.3268 25.194 62.5586 24.9922 61.6211 24.9922ZM87.0703 14.4453H95.957C99.7591 14.4453 102.637 14.9792 104.59 16.0469C106.543 17.1146 107.52 18.9896 107.52 21.6719C107.52 22.7526 107.344 23.7292 106.992 24.6016C106.654 25.474 106.159 26.1901 105.508 26.75C104.857 27.3099 104.062 27.6745 103.125 27.8438V28.0391C104.076 28.2344 104.935 28.5729 105.703 29.0547C106.471 29.5234 107.083 30.2135 107.539 31.125C108.008 32.0234 108.242 33.2214 108.242 34.7188C108.242 36.4505 107.819 37.9349 106.973 39.1719C106.126 40.4089 104.915 41.3594 103.34 42.0234C101.777 42.6745 99.9154 43 97.7539 43H87.0703V14.4453ZM93.125 25.7539H96.6406C98.3984 25.7539 99.6159 25.4805 100.293 24.9336C100.97 24.3737 101.309 23.5534 101.309 22.4727C101.309 21.3789 100.905 20.5977 100.098 20.1289C99.3034 19.6471 98.0404 19.4062 96.3086 19.4062H93.125V25.7539ZM93.125 30.5586V38H97.0703C98.8932 38 100.163 37.6484 100.879 36.9453C101.595 36.2422 101.953 35.2982 101.953 34.1133C101.953 33.4102 101.797 32.7917 101.484 32.2578C101.172 31.724 100.645 31.3073 99.9023 31.0078C99.1732 30.7083 98.1641 30.5586 96.875 30.5586H93.125ZM122.48 20.7539C124.499 20.7539 126.237 21.1445 127.695 21.9258C129.154 22.694 130.28 23.8138 131.074 25.2852C131.868 26.7565 132.266 28.5534 132.266 30.6758V33.5664H118.184C118.249 35.2461 118.75 36.5677 119.688 37.5312C120.638 38.4818 121.953 38.957 123.633 38.957C125.026 38.957 126.302 38.8138 127.461 38.5273C128.62 38.2409 129.811 37.8112 131.035 37.2383V41.8477C129.954 42.3815 128.822 42.7721 127.637 43.0195C126.465 43.2669 125.039 43.3906 123.359 43.3906C121.172 43.3906 119.232 42.987 117.539 42.1797C115.859 41.3724 114.538 40.1419 113.574 38.4883C112.624 36.8346 112.148 34.7513 112.148 32.2383C112.148 29.6862 112.578 27.5638 113.438 25.8711C114.31 24.1654 115.521 22.8893 117.07 22.043C118.62 21.1836 120.423 20.7539 122.48 20.7539ZM122.52 24.9922C121.361 24.9922 120.397 25.3633 119.629 26.1055C118.874 26.8477 118.438 28.013 118.32 29.6016H126.68C126.667 28.7161 126.504 27.9284 126.191 27.2383C125.892 26.5482 125.436 26.0013 124.824 25.5977C124.225 25.194 123.457 24.9922 122.52 24.9922ZM152.344 36.5156C152.344 38 151.992 39.2565 151.289 40.2852C150.599 41.3008 149.564 42.0755 148.184 42.6094C146.803 43.1302 145.085 43.3906 143.027 43.3906C141.504 43.3906 140.195 43.293 139.102 43.0977C138.021 42.9023 136.927 42.5768 135.82 42.1211V37.1992C137.005 37.7331 138.275 38.1758 139.629 38.5273C140.996 38.8659 142.194 39.0352 143.223 39.0352C144.382 39.0352 145.208 38.8659 145.703 38.5273C146.211 38.1758 146.465 37.7201 146.465 37.1602C146.465 36.7956 146.361 36.4701 146.152 36.1836C145.957 35.8841 145.527 35.5521 144.863 35.1875C144.199 34.8099 143.158 34.3216 141.738 33.7227C140.371 33.1497 139.245 32.5703 138.359 31.9844C137.487 31.3984 136.836 30.7083 136.406 29.9141C135.99 29.1068 135.781 28.0846 135.781 26.8477C135.781 24.8294 136.562 23.3125 138.125 22.2969C139.701 21.2682 141.803 20.7539 144.434 20.7539C145.788 20.7539 147.077 20.8906 148.301 21.1641C149.538 21.4375 150.807 21.8737 152.109 22.4727L150.312 26.7695C149.232 26.3008 148.21 25.9167 147.246 25.6172C146.296 25.3177 145.326 25.168 144.336 25.168C143.464 25.168 142.806 25.2852 142.363 25.5195C141.921 25.7539 141.699 26.112 141.699 26.5938C141.699 26.9453 141.81 27.2578 142.031 27.5312C142.266 27.8047 142.708 28.1107 143.359 28.4492C144.023 28.7747 144.993 29.1979 146.27 29.7188C147.507 30.2266 148.581 30.7604 149.492 31.3203C150.404 31.8672 151.107 32.5508 151.602 33.3711C152.096 34.1784 152.344 35.2266 152.344 36.5156ZM166.191 38.6445C166.842 38.6445 167.474 38.5794 168.086 38.4492C168.711 38.319 169.329 38.1562 169.941 37.9609V42.3945C169.303 42.681 168.509 42.9154 167.559 43.0977C166.621 43.293 165.592 43.3906 164.473 43.3906C163.171 43.3906 161.999 43.1823 160.957 42.7656C159.928 42.3359 159.115 41.6003 158.516 40.5586C157.93 39.5039 157.637 38.0391 157.637 36.1641V25.6367H154.785V23.1172L158.066 21.125L159.785 16.5156H163.594V21.1641H169.707V25.6367H163.594V36.1641C163.594 36.9974 163.828 37.6224 164.297 38.0391C164.779 38.4427 165.41 38.6445 166.191 38.6445ZM202.715 43L201.035 35.3633C200.944 34.9076 200.794 34.237 200.586 33.3516C200.378 32.4531 200.15 31.4961 199.902 30.4805C199.668 29.4518 199.447 28.5013 199.238 27.6289C199.043 26.7565 198.9 26.1185 198.809 25.7148H198.633C198.542 26.1185 198.398 26.7565 198.203 27.6289C198.008 28.5013 197.786 29.4518 197.539 30.4805C197.305 31.5091 197.083 32.4792 196.875 33.3906C196.667 34.2891 196.51 34.9727 196.406 35.4414L194.648 43H188.242L182.031 21.1641H187.969L190.488 30.832C190.658 31.5091 190.82 32.3164 190.977 33.2539C191.133 34.1784 191.27 35.0768 191.387 35.9492C191.517 36.8086 191.615 37.4922 191.68 38H191.836C191.862 37.6224 191.914 37.1211 191.992 36.4961C192.083 35.8711 192.181 35.2266 192.285 34.5625C192.402 33.8854 192.507 33.2799 192.598 32.7461C192.702 32.1992 192.78 31.8281 192.832 31.6328L195.527 21.1641H202.09L204.648 31.6328C204.74 32.0104 204.857 32.6094 205 33.4297C205.156 34.25 205.293 35.0964 205.41 35.9688C205.527 36.8281 205.592 37.5052 205.605 38H205.762C205.814 37.5573 205.905 36.8997 206.035 36.0273C206.165 35.1549 206.315 34.2435 206.484 33.293C206.667 32.3294 206.849 31.5091 207.031 30.832L209.648 21.1641H215.488L209.199 43H202.715ZM227.969 20.7148C230.898 20.7148 233.145 21.3529 234.707 22.6289C236.27 23.9049 237.051 25.8451 237.051 28.4492V43H232.891L231.738 40.0312H231.582C230.957 40.8125 230.319 41.4505 229.668 41.9453C229.017 42.4401 228.268 42.8047 227.422 43.0391C226.576 43.2734 225.547 43.3906 224.336 43.3906C223.047 43.3906 221.888 43.1432 220.859 42.6484C219.844 42.1536 219.043 41.3984 218.457 40.3828C217.871 39.3542 217.578 38.0521 217.578 36.4766C217.578 34.1589 218.392 32.4531 220.02 31.3594C221.647 30.2526 224.089 29.6406 227.344 29.5234L231.133 29.4062V28.4492C231.133 27.3034 230.833 26.4635 230.234 25.9297C229.635 25.3958 228.802 25.1289 227.734 25.1289C226.68 25.1289 225.645 25.2786 224.629 25.5781C223.613 25.8776 222.598 26.2552 221.582 26.7109L219.609 22.6875C220.768 22.0755 222.064 21.5938 223.496 21.2422C224.941 20.8906 226.432 20.7148 227.969 20.7148ZM231.133 32.8828L228.828 32.9609C226.901 33.013 225.56 33.3581 224.805 33.9961C224.062 34.6341 223.691 35.474 223.691 36.5156C223.691 37.4271 223.958 38.0781 224.492 38.4688C225.026 38.8464 225.723 39.0352 226.582 39.0352C227.858 39.0352 228.932 38.6576 229.805 37.9023C230.69 37.1471 231.133 36.0729 231.133 34.6797V32.8828ZM240.078 21.1641H246.602L250.723 33.4492C250.853 33.8398 250.964 34.237 251.055 34.6406C251.146 35.0443 251.224 35.4609 251.289 35.8906C251.354 36.3203 251.406 36.7695 251.445 37.2383H251.562C251.641 36.5352 251.745 35.8776 251.875 35.2656C252.018 34.6536 252.194 34.0482 252.402 33.4492L256.445 21.1641H262.832L253.594 45.793C253.034 47.3034 252.305 48.5599 251.406 49.5625C250.508 50.5781 249.473 51.3398 248.301 51.8477C247.142 52.3555 245.866 52.6094 244.473 52.6094C243.796 52.6094 243.21 52.5703 242.715 52.4922C242.22 52.4271 241.797 52.3555 241.445 52.2773V47.5508C241.719 47.6159 242.064 47.6745 242.48 47.7266C242.897 47.7786 243.333 47.8047 243.789 47.8047C244.622 47.8047 245.339 47.6289 245.938 47.2773C246.536 46.9258 247.038 46.4505 247.441 45.8516C247.845 45.2656 248.164 44.6211 248.398 43.918L248.75 42.8438L240.078 21.1641ZM12.3242 92.6445C12.9753 92.6445 13.6068 92.5794 14.2188 92.4492C14.8438 92.319 15.4622 92.1562 16.0742 91.9609V96.3945C15.4362 96.681 14.6419 96.9154 13.6914 97.0977C12.7539 97.293 11.7253 97.3906 10.6055 97.3906C9.30339 97.3906 8.13151 97.1823 7.08984 96.7656C6.0612 96.3359 5.2474 95.6003 4.64844 94.5586C4.0625 93.5039 3.76953 92.0391 3.76953 90.1641V79.6367H0.917969V77.1172L4.19922 75.125L5.91797 70.5156H9.72656V75.1641H15.8398V79.6367H9.72656V90.1641C9.72656 90.9974 9.96094 91.6224 10.4297 92.0391C10.9115 92.4427 11.543 92.6445 12.3242 92.6445ZM40.3516 86.043C40.3516 87.8659 40.1042 89.4805 39.6094 90.8867C39.1276 92.293 38.418 93.4844 37.4805 94.4609C36.556 95.4245 35.4362 96.1536 34.1211 96.6484C32.819 97.1432 31.3477 97.3906 29.707 97.3906C28.1706 97.3906 26.7578 97.1432 25.4688 96.6484C24.1927 96.1536 23.0794 95.4245 22.1289 94.4609C21.1914 93.4844 20.4622 92.293 19.9414 90.8867C19.4336 89.4805 19.1797 87.8659 19.1797 86.043C19.1797 83.6211 19.6094 81.5703 20.4688 79.8906C21.3281 78.2109 22.5521 76.9349 24.1406 76.0625C25.7292 75.1901 27.6237 74.7539 29.8242 74.7539C31.8685 74.7539 33.6784 75.1901 35.2539 76.0625C36.8424 76.9349 38.0859 78.2109 38.9844 79.8906C39.8958 81.5703 40.3516 83.6211 40.3516 86.043ZM25.2539 86.043C25.2539 87.4753 25.4102 88.6797 25.7227 89.6562C26.0352 90.6328 26.5234 91.3685 27.1875 91.8633C27.8516 92.3581 28.7174 92.6055 29.7852 92.6055C30.8398 92.6055 31.6927 92.3581 32.3438 91.8633C33.0078 91.3685 33.4896 90.6328 33.7891 89.6562C34.1016 88.6797 34.2578 87.4753 34.2578 86.043C34.2578 84.5977 34.1016 83.3997 33.7891 82.4492C33.4896 81.4857 33.0078 80.763 32.3438 80.2812C31.6797 79.7995 30.8138 79.5586 29.7461 79.5586C28.1706 79.5586 27.0247 80.099 26.3086 81.1797C25.6055 82.2604 25.2539 83.8815 25.2539 86.043ZM62.0508 106.609C59.0039 106.609 56.6732 106.076 55.0586 105.008C53.457 103.953 52.6562 102.469 52.6562 100.555C52.6562 99.2396 53.0664 98.1393 53.8867 97.2539C54.707 96.3685 55.9115 95.737 57.5 95.3594C56.888 95.099 56.3542 94.6758 55.8984 94.0898C55.4427 93.4909 55.2148 92.8594 55.2148 92.1953C55.2148 91.362 55.4557 90.6719 55.9375 90.125C56.4193 89.5651 57.1159 89.0182 58.0273 88.4844C56.8815 87.9896 55.9701 87.1953 55.293 86.1016C54.6289 85.0078 54.2969 83.7188 54.2969 82.2344C54.2969 80.6458 54.6419 79.2982 55.332 78.1914C56.0352 77.0716 57.0508 76.2188 58.3789 75.6328C59.7201 75.0469 61.3477 74.7539 63.2617 74.7539C63.6654 74.7539 64.1341 74.7799 64.668 74.832C65.2018 74.8841 65.6901 74.9427 66.1328 75.0078C66.5885 75.0729 66.8945 75.125 67.0508 75.1641H74.668V78.1914L71.25 79.0703C71.5625 79.5521 71.7969 80.0664 71.9531 80.6133C72.1094 81.1602 72.1875 81.7396 72.1875 82.3516C72.1875 84.6953 71.3672 86.5247 69.7266 87.8398C68.099 89.1419 65.8333 89.793 62.9297 89.793C62.2396 89.7539 61.5885 89.7018 60.9766 89.6367C60.6771 89.8711 60.4492 90.1185 60.293 90.3789C60.1367 90.6393 60.0586 90.9128 60.0586 91.1992C60.0586 91.4857 60.1758 91.7266 60.4102 91.9219C60.6576 92.1042 61.0221 92.2474 61.5039 92.3516C61.9987 92.4427 62.6107 92.4883 63.3398 92.4883H67.0508C69.4466 92.4883 71.2695 93.0026 72.5195 94.0312C73.7826 95.0599 74.4141 96.5703 74.4141 98.5625C74.4141 101.115 73.3464 103.094 71.2109 104.5C69.0885 105.906 66.0352 106.609 62.0508 106.609ZM62.3047 102.723C63.724 102.723 64.9414 102.586 65.957 102.312C66.9857 102.052 67.7734 101.674 68.3203 101.18C68.8672 100.698 69.1406 100.118 69.1406 99.4414C69.1406 98.8945 68.9779 98.4583 68.6523 98.1328C68.3398 97.8203 67.8581 97.599 67.207 97.4688C66.569 97.3385 65.7487 97.2734 64.7461 97.2734H61.6602C60.931 97.2734 60.2734 97.3906 59.6875 97.625C59.1146 97.8594 58.6589 98.1849 58.3203 98.6016C57.9818 99.0312 57.8125 99.526 57.8125 100.086C57.8125 100.906 58.2031 101.551 58.9844 102.02C59.7786 102.488 60.8854 102.723 62.3047 102.723ZM63.2617 86.1602C64.3815 86.1602 65.2018 85.8151 65.7227 85.125C66.2435 84.4349 66.5039 83.4974 66.5039 82.3125C66.5039 80.9974 66.2305 80.0143 65.6836 79.3633C65.1497 78.6992 64.3424 78.3672 63.2617 78.3672C62.168 78.3672 61.3477 78.6992 60.8008 79.3633C60.2539 80.0143 59.9805 80.9974 59.9805 82.3125C59.9805 83.4974 60.2474 84.4349 60.7812 85.125C61.3281 85.8151 62.1549 86.1602 63.2617 86.1602ZM90.4688 74.7539C90.7682 74.7539 91.1133 74.7734 91.5039 74.8125C91.9076 74.8385 92.2331 74.8776 92.4805 74.9297L92.0312 80.5156C91.8359 80.4505 91.556 80.4049 91.1914 80.3789C90.8398 80.3398 90.5339 80.3203 90.2734 80.3203C89.5052 80.3203 88.7565 80.418 88.0273 80.6133C87.3112 80.8086 86.6667 81.1276 86.0938 81.5703C85.5208 82 85.0651 82.5729 84.7266 83.2891C84.401 83.9922 84.2383 84.8581 84.2383 85.8867V97H78.2812V75.1641H82.793L83.6719 78.8359H83.9648C84.3945 78.0938 84.9284 77.4167 85.5664 76.8047C86.2174 76.1797 86.9531 75.6849 87.7734 75.3203C88.6068 74.9427 89.5052 74.7539 90.4688 74.7539ZM116.289 86.043C116.289 87.8659 116.042 89.4805 115.547 90.8867C115.065 92.293 114.355 93.4844 113.418 94.4609C112.493 95.4245 111.374 96.1536 110.059 96.6484C108.757 97.1432 107.285 97.3906 105.645 97.3906C104.108 97.3906 102.695 97.1432 101.406 96.6484C100.13 96.1536 99.0169 95.4245 98.0664 94.4609C97.1289 93.4844 96.3997 92.293 95.8789 90.8867C95.3711 89.4805 95.1172 87.8659 95.1172 86.043C95.1172 83.6211 95.5469 81.5703 96.4062 79.8906C97.2656 78.2109 98.4896 76.9349 100.078 76.0625C101.667 75.1901 103.561 74.7539 105.762 74.7539C107.806 74.7539 109.616 75.1901 111.191 76.0625C112.78 76.9349 114.023 78.2109 114.922 79.8906C115.833 81.5703 116.289 83.6211 116.289 86.043ZM101.191 86.043C101.191 87.4753 101.348 88.6797 101.66 89.6562C101.973 90.6328 102.461 91.3685 103.125 91.8633C103.789 92.3581 104.655 92.6055 105.723 92.6055C106.777 92.6055 107.63 92.3581 108.281 91.8633C108.945 91.3685 109.427 90.6328 109.727 89.6562C110.039 88.6797 110.195 87.4753 110.195 86.043C110.195 84.5977 110.039 83.3997 109.727 82.4492C109.427 81.4857 108.945 80.763 108.281 80.2812C107.617 79.7995 106.751 79.5586 105.684 79.5586C104.108 79.5586 102.962 80.099 102.246 81.1797C101.543 82.2604 101.191 83.8815 101.191 86.043ZM139.16 97L137.48 89.3633C137.389 88.9076 137.24 88.237 137.031 87.3516C136.823 86.4531 136.595 85.4961 136.348 84.4805C136.113 83.4518 135.892 82.5013 135.684 81.6289C135.488 80.7565 135.345 80.1185 135.254 79.7148H135.078C134.987 80.1185 134.844 80.7565 134.648 81.6289C134.453 82.5013 134.232 83.4518 133.984 84.4805C133.75 85.5091 133.529 86.4792 133.32 87.3906C133.112 88.2891 132.956 88.9727 132.852 89.4414L131.094 97H124.688L118.477 75.1641H124.414L126.934 84.832C127.103 85.5091 127.266 86.3164 127.422 87.2539C127.578 88.1784 127.715 89.0768 127.832 89.9492C127.962 90.8086 128.06 91.4922 128.125 92H128.281C128.307 91.6224 128.359 91.1211 128.438 90.4961C128.529 89.8711 128.626 89.2266 128.73 88.5625C128.848 87.8854 128.952 87.2799 129.043 86.7461C129.147 86.1992 129.225 85.8281 129.277 85.6328L131.973 75.1641H138.535L141.094 85.6328C141.185 86.0104 141.302 86.6094 141.445 87.4297C141.602 88.25 141.738 89.0964 141.855 89.9688C141.973 90.8281 142.038 91.5052 142.051 92H142.207C142.259 91.5573 142.35 90.8997 142.48 90.0273C142.611 89.1549 142.76 88.2435 142.93 87.293C143.112 86.3294 143.294 85.5091 143.477 84.832L146.094 75.1641H151.934L145.645 97H139.16ZM0 129.164H6.52344L10.6445 141.449C10.7747 141.84 10.8854 142.237 10.9766 142.641C11.0677 143.044 11.1458 143.461 11.2109 143.891C11.276 144.32 11.3281 144.77 11.3672 145.238H11.4844C11.5625 144.535 11.6667 143.878 11.7969 143.266C11.9401 142.654 12.1159 142.048 12.3242 141.449L16.3672 129.164H22.7539L13.5156 153.793C12.9557 155.303 12.2266 156.56 11.3281 157.562C10.4297 158.578 9.39453 159.34 8.22266 159.848C7.0638 160.355 5.78776 160.609 4.39453 160.609C3.71745 160.609 3.13151 160.57 2.63672 160.492C2.14193 160.427 1.71875 160.355 1.36719 160.277V155.551C1.64062 155.616 1.98568 155.674 2.40234 155.727C2.81901 155.779 3.25521 155.805 3.71094 155.805C4.54427 155.805 5.26042 155.629 5.85938 155.277C6.45833 154.926 6.95964 154.451 7.36328 153.852C7.76693 153.266 8.08594 152.621 8.32031 151.918L8.67188 150.844L0 129.164ZM45.7422 140.043C45.7422 141.866 45.4948 143.48 45 144.887C44.5182 146.293 43.8086 147.484 42.8711 148.461C41.9466 149.424 40.8268 150.154 39.5117 150.648C38.2096 151.143 36.7383 151.391 35.0977 151.391C33.5612 151.391 32.1484 151.143 30.8594 150.648C29.5833 150.154 28.4701 149.424 27.5195 148.461C26.582 147.484 25.8529 146.293 25.332 144.887C24.8242 143.48 24.5703 141.866 24.5703 140.043C24.5703 137.621 25 135.57 25.8594 133.891C26.7188 132.211 27.9427 130.935 29.5312 130.062C31.1198 129.19 33.0143 128.754 35.2148 128.754C37.2591 128.754 39.069 129.19 40.6445 130.062C42.2331 130.935 43.4766 132.211 44.375 133.891C45.2865 135.57 45.7422 137.621 45.7422 140.043ZM30.6445 140.043C30.6445 141.475 30.8008 142.68 31.1133 143.656C31.4258 144.633 31.9141 145.368 32.5781 145.863C33.2422 146.358 34.1081 146.605 35.1758 146.605C36.2305 146.605 37.0833 146.358 37.7344 145.863C38.3984 145.368 38.8802 144.633 39.1797 143.656C39.4922 142.68 39.6484 141.475 39.6484 140.043C39.6484 138.598 39.4922 137.4 39.1797 136.449C38.8802 135.486 38.3984 134.763 37.7344 134.281C37.0703 133.799 36.2044 133.559 35.1367 133.559C33.5612 133.559 32.4154 134.099 31.6992 135.18C30.9961 136.26 30.6445 137.882 30.6445 140.043ZM70.7031 129.164V151H66.1328L65.332 148.207H65.0195C64.5508 148.949 63.9648 149.555 63.2617 150.023C62.5586 150.492 61.7839 150.837 60.9375 151.059C60.0911 151.28 59.2122 151.391 58.3008 151.391C56.7383 151.391 55.3776 151.117 54.2188 150.57C53.0599 150.01 52.1549 149.145 51.5039 147.973C50.8659 146.801 50.5469 145.277 50.5469 143.402V129.164H56.5039V141.918C56.5039 143.48 56.7839 144.659 57.3438 145.453C57.9036 146.247 58.7956 146.645 60.0195 146.645C61.2305 146.645 62.181 146.371 62.8711 145.824C63.5612 145.264 64.043 144.451 64.3164 143.383C64.6029 142.302 64.7461 140.987 64.7461 139.438V129.164H70.7031ZM89.1406 128.754C89.4401 128.754 89.7852 128.773 90.1758 128.812C90.5794 128.839 90.9049 128.878 91.1523 128.93L90.7031 134.516C90.5078 134.451 90.2279 134.405 89.8633 134.379C89.5117 134.34 89.2057 134.32 88.9453 134.32C88.1771 134.32 87.4284 134.418 86.6992 134.613C85.9831 134.809 85.3385 135.128 84.7656 135.57C84.1927 136 83.737 136.573 83.3984 137.289C83.0729 137.992 82.9102 138.858 82.9102 139.887V151H76.9531V129.164H81.4648L82.3438 132.836H82.6367C83.0664 132.094 83.6003 131.417 84.2383 130.805C84.8893 130.18 85.625 129.685 86.4453 129.32C87.2786 128.943 88.1771 128.754 89.1406 128.754Z" fill="white"/>
<rect x="107.622" y="123.832" width="193.898" height="62.4479" rx="3.5" transform="rotate(-4.88984 107.622 123.832)" fill="#FFFDF1"/>
<rect x="107.622" y="123.832" width="193.898" height="62.4479" rx="3.5" transform="rotate(-4.88984 107.622 123.832)" stroke="black" stroke-width="3"/>
<path d="M122.209 141.321L131.064 140.564C134.852 140.239 137.765 140.526 139.802 141.423C141.839 142.321 142.971 144.106 143.2 146.778C143.292 147.855 143.2 148.843 142.924 149.742C142.661 150.64 142.229 151.396 141.629 152.009C141.028 152.623 140.267 153.054 139.348 153.302L139.364 153.497C140.328 153.61 141.213 153.874 142.02 154.289C142.825 154.691 143.494 155.326 144.025 156.195C144.569 157.05 144.905 158.224 145.032 159.716C145.18 161.441 144.885 162.956 144.147 164.261C143.409 165.566 142.284 166.616 140.77 167.412C139.269 168.194 137.442 168.677 135.288 168.861L124.643 169.772L122.209 141.321ZM129.206 152.072L132.709 151.773C134.46 151.623 135.65 151.247 136.278 150.644C136.905 150.028 137.172 149.182 137.08 148.105C136.987 147.016 136.518 146.272 135.674 145.873C134.841 145.461 133.562 145.329 131.837 145.476L128.665 145.748L129.206 152.072ZM129.615 156.86L130.25 164.274L134.181 163.938C135.997 163.782 137.232 163.324 137.886 162.562C138.539 161.8 138.815 160.829 138.714 159.649C138.655 158.948 138.446 158.345 138.089 157.84C137.732 157.335 137.171 156.965 136.406 156.729C135.654 156.493 134.636 156.43 133.352 156.54L129.615 156.86ZM169.058 144.056L170.92 165.813L166.366 166.202L165.33 163.488L165.019 163.514C164.615 164.294 164.083 164.947 163.422 165.474C162.761 166.001 162.019 166.411 161.194 166.704C160.37 166.996 159.504 167.181 158.596 167.259C157.039 167.392 155.66 167.236 154.459 166.79C153.256 166.331 152.281 165.545 151.532 164.433C150.797 163.32 150.349 161.829 150.189 159.961L148.975 145.774L154.911 145.267L155.998 157.974C156.131 159.531 156.51 160.681 157.136 161.425C157.762 162.168 158.684 162.488 159.904 162.384C161.11 162.281 162.034 161.927 162.675 161.323C163.315 160.707 163.725 159.855 163.907 158.768C164.1 157.667 164.131 156.344 163.999 154.8L163.123 144.564L169.058 144.056ZM191.773 157.521C191.9 159 191.656 160.282 191.043 161.366C190.442 162.437 189.477 163.297 188.147 163.947C186.817 164.583 185.126 164.989 183.077 165.165C181.559 165.295 180.247 165.309 179.14 165.208C178.047 165.105 176.929 164.874 175.788 164.514L175.368 159.61C176.594 160.041 177.897 160.374 179.276 160.609C180.667 160.83 181.875 160.896 182.9 160.809C184.055 160.71 184.864 160.471 185.328 160.091C185.804 159.698 186.018 159.222 185.97 158.664C185.939 158.301 185.808 157.985 185.576 157.718C185.356 157.436 184.899 157.142 184.207 156.835C183.513 156.515 182.433 156.118 180.968 155.642C179.557 155.188 178.385 154.706 177.453 154.198C176.534 153.688 175.827 153.056 175.331 152.302C174.847 151.533 174.552 150.532 174.447 149.3C174.275 147.289 174.924 145.711 176.394 144.566C177.876 143.406 179.927 142.715 182.548 142.491C183.897 142.375 185.193 142.401 186.436 142.57C187.692 142.737 188.994 143.063 190.342 143.549L188.918 147.983C187.802 147.608 186.75 147.313 185.765 147.096C184.792 146.879 183.813 146.813 182.827 146.897C181.958 146.971 181.313 147.144 180.892 147.415C180.47 147.687 180.28 148.062 180.321 148.542C180.351 148.893 180.488 149.194 180.732 149.448C180.989 149.7 181.456 149.968 182.134 150.249C182.823 150.517 183.826 150.856 185.142 151.266C186.417 151.667 187.533 152.107 188.489 152.587C189.444 153.055 190.203 153.676 190.765 154.451C191.327 155.213 191.663 156.236 191.773 157.521ZM201.031 141.321L202.893 163.077L196.957 163.585L195.096 141.829L201.031 141.321ZM197.344 133.05C198.226 132.975 199.003 133.118 199.674 133.478C200.344 133.826 200.727 134.558 200.823 135.674C200.917 136.776 200.665 137.569 200.066 138.052C199.465 138.521 198.724 138.794 197.842 138.869C196.947 138.946 196.164 138.804 195.492 138.443C194.833 138.068 194.456 137.329 194.362 136.226C194.266 135.111 194.513 134.325 195.101 133.87C195.701 133.4 196.449 133.127 197.344 133.05ZM219.6 139.321C221.923 139.122 223.845 139.598 225.368 140.748C226.89 141.886 227.77 143.849 228.009 146.638L229.222 160.825L223.287 161.333L222.2 148.625C222.067 147.068 221.681 145.919 221.042 145.176C220.417 144.432 219.501 144.112 218.294 144.215C216.478 144.371 215.291 145.093 214.735 146.382C214.179 147.671 214 149.477 214.199 151.799L215.075 162.035L209.139 162.543L207.278 140.787L211.812 140.399L212.848 143.113L213.179 143.085C213.582 142.292 214.107 141.633 214.754 141.107C215.415 140.58 216.158 140.171 216.982 139.878C217.819 139.584 218.692 139.398 219.6 139.321ZM242.408 137.369C244.418 137.197 246.184 137.438 247.703 138.093C249.222 138.734 250.44 139.753 251.356 141.152C252.273 142.55 252.822 144.307 253.003 146.421L253.249 149.301L239.218 150.502C239.427 152.17 240.039 153.444 241.055 154.324C242.083 155.19 243.434 155.551 245.107 155.408C246.496 155.289 247.755 155.038 248.885 154.654C250.015 154.27 251.166 153.74 252.336 153.065L252.729 157.657C251.698 158.281 250.602 158.767 249.443 159.115C248.296 159.461 246.886 159.706 245.213 159.849C243.033 160.035 241.066 159.799 239.311 159.139C237.568 158.477 236.146 157.364 235.045 155.799C233.957 154.232 233.306 152.197 233.092 149.693C232.875 147.15 233.122 144.999 233.834 143.239C234.558 141.465 235.655 140.09 237.127 139.115C238.598 138.127 240.358 137.545 242.408 137.369ZM242.808 141.589C241.653 141.688 240.725 142.14 240.023 142.945C239.333 143.749 238.998 144.947 239.017 146.54L247.346 145.827C247.257 144.946 247.028 144.175 246.658 143.514C246.301 142.852 245.8 142.346 245.156 141.996C244.525 141.645 243.742 141.509 242.808 141.589ZM273.506 150.528C273.632 152.007 273.389 153.289 272.776 154.374C272.175 155.445 271.21 156.305 269.88 156.954C268.549 157.591 266.859 157.997 264.809 158.172C263.291 158.302 261.979 158.317 260.873 158.215C259.779 158.113 258.662 157.882 257.52 157.522L257.101 152.618C258.327 153.049 259.629 153.382 261.009 153.617C262.4 153.837 263.608 153.904 264.633 153.816C265.787 153.717 266.597 153.478 267.061 153.099C267.537 152.705 267.751 152.229 267.703 151.672C267.672 151.308 267.541 150.993 267.309 150.725C267.088 150.443 266.632 150.149 265.939 149.843C265.245 149.523 264.166 149.125 262.701 148.65C261.29 148.195 260.118 147.714 259.186 147.206C258.267 146.696 257.559 146.064 257.063 145.309C256.58 144.54 256.285 143.54 256.179 142.307C256.007 140.296 256.656 138.718 258.127 137.573C259.609 136.414 261.66 135.722 264.281 135.498C265.63 135.383 266.926 135.409 268.169 135.577C269.425 135.744 270.727 136.071 272.075 136.556L270.651 140.991C269.534 140.616 268.483 140.32 267.498 140.104C266.525 139.887 265.546 139.82 264.56 139.905C263.691 139.979 263.045 140.152 262.624 140.423C262.203 140.694 262.013 141.07 262.054 141.55C262.084 141.9 262.221 142.202 262.465 142.456C262.722 142.708 263.189 142.975 263.866 143.257C264.556 143.525 265.558 143.864 266.874 144.274C268.15 144.674 269.266 145.115 270.222 145.595C271.176 146.062 271.935 146.683 272.498 147.458C273.06 148.221 273.396 149.244 273.506 150.528ZM293.316 148.833C293.443 150.312 293.2 151.594 292.587 152.679C291.986 153.75 291.02 154.61 289.691 155.26C288.36 155.896 286.669 156.302 284.62 156.478C283.102 156.607 281.79 156.622 280.683 156.52C279.59 156.418 278.472 156.187 277.331 155.827L276.911 150.923C278.137 151.354 279.44 151.687 280.819 151.922C282.21 152.142 283.418 152.209 284.443 152.121C285.598 152.023 286.407 151.783 286.871 151.404C287.347 151.01 287.561 150.535 287.514 149.977C287.483 149.614 287.351 149.298 287.119 149.03C286.899 148.749 286.442 148.454 285.75 148.148C285.056 147.828 283.976 147.43 282.511 146.955C281.1 146.5 279.929 146.019 278.996 145.511C278.077 145.001 277.37 144.369 276.874 143.614C276.39 142.846 276.095 141.845 275.99 140.612C275.818 138.602 276.467 137.024 277.937 135.878C279.419 134.719 281.471 134.028 284.091 133.803C285.44 133.688 286.737 133.714 287.979 133.882C289.235 134.049 290.537 134.376 291.886 134.862L290.462 139.296C289.345 138.921 288.294 138.625 287.308 138.409C286.335 138.192 285.356 138.125 284.37 138.21C283.501 138.284 282.856 138.457 282.435 138.728C282.014 138.999 281.824 139.375 281.865 139.855C281.895 140.205 282.032 140.507 282.275 140.761C282.532 141.013 282.999 141.28 283.677 141.562C284.366 141.83 285.369 142.169 286.685 142.579C287.96 142.98 289.076 143.42 290.032 143.9C290.987 144.367 291.746 144.989 292.309 145.764C292.87 146.526 293.206 147.549 293.316 148.833Z" fill="black"/>
<path d="M347.009 157.26C347.031 157.056 347.103 156.972 347.156 156.927C347.226 156.868 347.344 156.816 347.493 156.812C347.642 156.807 347.762 156.852 347.836 156.908C347.891 156.95 347.968 157.03 348 157.232L350.601 173.398C350.852 174.961 352.121 176.16 353.696 176.323L369.982 178.009C370.186 178.031 370.27 178.103 370.315 178.156C370.374 178.226 370.426 178.344 370.43 178.493C370.434 178.642 370.389 178.762 370.334 178.836C370.292 178.891 370.212 178.968 370.01 179L353.844 181.601C352.281 181.852 351.082 183.121 350.919 184.696L349.232 200.982C349.211 201.186 349.139 201.27 349.086 201.315C349.016 201.374 348.898 201.426 348.749 201.43C348.6 201.434 348.48 201.389 348.406 201.334C348.351 201.292 348.274 201.212 348.241 201.01L345.641 184.844C345.39 183.281 344.121 182.082 342.546 181.919L326.26 180.232C326.056 180.211 325.972 180.139 325.927 180.086C325.868 180.016 325.816 179.898 325.812 179.749C325.808 179.6 325.852 179.48 325.908 179.406C325.95 179.351 326.03 179.274 326.232 179.241L342.398 176.641C343.961 176.39 345.16 175.121 345.323 173.546L347.009 157.26Z" stroke="white" stroke-width="3"/>
</svg>
