<svg width="20" height="21" viewBox="0 0 20 21" fill="none" xmlns="http://www.w3.org/2000/svg">
<path d="M17.0498 3.41C16.133 2.48392 15.041 1.74967 13.8374 1.25005C12.6339 0.750433 11.3429 0.495459 10.0398 0.499999C4.5798 0.499999 0.129805 4.95 0.129805 10.41C0.129805 12.16 0.589805 13.86 1.4498 15.36L0.0498047 20.5L5.2998 19.12C6.7498 19.91 8.3798 20.33 10.0398 20.33C15.4998 20.33 19.9498 15.88 19.9498 10.42C19.9498 7.77 18.9198 5.28 17.0498 3.41ZM10.0398 18.65C8.5598 18.65 7.1098 18.25 5.8398 17.5L5.5398 17.32L2.4198 18.14L3.2498 15.1L3.0498 14.79C2.22755 13.477 1.79094 11.9592 1.7898 10.41C1.7898 5.87 5.4898 2.17 10.0298 2.17C12.2298 2.17 14.2998 3.03 15.8498 4.59C16.6173 5.35396 17.2255 6.26266 17.6392 7.26342C18.0529 8.26419 18.2638 9.33711 18.2598 10.42C18.2798 14.96 14.5798 18.65 10.0398 18.65ZM14.5598 12.49C14.3098 12.37 13.0898 11.77 12.8698 11.68C12.6398 11.6 12.4798 11.56 12.3098 11.8C12.1398 12.05 11.6698 12.61 11.5298 12.77C11.3898 12.94 11.2398 12.96 10.9898 12.83C10.7398 12.71 9.9398 12.44 8.9998 11.6C8.2598 10.94 7.7698 10.13 7.6198 9.88C7.4798 9.63 7.5998 9.5 7.7298 9.37C7.8398 9.26 7.9798 9.08 8.0998 8.94C8.2198 8.8 8.2698 8.69 8.3498 8.53C8.4298 8.36 8.3898 8.22 8.3298 8.1C8.2698 7.98 7.7698 6.76 7.5698 6.26C7.3698 5.78 7.1598 5.84 7.0098 5.83H6.5298C6.3598 5.83 6.0998 5.89 5.8698 6.14C5.6498 6.39 5.0098 6.99 5.0098 8.21C5.0098 9.43 5.8998 10.61 6.0198 10.77C6.1398 10.94 7.7698 13.44 10.2498 14.51C10.8398 14.77 11.2998 14.92 11.6598 15.03C12.2498 15.22 12.7898 15.19 13.2198 15.13C13.6998 15.06 14.6898 14.53 14.8898 13.95C15.0998 13.37 15.0998 12.88 15.0298 12.77C14.9598 12.66 14.8098 12.61 14.5598 12.49Z" fill="#131010"/>
</svg>
