<svg width="1280" height="832" viewBox="0 0 1280 832" fill="none" xmlns="http://www.w3.org/2000/svg">
<mask id="mask0_10_6" style="mask-type:alpha" maskUnits="userSpaceOnUse" x="-41" y="195" width="1276" height="590">
<path d="M1198.03 198.165C1198.54 194.747 1203.46 194.747 1203.97 198.165L1204.95 204.863C1205.33 207.397 1208.5 208.328 1210.18 206.398L1214.63 201.296C1216.9 198.693 1221.05 201.358 1219.63 204.505L1216.84 210.673C1215.78 213.007 1217.94 215.505 1220.4 214.792L1226.91 212.906C1230.22 211.944 1232.27 216.428 1229.37 218.306L1223.69 221.985C1221.54 223.377 1222.01 226.649 1224.46 227.379L1230.95 229.308C1234.27 230.292 1233.56 235.172 1230.11 235.184L1223.34 235.206C1220.78 235.215 1219.4 238.222 1221.08 240.163L1225.49 245.295C1227.75 247.913 1224.52 251.639 1221.6 249.781L1215.9 246.14C1213.74 244.762 1210.96 246.55 1211.31 249.086L1212.25 255.791C1212.73 259.212 1208 260.6 1206.56 257.463L1203.72 251.314C1202.65 248.988 1199.35 248.988 1198.28 251.314L1195.44 257.463C1194 260.6 1189.27 259.212 1189.75 255.791L1190.69 249.086C1191.04 246.55 1188.26 244.762 1186.1 246.14L1180.4 249.781C1177.48 251.639 1174.25 247.913 1176.51 245.295L1180.92 240.163C1182.6 238.222 1181.22 235.215 1178.66 235.206L1171.89 235.184C1168.44 235.172 1167.73 230.292 1171.05 229.308L1177.54 227.379C1179.99 226.649 1180.46 223.377 1178.31 221.985L1172.63 218.306C1169.73 216.428 1171.78 211.944 1175.09 212.906L1181.6 214.792C1184.06 215.505 1186.22 213.007 1185.16 210.673L1182.37 204.505C1180.95 201.358 1185.1 198.693 1187.37 201.296L1191.82 206.398C1193.5 208.328 1196.67 207.397 1197.05 204.863L1198.03 198.165Z" fill="#FFFDF1"/>
<path fill-rule="evenodd" clip-rule="evenodd" d="M33.3699 748C27.6428 748 23 752.643 23 758.37C23 764.097 27.6428 768.74 33.3699 768.74H48.2423C47.4068 770.235 46.9306 771.958 46.9306 773.792C46.9306 779.519 51.5734 784.162 57.3006 784.162H104.63C110.357 784.162 115 779.519 115 773.792C115 768.065 110.357 763.422 104.63 763.422H89.7577C90.5932 761.927 91.0694 760.204 91.0694 758.37C91.0694 752.643 86.4266 748 80.6994 748H33.3699Z" fill="#FFFDF1"/>
<path d="M-35 253L-2.03554 285.964C-0.0829141 287.917 3.08291 287.917 5.03553 285.964L34.4645 256.536C36.4171 254.583 39.5829 254.583 41.5355 256.536L70.9645 285.964C72.9171 287.917 76.0829 287.917 78.0355 285.964L107.464 256.536C109.417 254.583 112.583 254.583 114.536 256.536L147.5 289.5" stroke="#FFFDF1" stroke-width="15"/>
<path d="M750.32 546.188L751.021 548.593C752.363 553.198 757.624 555.377 761.829 553.07L764.026 551.865C767.972 549.699 772.301 554.028 770.135 557.974L768.93 560.171C766.623 564.376 768.802 569.637 773.407 570.979L775.812 571.68C780.134 572.939 780.134 579.061 775.812 580.32L773.407 581.021C768.802 582.363 766.623 587.624 768.93 591.829L770.135 594.026C772.301 597.972 767.972 602.301 764.026 600.135L761.829 598.93C757.624 596.623 752.363 598.802 751.021 603.407L750.32 605.812C749.061 610.134 742.939 610.134 741.68 605.812L740.979 603.407C739.637 598.802 734.376 596.623 730.171 598.93L727.974 600.135C724.028 602.301 719.699 597.972 721.865 594.026L723.07 591.829C725.377 587.624 723.198 582.363 718.593 581.021L716.188 580.32C711.866 579.061 711.866 572.939 716.188 571.68L718.593 570.979C723.198 569.637 725.377 564.376 723.07 560.171L721.865 557.974C719.699 554.028 724.028 549.699 727.974 551.865L730.171 553.07C734.376 555.377 739.637 553.198 740.979 548.593L741.68 546.188C742.939 541.866 749.061 541.866 750.32 546.188Z" stroke="white" stroke-width="3"/>
<path d="M1196.9 703.596L1201.33 731.117C1201.58 732.679 1202.85 733.879 1204.43 734.042L1232.15 736.913C1232.36 736.934 1232.44 737.006 1232.48 737.059C1232.54 737.129 1232.6 737.247 1232.6 737.396C1232.6 737.545 1232.56 737.665 1232.5 737.739C1232.46 737.794 1232.38 737.871 1232.18 737.904L1204.66 742.33C1203.1 742.582 1201.9 743.851 1201.73 745.425L1198.86 773.152C1198.84 773.356 1198.77 773.44 1198.72 773.485C1198.65 773.544 1198.53 773.596 1198.38 773.6C1198.23 773.604 1198.11 773.559 1198.04 773.504C1197.98 773.462 1197.9 773.382 1197.87 773.18L1193.44 745.659C1193.19 744.096 1191.92 742.896 1190.35 742.733L1162.62 739.863C1162.42 739.841 1162.34 739.769 1162.29 739.716C1162.23 739.646 1162.18 739.528 1162.18 739.379C1162.17 739.23 1162.22 739.11 1162.27 739.036C1162.31 738.981 1162.39 738.904 1162.6 738.872L1190.12 734.445C1191.68 734.194 1192.88 732.925 1193.04 731.35L1195.91 703.623C1195.93 703.42 1196.01 703.335 1196.06 703.291C1196.13 703.231 1196.25 703.179 1196.4 703.175C1196.55 703.171 1196.67 703.216 1196.74 703.271C1196.79 703.313 1196.87 703.393 1196.9 703.596Z" stroke="white" stroke-width="3"/>
</mask>
<g mask="url(#mask0_10_6)">
<rect width="1249" height="809" fill="#D9D9D9"/>
</g>
</svg>
