<svg width="141" height="795" viewBox="0 0 141 795" fill="none" xmlns="http://www.w3.org/2000/svg">
<path d="M40.6133 695.219L112 713.383L112 730.619L74.5 740.287C73.7839 740.482 72.6934 740.743 71.2285 741.068C69.7637 741.394 68.1686 741.736 66.4434 742.094C64.6855 742.452 63.0417 742.777 61.5117 743.07C59.9492 743.331 58.7122 743.51 57.8008 743.607C58.7122 743.705 59.9329 743.9 61.4629 744.193C62.9928 744.454 64.6204 744.763 66.3457 745.121C68.071 745.447 69.6823 745.772 71.1797 746.098C72.6771 746.423 73.8164 746.684 74.5977 746.879L112 756.498L112 773.686L40.6133 791.898L40.6133 777.006L79.5781 767.875C80.75 767.615 82.1497 767.322 83.7773 766.996C85.4049 766.638 87.1139 766.296 88.9043 765.971C90.6621 765.613 92.3711 765.303 94.0313 765.043C95.6589 764.75 97.0749 764.538 98.2793 764.408C97.0423 764.245 95.61 764.034 93.9824 763.773C92.3223 763.513 90.6458 763.236 88.9531 762.943C87.2279 762.618 85.6328 762.292 84.168 761.967C82.7031 761.641 81.515 761.348 80.6035 761.088L40.6133 750.688L40.6133 736.381L80.6035 725.98C81.4824 725.753 82.6706 725.492 84.168 725.199C85.6328 724.874 87.2279 724.548 88.9531 724.223C90.6784 723.897 92.3711 723.604 94.0313 723.344C95.6589 723.051 97.0749 722.839 98.2793 722.709C96.6517 722.481 94.6823 722.172 92.3711 721.781C90.0273 721.358 87.6999 720.919 85.3887 720.463C83.0775 719.975 81.1406 719.551 79.5781 719.193L40.6133 710.111L40.6133 695.219ZM36.0234 672.514L51.502 672.514C54.2038 672.514 56.7754 672.611 59.2168 672.807C61.6582 672.969 63.3835 673.1 64.3926 673.197L64.3926 672.416C62.5046 671.244 60.9746 669.861 59.8027 668.266C58.6309 666.638 57.7682 664.848 57.2148 662.895C56.6615 660.941 56.3848 658.842 56.3848 656.596C56.3848 652.657 57.0846 649.223 58.4844 646.293C59.8516 643.363 62.0163 641.085 64.9785 639.457C67.9082 637.829 71.7168 637.016 76.4043 637.016L112 637.016L112 651.908L80.1152 651.908C76.209 651.908 73.263 652.624 71.2773 654.057C69.2917 655.489 68.2988 657.702 68.2988 660.697C68.2988 663.692 68.9987 666.052 70.3984 667.777C71.7656 669.503 73.8001 670.723 76.502 671.439C79.1712 672.156 82.4427 672.514 86.3164 672.514L112 672.514L112 687.406L36.0234 687.406L36.0234 672.514ZM56.2871 599.32C56.2871 591.996 57.8822 586.381 61.0723 582.475C64.2624 578.568 69.1126 576.615 75.623 576.615L112 576.615L112 587.016L104.578 589.896L104.578 590.287C106.531 591.85 108.126 593.445 109.363 595.072C110.6 596.7 111.512 598.572 112.098 600.688C112.684 602.803 112.977 605.375 112.977 608.402C112.977 611.625 112.358 614.522 111.121 617.094C109.884 619.633 107.996 621.635 105.457 623.1C102.885 624.564 99.6302 625.297 95.6914 625.297C89.8971 625.297 85.6328 623.262 82.8984 619.193C80.1315 615.124 78.6016 609.021 78.3086 600.883L78.0156 591.41L75.623 591.41C72.7585 591.41 70.6589 592.159 69.3242 593.656C67.9896 595.154 67.3223 597.237 67.3223 599.906C67.3223 602.543 67.6966 605.131 68.4453 607.67C69.194 610.209 70.138 612.748 71.2773 615.287L61.2188 620.219C59.6888 617.322 58.4844 614.083 57.6055 610.502C56.7266 606.889 56.2871 603.161 56.2871 599.32ZM86.707 591.41L86.9023 597.172C87.0326 601.99 87.8952 605.342 89.4902 607.23C91.0853 609.086 93.1849 610.014 95.7891 610.014C98.0677 610.014 99.6953 609.346 100.672 608.012C101.616 606.677 102.088 604.936 102.088 602.787C102.088 599.597 101.144 596.911 99.2559 594.73C97.3678 592.517 94.6823 591.41 91.1992 591.41L86.707 591.41ZM101.111 538.236C101.111 536.609 100.949 535.03 100.623 533.5C100.298 531.938 99.8906 530.391 99.4023 528.861L110.486 528.861C111.202 530.456 111.788 532.442 112.244 534.818C112.732 537.162 112.977 539.734 112.977 542.533C112.977 545.788 112.456 548.718 111.414 551.322C110.34 553.894 108.501 555.928 105.896 557.426C103.26 558.891 99.5977 559.623 94.9102 559.623L68.5918 559.623L68.5918 566.752L62.293 566.752L57.3125 558.549L45.7891 554.252L45.7891 544.73L57.4102 544.73L57.4102 529.447L68.5918 529.447L68.5918 544.73L94.9102 544.73C96.9935 544.73 98.556 544.145 99.5977 542.973C100.607 541.768 101.111 540.189 101.111 538.236ZM112.977 469.633C112.977 475.036 112 479.643 110.047 483.451C108.061 487.26 105.001 490.157 100.867 492.143C96.7331 494.128 91.4434 495.121 84.9981 495.121C78.3249 495.121 72.8887 493.998 68.6895 491.752C64.4577 489.473 61.349 486.332 59.3633 482.328C57.3776 478.292 56.3848 473.62 56.3848 468.314C56.3848 464.538 56.7591 461.283 57.5078 458.549C58.224 455.782 59.0866 453.373 60.0957 451.322L71.6191 455.717C70.6751 458.061 69.9102 460.242 69.3242 462.26C68.7057 464.278 68.3965 466.296 68.3965 468.314C68.3965 470.919 69.015 473.083 70.252 474.809C71.4564 476.534 73.2793 477.82 75.7207 478.666C78.1621 479.512 81.222 479.936 84.9004 479.936C88.5137 479.936 91.5085 479.48 93.8848 478.568C96.2611 477.657 98.0352 476.339 99.207 474.613C100.346 472.888 100.916 470.788 100.916 468.314C100.916 465.222 100.509 462.471 99.6953 460.063C98.849 457.654 97.6771 455.31 96.1797 453.031L108.924 453.031C110.356 455.31 111.382 457.702 112 460.209C112.651 462.683 112.977 465.824 112.977 469.633ZM56.2871 417.973C56.2871 410.648 57.8822 405.033 61.0723 401.127C64.2624 397.221 69.1126 395.268 75.6231 395.268L112 395.268L112 405.668L104.578 408.549L104.578 408.939C106.531 410.502 108.126 412.097 109.363 413.725C110.6 415.352 111.512 417.224 112.098 419.34C112.684 421.456 112.977 424.027 112.977 427.055C112.977 430.277 112.358 433.174 111.121 435.746C109.884 438.285 107.996 440.287 105.457 441.752C102.885 443.217 99.6302 443.949 95.6914 443.949C89.8971 443.949 85.6328 441.915 82.8984 437.846C80.1315 433.777 78.6016 427.673 78.3086 419.535L78.0156 410.063L75.6231 410.063C72.7585 410.063 70.6589 410.811 69.3242 412.309C67.9896 413.806 67.3223 415.889 67.3223 418.559C67.3223 421.195 67.6966 423.783 68.4453 426.322C69.194 428.861 70.138 431.4 71.2773 433.939L61.2188 438.871C59.6888 435.974 58.4844 432.735 57.6055 429.154C56.7266 425.541 56.2871 421.814 56.2871 417.973ZM86.707 410.063L86.9023 415.824C87.0326 420.642 87.8952 423.995 89.4902 425.883C91.0853 427.738 93.1849 428.666 95.7891 428.666C98.0677 428.666 99.6953 427.999 100.672 426.664C101.616 425.329 102.088 423.588 102.088 421.439C102.088 418.249 101.144 415.564 99.2559 413.383C97.3678 411.169 94.6823 410.063 91.1992 410.063L86.707 410.063ZM56.3848 348.881C56.3848 343.054 57.9798 338.367 61.1699 334.818C64.3275 331.27 69.4056 329.496 76.4043 329.496L112 329.496L112 344.389L80.1152 344.389C76.209 344.389 73.263 345.105 71.2773 346.537C69.2917 347.937 68.2988 350.15 68.2988 353.178C68.2988 357.735 69.8451 360.844 72.9375 362.504C76.03 364.164 80.4896 364.994 86.3164 364.994L112 364.994L112 379.887L57.4102 379.887L57.4102 368.51L64.3926 366.508L64.3926 365.678C62.5046 364.506 60.9746 363.057 59.8027 361.332C58.6309 359.574 57.7682 357.637 57.2148 355.521C56.6615 353.373 56.3848 351.16 56.3848 348.881ZM112 243.314L92.9082 247.514C91.7689 247.742 90.0925 248.116 87.8789 248.637C85.6328 249.158 83.2402 249.727 80.7012 250.346C78.1296 250.932 75.7533 251.485 73.5723 252.006C71.3913 252.494 69.7962 252.852 68.7871 253.08L68.7871 253.52C69.7962 253.747 71.3913 254.105 73.5723 254.594C75.7533 255.082 78.1296 255.635 80.7012 256.254C83.2728 256.84 85.6979 257.393 87.9766 257.914C90.2227 258.435 91.9316 258.826 93.1035 259.086L112 263.48L112 279.496L57.4102 295.023L57.4102 280.18L81.5801 273.881C83.2728 273.458 85.291 273.051 87.6348 272.66C89.946 272.27 92.1921 271.928 94.3731 271.635C96.5215 271.309 98.2305 271.065 99.5 270.902L99.5 270.512C98.556 270.447 97.3027 270.316 95.7402 270.121C94.1777 269.893 92.5664 269.649 90.9063 269.389C89.2135 269.096 87.6999 268.835 86.3652 268.607C84.9981 268.347 84.0703 268.152 83.582 268.021L57.4102 261.283L57.4102 244.877L83.582 238.48C84.526 238.253 86.0234 237.96 88.0742 237.602C90.125 237.211 92.2409 236.869 94.4219 236.576C96.5703 236.283 98.263 236.12 99.5 236.088L99.5 235.697C98.3932 235.567 96.7494 235.339 94.5684 235.014C92.3874 234.688 90.1087 234.314 87.7324 233.891C85.3236 233.435 83.2728 232.979 81.5801 232.523L57.4102 225.98L57.4102 211.381L112 227.104L112 243.314ZM56.3848 180.033C56.3848 174.988 57.3613 170.642 59.3145 166.996C61.235 163.35 64.0345 160.535 67.7129 158.549C71.3913 156.563 75.8835 155.57 81.1895 155.57L88.416 155.57L88.416 190.775C92.6152 190.613 95.9193 189.359 98.3281 187.016C100.704 184.639 101.893 181.352 101.893 177.152C101.893 173.669 101.535 170.479 100.818 167.582C100.102 164.685 99.028 161.706 97.5957 158.646L109.119 158.646C110.454 161.348 111.43 164.18 112.049 167.143C112.667 170.072 112.977 173.637 112.977 177.836C112.977 183.305 111.967 188.155 109.949 192.387C107.931 196.586 104.855 199.89 100.721 202.299C96.5866 204.675 91.3783 205.863 85.0957 205.863C78.7155 205.863 73.4095 204.789 69.1777 202.641C64.9134 200.46 61.7233 197.432 59.6074 193.559C57.459 189.685 56.3848 185.176 56.3848 180.033ZM66.9805 179.936C66.9805 182.833 67.9082 185.242 69.7637 187.162C71.6191 189.05 74.5326 190.141 78.5039 190.434L78.5039 169.535C76.2904 169.568 74.321 169.975 72.5957 170.756C70.8705 171.505 69.5033 172.644 68.4941 174.174C67.485 175.671 66.9805 177.592 66.9805 179.936ZM112.977 100.199C112.977 106.286 110.6 111.251 105.848 115.092C101.063 118.9 94.0475 120.805 84.8027 120.805C75.4603 120.805 68.3965 118.868 63.6113 114.994C58.7936 111.12 56.3848 106.059 56.3848 99.8086C56.3848 97.2044 56.7428 94.9095 57.459 92.9238C58.1751 90.9382 59.1354 89.2292 60.3399 87.7969C61.5443 86.332 62.8952 85.0951 64.3926 84.0859L64.3926 83.5977C63.3509 83.793 61.821 84.0371 59.8027 84.3301C57.752 84.5905 55.6524 84.7207 53.5039 84.7207L36.0234 84.7207L36.0234 69.7793L112 69.7793L112 81.2051L104.92 84.0859L104.92 84.7207C106.417 85.6647 107.785 86.8529 109.021 88.2852C110.226 89.6849 111.186 91.3613 111.902 93.3145C112.618 95.2676 112.977 97.5625 112.977 100.199ZM101.111 94.9746C101.111 90.9056 99.9069 88.041 97.4981 86.3809C95.0566 84.6882 91.3945 83.793 86.5117 83.6953L84.9004 83.6953C79.5944 83.6953 75.5417 84.5091 72.7422 86.1367C69.9102 87.7643 68.4941 90.7917 68.4941 95.2188C68.4941 98.5065 69.9102 101.078 72.7422 102.934C75.5742 104.789 79.6595 105.717 84.9981 105.717C90.3366 105.717 94.3568 104.789 97.0586 102.934C99.7604 101.046 101.111 98.3926 101.111 94.9746ZM84.6074 4.59375C89.1647 4.59375 93.2012 5.21224 96.7168 6.44922C100.232 7.65365 103.211 9.42774 105.652 11.7715C108.061 14.0827 109.884 16.8822 111.121 20.1699C112.358 23.4251 112.977 27.1035 112.977 31.2051C112.977 35.0462 112.358 38.5781 111.121 41.8008C109.884 44.9909 108.061 47.7741 105.652 50.1504C103.211 52.4941 100.232 54.3171 96.7168 55.6191C93.2012 56.8887 89.1647 57.5234 84.6074 57.5234C78.5527 57.5234 73.4258 56.4492 69.2266 54.3008C65.0274 52.1523 61.8372 49.0924 59.6563 45.1211C57.4753 41.1497 56.3848 36.4134 56.3848 30.9121C56.3848 25.8014 57.4753 21.2767 59.6563 17.3379C61.8372 13.3665 65.0274 10.2578 69.2266 8.01172C73.4258 5.73307 78.5527 4.59375 84.6074 4.59375ZM84.6074 42.3379C88.1882 42.3379 91.1992 41.9473 93.6406 41.166C96.082 40.3848 97.9212 39.1641 99.1582 37.5039C100.395 35.8438 101.014 33.679 101.014 31.0098C101.014 28.373 100.395 26.2409 99.1582 24.6133C97.9212 22.9531 96.082 21.7487 93.6406 21C91.1992 20.2188 88.1882 19.8281 84.6074 19.8281C80.9941 19.8281 77.9994 20.2188 75.6231 21C73.2142 21.7487 71.4076 22.9531 70.2031 24.6133C68.9987 26.2734 68.3965 28.4382 68.3965 31.1074C68.3965 35.0462 69.7474 37.9108 72.4492 39.7012C75.1511 41.459 79.2038 42.3379 84.6074 42.3379Z" fill="#FFDD60"/>
<mask id="path-2-outside-1_704_2687" maskUnits="userSpaceOnUse" x="29" y="5" width="81" height="793" fill="black">
<rect fill="white" x="29" y="5" width="81" height="793"/>
<path d="M35.6133 698.219L107 716.383L107 733.619L69.5 743.287C68.7839 743.482 67.6934 743.743 66.2285 744.068C64.7637 744.394 63.1686 744.736 61.4434 745.094C59.6855 745.452 58.0417 745.777 56.5117 746.07C54.9492 746.331 53.7122 746.51 52.8008 746.607C53.7122 746.705 54.9329 746.9 56.4629 747.193C57.9928 747.454 59.6204 747.763 61.3457 748.121C63.071 748.447 64.6823 748.772 66.1797 749.098C67.6771 749.423 68.8164 749.684 69.5977 749.879L107 759.498L107 776.686L35.6133 794.898L35.6133 780.006L74.5781 770.875C75.75 770.615 77.1497 770.322 78.7773 769.996C80.4049 769.638 82.1139 769.296 83.9043 768.971C85.6621 768.613 87.3711 768.303 89.0313 768.043C90.6589 767.75 92.0749 767.538 93.2793 767.408C92.0423 767.245 90.61 767.034 88.9824 766.773C87.3223 766.513 85.6458 766.236 83.9531 765.943C82.2279 765.618 80.6328 765.292 79.168 764.967C77.7031 764.641 76.515 764.348 75.6035 764.088L35.6133 753.688L35.6133 739.381L75.6035 728.98C76.4824 728.753 77.6706 728.492 79.168 728.199C80.6328 727.874 82.2279 727.548 83.9531 727.223C85.6784 726.897 87.3711 726.604 89.0313 726.344C90.6589 726.051 92.0749 725.839 93.2793 725.709C91.6517 725.481 89.6823 725.172 87.3711 724.781C85.0273 724.358 82.6999 723.919 80.3887 723.463C78.0775 722.975 76.1406 722.551 74.5781 722.193L35.6133 713.111L35.6133 698.219ZM31.0234 675.514L46.502 675.514C49.2038 675.514 51.7754 675.611 54.2168 675.807C56.6582 675.969 58.3835 676.1 59.3926 676.197L59.3926 675.416C57.5046 674.244 55.9746 672.861 54.8027 671.266C53.6309 669.638 52.7682 667.848 52.2148 665.895C51.6615 663.941 51.3848 661.842 51.3848 659.596C51.3848 655.657 52.0846 652.223 53.4844 649.293C54.8516 646.363 57.0163 644.085 59.9785 642.457C62.9082 640.829 66.7168 640.016 71.4043 640.016L107 640.016L107 654.908L75.1152 654.908C71.209 654.908 68.263 655.624 66.2773 657.057C64.2917 658.489 63.2988 660.702 63.2988 663.697C63.2988 666.692 63.9987 669.052 65.3984 670.777C66.7656 672.503 68.8001 673.723 71.502 674.439C74.1712 675.156 77.4427 675.514 81.3164 675.514L107 675.514L107 690.406L31.0234 690.406L31.0234 675.514ZM51.2871 602.32C51.2871 594.996 52.8822 589.381 56.0723 585.475C59.2624 581.568 64.1126 579.615 70.623 579.615L107 579.615L107 590.016L99.5781 592.896L99.5781 593.287C101.531 594.85 103.126 596.445 104.363 598.072C105.6 599.7 106.512 601.572 107.098 603.688C107.684 605.803 107.977 608.375 107.977 611.402C107.977 614.625 107.358 617.522 106.121 620.094C104.884 622.633 102.996 624.635 100.457 626.1C97.8854 627.564 94.6302 628.297 90.6914 628.297C84.8971 628.297 80.6328 626.262 77.8984 622.193C75.1315 618.124 73.6016 612.021 73.3086 603.883L73.0156 594.41L70.623 594.41C67.7585 594.41 65.6589 595.159 64.3242 596.656C62.9896 598.154 62.3223 600.237 62.3223 602.906C62.3223 605.543 62.6966 608.131 63.4453 610.67C64.194 613.209 65.138 615.748 66.2773 618.287L56.2188 623.219C54.6888 620.322 53.4844 617.083 52.6055 613.502C51.7266 609.889 51.2871 606.161 51.2871 602.32ZM81.707 594.41L81.9023 600.172C82.0326 604.99 82.8952 608.342 84.4902 610.23C86.0853 612.086 88.1849 613.014 90.7891 613.014C93.0677 613.014 94.6953 612.346 95.6719 611.012C96.6159 609.677 97.0879 607.936 97.0879 605.787C97.0879 602.597 96.1439 599.911 94.2559 597.73C92.3678 595.517 89.6823 594.41 86.1992 594.41L81.707 594.41ZM96.1113 541.236C96.1113 539.609 95.9486 538.03 95.623 536.5C95.2975 534.938 94.8906 533.391 94.4023 531.861L105.486 531.861C106.202 533.456 106.788 535.442 107.244 537.818C107.732 540.162 107.977 542.734 107.977 545.533C107.977 548.788 107.456 551.718 106.414 554.322C105.34 556.894 103.501 558.928 100.896 560.426C98.2598 561.891 94.5977 562.623 89.9102 562.623L63.5918 562.623L63.5918 569.752L57.293 569.752L52.3125 561.549L40.7891 557.252L40.7891 547.73L52.4102 547.73L52.4102 532.447L63.5918 532.447L63.5918 547.73L89.9102 547.73C91.9935 547.73 93.556 547.145 94.5977 545.973C95.6068 544.768 96.1113 543.189 96.1113 541.236ZM107.977 472.633C107.977 478.036 107 482.643 105.047 486.451C103.061 490.26 100.001 493.157 95.8672 495.143C91.7331 497.128 86.4434 498.121 79.9981 498.121C73.3249 498.121 67.8887 496.998 63.6895 494.752C59.4577 492.473 56.349 489.332 54.3633 485.328C52.3776 481.292 51.3848 476.62 51.3848 471.314C51.3848 467.538 51.7591 464.283 52.5078 461.549C53.224 458.782 54.0866 456.373 55.0957 454.322L66.6191 458.717C65.6751 461.061 64.9102 463.242 64.3242 465.26C63.7057 467.278 63.3965 469.296 63.3965 471.314C63.3965 473.919 64.015 476.083 65.252 477.809C66.4564 479.534 68.2793 480.82 70.7207 481.666C73.1621 482.512 76.222 482.936 79.9004 482.936C83.5137 482.936 86.5085 482.48 88.8848 481.568C91.2611 480.657 93.0352 479.339 94.207 477.613C95.3464 475.888 95.916 473.788 95.916 471.314C95.916 468.222 95.5091 465.471 94.6953 463.063C93.849 460.654 92.6771 458.31 91.1797 456.031L103.924 456.031C105.356 458.31 106.382 460.702 107 463.209C107.651 465.683 107.977 468.824 107.977 472.633ZM51.2871 420.973C51.2871 413.648 52.8822 408.033 56.0723 404.127C59.2624 400.221 64.1126 398.268 70.6231 398.268L107 398.268L107 408.668L99.5781 411.549L99.5781 411.939C101.531 413.502 103.126 415.097 104.363 416.725C105.6 418.352 106.512 420.224 107.098 422.34C107.684 424.456 107.977 427.027 107.977 430.055C107.977 433.277 107.358 436.174 106.121 438.746C104.884 441.285 102.996 443.287 100.457 444.752C97.8854 446.217 94.6302 446.949 90.6914 446.949C84.8971 446.949 80.6328 444.915 77.8984 440.846C75.1315 436.777 73.6016 430.673 73.3086 422.535L73.0156 413.063L70.6231 413.063C67.7585 413.063 65.6589 413.811 64.3242 415.309C62.9896 416.806 62.3223 418.889 62.3223 421.559C62.3223 424.195 62.6966 426.783 63.4453 429.322C64.194 431.861 65.138 434.4 66.2773 436.939L56.2188 441.871C54.6888 438.974 53.4844 435.735 52.6055 432.154C51.7266 428.541 51.2871 424.814 51.2871 420.973ZM81.707 413.063L81.9023 418.824C82.0326 423.642 82.8952 426.995 84.4902 428.883C86.0853 430.738 88.1849 431.666 90.7891 431.666C93.0677 431.666 94.6953 430.999 95.6719 429.664C96.6159 428.329 97.0879 426.588 97.0879 424.439C97.0879 421.249 96.1439 418.564 94.2559 416.383C92.3678 414.169 89.6823 413.063 86.1992 413.063L81.707 413.063ZM51.3848 351.881C51.3848 346.054 52.9798 341.367 56.1699 337.818C59.3275 334.27 64.4056 332.496 71.4043 332.496L107 332.496L107 347.389L75.1152 347.389C71.209 347.389 68.263 348.105 66.2773 349.537C64.2917 350.937 63.2988 353.15 63.2988 356.178C63.2988 360.735 64.8451 363.844 67.9375 365.504C71.03 367.164 75.4896 367.994 81.3164 367.994L107 367.994L107 382.887L52.4102 382.887L52.4102 371.51L59.3926 369.508L59.3926 368.678C57.5046 367.506 55.9746 366.057 54.8027 364.332C53.6309 362.574 52.7682 360.637 52.2148 358.521C51.6615 356.373 51.3848 354.16 51.3848 351.881ZM107 246.314L87.9082 250.514C86.7689 250.742 85.0925 251.116 82.8789 251.637C80.6328 252.158 78.2402 252.727 75.7012 253.346C73.1296 253.932 70.7533 254.485 68.5723 255.006C66.3913 255.494 64.7962 255.852 63.7871 256.08L63.7871 256.52C64.7962 256.747 66.3913 257.105 68.5723 257.594C70.7533 258.082 73.1296 258.635 75.7012 259.254C78.2728 259.84 80.6979 260.393 82.9766 260.914C85.2227 261.435 86.9316 261.826 88.1035 262.086L107 266.48L107 282.496L52.4102 298.023L52.4102 283.18L76.5801 276.881C78.2728 276.458 80.291 276.051 82.6348 275.66C84.946 275.27 87.1921 274.928 89.3731 274.635C91.5215 274.309 93.2305 274.065 94.5 273.902L94.5 273.512C93.556 273.447 92.3027 273.316 90.7402 273.121C89.1777 272.893 87.5664 272.649 85.9063 272.389C84.2135 272.096 82.6999 271.835 81.3652 271.607C79.9981 271.347 79.0703 271.152 78.582 271.021L52.4102 264.283L52.4102 247.877L78.582 241.48C79.526 241.253 81.0234 240.96 83.0742 240.602C85.125 240.211 87.2409 239.869 89.4219 239.576C91.5703 239.283 93.263 239.12 94.5 239.088L94.5 238.697C93.3932 238.567 91.7494 238.339 89.5684 238.014C87.3874 237.688 85.1087 237.314 82.7324 236.891C80.3236 236.435 78.2728 235.979 76.5801 235.523L52.4102 228.98L52.4102 214.381L107 230.104L107 246.314ZM51.3848 183.033C51.3848 177.988 52.3613 173.642 54.3145 169.996C56.235 166.35 59.0345 163.535 62.7129 161.549C66.3913 159.563 70.8835 158.57 76.1895 158.57L83.416 158.57L83.416 193.775C87.6152 193.613 90.9193 192.359 93.3281 190.016C95.7044 187.639 96.8926 184.352 96.8926 180.152C96.8926 176.669 96.5345 173.479 95.8184 170.582C95.1022 167.685 94.028 164.706 92.5957 161.646L104.119 161.646C105.454 164.348 106.43 167.18 107.049 170.143C107.667 173.072 107.977 176.637 107.977 180.836C107.977 186.305 106.967 191.155 104.949 195.387C102.931 199.586 99.8548 202.89 95.7207 205.299C91.5866 207.675 86.3783 208.863 80.0957 208.863C73.7155 208.863 68.4095 207.789 64.1777 205.641C59.9134 203.46 56.7233 200.432 54.6074 196.559C52.459 192.685 51.3848 188.176 51.3848 183.033ZM61.9805 182.936C61.9805 185.833 62.9082 188.242 64.7637 190.162C66.6191 192.05 69.5326 193.141 73.5039 193.434L73.5039 172.535C71.2904 172.568 69.321 172.975 67.5957 173.756C65.8705 174.505 64.5033 175.644 63.4941 177.174C62.485 178.671 61.9805 180.592 61.9805 182.936ZM107.977 103.199C107.977 109.286 105.6 114.251 100.848 118.092C96.0625 121.9 89.0475 123.805 79.8027 123.805C70.4603 123.805 63.3965 121.868 58.6113 117.994C53.7936 114.12 51.3848 109.059 51.3848 102.809C51.3848 100.204 51.7428 97.9095 52.459 95.9238C53.1751 93.9382 54.1354 92.2292 55.3399 90.7969C56.5443 89.332 57.8952 88.0951 59.3926 87.0859L59.3926 86.5977C58.3509 86.793 56.821 87.0371 54.8027 87.3301C52.752 87.5905 50.6524 87.7207 48.5039 87.7207L31.0234 87.7207L31.0234 72.7793L107 72.7793L107 84.2051L99.9199 87.0859L99.9199 87.7207C101.417 88.6647 102.785 89.8529 104.021 91.2852C105.226 92.6849 106.186 94.3613 106.902 96.3145C107.618 98.2676 107.977 100.563 107.977 103.199ZM96.1113 97.9746C96.1113 93.9056 94.9069 91.041 92.4981 89.3809C90.0566 87.6882 86.3945 86.793 81.5117 86.6953L79.9004 86.6953C74.5944 86.6953 70.5417 87.5091 67.7422 89.1367C64.9102 90.7643 63.4941 93.7917 63.4941 98.2188C63.4941 101.507 64.9102 104.078 67.7422 105.934C70.5742 107.789 74.6595 108.717 79.9981 108.717C85.3366 108.717 89.3568 107.789 92.0586 105.934C94.7604 104.046 96.1113 101.393 96.1113 97.9746ZM79.6074 7.59375C84.1647 7.59375 88.2012 8.21224 91.7168 9.44922C95.2324 10.6536 98.2109 12.4277 100.652 14.7715C103.061 17.0827 104.884 19.8822 106.121 23.1699C107.358 26.4251 107.977 30.1035 107.977 34.2051C107.977 38.0462 107.358 41.5781 106.121 44.8008C104.884 47.9909 103.061 50.7741 100.652 53.1504C98.2109 55.4941 95.2324 57.3171 91.7168 58.6191C88.2012 59.8887 84.1647 60.5234 79.6074 60.5234C73.5527 60.5234 68.4258 59.4492 64.2266 57.3008C60.0274 55.1523 56.8372 52.0924 54.6563 48.1211C52.4753 44.1497 51.3848 39.4134 51.3848 33.9121C51.3848 28.8014 52.4753 24.2767 54.6563 20.3379C56.8372 16.3665 60.0274 13.2578 64.2266 11.0117C68.4258 8.73307 73.5527 7.59375 79.6074 7.59375ZM79.6074 45.3379C83.1882 45.3379 86.1992 44.9473 88.6406 44.166C91.082 43.3848 92.9212 42.1641 94.1582 40.5039C95.3952 38.8438 96.0137 36.679 96.0137 34.0098C96.0137 31.373 95.3952 29.2409 94.1582 27.6133C92.9212 25.9531 91.082 24.7487 88.6406 24C86.1992 23.2188 83.1882 22.8281 79.6074 22.8281C75.9941 22.8281 72.9994 23.2188 70.6231 24C68.2142 24.7487 66.4076 25.9531 65.2031 27.6133C63.9987 29.2734 63.3965 31.4382 63.3965 34.1074C63.3965 38.0462 64.7474 40.9108 67.4492 42.7012C70.1511 44.459 74.2038 45.3379 79.6074 45.3379Z"/>
</mask>
<path d="M35.6133 698.219L107 716.383L107 733.619L69.5 743.287C68.7839 743.482 67.6934 743.743 66.2285 744.068C64.7637 744.394 63.1686 744.736 61.4434 745.094C59.6855 745.452 58.0417 745.777 56.5117 746.07C54.9492 746.331 53.7122 746.51 52.8008 746.607C53.7122 746.705 54.9329 746.9 56.4629 747.193C57.9928 747.454 59.6204 747.763 61.3457 748.121C63.071 748.447 64.6823 748.772 66.1797 749.098C67.6771 749.423 68.8164 749.684 69.5977 749.879L107 759.498L107 776.686L35.6133 794.898L35.6133 780.006L74.5781 770.875C75.75 770.615 77.1497 770.322 78.7773 769.996C80.4049 769.638 82.1139 769.296 83.9043 768.971C85.6621 768.613 87.3711 768.303 89.0313 768.043C90.6589 767.75 92.0749 767.538 93.2793 767.408C92.0423 767.245 90.61 767.034 88.9824 766.773C87.3223 766.513 85.6458 766.236 83.9531 765.943C82.2279 765.618 80.6328 765.292 79.168 764.967C77.7031 764.641 76.515 764.348 75.6035 764.088L35.6133 753.688L35.6133 739.381L75.6035 728.98C76.4824 728.753 77.6706 728.492 79.168 728.199C80.6328 727.874 82.2279 727.548 83.9531 727.223C85.6784 726.897 87.3711 726.604 89.0313 726.344C90.6589 726.051 92.0749 725.839 93.2793 725.709C91.6517 725.481 89.6823 725.172 87.3711 724.781C85.0273 724.358 82.6999 723.919 80.3887 723.463C78.0775 722.975 76.1406 722.551 74.5781 722.193L35.6133 713.111L35.6133 698.219ZM31.0234 675.514L46.502 675.514C49.2038 675.514 51.7754 675.611 54.2168 675.807C56.6582 675.969 58.3835 676.1 59.3926 676.197L59.3926 675.416C57.5046 674.244 55.9746 672.861 54.8027 671.266C53.6309 669.638 52.7682 667.848 52.2148 665.895C51.6615 663.941 51.3848 661.842 51.3848 659.596C51.3848 655.657 52.0846 652.223 53.4844 649.293C54.8516 646.363 57.0163 644.085 59.9785 642.457C62.9082 640.829 66.7168 640.016 71.4043 640.016L107 640.016L107 654.908L75.1152 654.908C71.209 654.908 68.263 655.624 66.2773 657.057C64.2917 658.489 63.2988 660.702 63.2988 663.697C63.2988 666.692 63.9987 669.052 65.3984 670.777C66.7656 672.503 68.8001 673.723 71.502 674.439C74.1712 675.156 77.4427 675.514 81.3164 675.514L107 675.514L107 690.406L31.0234 690.406L31.0234 675.514ZM51.2871 602.32C51.2871 594.996 52.8822 589.381 56.0723 585.475C59.2624 581.568 64.1126 579.615 70.623 579.615L107 579.615L107 590.016L99.5781 592.896L99.5781 593.287C101.531 594.85 103.126 596.445 104.363 598.072C105.6 599.7 106.512 601.572 107.098 603.688C107.684 605.803 107.977 608.375 107.977 611.402C107.977 614.625 107.358 617.522 106.121 620.094C104.884 622.633 102.996 624.635 100.457 626.1C97.8854 627.564 94.6302 628.297 90.6914 628.297C84.8971 628.297 80.6328 626.262 77.8984 622.193C75.1315 618.124 73.6016 612.021 73.3086 603.883L73.0156 594.41L70.623 594.41C67.7585 594.41 65.6589 595.159 64.3242 596.656C62.9896 598.154 62.3223 600.237 62.3223 602.906C62.3223 605.543 62.6966 608.131 63.4453 610.67C64.194 613.209 65.138 615.748 66.2773 618.287L56.2188 623.219C54.6888 620.322 53.4844 617.083 52.6055 613.502C51.7266 609.889 51.2871 606.161 51.2871 602.32ZM81.707 594.41L81.9023 600.172C82.0326 604.99 82.8952 608.342 84.4902 610.23C86.0853 612.086 88.1849 613.014 90.7891 613.014C93.0677 613.014 94.6953 612.346 95.6719 611.012C96.6159 609.677 97.0879 607.936 97.0879 605.787C97.0879 602.597 96.1439 599.911 94.2559 597.73C92.3678 595.517 89.6823 594.41 86.1992 594.41L81.707 594.41ZM96.1113 541.236C96.1113 539.609 95.9486 538.03 95.623 536.5C95.2975 534.938 94.8906 533.391 94.4023 531.861L105.486 531.861C106.202 533.456 106.788 535.442 107.244 537.818C107.732 540.162 107.977 542.734 107.977 545.533C107.977 548.788 107.456 551.718 106.414 554.322C105.34 556.894 103.501 558.928 100.896 560.426C98.2598 561.891 94.5977 562.623 89.9102 562.623L63.5918 562.623L63.5918 569.752L57.293 569.752L52.3125 561.549L40.7891 557.252L40.7891 547.73L52.4102 547.73L52.4102 532.447L63.5918 532.447L63.5918 547.73L89.9102 547.73C91.9935 547.73 93.556 547.145 94.5977 545.973C95.6068 544.768 96.1113 543.189 96.1113 541.236ZM107.977 472.633C107.977 478.036 107 482.643 105.047 486.451C103.061 490.26 100.001 493.157 95.8672 495.143C91.7331 497.128 86.4434 498.121 79.9981 498.121C73.3249 498.121 67.8887 496.998 63.6895 494.752C59.4577 492.473 56.349 489.332 54.3633 485.328C52.3776 481.292 51.3848 476.62 51.3848 471.314C51.3848 467.538 51.7591 464.283 52.5078 461.549C53.224 458.782 54.0866 456.373 55.0957 454.322L66.6191 458.717C65.6751 461.061 64.9102 463.242 64.3242 465.26C63.7057 467.278 63.3965 469.296 63.3965 471.314C63.3965 473.919 64.015 476.083 65.252 477.809C66.4564 479.534 68.2793 480.82 70.7207 481.666C73.1621 482.512 76.222 482.936 79.9004 482.936C83.5137 482.936 86.5085 482.48 88.8848 481.568C91.2611 480.657 93.0352 479.339 94.207 477.613C95.3464 475.888 95.916 473.788 95.916 471.314C95.916 468.222 95.5091 465.471 94.6953 463.063C93.849 460.654 92.6771 458.31 91.1797 456.031L103.924 456.031C105.356 458.31 106.382 460.702 107 463.209C107.651 465.683 107.977 468.824 107.977 472.633ZM51.2871 420.973C51.2871 413.648 52.8822 408.033 56.0723 404.127C59.2624 400.221 64.1126 398.268 70.6231 398.268L107 398.268L107 408.668L99.5781 411.549L99.5781 411.939C101.531 413.502 103.126 415.097 104.363 416.725C105.6 418.352 106.512 420.224 107.098 422.34C107.684 424.456 107.977 427.027 107.977 430.055C107.977 433.277 107.358 436.174 106.121 438.746C104.884 441.285 102.996 443.287 100.457 444.752C97.8854 446.217 94.6302 446.949 90.6914 446.949C84.8971 446.949 80.6328 444.915 77.8984 440.846C75.1315 436.777 73.6016 430.673 73.3086 422.535L73.0156 413.063L70.6231 413.063C67.7585 413.063 65.6589 413.811 64.3242 415.309C62.9896 416.806 62.3223 418.889 62.3223 421.559C62.3223 424.195 62.6966 426.783 63.4453 429.322C64.194 431.861 65.138 434.4 66.2773 436.939L56.2188 441.871C54.6888 438.974 53.4844 435.735 52.6055 432.154C51.7266 428.541 51.2871 424.814 51.2871 420.973ZM81.707 413.063L81.9023 418.824C82.0326 423.642 82.8952 426.995 84.4902 428.883C86.0853 430.738 88.1849 431.666 90.7891 431.666C93.0677 431.666 94.6953 430.999 95.6719 429.664C96.6159 428.329 97.0879 426.588 97.0879 424.439C97.0879 421.249 96.1439 418.564 94.2559 416.383C92.3678 414.169 89.6823 413.063 86.1992 413.063L81.707 413.063ZM51.3848 351.881C51.3848 346.054 52.9798 341.367 56.1699 337.818C59.3275 334.27 64.4056 332.496 71.4043 332.496L107 332.496L107 347.389L75.1152 347.389C71.209 347.389 68.263 348.105 66.2773 349.537C64.2917 350.937 63.2988 353.15 63.2988 356.178C63.2988 360.735 64.8451 363.844 67.9375 365.504C71.03 367.164 75.4896 367.994 81.3164 367.994L107 367.994L107 382.887L52.4102 382.887L52.4102 371.51L59.3926 369.508L59.3926 368.678C57.5046 367.506 55.9746 366.057 54.8027 364.332C53.6309 362.574 52.7682 360.637 52.2148 358.521C51.6615 356.373 51.3848 354.16 51.3848 351.881ZM107 246.314L87.9082 250.514C86.7689 250.742 85.0925 251.116 82.8789 251.637C80.6328 252.158 78.2402 252.727 75.7012 253.346C73.1296 253.932 70.7533 254.485 68.5723 255.006C66.3913 255.494 64.7962 255.852 63.7871 256.08L63.7871 256.52C64.7962 256.747 66.3913 257.105 68.5723 257.594C70.7533 258.082 73.1296 258.635 75.7012 259.254C78.2728 259.84 80.6979 260.393 82.9766 260.914C85.2227 261.435 86.9316 261.826 88.1035 262.086L107 266.48L107 282.496L52.4102 298.023L52.4102 283.18L76.5801 276.881C78.2728 276.458 80.291 276.051 82.6348 275.66C84.946 275.27 87.1921 274.928 89.3731 274.635C91.5215 274.309 93.2305 274.065 94.5 273.902L94.5 273.512C93.556 273.447 92.3027 273.316 90.7402 273.121C89.1777 272.893 87.5664 272.649 85.9063 272.389C84.2135 272.096 82.6999 271.835 81.3652 271.607C79.9981 271.347 79.0703 271.152 78.582 271.021L52.4102 264.283L52.4102 247.877L78.582 241.48C79.526 241.253 81.0234 240.96 83.0742 240.602C85.125 240.211 87.2409 239.869 89.4219 239.576C91.5703 239.283 93.263 239.12 94.5 239.088L94.5 238.697C93.3932 238.567 91.7494 238.339 89.5684 238.014C87.3874 237.688 85.1087 237.314 82.7324 236.891C80.3236 236.435 78.2728 235.979 76.5801 235.523L52.4102 228.98L52.4102 214.381L107 230.104L107 246.314ZM51.3848 183.033C51.3848 177.988 52.3613 173.642 54.3145 169.996C56.235 166.35 59.0345 163.535 62.7129 161.549C66.3913 159.563 70.8835 158.57 76.1895 158.57L83.416 158.57L83.416 193.775C87.6152 193.613 90.9193 192.359 93.3281 190.016C95.7044 187.639 96.8926 184.352 96.8926 180.152C96.8926 176.669 96.5345 173.479 95.8184 170.582C95.1022 167.685 94.028 164.706 92.5957 161.646L104.119 161.646C105.454 164.348 106.43 167.18 107.049 170.143C107.667 173.072 107.977 176.637 107.977 180.836C107.977 186.305 106.967 191.155 104.949 195.387C102.931 199.586 99.8548 202.89 95.7207 205.299C91.5866 207.675 86.3783 208.863 80.0957 208.863C73.7155 208.863 68.4095 207.789 64.1777 205.641C59.9134 203.46 56.7233 200.432 54.6074 196.559C52.459 192.685 51.3848 188.176 51.3848 183.033ZM61.9805 182.936C61.9805 185.833 62.9082 188.242 64.7637 190.162C66.6191 192.05 69.5326 193.141 73.5039 193.434L73.5039 172.535C71.2904 172.568 69.321 172.975 67.5957 173.756C65.8705 174.505 64.5033 175.644 63.4941 177.174C62.485 178.671 61.9805 180.592 61.9805 182.936ZM107.977 103.199C107.977 109.286 105.6 114.251 100.848 118.092C96.0625 121.9 89.0475 123.805 79.8027 123.805C70.4603 123.805 63.3965 121.868 58.6113 117.994C53.7936 114.12 51.3848 109.059 51.3848 102.809C51.3848 100.204 51.7428 97.9095 52.459 95.9238C53.1751 93.9382 54.1354 92.2292 55.3399 90.7969C56.5443 89.332 57.8952 88.0951 59.3926 87.0859L59.3926 86.5977C58.3509 86.793 56.821 87.0371 54.8027 87.3301C52.752 87.5905 50.6524 87.7207 48.5039 87.7207L31.0234 87.7207L31.0234 72.7793L107 72.7793L107 84.2051L99.9199 87.0859L99.9199 87.7207C101.417 88.6647 102.785 89.8529 104.021 91.2852C105.226 92.6849 106.186 94.3613 106.902 96.3145C107.618 98.2676 107.977 100.563 107.977 103.199ZM96.1113 97.9746C96.1113 93.9056 94.9069 91.041 92.4981 89.3809C90.0566 87.6882 86.3945 86.793 81.5117 86.6953L79.9004 86.6953C74.5944 86.6953 70.5417 87.5091 67.7422 89.1367C64.9102 90.7643 63.4941 93.7917 63.4941 98.2188C63.4941 101.507 64.9102 104.078 67.7422 105.934C70.5742 107.789 74.6595 108.717 79.9981 108.717C85.3366 108.717 89.3568 107.789 92.0586 105.934C94.7604 104.046 96.1113 101.393 96.1113 97.9746ZM79.6074 7.59375C84.1647 7.59375 88.2012 8.21224 91.7168 9.44922C95.2324 10.6536 98.2109 12.4277 100.652 14.7715C103.061 17.0827 104.884 19.8822 106.121 23.1699C107.358 26.4251 107.977 30.1035 107.977 34.2051C107.977 38.0462 107.358 41.5781 106.121 44.8008C104.884 47.9909 103.061 50.7741 100.652 53.1504C98.2109 55.4941 95.2324 57.3171 91.7168 58.6191C88.2012 59.8887 84.1647 60.5234 79.6074 60.5234C73.5527 60.5234 68.4258 59.4492 64.2266 57.3008C60.0274 55.1523 56.8372 52.0924 54.6563 48.1211C52.4753 44.1497 51.3848 39.4134 51.3848 33.9121C51.3848 28.8014 52.4753 24.2767 54.6563 20.3379C56.8372 16.3665 60.0274 13.2578 64.2266 11.0117C68.4258 8.73307 73.5527 7.59375 79.6074 7.59375ZM79.6074 45.3379C83.1882 45.3379 86.1992 44.9473 88.6406 44.166C91.082 43.3848 92.9212 42.1641 94.1582 40.5039C95.3952 38.8438 96.0137 36.679 96.0137 34.0098C96.0137 31.373 95.3952 29.2409 94.1582 27.6133C92.9212 25.9531 91.082 24.7487 88.6406 24C86.1992 23.2188 83.1882 22.8281 79.6074 22.8281C75.9941 22.8281 72.9994 23.2188 70.6231 24C68.2142 24.7487 66.4076 25.9531 65.2031 27.6133C63.9987 29.2734 63.3965 31.4382 63.3965 34.1074C63.3965 38.0462 64.7474 40.9108 67.4492 42.7012C70.1511 44.459 74.2038 45.3379 79.6074 45.3379Z" fill="#144688"/>
<path d="M35.6133 698.219L36.1065 696.281L33.6133 695.646L33.6133 698.219L35.6133 698.219ZM107 716.383L109 716.383L109 714.828L107.493 714.445L107 716.383ZM107 733.619L107.499 735.556L109 735.169L109 733.619L107 733.619ZM69.5 743.287L69.0007 741.35L68.9872 741.354L68.9738 741.358L69.5 743.287ZM61.4434 745.094L61.8426 747.054L61.8498 747.052L61.4434 745.094ZM56.5117 746.07L56.8405 748.043L56.8642 748.039L56.8879 748.035L56.5117 746.07ZM52.8008 746.607L52.5877 744.619L52.5877 748.596L52.8008 746.607ZM56.4629 747.193L56.0867 749.158L56.107 749.162L56.1273 749.165L56.4629 747.193ZM61.3457 748.121L60.9393 750.079L60.957 750.083L60.9749 750.086L61.3457 748.121ZM69.5977 749.879L70.0958 747.942L70.0827 747.939L69.5977 749.879ZM107 759.498L109 759.498L109 757.947L107.498 757.561L107 759.498ZM107 776.686L107.494 778.623L109 778.239L109 776.686L107 776.686ZM35.6133 794.898L33.6133 794.898L33.6133 797.473L36.1077 796.836L35.6133 794.898ZM35.6133 780.006L35.157 778.059L33.6133 778.42L33.6133 780.006L35.6133 780.006ZM74.5781 770.875L74.1443 768.923L74.133 768.925L74.1218 768.928L74.5781 770.875ZM78.7773 769.996L79.1696 771.957L79.1884 771.953L79.2071 771.949L78.7773 769.996ZM83.9043 768.971L84.2621 770.938L84.2828 770.935L84.3035 770.93L83.9043 768.971ZM89.0313 768.043L89.3412 770.019L89.3634 770.015L89.3856 770.011L89.0313 768.043ZM93.2793 767.408L93.4943 769.397L93.5402 765.425L93.2793 767.408ZM88.9824 766.773L89.2984 764.799L89.2924 764.798L88.9824 766.773ZM83.9531 765.943L83.5823 767.909L83.5972 767.911L83.612 767.914L83.9531 765.943ZM75.6035 764.088L76.153 762.165L76.13 762.158L76.1069 762.152L75.6035 764.088ZM35.6133 753.688L33.6133 753.688L33.6133 755.234L35.1099 755.623L35.6133 753.688ZM35.6133 739.381L35.1099 737.445L33.6133 737.834L33.6133 739.381L35.6133 739.381ZM75.6035 728.98L75.1016 727.044L75.1001 727.045L75.6035 728.98ZM79.168 728.199L79.552 730.162L79.577 730.157L79.6018 730.152L79.168 728.199ZM89.0313 726.344L89.3412 728.32L89.3634 728.316L89.3856 728.312L89.0313 726.344ZM93.2793 725.709L93.4943 727.697L93.5566 723.728L93.2793 725.709ZM87.3711 724.781L87.0157 726.749L87.0267 726.751L87.0378 726.753L87.3711 724.781ZM80.3887 723.463L79.9753 725.42L79.9885 725.422L80.0018 725.425L80.3887 723.463ZM74.5781 722.193L74.1241 724.141L74.1314 724.143L74.5781 722.193ZM35.6133 713.111L33.6133 713.111L33.6133 714.699L35.1593 715.059L35.6133 713.111ZM35.1201 700.157L106.507 718.321L107.493 714.445L36.1065 696.281L35.1201 700.157ZM105 716.383L105 733.619L109 733.619L109 716.383L105 716.383ZM106.501 731.682L69.0007 741.35L69.9993 745.224L107.499 735.556L106.501 731.682ZM68.9738 741.358C68.3054 741.54 67.253 741.792 65.7947 742.116L66.6624 746.021C68.1337 745.694 69.2623 745.425 70.0262 745.217L68.9738 741.358ZM65.7947 742.116C64.3403 742.439 62.7546 742.779 61.0369 743.135L61.8498 747.052C63.5827 746.692 65.187 746.349 66.6624 746.021L65.7947 742.116ZM61.0442 743.134C59.2929 743.491 57.6568 743.815 56.1356 744.106L56.8879 748.035C58.4266 747.74 60.0782 747.413 61.8426 747.054L61.0442 743.134ZM56.1829 744.098C54.6356 744.355 53.4425 744.527 52.5877 744.619L53.0138 748.596C53.9819 748.492 55.2629 748.306 56.8405 748.043L56.1829 744.098ZM52.5877 748.596C53.4198 748.685 54.5792 748.869 56.0867 749.158L56.839 745.229C55.2867 744.932 54.0047 744.725 53.0138 744.619L52.5877 748.596ZM56.1273 749.165C57.6306 749.421 59.2345 749.726 60.9393 750.079L61.7521 746.163C60.0064 745.801 58.355 745.487 56.7985 745.222L56.1273 749.165ZM60.9749 750.086C62.6846 750.409 64.2778 750.731 65.7548 751.052L66.6045 747.143C65.0868 746.813 63.4573 746.484 61.7165 746.156L60.9749 750.086ZM65.7548 751.052C67.2466 751.376 68.3618 751.632 69.1126 751.819L70.0827 747.939C69.271 747.736 68.1076 747.47 66.6045 747.143L65.7548 751.052ZM69.0995 751.816L106.502 761.435L107.498 757.561L70.0958 747.942L69.0995 751.816ZM105 759.498L105 776.686L109 776.686L109 759.498L105 759.498ZM106.506 774.748L35.1189 792.961L36.1077 796.836L107.494 778.623L106.506 774.748ZM37.6133 794.898L37.6133 780.006L33.6133 780.006L33.6133 794.898L37.6133 794.898ZM36.0696 781.953L75.0344 772.822L74.1218 768.928L35.157 778.059L36.0696 781.953ZM75.012 772.827C76.1659 772.571 77.5511 772.281 79.1696 771.957L78.3851 768.035C76.7484 768.362 75.3341 768.658 74.1443 768.923L75.012 772.827ZM79.2071 771.949C80.8087 771.597 82.4936 771.26 84.2621 770.938L83.5465 767.003C81.7343 767.332 80.0012 767.679 78.3476 768.043L79.2071 771.949ZM84.3035 770.93C86.0337 770.578 87.7128 770.274 89.3412 770.019L88.7213 766.067C87.0294 766.333 85.2906 766.647 83.5051 767.011L84.3035 770.93ZM89.3856 770.011C90.9823 769.724 92.3498 769.52 93.4943 769.397L93.0643 765.42C91.7999 765.556 90.3354 765.776 88.6769 766.075L89.3856 770.011ZM93.5402 765.425C92.3264 765.266 90.9131 765.057 89.2984 764.799L88.6664 768.748C90.3069 769.011 91.7583 769.225 93.0184 769.391L93.5402 765.425ZM89.2924 764.798C87.6428 764.539 85.9768 764.264 84.2942 763.973L83.612 767.914C85.3149 768.209 87.0017 768.487 88.6725 768.749L89.2924 764.798ZM84.3239 763.978C82.6163 763.656 81.0426 763.335 79.6018 763.014L78.7341 766.919C80.2231 767.25 81.8394 767.58 83.5823 767.909L84.3239 763.978ZM79.6018 763.014C78.1563 762.693 77.0109 762.41 76.153 762.165L75.0541 766.011C76.0191 766.287 77.25 766.589 78.7341 766.919L79.6018 763.014ZM76.1069 762.152L36.1167 751.752L35.1099 755.623L75.1001 766.024L76.1069 762.152ZM37.6133 753.688L37.6133 739.381L33.6133 739.381L33.6133 753.688L37.6133 753.688ZM36.1167 741.316L76.1069 730.916L75.1001 727.045L35.1099 737.445L36.1167 741.316ZM76.1054 730.916C76.928 730.703 78.0715 730.452 79.552 730.162L78.7839 726.236C77.2696 726.533 76.0368 726.802 75.1016 727.044L76.1054 730.916ZM79.6018 730.152C81.0426 729.831 82.6163 729.51 84.3239 729.188L83.5823 725.257C81.8394 725.586 80.2231 725.916 78.7341 726.247L79.6018 730.152ZM84.3239 729.188C86.0299 728.866 87.7023 728.577 89.3412 728.32L88.7213 724.368C87.0399 724.632 85.3269 724.928 83.5823 725.257L84.3239 729.188ZM89.3856 728.312C90.9823 728.025 92.3498 727.821 93.4943 727.697L93.0643 723.721C91.7999 723.857 90.3354 724.077 88.6769 724.375L89.3856 728.312ZM93.5566 723.728C91.9537 723.504 90.0041 723.198 87.7044 722.809L87.0378 726.753C89.3605 727.146 91.3497 727.458 93.002 727.69L93.5566 723.728ZM87.7265 722.813C85.3931 722.392 83.0762 721.954 80.7756 721.501L80.0018 725.425C82.3236 725.883 84.6616 726.324 87.0157 726.749L87.7265 722.813ZM80.8021 721.506C78.4973 721.019 76.5724 720.599 75.0249 720.244L74.1314 724.143C75.7088 724.504 77.6576 724.93 79.9753 725.42L80.8021 721.506ZM75.0321 720.246L36.0673 711.164L35.1593 715.059L74.1241 724.141L75.0321 720.246ZM37.6133 713.111L37.6133 698.219L33.6133 698.219L33.6133 713.111L37.6133 713.111ZM31.0234 675.514L31.0234 673.514L29.0234 673.514L29.0234 675.514L31.0234 675.514ZM54.2168 675.807L54.0573 677.8L54.0705 677.801L54.0838 677.802L54.2168 675.807ZM59.3926 676.197L59.1999 678.188L61.3926 678.4L61.3926 676.197L59.3926 676.197ZM59.3926 675.416L61.3926 675.416L61.3926 674.303L60.4473 673.717L59.3926 675.416ZM54.8027 671.266L53.1797 672.434L53.1853 672.442L53.191 672.45L54.8027 671.266ZM53.4844 649.293L55.289 650.155L55.2929 650.147L55.2967 650.139L53.4844 649.293ZM59.9785 642.457L60.9416 644.21L60.9498 644.205L59.9785 642.457ZM107 640.016L109 640.016L109 638.016L107 638.016L107 640.016ZM107 654.908L107 656.908L109 656.908L109 654.908L107 654.908ZM65.3984 670.777L66.9659 669.535L66.9588 669.526L66.9516 669.517L65.3984 670.777ZM71.502 674.439L72.0202 672.508L72.0144 672.506L71.502 674.439ZM107 675.514L109 675.514L109 673.514L107 673.514L107 675.514ZM107 690.406L107 692.406L109 692.406L109 690.406L107 690.406ZM31.0234 690.406L29.0234 690.406L29.0234 692.406L31.0234 692.406L31.0234 690.406ZM31.0234 677.514L46.502 677.514L46.502 673.514L31.0234 673.514L31.0234 677.514ZM46.502 677.514C49.1559 677.514 51.674 677.61 54.0573 677.8L54.3763 673.813C51.8767 673.613 49.2516 673.514 46.502 673.514L46.502 677.514ZM54.0838 677.802C56.5252 677.965 58.2237 678.093 59.1999 678.188L59.5852 674.207C58.5432 674.106 56.7912 673.974 54.3498 673.811L54.0838 677.802ZM61.3926 676.197L61.3926 675.416L57.3926 675.416L57.3926 676.197L61.3926 676.197ZM60.4473 673.717C58.7496 672.663 57.4178 671.447 56.4145 670.081L53.191 672.45C54.5314 674.274 56.2595 675.825 58.3379 677.115L60.4473 673.717ZM56.4258 670.097C55.3915 668.66 54.6299 667.081 54.1391 665.349L50.2906 666.44C50.9066 668.614 51.8702 670.616 53.1797 672.434L56.4258 670.097ZM54.1391 665.349C53.641 663.591 53.3848 661.677 53.3848 659.596L49.3848 659.596C49.3848 662.007 49.6819 664.292 50.2906 666.44L54.1391 665.349ZM53.3848 659.596C53.3848 655.893 54.0424 652.764 55.289 650.155L51.6798 648.431C50.1269 651.681 49.3848 655.421 49.3848 659.596L53.3848 659.596ZM55.2967 650.139C56.4758 647.612 58.3335 645.643 60.9416 644.21L59.0154 640.704C55.699 642.526 53.2273 645.114 51.672 648.447L55.2967 650.139ZM60.9498 644.205C63.4874 642.796 66.9283 642.016 71.4043 642.016L71.4043 638.016C66.5053 638.016 62.329 638.863 59.0072 640.709L60.9498 644.205ZM71.4043 642.016L107 642.016L107 638.016L71.4043 638.016L71.4043 642.016ZM105 640.016L105 654.908L109 654.908L109 640.016L105 640.016ZM107 652.908L75.1152 652.908L75.1152 656.908L107 656.908L107 652.908ZM75.1152 652.908C71.0198 652.908 67.5824 653.649 65.1073 655.435L67.4474 658.679C68.9437 657.599 71.3982 656.908 75.1152 656.908L75.1152 652.908ZM65.1073 655.435C62.4821 657.328 61.2988 660.221 61.2988 663.697L65.2988 663.697C65.2988 661.184 66.1013 659.65 67.4474 658.679L65.1073 655.435ZM61.2988 663.697C61.2988 666.991 62.0698 669.849 63.8453 672.037L66.9516 669.517C65.9276 668.255 65.2988 666.393 65.2988 663.697L61.2988 663.697ZM63.8309 672.02C65.5309 674.165 67.9842 675.576 70.9895 676.373L72.0144 672.506C69.616 671.871 68.0004 670.841 66.9659 669.535L63.8309 672.02ZM70.9837 676.371C73.8745 677.147 77.3319 677.514 81.3164 677.514L81.3164 673.514C77.5535 673.514 74.468 673.164 72.0202 672.508L70.9837 676.371ZM81.3164 677.514L107 677.514L107 673.514L81.3164 673.514L81.3164 677.514ZM105 675.514L105 690.406L109 690.406L109 675.514L105 675.514ZM107 688.406L31.0234 688.406L31.0234 692.406L107 692.406L107 688.406ZM33.0234 690.406L33.0234 675.514L29.0234 675.514L29.0234 690.406L33.0234 690.406ZM56.0723 585.475L54.5232 584.21L56.0723 585.475ZM107 579.615L109 579.615L109 577.615L107 577.615L107 579.615ZM107 590.016L107.724 591.88L109 591.385L109 590.016L107 590.016ZM99.5781 592.896L98.8544 591.032L97.5781 591.527L97.5781 592.896L99.5781 592.896ZM99.5781 593.287L97.5781 593.287L97.5781 594.248L98.3287 594.849L99.5781 593.287ZM104.363 598.072L102.771 599.282L104.363 598.072ZM106.121 620.094L107.919 620.97L107.923 620.961L106.121 620.094ZM100.457 626.1L101.447 627.837L101.456 627.832L100.457 626.1ZM77.8984 622.193L79.5585 621.078L79.5523 621.069L77.8984 622.193ZM73.3086 603.883L71.3095 603.945L71.3099 603.955L73.3086 603.883ZM73.0156 594.41L75.0147 594.348L74.9547 592.41L73.0156 592.41L73.0156 594.41ZM66.2773 618.287L67.1578 620.083L68.8934 619.232L68.1021 617.468L66.2773 618.287ZM56.2188 623.219L54.4502 624.153L55.3565 625.869L57.0992 625.015L56.2188 623.219ZM52.6055 613.502L50.6621 613.975L50.6631 613.979L52.6055 613.502ZM81.707 594.41L81.707 592.41L79.6381 592.41L79.7082 594.478L81.707 594.41ZM81.9023 600.172L83.9017 600.118L83.9012 600.104L81.9023 600.172ZM84.4902 610.23L82.9625 611.521L82.968 611.528L82.9736 611.534L84.4902 610.23ZM95.6719 611.012L97.2859 612.193L97.2954 612.18L97.3047 612.167L95.6719 611.012ZM94.2559 597.73L92.7342 599.028L92.7389 599.034L92.7437 599.039L94.2559 597.73ZM53.2871 602.32C53.2871 595.254 54.8295 590.158 57.6213 586.74L54.5232 584.21C50.9348 588.603 49.2871 594.738 49.2871 602.32L53.2871 602.32ZM57.6213 586.74C60.3265 583.427 64.5244 581.615 70.623 581.615L70.623 577.615C63.7009 577.615 58.1983 579.709 54.5232 584.21L57.6213 586.74ZM70.623 581.615L107 581.615L107 577.615L70.623 577.615L70.623 581.615ZM105 579.615L105 590.016L109 590.016L109 579.615L105 579.615ZM106.276 588.151L98.8544 591.032L100.302 594.761L107.724 591.88L106.276 588.151ZM97.5781 592.896L97.5781 593.287L101.578 593.287L101.578 592.896L97.5781 592.896ZM98.3287 594.849C100.181 596.331 101.653 597.811 102.771 599.282L105.956 596.862C104.6 595.078 102.882 593.369 100.828 591.725L98.3287 594.849ZM102.771 599.282C103.843 600.693 104.647 602.332 105.17 604.221L109.025 603.154C108.376 600.811 107.357 598.706 105.956 596.862L102.771 599.282ZM105.17 604.221C105.694 606.112 105.977 608.493 105.977 611.402L109.977 611.402C109.977 608.257 109.674 605.495 109.025 603.154L105.17 604.221ZM105.977 611.402C105.977 614.364 105.41 616.959 104.319 619.227L107.923 620.961C109.306 618.086 109.977 614.886 109.977 611.402L105.977 611.402ZM104.323 619.218C103.268 621.384 101.665 623.094 99.4576 624.367L101.456 627.832C104.327 626.176 106.5 623.882 107.919 620.97L104.323 619.218ZM99.4671 624.362C97.2808 625.607 94.3941 626.297 90.6914 626.297L90.6914 630.297C94.8664 630.297 98.49 629.522 101.447 627.837L99.4671 624.362ZM90.6914 626.297C85.4235 626.297 81.8496 624.487 79.5584 621.078L76.2384 623.309C79.416 628.037 84.3707 630.297 90.6914 630.297L90.6914 626.297ZM79.5523 621.069C77.0942 617.454 75.5947 611.793 75.3073 603.811L71.3099 603.955C71.6085 612.248 73.1689 618.795 76.2446 623.318L79.5523 621.069ZM75.3076 603.821L75.0147 594.348L71.0166 594.472L71.3095 603.945L75.3076 603.821ZM73.0156 592.41L70.623 592.41L70.623 596.41L73.0156 596.41L73.0156 592.41ZM70.623 592.41C67.4386 592.41 64.685 593.246 62.8312 595.326L65.8172 597.987C66.6327 597.072 68.0783 596.41 70.623 596.41L70.623 592.41ZM62.8312 595.326C61.0748 597.296 60.3223 599.911 60.3223 602.906L64.3223 602.906C64.3223 600.563 64.9044 599.011 65.8172 597.987L62.8312 595.326ZM60.3223 602.906C60.3223 605.735 60.7243 608.514 61.527 611.236L65.3637 610.104C64.6689 607.748 64.3223 605.351 64.3223 602.906L60.3223 602.906ZM61.527 611.236C62.3024 613.865 63.2783 616.489 64.4526 619.106L68.1021 617.468C66.9977 615.007 66.0856 612.553 65.3637 610.104L61.527 611.236ZM65.3969 616.491L55.3383 621.423L57.0992 625.015L67.1578 620.083L65.3969 616.491ZM57.9873 622.285C56.5426 619.549 55.3925 616.467 54.5478 613.025L50.6631 613.979C51.5763 617.699 52.835 621.094 54.4502 624.153L57.9873 622.285ZM54.5488 613.029C53.7088 609.576 53.2871 606.007 53.2871 602.32L49.2871 602.32C49.2871 606.315 49.7444 610.202 50.6621 613.975L54.5488 613.029ZM79.7082 594.478L79.9035 600.24L83.9012 600.104L83.7059 594.342L79.7082 594.478ZM79.9031 600.226C80.0356 605.13 80.9027 609.083 82.9625 611.521L86.018 608.94C84.8877 607.602 84.0295 604.85 83.9016 600.118L79.9031 600.226ZM82.9736 611.534C84.9755 613.863 87.6447 615.014 90.7891 615.014L90.7891 611.014C88.7251 611.014 87.1951 610.309 86.0069 608.927L82.9736 611.534ZM90.7891 615.014C93.4462 615.014 95.8021 614.221 97.2859 612.193L94.0578 609.831C93.5886 610.472 92.6893 611.014 90.7891 611.014L90.7891 615.014ZM97.3047 612.167C98.5526 610.402 99.0879 608.22 99.0879 605.787L95.0879 605.787C95.0879 607.651 94.6792 608.952 94.039 609.857L97.3047 612.167ZM99.0879 605.787C99.0879 602.171 98.0047 599.005 95.768 596.421L92.7437 599.039C94.2831 600.818 95.0879 603.023 95.0879 605.787L99.0879 605.787ZM95.7775 596.433C93.4342 593.685 90.1409 592.41 86.1992 592.41L86.1992 596.41C89.2237 596.41 91.3015 597.349 92.7342 599.028L95.7775 596.433ZM86.1992 592.41L81.707 592.41L81.707 596.41L86.1992 596.41L86.1992 592.41ZM95.623 536.5L93.6651 536.908L93.6668 536.916L95.623 536.5ZM94.4023 531.861L94.4023 529.861L91.6647 529.861L92.497 532.469L94.4023 531.861ZM105.486 531.861L107.311 531.042L106.781 529.861L105.486 529.861L105.486 531.861ZM107.244 537.818L105.28 538.195L105.283 538.211L105.286 538.226L107.244 537.818ZM106.414 554.322L108.26 555.093L108.265 555.079L108.271 555.065L106.414 554.322ZM100.896 560.426L101.868 562.174L101.881 562.167L101.893 562.16L100.896 560.426ZM63.5918 562.623L63.5918 560.623L61.5918 560.623L61.5918 562.623L63.5918 562.623ZM63.5918 569.752L63.5918 571.752L65.5918 571.752L65.5918 569.752L63.5918 569.752ZM57.293 569.752L55.5834 570.79L56.1675 571.752L57.293 571.752L57.293 569.752ZM52.3125 561.549L54.0221 560.511L53.6618 559.917L53.0113 559.675L52.3125 561.549ZM40.7891 557.252L38.7891 557.252L38.7891 558.641L40.0903 559.126L40.7891 557.252ZM40.7891 547.73L40.7891 545.73L38.7891 545.73L38.7891 547.73L40.7891 547.73ZM52.4102 547.73L52.4102 549.73L54.4102 549.73L54.4102 547.73L52.4102 547.73ZM52.4102 532.447L52.4102 530.447L50.4102 530.447L50.4102 532.447L52.4102 532.447ZM63.5918 532.447L65.5918 532.447L65.5918 530.447L63.5918 530.447L63.5918 532.447ZM63.5918 547.73L61.5918 547.73L61.5918 549.73L63.5918 549.73L63.5918 547.73ZM94.5977 545.973L96.0925 547.301L96.1119 547.28L96.1307 547.257L94.5977 545.973ZM98.1113 541.236C98.1113 539.475 97.935 537.756 97.5793 536.084L93.6668 536.916C93.9621 538.304 94.1113 539.743 94.1113 541.236L98.1113 541.236ZM97.581 536.092C97.2413 534.462 96.8168 532.849 96.3077 531.253L92.497 532.469C92.9645 533.934 93.3537 535.413 93.6651 536.908L97.581 536.092ZM94.4023 533.861L105.486 533.861L105.486 529.861L94.4023 529.861L94.4023 533.861ZM103.662 532.681C104.295 534.092 104.843 535.918 105.28 538.195L109.208 537.442C108.734 534.967 108.11 532.821 107.311 531.042L103.662 532.681ZM105.286 538.226C105.742 540.416 105.977 542.848 105.977 545.533L109.977 545.533C109.977 542.619 109.723 539.909 109.202 537.41L105.286 538.226ZM105.977 545.533C105.977 548.574 105.49 551.246 104.557 553.579L108.271 555.065C109.421 552.19 109.977 549.003 109.977 545.533L105.977 545.533ZM104.569 553.551C103.677 555.685 102.154 557.395 99.8995 558.692L101.893 562.16C104.847 560.461 107.002 558.103 108.26 555.093L104.569 553.551ZM99.9252 558.677C97.7061 559.91 94.4291 560.623 89.9102 560.623L89.9102 564.623C94.7662 564.623 98.8134 563.871 101.868 562.174L99.9252 558.677ZM89.9102 560.623L63.5918 560.623L63.5918 564.623L89.9102 564.623L89.9102 560.623ZM61.5918 562.623L61.5918 569.752L65.5918 569.752L65.5918 562.623L61.5918 562.623ZM63.5918 567.752L57.293 567.752L57.293 571.752L63.5918 571.752L63.5918 567.752ZM59.0025 568.714L54.0221 560.511L50.6029 562.587L55.5834 570.79L59.0025 568.714ZM53.0113 559.675L41.4878 555.378L40.0903 559.126L51.6137 563.423L53.0113 559.675ZM42.7891 557.252L42.7891 547.73L38.7891 547.73L38.7891 557.252L42.7891 557.252ZM40.7891 549.73L52.4102 549.73L52.4102 545.73L40.7891 545.73L40.7891 549.73ZM54.4102 547.73L54.4102 532.447L50.4102 532.447L50.4102 547.73L54.4102 547.73ZM52.4102 534.447L63.5918 534.447L63.5918 530.447L52.4102 530.447L52.4102 534.447ZM61.5918 532.447L61.5918 547.73L65.5918 547.73L65.5918 532.447L61.5918 532.447ZM63.5918 549.73L89.9102 549.73L89.9102 545.73L63.5918 545.73L63.5918 549.73ZM89.9102 549.73C92.3668 549.73 94.5571 549.029 96.0925 547.301L93.1028 544.644C92.5549 545.26 91.6202 545.73 89.9102 545.73L89.9102 549.73ZM96.1307 547.257C97.5093 545.612 98.1113 543.541 98.1113 541.236L94.1113 541.236C94.1113 542.837 93.7042 543.925 93.0646 544.688L96.1307 547.257ZM105.047 486.451L106.82 487.376L106.827 487.364L105.047 486.451ZM63.6895 494.752L62.7413 496.513L62.7462 496.516L63.6895 494.752ZM54.3633 485.328L52.5687 486.211L52.5715 486.217L54.3633 485.328ZM52.5078 461.549L54.4368 462.077L54.4405 462.064L54.444 462.05L52.5078 461.549ZM55.0957 454.322L55.8084 452.454L54.1057 451.804L53.3012 453.439L55.0957 454.322ZM66.6191 458.717L68.4743 459.464L69.2355 457.574L67.3318 456.848L66.6191 458.717ZM64.3242 465.26L66.2364 465.846L66.2408 465.832L66.2449 465.817L64.3242 465.26ZM65.252 477.809L66.8919 476.664L66.8847 476.653L66.8773 476.643L65.252 477.809ZM94.207 477.613L95.8615 478.737L95.8688 478.726L95.876 478.715L94.207 477.613ZM94.6953 463.063L96.5901 462.422L96.5862 462.411L96.5822 462.4L94.6953 463.063ZM91.1797 456.031L91.1797 454.031L87.4722 454.031L89.5083 457.13L91.1797 456.031ZM103.924 456.031L105.617 454.967L105.029 454.031L103.924 454.031L103.924 456.031ZM107 463.209L105.058 463.688L105.062 463.703L105.066 463.718L107 463.209ZM105.977 472.633C105.977 477.8 105.043 482.077 103.267 485.539L106.827 487.364C108.957 483.208 109.977 478.273 109.977 472.633L105.977 472.633ZM103.273 485.527C101.501 488.925 98.7741 491.528 95.0013 493.34L96.7331 496.945C101.229 494.786 104.621 491.594 106.82 487.376L103.273 485.527ZM95.0013 493.34C91.2239 495.154 86.2573 496.121 79.9981 496.121L79.9981 500.121C86.6294 500.121 92.2422 499.102 96.7331 496.945L95.0013 493.34ZM79.9981 496.121C73.5293 496.121 68.4488 495.03 64.6328 492.988L62.7462 496.516C67.3285 498.967 73.1204 500.121 79.9981 500.121L79.9981 496.121ZM64.6377 492.991C60.7416 490.893 57.9425 488.044 56.155 484.44L52.5715 486.217C54.7554 490.62 58.1738 494.053 62.7413 496.513L64.6377 492.991ZM56.1579 484.445C54.3295 480.729 53.3848 476.369 53.3848 471.314L49.3848 471.314C49.3848 476.872 50.4257 481.855 52.5687 486.211L56.1579 484.445ZM53.3848 471.314C53.3848 467.662 53.7479 464.593 54.4368 462.077L50.5788 461.021C49.7704 463.973 49.3848 467.415 49.3848 471.314L53.3848 471.314ZM54.444 462.05C55.1341 459.384 55.9539 457.108 56.8902 455.205L53.3012 453.439C52.2192 455.638 51.3138 458.18 50.5716 461.048L54.444 462.05ZM54.3831 456.191L65.9065 460.586L67.3318 456.848L55.8084 452.454L54.3831 456.191ZM64.764 457.97C63.7998 460.363 63.0114 462.608 62.4035 464.702L66.2449 465.817C66.8089 463.875 67.5505 461.758 68.4743 459.464L64.764 457.97ZM62.412 464.674C61.738 466.873 61.3965 469.089 61.3965 471.314L65.3965 471.314C65.3965 469.504 65.6735 467.683 66.2364 465.846L62.412 464.674ZM61.3965 471.314C61.3965 474.24 62.0953 476.838 63.6266 478.974L66.8773 476.643C65.9346 475.328 65.3965 473.597 65.3965 471.314L61.3965 471.314ZM63.612 478.953C65.1085 481.097 67.318 482.603 70.0656 483.556L71.3758 479.776C69.2406 479.036 67.8042 477.971 66.8919 476.664L63.612 478.953ZM70.0656 483.556C72.7863 484.499 76.0855 484.936 79.9004 484.936L79.9004 480.936C76.3585 480.936 73.5379 480.526 71.3758 479.776L70.0656 483.556ZM79.9004 484.936C83.6639 484.936 86.9218 484.463 89.601 483.436L88.1685 479.701C86.0951 480.496 83.3634 480.936 79.9004 480.936L79.9004 484.936ZM89.601 483.436C92.2734 482.411 94.4137 480.869 95.8615 478.737L92.5526 476.49C91.6566 477.809 90.2487 478.903 88.1685 479.701L89.601 483.436ZM95.876 478.715C97.2706 476.603 97.916 474.102 97.916 471.314L93.916 471.314C93.916 473.475 93.4221 475.173 92.5381 476.511L95.876 478.715ZM97.916 471.314C97.916 468.05 97.4868 465.077 96.5901 462.422L92.8005 463.703C93.5315 465.866 93.916 468.394 93.916 471.314L97.916 471.314ZM96.5822 462.4C95.6785 459.827 94.4317 457.338 92.8511 454.933L89.5083 457.13C90.9224 459.282 92.0194 461.48 92.8084 463.725L96.5822 462.4ZM91.1797 458.031L103.924 458.031L103.924 454.031L91.1797 454.031L91.1797 458.031ZM102.231 457.096C103.554 459.201 104.493 461.397 105.058 463.688L108.942 462.73C108.27 460.008 107.158 457.418 105.617 454.967L102.231 457.096ZM105.066 463.718C105.658 465.966 105.977 468.921 105.977 472.633L109.977 472.633C109.977 468.727 109.645 465.4 108.934 462.7L105.066 463.718ZM56.0723 404.127L54.5232 402.862L56.0723 404.127ZM107 398.268L109 398.268L109 396.268L107 396.268L107 398.268ZM107 408.668L107.724 410.532L109 410.037L109 408.668L107 408.668ZM99.5781 411.549L98.8544 409.684L97.5781 410.18L97.5781 411.549L99.5781 411.549ZM99.5781 411.939L97.5781 411.939L97.5781 412.901L98.3287 413.501L99.5781 411.939ZM104.363 416.725L102.771 417.935L104.363 416.725ZM106.121 438.746L107.919 439.622L107.923 439.613L106.121 438.746ZM100.457 444.752L101.447 446.49L101.456 446.484L100.457 444.752ZM77.8984 440.846L79.5585 439.73L79.5523 439.721L77.8984 440.846ZM73.3086 422.535L71.3095 422.597L71.3099 422.607L73.3086 422.535ZM73.0156 413.063L75.0147 413.001L74.9547 411.063L73.0156 411.063L73.0156 413.063ZM66.2773 436.939L67.1578 438.735L68.8934 437.884L68.1021 436.121L66.2773 436.939ZM56.2188 441.871L54.4502 442.805L55.3565 444.521L57.0992 443.667L56.2188 441.871ZM52.6055 432.154L50.6621 432.627L50.6631 432.631L52.6055 432.154ZM81.707 413.063L81.707 411.063L79.6381 411.063L79.7082 413.13L81.707 413.063ZM81.9023 418.824L83.9017 418.77L83.9012 418.756L81.9023 418.824ZM84.4902 428.883L82.9625 430.174L82.968 430.18L82.9736 430.187L84.4902 428.883ZM95.6719 429.664L97.2859 430.845L97.2954 430.832L97.3047 430.819L95.6719 429.664ZM94.2559 416.383L92.7342 417.681L92.7389 417.686L92.7437 417.692L94.2559 416.383ZM53.2871 420.973C53.2871 413.907 54.8295 408.811 57.6213 405.392L54.5232 402.862C50.9348 407.256 49.2871 413.39 49.2871 420.973L53.2871 420.973ZM57.6213 405.392C60.3265 402.08 64.5244 400.268 70.6231 400.268L70.6231 396.268C63.7009 396.268 58.1983 398.362 54.5232 402.862L57.6213 405.392ZM70.6231 400.268L107 400.268L107 396.268L70.6231 396.268L70.6231 400.268ZM105 398.268L105 408.668L109 408.668L109 398.268L105 398.268ZM106.276 406.803L98.8544 409.684L100.302 413.413L107.724 410.532L106.276 406.803ZM97.5781 411.549L97.5781 411.939L101.578 411.939L101.578 411.549L97.5781 411.549ZM98.3287 413.501C100.181 414.983 101.653 416.463 102.771 417.935L105.956 415.514C104.6 413.731 102.882 412.021 100.828 410.378L98.3287 413.501ZM102.771 417.935C103.843 419.346 104.647 420.984 105.17 422.874L109.025 421.806C108.376 419.464 107.357 417.359 105.956 415.514L102.771 417.935ZM105.17 422.874C105.694 424.764 105.977 427.145 105.977 430.055L109.977 430.055C109.977 426.91 109.674 424.147 109.025 421.806L105.17 422.874ZM105.977 430.055C105.977 433.016 105.41 435.611 104.319 437.879L107.923 439.613C109.306 436.738 109.977 433.538 109.977 430.055L105.977 430.055ZM104.323 437.87C103.268 440.036 101.665 441.746 99.4576 443.02L101.456 446.484C104.327 444.828 106.5 442.534 107.919 439.622L104.323 437.87ZM99.4671 443.014C97.2808 444.259 94.3941 444.949 90.6914 444.949L90.6914 448.949C94.8664 448.949 98.49 448.174 101.447 446.49L99.4671 443.014ZM90.6914 444.949C85.4236 444.949 81.8496 443.14 79.5584 439.73L76.2384 441.961C79.416 446.69 84.3707 448.949 90.6914 448.949L90.6914 444.949ZM79.5523 439.721C77.0942 436.106 75.5947 430.446 75.3073 422.463L71.3099 422.607C71.6085 430.901 73.1689 437.447 76.2446 441.97L79.5523 439.721ZM75.3076 422.473L75.0147 413.001L71.0166 413.124L71.3096 422.597L75.3076 422.473ZM73.0156 411.063L70.6231 411.063L70.6231 415.063L73.0156 415.063L73.0156 411.063ZM70.6231 411.063C67.4386 411.063 64.685 411.898 62.8312 413.978L65.8172 416.639C66.6327 415.724 68.0783 415.063 70.6231 415.063L70.6231 411.063ZM62.8312 413.978C61.0748 415.948 60.3223 418.564 60.3223 421.559L64.3223 421.559C64.3223 419.215 64.9044 417.664 65.8172 416.639L62.8312 413.978ZM60.3223 421.559C60.3223 424.388 60.7243 427.166 61.527 429.888L65.3637 428.757C64.6689 426.4 64.3223 424.003 64.3223 421.559L60.3223 421.559ZM61.527 429.888C62.3024 432.518 63.2783 435.141 64.4526 437.758L68.1021 436.121C66.9977 433.66 66.0856 431.205 65.3637 428.757L61.527 429.888ZM65.3969 435.144L55.3383 440.075L57.0992 443.667L67.1578 438.735L65.3969 435.144ZM57.9873 440.937C56.5426 438.201 55.3925 435.119 54.5478 431.678L50.6631 432.631C51.5763 436.351 52.835 439.746 54.4502 442.805L57.9873 440.937ZM54.5488 431.682C53.7088 428.228 53.2871 424.66 53.2871 420.973L49.2871 420.973C49.2871 424.968 49.7444 428.854 50.6621 432.627L54.5488 431.682ZM79.7082 413.13L79.9035 418.892L83.9012 418.756L83.7059 412.995L79.7082 413.13ZM79.9031 418.878C80.0356 423.782 80.9027 427.735 82.9625 430.174L86.018 427.592C84.8877 426.254 84.0295 423.502 83.9016 418.77L79.9031 418.878ZM82.9736 430.187C84.9755 432.515 87.6447 433.666 90.7891 433.666L90.7891 429.666C88.7251 429.666 87.1951 428.961 86.0069 427.579L82.9736 430.187ZM90.7891 433.666C93.4462 433.666 95.8021 432.873 97.2859 430.845L94.0578 428.483C93.5886 429.124 92.6893 429.666 90.7891 429.666L90.7891 433.666ZM97.3047 430.819C98.5526 429.055 99.0879 426.873 99.0879 424.439L95.0879 424.439C95.0879 426.303 94.6792 427.604 94.0391 428.509L97.3047 430.819ZM99.0879 424.439C99.0879 420.823 98.0047 417.658 95.768 415.074L92.7437 417.692C94.2831 419.47 95.0879 421.675 95.0879 424.439L99.0879 424.439ZM95.7775 415.085C93.4342 412.338 90.1409 411.063 86.1992 411.063L86.1992 415.063C89.2237 415.063 91.3015 416.001 92.7342 417.681L95.7775 415.085ZM86.1992 411.063L81.707 411.063L81.707 415.063L86.1992 415.063L86.1992 411.063ZM56.1699 337.818L57.6572 339.156L57.664 339.148L56.1699 337.818ZM107 332.496L109 332.496L109 330.496L107 330.496L107 332.496ZM107 347.389L107 349.389L109 349.389L109 347.389L107 347.389ZM66.2773 349.537L67.4297 351.172L67.4385 351.166L67.4474 351.159L66.2773 349.537ZM107 367.994L109 367.994L109 365.994L107 365.994L107 367.994ZM107 382.887L107 384.887L109 384.887L109 382.887L107 382.887ZM52.4102 382.887L50.4102 382.887L50.4102 384.887L52.4102 384.887L52.4102 382.887ZM52.4102 371.51L51.8589 369.587L50.4102 370.003L50.4102 371.51L52.4102 371.51ZM59.3926 369.508L59.9438 371.43L61.3926 371.015L61.3926 369.508L59.3926 369.508ZM59.3926 368.678L61.3926 368.678L61.3926 367.565L60.4473 366.978L59.3926 368.678ZM54.8027 364.332L53.1386 365.441L53.1434 365.449L53.1483 365.456L54.8027 364.332ZM52.2148 358.521L50.2781 359.02L50.2799 359.028L52.2148 358.521ZM53.3848 351.881C53.3848 346.433 54.8664 342.26 57.6572 339.156L54.6827 336.481C51.0932 340.474 49.3848 345.675 49.3848 351.881L53.3848 351.881ZM57.664 339.148C60.2916 336.195 64.7024 334.496 71.4043 334.496L71.4043 330.496C64.1088 330.496 58.3633 332.345 54.6759 336.489L57.664 339.148ZM71.4043 334.496L107 334.496L107 330.496L71.4043 330.496L71.4043 334.496ZM105 332.496L105 347.389L109 347.389L109 332.496L105 332.496ZM107 345.389L75.1152 345.389L75.1152 349.389L107 349.389L107 345.389ZM75.1152 345.389C71.0198 345.389 67.5824 346.13 65.1073 347.915L67.4474 351.159C68.9437 350.08 71.3982 349.389 75.1152 349.389L75.1152 345.389ZM65.125 347.902C62.4762 349.77 61.2988 352.68 61.2988 356.178L65.2988 356.178C65.2988 353.621 66.1072 352.104 67.4297 351.172L65.125 347.902ZM61.2988 356.178C61.2988 361.216 63.0518 365.151 66.9915 367.266L68.8835 363.742C66.6383 362.536 65.2988 360.255 65.2988 356.178L61.2988 356.178ZM66.9915 367.266C70.507 369.153 75.3519 369.994 81.3164 369.994L81.3164 365.994C75.6272 365.994 71.5529 365.175 68.8835 363.742L66.9915 367.266ZM81.3164 369.994L107 369.994L107 365.994L81.3164 365.994L81.3164 369.994ZM105 367.994L105 382.887L109 382.887L109 367.994L105 367.994ZM107 380.887L52.4102 380.887L52.4102 384.887L107 384.887L107 380.887ZM54.4102 382.887L54.4102 371.51L50.4102 371.51L50.4102 382.887L54.4102 382.887ZM52.9614 373.432L59.9438 371.43L58.8414 367.585L51.8589 369.587L52.9614 373.432ZM61.3926 369.508L61.3926 368.678L57.3926 368.678L57.3926 369.508L61.3926 369.508ZM60.4473 366.978C58.7814 365.944 57.4615 364.687 56.4572 363.208L53.1483 365.456C54.4877 367.428 56.2277 369.067 58.3379 370.377L60.4473 366.978ZM56.4668 363.223C55.4224 361.656 54.649 359.924 54.1498 358.015L50.2799 359.028C50.8875 361.351 51.8393 363.492 53.1386 365.441L56.4668 363.223ZM54.1516 358.023C53.6414 356.042 53.3848 353.996 53.3848 351.881L49.3848 351.881C49.3848 354.323 49.6816 356.705 50.2781 359.02L54.1516 358.023ZM107 246.314L107.43 248.268L109 247.922L109 246.314L107 246.314ZM87.9082 250.514L88.3004 252.475L88.3192 252.471L88.3378 252.467L87.9082 250.514ZM82.8789 251.637L83.3307 253.585L83.337 253.584L82.8789 251.637ZM75.7012 253.346L76.1455 255.296L76.16 255.292L76.1745 255.289L75.7012 253.346ZM68.5723 255.006L69.0092 256.958L69.023 256.954L69.0368 256.951L68.5723 255.006ZM63.7871 256.08L63.3466 254.129L61.7871 254.481L61.7871 256.08L63.7871 256.08ZM63.7871 256.52L61.7871 256.52L61.7871 258.118L63.3466 258.47L63.7871 256.52ZM75.7012 259.254L75.2335 261.198L75.2452 261.201L75.2569 261.204L75.7012 259.254ZM82.9766 260.914L83.4284 258.966L83.4222 258.964L82.9766 260.914ZM88.1035 262.086L88.5565 260.138L88.547 260.136L88.5374 260.134L88.1035 262.086ZM107 266.48L109 266.48L109 264.892L107.453 264.532L107 266.48ZM107 282.496L107.547 284.42L109 284.007L109 282.496L107 282.496ZM52.4102 298.023L50.4102 298.023L50.4102 300.672L52.9573 299.947L52.4102 298.023ZM52.4102 283.18L51.9058 281.244L50.4102 281.634L50.4102 283.18L52.4102 283.18ZM76.5801 276.881L76.095 274.941L76.0854 274.943L76.0757 274.945L76.5801 276.881ZM82.6348 275.66L82.9636 277.633L82.9681 277.632L82.6348 275.66ZM89.3731 274.635L89.6393 276.617L89.656 276.615L89.6727 276.612L89.3731 274.635ZM94.5 273.902L94.7543 275.886L96.5 275.662L96.5 273.902L94.5 273.902ZM94.5 273.512L96.5 273.512L96.5 271.645L94.6376 271.516L94.5 273.512ZM90.7402 273.121L90.4516 275.1L90.4719 275.103L90.4922 275.106L90.7402 273.121ZM85.9063 272.389L85.5652 274.359L85.5807 274.362L85.5963 274.365L85.9063 272.389ZM81.3652 271.607L80.991 273.572L81.0098 273.576L81.0286 273.579L81.3652 271.607ZM78.582 271.021L79.0974 269.089L79.089 269.087L79.0807 269.085L78.582 271.021ZM52.4102 264.283L50.4102 264.283L50.4102 265.833L51.9115 266.22L52.4102 264.283ZM52.4102 247.877L51.9353 245.934L50.4102 246.307L50.4102 247.877L52.4102 247.877ZM78.582 241.48L78.1128 239.536L78.1072 239.538L78.582 241.48ZM83.0742 240.602L83.4182 242.572L83.4334 242.569L83.4484 242.566L83.0742 240.602ZM89.4219 239.576L89.6881 241.558L89.6921 241.558L89.4219 239.576ZM94.5 239.088L94.5526 241.087L96.5 241.036L96.5 239.088L94.5 239.088ZM94.5 238.697L96.5 238.697L96.5 236.919L94.7337 236.711L94.5 238.697ZM82.7324 236.891L82.3606 238.856L82.3712 238.858L82.3818 238.86L82.7324 236.891ZM76.5801 235.523L76.0575 237.454L76.0601 237.455L76.5801 235.523ZM52.4102 228.98L50.4102 228.98L50.4102 230.511L51.8876 230.911L52.4102 228.98ZM52.4102 214.381L52.9637 212.459L50.4102 211.724L50.4102 214.381L52.4102 214.381ZM107 230.104L109 230.104L109 228.598L107.554 228.182L107 230.104ZM106.57 244.361L87.4786 248.56L88.3378 252.467L107.43 248.268L106.57 244.361ZM87.516 248.552C86.3427 248.787 84.6398 249.168 82.4208 249.69L83.337 253.584C85.5451 253.064 87.1951 252.696 88.3004 252.475L87.516 248.552ZM82.4271 249.688C80.173 250.211 77.7732 250.783 75.2278 251.403L76.1745 255.289C78.7073 254.672 81.0927 254.104 83.3307 253.585L82.4271 249.688ZM75.2569 251.396C72.6796 251.983 70.2965 252.538 68.1077 253.061L69.0368 256.951C71.21 256.432 73.5795 255.88 76.1455 255.296L75.2569 251.396ZM68.1353 253.054C65.9542 253.542 64.3576 253.901 63.3466 254.129L64.2276 258.031C65.2348 257.804 66.8284 257.446 69.0092 256.958L68.1353 253.054ZM61.7871 256.08L61.7871 256.52L65.7871 256.52L65.7871 256.08L61.7871 256.08ZM63.3466 258.47C64.3576 258.699 65.9542 259.057 68.1353 259.545L69.0092 255.642C66.8284 255.154 65.2348 254.796 64.2276 254.569L63.3466 258.47ZM68.1353 259.545C70.3044 260.031 72.6703 260.582 75.2335 261.198L76.1689 257.309C73.5888 256.689 71.2021 256.133 69.0092 255.642L68.1353 259.545ZM75.2569 261.204C77.8281 261.79 80.2528 262.343 82.5309 262.864L83.4222 258.964C81.1431 258.443 78.7175 257.89 76.1455 257.304L75.2569 261.204ZM82.5248 262.862C84.7725 263.384 86.4886 263.776 87.6697 264.038L88.5374 260.134C87.3747 259.875 85.6728 259.486 83.4284 258.966L82.5248 262.862ZM87.6505 264.034L106.547 268.428L107.453 264.532L88.5565 260.138L87.6505 264.034ZM105 266.48L105 282.496L109 282.496L109 266.48L105 266.48ZM106.453 280.572L51.863 296.1L52.9573 299.947L107.547 284.42L106.453 280.572ZM54.4102 298.023L54.4102 283.18L50.4102 283.18L50.4102 298.023L54.4102 298.023ZM52.9145 285.115L77.0844 278.816L76.0757 274.945L51.9058 281.244L52.9145 285.115ZM77.0652 278.821C78.6916 278.415 80.655 278.018 82.9636 277.633L82.306 273.687C79.9271 274.084 77.854 274.501 76.095 274.941L77.0652 278.821ZM82.9681 277.632C85.2584 277.245 87.4821 276.907 89.6393 276.617L89.1068 272.653C86.902 272.949 84.6335 273.294 82.3015 273.688L82.9681 277.632ZM89.6727 276.612C91.8148 276.288 93.5067 276.046 94.7543 275.886L94.2457 271.919C92.9542 272.084 91.2281 272.331 89.0734 272.657L89.6727 276.612ZM96.5 273.902L96.5 273.512L92.5 273.512L92.5 273.902L96.5 273.902ZM94.6376 271.516C93.7466 271.455 92.5347 271.33 90.9883 271.137L90.4922 275.106C92.0708 275.303 93.3654 275.438 94.3624 275.507L94.6376 271.516ZM91.0289 271.142C89.4739 270.915 87.8697 270.672 86.2162 270.413L85.5963 274.365C87.2631 274.626 88.8816 274.871 90.4516 275.1L91.0289 271.142ZM86.2473 270.418C84.5535 270.125 83.0383 269.864 81.7018 269.636L81.0286 273.579C82.3614 273.806 83.8736 274.067 85.5652 274.359L86.2473 270.418ZM81.7395 269.643C80.365 269.381 79.5056 269.198 79.0974 269.089L78.0667 272.954C78.635 273.106 79.6311 273.313 80.991 273.572L81.7395 269.643ZM79.0807 269.085L52.9088 262.346L51.9115 266.22L78.0834 272.958L79.0807 269.085ZM54.4102 264.283L54.4102 247.877L50.4102 247.877L50.4102 264.283L54.4102 264.283ZM52.885 249.82L79.0569 243.423L78.1072 239.538L51.9353 245.934L52.885 249.82ZM79.0513 243.425C79.9292 243.213 81.3733 242.929 83.4182 242.572L82.7302 238.631C80.6736 238.99 79.1229 239.292 78.1128 239.536L79.0513 243.425ZM83.4484 242.566C85.4615 242.183 87.5414 241.847 89.6881 241.558L89.1556 237.594C86.9404 237.892 84.7885 238.239 82.7 238.637L83.4484 242.566ZM89.6921 241.558C91.8133 241.269 93.4229 241.117 94.5526 241.087L94.4474 237.089C93.1032 237.124 91.3273 237.298 89.1517 237.594L89.6921 241.558ZM96.5 239.088L96.5 238.697L92.5 238.697L92.5 239.088L96.5 239.088ZM94.7337 236.711C93.6588 236.585 92.0398 236.36 89.8636 236.036L89.2731 239.992C91.4589 240.318 93.1277 240.55 94.2663 240.684L94.7337 236.711ZM89.8636 236.036C87.7028 235.713 85.4427 235.342 83.0831 234.922L82.3818 238.86C84.7748 239.286 87.072 239.663 89.2731 239.992L89.8636 236.036ZM83.1042 234.925C80.7272 234.476 78.7289 234.031 77.1 233.592L76.0601 237.455C77.8167 237.928 79.9199 238.394 82.3606 238.856L83.1042 234.925ZM77.1027 233.593L52.9328 227.05L51.8876 230.911L76.0575 237.454L77.1027 233.593ZM54.4102 228.98L54.4102 214.381L50.4102 214.381L50.4102 228.98L54.4102 228.98ZM51.8566 216.303L106.446 232.025L107.554 228.182L52.9637 212.459L51.8566 216.303ZM105 230.104L105 246.314L109 246.314L109 230.104L105 230.104ZM54.3145 169.996L56.0775 170.941L56.084 170.928L54.3145 169.996ZM62.7129 161.549L63.663 163.309L62.7129 161.549ZM83.416 158.57L85.416 158.57L85.416 156.57L83.416 156.57L83.416 158.57ZM83.416 193.775L81.416 193.775L81.416 195.854L83.4935 195.774L83.416 193.775ZM93.3281 190.016L94.7228 191.449L94.7327 191.44L94.7423 191.43L93.3281 190.016ZM92.5957 161.646L92.5957 159.646L89.4513 159.646L90.7843 162.494L92.5957 161.646ZM104.119 161.646L105.912 160.761L105.362 159.646L104.119 159.646L104.119 161.646ZM107.049 170.143L105.091 170.551L105.092 170.556L107.049 170.143ZM104.949 195.387L106.752 196.253L106.754 196.248L104.949 195.387ZM95.7207 205.299L96.7174 207.033L96.7276 207.027L95.7207 205.299ZM64.1777 205.641L63.267 207.421L63.2724 207.424L64.1777 205.641ZM54.6074 196.559L56.3627 195.6L56.3564 195.589L54.6074 196.559ZM64.7637 190.162L63.3253 191.552L63.3312 191.558L63.3372 191.564L64.7637 190.162ZM73.5039 193.434L73.3568 195.428L75.5039 195.587L75.5039 193.434L73.5039 193.434ZM73.5039 172.535L75.5039 172.535L75.5039 170.506L73.4745 170.535L73.5039 172.535ZM67.5957 173.756L68.3919 175.591L68.4064 175.584L68.4207 175.578L67.5957 173.756ZM63.4941 177.174L65.1527 178.292L65.1582 178.283L65.1637 178.275L63.4941 177.174ZM53.3848 183.033C53.3848 178.245 54.3106 174.239 56.0774 170.941L52.5515 169.052C50.4121 173.045 49.3848 177.73 49.3848 183.033L53.3848 183.033ZM56.084 170.928C57.8167 167.639 60.3284 165.109 63.663 163.309L61.7628 159.789C57.7406 161.96 54.6533 165.062 52.545 169.064L56.084 170.928ZM63.663 163.309C66.9812 161.518 71.1278 160.57 76.1895 160.57L76.1895 156.57C70.6391 156.57 65.8014 157.609 61.7628 159.789L63.663 163.309ZM76.1895 160.57L83.416 160.57L83.416 156.57L76.1895 156.57L76.1895 160.57ZM81.416 158.57L81.416 193.775L85.416 193.775L85.416 158.57L81.416 158.57ZM83.4935 195.774C88.058 195.597 91.8773 194.218 94.7228 191.449L91.9334 188.582C89.9612 190.501 87.1725 191.628 83.3386 191.777L83.4935 195.774ZM94.7423 191.43C97.5822 188.59 98.8926 184.742 98.8926 180.152L94.8926 180.152C94.8926 183.961 93.8267 186.689 91.9139 188.601L94.7423 191.43ZM98.8926 180.152C98.8926 176.534 98.5207 173.18 97.7599 170.102L93.8768 171.062C94.5483 173.779 94.8926 176.805 94.8926 180.152L98.8926 180.152ZM97.7599 170.102C97.0087 167.063 95.8876 163.961 94.4071 160.799L90.7843 162.494C92.1684 165.451 93.1957 168.307 93.8768 171.062L97.7599 170.102ZM92.5957 163.646L104.119 163.646L104.119 159.646L92.5957 159.646L92.5957 163.646ZM102.326 162.532C103.586 165.082 104.507 167.754 105.091 170.551L109.007 169.734C108.354 166.607 107.322 163.615 105.912 160.761L102.326 162.532ZM105.092 170.556C105.673 173.307 105.977 176.725 105.977 180.836L109.977 180.836C109.977 176.549 109.662 172.837 109.006 169.729L105.092 170.556ZM105.977 180.836C105.977 186.056 105.014 190.604 103.144 194.526L106.754 196.248C108.921 191.706 109.977 186.553 109.977 180.836L105.977 180.836ZM103.147 194.52C101.306 198.349 98.5124 201.357 94.7138 203.571L96.7276 207.027C101.197 204.423 104.556 200.823 106.752 196.253L103.147 194.52ZM94.724 203.565C90.9746 205.72 86.1363 206.863 80.0957 206.863L80.0957 210.863C86.6203 210.863 92.1986 209.63 96.7174 207.033L94.724 203.565ZM80.0957 206.863C73.9267 206.863 68.9548 205.823 65.0831 203.857L63.2724 207.424C67.8643 209.755 73.5043 210.863 80.0957 210.863L80.0957 206.863ZM65.0884 203.86C61.1499 201.846 58.2695 199.091 56.3627 195.6L52.8522 197.517C55.1772 201.774 58.677 205.074 63.267 207.421L65.0884 203.86ZM56.3564 195.589C54.3974 192.056 53.3848 187.892 53.3848 183.033L49.3848 183.033C49.3848 188.461 50.5206 193.313 52.8584 197.529L56.3564 195.589ZM59.9805 182.936C59.9805 186.303 61.0774 189.225 63.3253 191.552L66.2021 188.772C64.7391 187.258 63.9805 185.362 63.9805 182.936L59.9805 182.936ZM63.3372 191.564C65.6689 193.937 69.1377 195.117 73.3568 195.428L73.6511 191.439C69.9274 191.164 67.5694 190.164 66.1901 188.76L63.3372 191.564ZM75.5039 193.434L75.5039 172.535L71.5039 172.535L71.5039 193.434L75.5039 193.434ZM73.4745 170.535C71.0322 170.571 68.7848 171.022 66.7707 171.934L68.4207 175.578C69.8572 174.927 71.5485 174.564 73.5333 174.535L73.4745 170.535ZM66.7995 171.921C64.728 172.82 63.0533 174.21 61.8246 176.073L65.1637 178.275C65.9532 177.078 67.0129 176.189 68.3919 175.591L66.7995 171.921ZM61.8356 176.056C60.5462 177.969 59.9805 180.311 59.9805 182.936L63.9805 182.936C63.9805 180.872 64.4238 179.373 65.1527 178.292L61.8356 176.056ZM100.848 118.092L102.093 119.657L102.099 119.652L102.105 119.647L100.848 118.092ZM58.6113 117.994L59.8697 116.44L59.8646 116.435L58.6113 117.994ZM55.3399 90.7969L56.8706 92.084L56.8777 92.0756L56.8847 92.0671L55.3399 90.7969ZM59.3926 87.0859L60.5103 88.7444L61.3926 88.1499L61.3926 87.0859L59.3926 87.0859ZM59.3926 86.5977L61.3926 86.5977L61.3926 84.1878L59.024 84.6319L59.3926 86.5977ZM54.8027 87.3301L55.0547 89.3141L55.0724 89.3119L55.0901 89.3093L54.8027 87.3301ZM31.0234 87.7207L29.0234 87.7207L29.0234 89.7207L31.0234 89.7207L31.0234 87.7207ZM31.0234 72.7793L31.0234 70.7793L29.0234 70.7793L29.0234 72.7793L31.0234 72.7793ZM107 72.7793L109 72.7793L109 70.7793L107 70.7793L107 72.7793ZM107 84.2051L107.754 86.0576L109 85.5505L109 84.2051L107 84.2051ZM99.9199 87.0859L99.1661 85.2334L97.9199 85.7405L97.9199 87.0859L99.9199 87.0859ZM99.9199 87.7207L97.9199 87.7207L97.9199 88.8241L98.8533 89.4125L99.9199 87.7207ZM104.021 91.2852L105.538 89.9807L105.535 89.9779L104.021 91.2852ZM92.4981 89.3809L91.3585 91.0245L91.3631 91.0277L92.4981 89.3809ZM81.5117 86.6953L81.5517 84.6957L81.5317 84.6953L81.5117 84.6953L81.5117 86.6953ZM67.7422 89.1367L68.7388 90.8708L68.7474 90.8657L67.7422 89.1367ZM92.0586 105.934L93.1908 107.582L93.1975 107.578L93.2042 107.573L92.0586 105.934ZM105.977 103.199C105.977 108.68 103.875 113.073 99.5905 116.536L102.105 119.647C107.325 115.428 109.977 109.893 109.977 103.199L105.977 103.199ZM99.6022 116.527C95.312 119.942 88.816 121.805 79.8027 121.805L79.8027 125.805C89.279 125.805 96.8131 123.859 102.093 119.657L99.6022 116.527ZM79.8027 121.805C70.692 121.805 64.1556 119.909 59.8697 116.44L57.3529 119.549C62.6374 123.826 70.2286 125.805 79.8027 125.805L79.8027 121.805ZM59.8646 116.435C55.525 112.946 53.3848 108.461 53.3848 102.809L49.3848 102.809C49.3848 109.657 52.0622 115.295 57.3581 119.553L59.8646 116.435ZM53.3848 102.809C53.3848 100.384 53.7186 98.3263 54.3404 96.6024L50.5776 95.2453C49.7671 97.4927 49.3848 100.025 49.3848 102.809L53.3848 102.809ZM54.3404 96.6024C54.9866 94.8105 55.8362 93.3142 56.8706 92.084L53.8091 89.5097C52.4347 91.1442 51.3637 93.0658 50.5776 95.2453L54.3404 96.6024ZM56.8847 92.0671C57.9725 90.7441 59.1812 89.6401 60.5103 88.7444L58.2749 85.4274C56.6092 86.5499 55.1161 87.9199 53.795 89.5267L56.8847 92.0671ZM61.3926 87.0859L61.3926 86.5977L57.3926 86.5977L57.3926 87.0859L61.3926 87.0859ZM59.024 84.6319C58.0237 84.8195 56.5264 85.0589 54.5154 85.3508L55.0901 89.3093C57.1156 89.0153 58.6781 88.7665 59.7612 88.5634L59.024 84.6319ZM54.5508 85.346C52.5868 85.5954 50.5714 85.7207 48.5039 85.7207L48.5039 89.7207C50.7333 89.7207 52.9171 89.5856 55.0547 89.3141L54.5508 85.346ZM48.5039 85.7207L31.0234 85.7207L31.0234 89.7207L48.5039 89.7207L48.5039 85.7207ZM33.0234 87.7207L33.0234 72.7793L29.0234 72.7793L29.0234 87.7207L33.0234 87.7207ZM31.0234 74.7793L107 74.7793L107 70.7793L31.0234 70.7793L31.0234 74.7793ZM105 72.7793L105 84.2051L109 84.2051L109 72.7793L105 72.7793ZM106.246 82.3525L99.1661 85.2334L100.674 88.9385L107.754 86.0576L106.246 82.3525ZM97.9199 87.0859L97.9199 87.7207L101.92 87.7207L101.92 87.0859L97.9199 87.0859ZM98.8533 89.4125C100.172 90.2441 101.391 91.2994 102.508 92.5924L105.535 89.9779C104.178 88.4064 102.662 87.0853 100.987 86.0289L98.8533 89.4125ZM102.505 92.5897C103.535 93.7859 104.381 95.2469 105.025 97.003L108.78 95.6259C107.992 93.4758 106.917 91.5839 105.538 89.9807L102.505 92.5897ZM105.025 97.003C105.642 98.6854 105.977 100.737 105.977 103.199L109.977 103.199C109.977 100.388 109.595 97.8497 108.78 95.6259L105.025 97.003ZM98.1113 97.9746C98.1113 93.5266 96.7784 89.9019 93.633 87.7341L91.3631 91.0277C93.0355 92.1802 94.1113 94.2846 94.1113 97.9746L98.1113 97.9746ZM93.6376 87.7372C90.7253 85.7181 86.5991 84.7966 81.5517 84.6957L81.4717 88.6949C86.19 88.7893 89.388 89.6583 91.3585 91.0245L93.6376 87.7372ZM81.5117 84.6953L79.9004 84.6953L79.9004 88.6953L81.5117 88.6953L81.5117 84.6953ZM79.9004 84.6953C74.4428 84.6953 69.9784 85.5232 66.737 87.4077L68.7474 90.8657C71.105 89.4951 74.746 88.6953 79.9004 88.6953L79.9004 84.6953ZM66.7456 87.4027C63.078 89.5105 61.4941 93.3638 61.4941 98.2188L65.4941 98.2188C65.4941 94.2195 66.7423 92.0181 68.7388 90.8707L66.7456 87.4027ZM61.4941 98.2188C61.4941 102.205 63.2703 105.395 66.6461 107.607L68.8382 104.261C66.55 102.762 65.4941 100.808 65.4941 98.2188L61.4941 98.2188ZM66.6461 107.607C69.9417 109.766 74.4763 110.717 79.9981 110.717L79.9981 106.717C74.8427 106.717 71.2068 105.812 68.8382 104.261L66.6461 107.607ZM79.9981 110.717C85.5095 110.717 90.0057 109.77 93.1908 107.582L90.9264 104.285C88.7078 105.809 85.1637 106.717 79.9981 106.717L79.9981 110.717ZM93.2042 107.573C96.4645 105.295 98.1113 102.017 98.1113 97.9746L94.1113 97.9746C94.1113 100.768 93.0563 102.796 90.913 104.294L93.2042 107.573ZM91.7168 9.44922L91.053 11.3358L91.0608 11.3386L91.0686 11.3412L91.7168 9.44922ZM100.652 14.7715L99.2673 16.2142L99.2677 16.2147L100.652 14.7715ZM106.121 23.1699L104.249 23.8742L104.252 23.8804L106.121 23.1699ZM106.121 44.8008L107.986 45.5239L107.988 45.5175L106.121 44.8008ZM100.652 53.1504L102.037 54.5931L102.047 54.5837L102.057 54.5742L100.652 53.1504ZM91.7168 58.6191L92.3961 60.5002L92.4038 60.4975L92.4114 60.4946L91.7168 58.6191ZM54.6563 20.3379L56.4059 21.3067L56.4093 21.3006L54.6563 20.3379ZM64.2266 11.0117L65.1699 12.7753L65.1805 12.7696L64.2266 11.0117ZM94.1582 40.5039L92.5544 39.309L94.1582 40.5039ZM94.1582 27.6133L92.5544 28.8082L92.5601 28.8159L92.5659 28.8234L94.1582 27.6133ZM88.6406 24L88.0311 25.9048L88.0426 25.9086L88.0543 25.9121L88.6406 24ZM70.6231 24L71.2167 25.9099L71.2322 25.905L71.2477 25.9L70.6231 24ZM67.4492 42.7012L66.3445 44.3683L66.3515 44.373L66.3585 44.3776L67.4492 42.7012ZM79.6074 9.59375C83.9873 9.59375 87.7921 10.1885 91.053 11.3358L92.3806 7.56262C88.6102 6.23596 84.3422 5.59375 79.6074 5.59375L79.6074 9.59375ZM91.0686 11.3412C94.3361 12.4607 97.0557 14.0912 99.2673 16.2142L102.037 13.3287C99.3661 10.7643 96.1287 8.84662 92.365 7.55719L91.0686 11.3412ZM99.2677 16.2147C101.45 18.3082 103.112 20.8511 104.249 23.8742L107.993 22.4656C106.656 18.9133 104.673 15.8571 102.037 13.3283L99.2677 16.2147ZM104.252 23.8804C105.388 26.8722 105.977 30.304 105.977 34.2051L109.977 34.2051C109.977 29.9031 109.328 25.9781 107.991 22.4595L104.252 23.8804ZM105.977 34.2051C105.977 37.8287 105.394 41.1146 104.254 44.0841L107.988 45.5175C109.322 42.0417 109.977 38.2637 109.977 34.2051L105.977 34.2051ZM104.256 44.0777C103.12 47.0074 101.453 49.551 99.2478 51.7266L102.057 54.5742C104.669 51.9972 106.648 48.9744 107.986 45.5239L104.256 44.0777ZM99.2673 51.7076C97.0443 53.8417 94.3083 55.5266 91.0222 56.7437L92.4114 60.4946C96.1566 59.1075 99.3776 57.1465 102.037 54.5931L99.2673 51.7076ZM91.0375 56.738C87.7816 57.9138 83.9822 58.5234 79.6074 58.5234L79.6074 62.5234C84.3472 62.5234 88.6208 61.8635 92.3961 60.5002L91.0375 56.738ZM79.6074 58.5234C73.7823 58.5234 68.9862 57.4894 65.1375 55.5203L63.3156 59.0813C67.8653 61.4091 73.3231 62.5234 79.6074 62.5234L79.6074 58.5234ZM65.1375 55.5203C61.279 53.5461 58.3895 50.7641 56.4093 47.1584L52.9032 49.0838C55.285 53.4208 58.7757 56.7585 63.3156 59.0813L65.1375 55.5203ZM56.4093 47.1584C54.4216 43.539 53.3848 39.1484 53.3848 33.9121L49.3848 33.9121C49.3848 39.6784 50.5289 44.7605 52.9032 49.0838L56.4093 47.1584ZM53.3848 33.9121C53.3848 29.0939 54.4103 24.9109 56.4059 21.3067L52.9066 19.3691C50.5403 23.6425 49.3848 28.509 49.3848 33.9121L53.3848 33.9121ZM56.4093 21.3006C58.3939 17.6868 61.2941 14.8484 65.1699 12.7753L63.2833 9.24817C58.7606 11.6672 55.2806 15.0462 52.9032 19.3752L56.4093 21.3006ZM65.1805 12.7696C69.0188 10.6868 73.7988 9.59375 79.6074 9.59375L79.6074 5.59375C73.3067 5.59375 67.8328 6.77936 63.2727 9.25385L65.1805 12.7696ZM79.6074 47.3379C83.3195 47.3379 86.5508 46.9347 89.2502 46.0709L88.0311 42.2612C85.8476 42.9598 83.0568 43.3379 79.6074 43.3379L79.6074 47.3379ZM89.2502 46.0709C91.9931 45.1931 94.2217 43.7661 95.762 41.6989L92.5544 39.309C91.6208 40.5621 90.171 41.5764 88.0311 42.2612L89.2502 46.0709ZM95.762 41.6989C97.3221 39.605 98.0137 36.9846 98.0137 34.0098L94.0137 34.0098C94.0137 36.3735 93.4683 38.0825 92.5544 39.309L95.762 41.6989ZM98.0137 34.0098C98.0137 31.0634 97.3199 28.4681 95.7505 26.4031L92.5659 28.8234C93.4704 30.0137 94.0137 31.6827 94.0137 34.0098L98.0137 34.0098ZM95.762 26.4183C94.2164 24.3441 91.9786 22.9317 89.227 22.0879L88.0543 25.9121C90.1854 26.5657 91.626 27.5622 92.5544 28.8082L95.762 26.4183ZM89.2502 22.0952C86.5508 21.2313 83.3195 20.8281 79.6074 20.8281L79.6074 24.8281C83.0568 24.8281 85.8476 25.2062 88.0311 25.9048L89.2502 22.0952ZM79.6074 20.8281C75.8677 20.8281 72.6442 21.2302 69.9984 22.1L71.2477 25.9C73.3545 25.2073 76.1206 24.8281 79.6074 24.8281L79.6074 20.8281ZM70.0294 22.0901C67.3051 22.9369 65.0958 24.3555 63.5843 26.4388L66.822 28.7877C67.7194 27.5508 69.1233 26.5605 71.2167 25.9099L70.0294 22.0901ZM63.5843 26.4388C62.0668 28.5305 61.3965 31.1431 61.3965 34.1074L65.3965 34.1074C65.3965 31.7332 65.9306 30.0164 66.822 28.7877L63.5843 26.4388ZM61.3965 34.1074C61.3965 38.5515 62.9585 42.1246 66.3445 44.3683L68.554 41.034C66.5363 39.697 65.3965 37.5409 65.3965 34.1074L61.3965 34.1074ZM66.3585 44.3776C69.5373 46.4457 74.0508 47.3379 79.6074 47.3379L79.6074 43.3379C74.3568 43.3379 70.7648 42.4723 68.5399 41.0247L66.3585 44.3776Z" fill="black" mask="url(#path-2-outside-1_704_2687)"/>
</svg>
